<?xml version="1.0" encoding="utf-8"?>
<!-- Generator: Adobe Illustrator 19.0.0, SVG Export Plug-In . SVG Version: 6.00 Build 0)  -->
<svg version="1.1" id="图层_1" xmlns="http://www.w3.org/2000/svg" xmlns:xlink="http://www.w3.org/1999/xlink" x="0px" y="0px"
	 viewBox="-79 15.9 635 312.1" style="enable-background:new -79 15.9 635 312.1;" xml:space="preserve">
<style type="text/css">
	.st0{fill:#377DFF;}
	.st1{fill:#D1ECFF;}
	.st2{fill:none;stroke:#CDDFFF;stroke-width:2;stroke-linecap:round;stroke-linejoin:round;stroke-miterlimit:10;}
	.st3{fill:#A3D9FF;}
	.st4{fill:none;stroke:#377DFF;stroke-width:2;stroke-linecap:round;stroke-linejoin:round;stroke-miterlimit:10;}
	.st5{fill:#A3D9FF;stroke:#377DFF;stroke-width:2;stroke-miterlimit:10;}
	.st6{fill:#5490FF;}
	.st7{fill:#FFFFFF;stroke:#377DFF;stroke-width:2;stroke-miterlimit:10;}
	.st8{enable-background:new    ;}
	.st9{fill:none;stroke:#377DFF;stroke-width:2;stroke-miterlimit:10;}
	.st10{fill:#4183FF;}
	.st11{fill:none;}
	.st12{fill:#E3EEFF;}
	.st13{fill:#FFFFFF;}
	.st14{fill:#76A6EF;}
	.st15{fill:#2B77EF;}
	.st16{fill:#CDDFFF;}
	.st17{fill:#A4C4F4;}
	.st18{fill:#E1ECFF;}
	.st19{fill:#73A4FF;}
	.st20{fill:#CDDFFF;stroke:#377DFF;stroke-width:2;stroke-miterlimit:10;}
	.st21{fill:#A3D9FF;stroke:#377DFF;stroke-width:2;stroke-linecap:round;stroke-linejoin:round;stroke-miterlimit:10;}
	.st22{fill:none;stroke:#82A0F6;stroke-miterlimit:10;}
	.st23{fill:none;stroke:#82A0F6;stroke-miterlimit:10;stroke-dasharray:2.9876,2.9876;}
	.st24{fill:none;stroke:#82A0F6;stroke-miterlimit:10;stroke-dasharray:2.9728,2.9728;}
	.st25{fill:#FFFFFF;stroke:#377DFF;stroke-width:2;stroke-linecap:round;stroke-linejoin:round;stroke-miterlimit:10;}
	.st26{fill:#5D5D5D;}
</style>
<g id="XMLID_2070_">
	<g id="XMLID_2155_">
		<path id="XMLID_2205_" class="st0" d="M46.4,233.1h19.5h2.8l0,0l0,0c0.5,0,0.9,0.4,0.9,0.9l0,0c0,0.5-0.4,0.9-0.9,0.9l0,0l0,0
			h-2.8H46.4c-3.3,0-6.1,2.5-6.2,5.8c-0.2,3.5,2.6,6.3,6,6.3h86.7c3.3,0,6.1-2.5,6.2-5.8c0.2-3.5-2.6-6.3-6-6.3h-25.9h-2.3h-0.5
			c-0.5,0-0.9-0.4-0.9-0.9l0,0c0-0.5,0.4-0.9,0.9-0.9h0.5h2.3h25.7c4.7,0,8.5,3.8,8.1,8.5c-0.3,4-3.7,7.2-7.8,7.2H46.3
			c-4.1,0-7.5-3.2-7.8-7.2C38,237,41.8,233.1,46.4,233.1z"/>
		<g id="XMLID_2202_">
			<path id="XMLID_2204_" class="st1" d="M161.2,211.6c0,3.9,3.2,7.1,7.1,7.1c3.9,0,7.1-3.2,7.1-7.1v-7.4h-14.2L161.2,211.6z"/>
			<path id="XMLID_2203_" class="st0" d="M176.1,204.2h-0.7v7.4c0,3.9-3.2,7.1-7.1,7.1c-3.9,0-7.1-3.2-7.1-7.1v-7.4h-0.7h-0.7v7.4
				c0,4.7,3.8,8.5,8.5,8.5s8.5-3.8,8.5-8.5v-7.4H176.1z"/>
		</g>
		<line id="XMLID_2201_" class="st2" x1="114.4" y1="240.8" x2="66.2" y2="240.8"/>
		<line id="XMLID_2200_" class="st2" x1="63.1" y1="241" x2="59.1" y2="241"/>
		<path id="XMLID_2199_" class="st3" d="M189.5,213.9h-43.9c-1.9,0-7.7-3.5-7.7-5.4v-2.9c0-1.9,1.5-3.4,3.4-3.4h54
			c1.9,0,3.4,1.5,3.4,3.4v2.9C198.7,210.4,191.4,213.9,189.5,213.9z"/>
		<path id="XMLID_2198_" class="st4" d="M169.2,169.3h20.3c5.1,0,9.2,4.2,9.2,9.2v26.2c0,5.1-4.2,9.2-9.2,9.2h-42.3
			c-5.1,0-9.2-4.2-9.2-9.2v-26.2c0-5.1,4.2-9.2,9.2-9.2h7.1"/>
		<line id="XMLID_2197_" class="st4" x1="157.7" y1="169.3" x2="165.2" y2="169.3"/>
		<g id="XMLID_2192_">
			<g id="XMLID_2195_">
				<path id="XMLID_2196_" class="st5" d="M212.8,321.9h-89.6c-4.4,0-8-3.6-8-8v-76.5c0-4.4,3.6-8,8-8h89.6c4.4,0,8,3.6,8,8v76.5
					C220.9,318.2,217.3,321.9,212.8,321.9z"/>
			</g>
			<path id="XMLID_2194_" class="st6" d="M212.8,253.8h-89.6c-4.4,0-8-3.6-8-8v-5.6c0-4.4,3.6-8,8-8h89.6c4.4,0,8,3.6,8,8v5.6
				C220.9,250.2,217.3,253.8,212.8,253.8z"/>
			<path id="XMLID_2193_" class="st7" d="M212.8,250.9h-89.6c-4.4,0-8-3.6-8-8v-5.6c0-4.4,3.6-8,8-8h89.6c4.4,0,8,3.6,8,8v5.6
				C220.9,247.3,217.3,250.9,212.8,250.9z"/>
			<g class="st8">
				<path class="st0" d="M135,283.8v-7.7h2.2c1.2,0,2.2,0.4,3,1.1s1.2,1.6,1.2,2.7c0,1-0.4,2-1.1,2.7c-0.7,0.8-1.6,1.1-2.7,1.1H135z
					 M137.6,283c0.9,0,1.6-0.3,2.2-1c0.6-0.6,0.9-1.4,0.9-2.3c0-0.8-0.4-1.6-1-2.1c-0.6-0.6-1.4-0.9-2.3-0.9h-1.6v6.2H137.6z"/>
				<path class="st0" d="M148,283.8h-0.7v-0.9c-0.6,0.7-1.4,1-2.3,1c-0.8,0-1.5-0.3-2-0.9c-0.5-0.6-0.8-1.3-0.8-2.1
					c0-0.8,0.3-1.5,0.9-2.1c0.6-0.6,1.3-0.9,2.1-0.8c0.8,0,1.5,0.3,2,0.9c0.6,0.6,0.8,1.3,0.8,2.1v0V283.8z M142.9,280.9
					c0,0.6,0.2,1.1,0.6,1.6c0.4,0.5,0.9,0.7,1.5,0.7c0.6,0,1.2-0.2,1.6-0.6c0.4-0.5,0.7-1,0.6-1.6c0-0.6-0.2-1.1-0.6-1.5
					c-0.4-0.4-0.9-0.6-1.5-0.6c-0.6,0-1.1,0.2-1.5,0.6S142.9,280.2,142.9,280.9z"/>
				<path class="st0" d="M153.7,283c-0.6,0.6-1.3,0.9-2.1,0.8c-0.8,0-1.5-0.3-2-0.9c-0.5-0.6-0.8-1.3-0.8-2.1c0-0.8,0.3-1.5,0.9-2.1
					c0.6-0.6,1.3-0.9,2.1-0.9c0.8,0,1.5,0.3,2,0.9c0.5,0.6,0.8,1.3,0.8,2.1C154.6,281.7,154.3,282.4,153.7,283z M151.6,283.1
					c0.6,0,1.2-0.2,1.6-0.6c0.4-0.5,0.7-1,0.6-1.6c0-0.6-0.2-1.1-0.6-1.5c-0.4-0.4-0.9-0.6-1.5-0.6c-0.6,0-1.1,0.2-1.5,0.6
					c-0.4,0.4-0.6,0.9-0.6,1.5c0,0.6,0.2,1.1,0.6,1.6C150.6,282.9,151,283.1,151.6,283.1z"/>
				<path class="st0" d="M162.9,281.8c-0.7,1.3-2,2.1-3.5,2.1c-1.1,0-2-0.4-2.8-1.2c-0.8-0.8-1.2-1.7-1.2-2.8c0-1.1,0.4-2.1,1.2-2.8
					c0.8-0.8,1.7-1.1,2.8-1.1c0.8,0,1.5,0.2,2.1,0.6c0.6,0.4,1.1,0.9,1.4,1.5H162c-0.6-0.9-1.5-1.4-2.7-1.4c-0.8,0-1.6,0.3-2.2,0.9
					c-0.6,0.6-0.9,1.3-0.9,2.2c0,0.9,0.3,1.7,0.9,2.3c0.6,0.6,1.4,1,2.3,1c0.5,0,1-0.1,1.5-0.4c0.5-0.3,0.8-0.6,1.1-1H162.9z"/>
				<path class="st0" d="M167.9,283c-0.6,0.6-1.3,0.9-2.1,0.8c-0.8,0-1.5-0.3-2-0.9c-0.5-0.6-0.8-1.3-0.8-2.1c0-0.8,0.3-1.5,0.9-2.1
					c0.6-0.6,1.3-0.9,2.1-0.9c0.8,0,1.5,0.3,2,0.9c0.5,0.6,0.8,1.3,0.8,2.1C168.8,281.7,168.5,282.4,167.9,283z M165.8,283.1
					c0.6,0,1.2-0.2,1.6-0.6c0.4-0.5,0.7-1,0.6-1.6c0-0.6-0.2-1.1-0.6-1.5c-0.4-0.4-0.9-0.6-1.5-0.6c-0.6,0-1.1,0.2-1.5,0.6
					c-0.4,0.4-0.6,0.9-0.6,1.5c0,0.6,0.2,1.1,0.6,1.6C164.8,282.9,165.2,283.1,165.8,283.1z"/>
				<path class="st0" d="M170.4,277.4h-0.7v-1.3h0.7V277.4z M170.4,283.8h-0.7v-5.7h0.7V283.8z"/>
				<path class="st0" d="M176.2,283.8h-0.8v-3.3c0-0.5-0.2-0.9-0.5-1.2c-0.4-0.3-0.7-0.5-1.2-0.5s-0.9,0.2-1.2,0.5
					c-0.4,0.4-0.5,0.8-0.5,1.2v3.3h-0.8v-3.2c0-0.7,0.2-1.3,0.7-1.8c0.5-0.5,1.1-0.7,1.8-0.7c0.7,0,1.3,0.2,1.8,0.7
					c0.5,0.5,0.7,1.1,0.7,1.8V283.8z"/>
				<path class="st0" d="M190.1,283.8h-0.8V277l-2.9,6.8h-0.6l-2.9-6.8l0,6.8H182v-7.7h1.2l2.8,6.6l2.9-6.6h1.2V283.8z"/>
				<path class="st0" d="M191.7,277.4h-0.7v-1.3h0.7V277.4z M191.7,283.8h-0.7v-5.7h0.7V283.8z"/>
				<path class="st0" d="M197.5,283.8h-0.8v-3.3c0-0.5-0.2-0.9-0.5-1.2c-0.4-0.3-0.7-0.5-1.2-0.5s-0.9,0.2-1.2,0.5
					c-0.4,0.4-0.5,0.8-0.5,1.2v3.3h-0.8v-3.2c0-0.7,0.2-1.3,0.7-1.8c0.5-0.5,1.1-0.7,1.8-0.7c0.7,0,1.3,0.2,1.8,0.7
					c0.5,0.5,0.7,1.1,0.7,1.8V283.8z"/>
				<path class="st0" d="M200.4,283.9c-1.4,0-2.1-0.6-2.1-1.8v-6h0.8v2h1.3v0.7h-1.3v3.2c0,0.8,0.4,1.3,1.3,1.3V283.9z"/>
			</g>
			<g class="st8">
				<path class="st0" d="M150.5,295.8h-0.8v-7.7h2.5c0.8,0,1.4,0.2,1.9,0.7c0.5,0.5,0.7,1,0.7,1.7c0,0.6-0.2,1.1-0.7,1.6
					s-1,0.6-1.7,0.6h-1.9V295.8z M152.3,292c0.5,0,0.9-0.1,1.2-0.5c0.4-0.3,0.5-0.7,0.5-1.2c0-0.4-0.2-0.8-0.6-1.1
					c-0.4-0.3-0.8-0.4-1.2-0.4h-1.7v3.2H152.3z"/>
				<path class="st0" d="M156,295.8h-0.8v-5.7h0.7v0.8c0.2-0.3,0.4-0.5,0.7-0.7c0.3-0.1,0.6-0.2,0.9-0.2v0.8c-0.3,0-0.6,0.1-0.9,0.3
					c-0.2,0.2-0.4,0.3-0.4,0.5c-0.1,0.2-0.2,0.5-0.2,0.9V295.8z"/>
				<path class="st0" d="M163,295c-0.6,0.6-1.3,0.9-2.1,0.8c-0.8,0-1.5-0.3-2-0.9c-0.5-0.6-0.8-1.3-0.8-2.1c0-0.8,0.3-1.5,0.9-2.1
					c0.6-0.6,1.3-0.9,2.1-0.9c0.8,0,1.5,0.3,2,0.9c0.5,0.6,0.8,1.3,0.8,2.1C163.9,293.7,163.6,294.4,163,295z M160.9,295.1
					c0.6,0,1.2-0.2,1.6-0.6c0.4-0.5,0.7-1,0.6-1.6c0-0.6-0.2-1.1-0.6-1.5c-0.4-0.4-0.9-0.6-1.5-0.6c-0.6,0-1.1,0.2-1.5,0.6
					c-0.4,0.4-0.6,0.9-0.6,1.5c0,0.6,0.2,1.1,0.6,1.6C159.8,294.9,160.3,295.1,160.9,295.1z"/>
				<path class="st0" d="M170.5,294.3c-0.6,1.1-1.5,1.6-2.8,1.6c-0.8,0-1.5-0.3-2.1-0.9c-0.6-0.6-0.9-1.3-0.9-2.1
					c0-0.8,0.3-1.5,0.9-2.1c0.6-0.6,1.3-0.9,2.2-0.9c0.6,0,1.2,0.2,1.7,0.5c0.5,0.3,0.8,0.7,1.1,1.2l0.1,0.2h-0.9
					c-0.4-0.7-1.1-1.1-2-1.1c-0.6,0-1.1,0.2-1.6,0.6c-0.5,0.4-0.7,1-0.7,1.6c0,0.6,0.2,1.1,0.7,1.6c0.4,0.4,1,0.7,1.6,0.6
					c0.9,0,1.5-0.4,2-1.1h0.9L170.5,294.3z"/>
				<path class="st0" d="M176.8,293.9c-0.2,0.6-0.6,1.1-1.1,1.5s-1.1,0.5-1.7,0.5c-0.8,0-1.5-0.3-2.1-0.8c-0.6-0.6-0.9-1.3-0.9-2.1
					c0-0.8,0.3-1.6,0.9-2.2c0.6-0.6,1.4-0.9,2.2-0.9c0.8,0,1.4,0.4,2,0.9c0.5,0.6,0.8,1.2,0.8,1.9v0.4h-5.1c0.1,0.6,0.3,1,0.7,1.4
					s0.9,0.6,1.5,0.5c0.9,0,1.5-0.4,1.9-1.2H176.8z M176.2,292.5c-0.1-0.5-0.4-1-0.7-1.3c-0.4-0.3-0.9-0.5-1.4-0.5s-1,0.2-1.4,0.5
					c-0.4,0.3-0.7,0.8-0.8,1.3H176.2z"/>
				<path class="st0" d="M178.4,294.3c0,0.2,0.1,0.4,0.3,0.6c0.2,0.2,0.4,0.3,0.7,0.3c0.3,0,0.6-0.1,0.8-0.3
					c0.2-0.2,0.2-0.4,0.3-0.7c0-0.5-0.3-0.8-0.8-1l-0.7-0.2c-0.7-0.2-1.1-0.7-1.1-1.4c0-0.4,0.1-0.8,0.4-1.1
					c0.3-0.3,0.7-0.5,1.1-0.5c0.4,0,0.8,0.1,1.1,0.4c0.3,0.3,0.5,0.6,0.5,1l0,0.2h-0.8v-0.1c0-0.4-0.4-0.7-0.8-0.7
					c-0.4,0-0.8,0.3-0.8,0.8c0,0.4,0.2,0.7,0.7,0.9l0.7,0.2c0.8,0.3,1.2,0.8,1.2,1.5c0,0.5-0.1,1-0.5,1.3c-0.4,0.4-0.9,0.5-1.4,0.5
					c-0.5,0-0.9-0.2-1.2-0.6c-0.3-0.3-0.5-0.8-0.5-1.3h0.8V294.3z"/>
				<path class="st0" d="M182.7,294.3c0,0.2,0.1,0.4,0.3,0.6c0.2,0.2,0.4,0.3,0.7,0.3c0.3,0,0.6-0.1,0.8-0.3
					c0.2-0.2,0.2-0.4,0.3-0.7c0-0.5-0.3-0.8-0.8-1l-0.7-0.2c-0.7-0.2-1.1-0.7-1.1-1.4c0-0.4,0.1-0.8,0.4-1.1
					c0.3-0.3,0.7-0.5,1.1-0.5c0.4,0,0.8,0.1,1.1,0.4c0.3,0.3,0.5,0.6,0.5,1l0,0.2h-0.8v-0.1c0-0.4-0.4-0.7-0.8-0.7
					c-0.4,0-0.8,0.3-0.8,0.8c0,0.4,0.2,0.7,0.7,0.9l0.7,0.2c0.8,0.3,1.2,0.8,1.2,1.5c0,0.5-0.1,1-0.5,1.3c-0.4,0.4-0.9,0.5-1.4,0.5
					c-0.5,0-0.9-0.2-1.2-0.6c-0.3-0.3-0.5-0.8-0.5-1.3h0.8V294.3z"/>
			</g>
		</g>
		<circle id="XMLID_2191_" class="st0" cx="168.3" cy="216.9" r="0.9"/>
		<line id="XMLID_2190_" class="st9" x1="150.7" y1="213.9" x2="150.7" y2="229.2"/>
		<line id="XMLID_2189_" class="st9" x1="184.9" y1="213.9" x2="184.9" y2="229.2"/>
		<g id="XMLID_2183_">
			<line id="XMLID_2188_" class="st4" x1="299.4" y1="234.1" x2="220.9" y2="234.1"/>
			<line id="XMLID_2187_" class="st2" x1="299.4" y1="241.2" x2="292.8" y2="241.2"/>
			<line id="XMLID_2186_" class="st2" x1="284.8" y1="241.2" x2="243.9" y2="241.2"/>
			<line id="XMLID_2185_" class="st2" x1="230.2" y1="241.2" x2="225" y2="241.2"/>
			<line id="XMLID_2184_" class="st4" x1="299.4" y1="248.1" x2="220.9" y2="248.1"/>
		</g>
		<circle id="XMLID_2182_" class="st9" cx="46.1" cy="241" r="7"/>
		<path id="XMLID_2181_" class="st10" d="M45.2,238.7c-0.2,0-0.3,0.1-0.3,0.3v3.7c0,0.2,0.1,0.3,0.3,0.3h1.3c1.2,0,2.3-1,2.3-2.1
			c0-1.1-1-2.1-2.3-2.1L45.2,238.7L45.2,238.7z M46.1,244.1h-0.6v0.5c0,0.1-0.1,0.2-0.2,0.2h-0.4c-0.1,0-0.2-0.1-0.2-0.2v-0.5H44
			c-0.2,0-0.3-0.1-0.3-0.3V238c0-0.2,0.1-0.3,0.3-0.3h0.7v-0.5c0-0.1,0.1-0.2,0.2-0.2h0.4c0.1,0,0.2,0.1,0.2,0.2v0.5h0.6v-0.5
			c0-0.1,0.1-0.2,0.2-0.2h0.4c0.1,0,0.2,0.1,0.2,0.2v0.5c1.8,0.1,3.2,1.5,3.2,3.2s-1.4,3.1-3.2,3.2v0.5c0,0.1-0.1,0.2-0.2,0.2h-0.4
			c-0.1,0-0.2-0.1-0.2-0.2V244.1z"/>
		<g id="XMLID_2168_">
			<g id="XMLID_2177_">
				<path id="XMLID_2180_" class="st0" d="M159.3,192.4c-0.2,0-0.3-0.2-0.3-0.3v-4.8c0-0.2,0.2-0.3,0.3-0.3h0.2
					c0.2,0,0.3,0.2,0.3,0.3v4.8c0,0.2-0.2,0.3-0.3,0.3H159.3z M158.7,192c-0.4,0.2-0.8,0.4-1.3,0.4c-1.6,0.1-3-1-3.2-2.6
					c-0.1-1.6,1-3,2.6-3.2c0.7-0.1,1.3,0.1,1.8,0.4v1.1c-0.4-0.5-1-0.7-1.7-0.7c-1.1,0.1-1.9,1.1-1.8,2.2c0.1,1.1,1.1,1.9,2.2,1.8
					c0.5,0,1-0.3,1.3-0.7L158.7,192L158.7,192z"/>
				<path id="XMLID_2179_" class="st0" d="M165.9,189.4c-0.1-1.1-1.1-1.9-2.2-1.8c-1.1,0.1-1.9,1.1-1.8,2.2c0.1,1.1,1.1,1.9,2.2,1.8
					C165.2,191.5,166,190.5,165.9,189.4z M166.8,189.3c0.1,1.6-1,3-2.6,3.2c-1.6,0.1-3-1-3.2-2.6c-0.1-1.6,1-3,2.6-3.2
					S166.6,187.7,166.8,189.3z"/>
				<path id="XMLID_2178_" class="st0" d="M149.7,186h-2.3v5.7h2.3C153.4,191.7,153.6,186,149.7,186z M149.9,192.5h-2.6
					c-0.4,0-0.7-0.2-0.7-0.7v-6.1c0-0.4,0.4-0.7,0.7-0.7h2.5C154.7,185.1,154.6,192.5,149.9,192.5z"/>
			</g>
			<g id="XMLID_2169_">
				<g id="XMLID_2171_">
					<g id="XMLID_2174_">
						<path id="XMLID_2176_" class="st0" d="M183.7,192.6L183.7,192.6c-0.3,0-0.4-0.2-0.4-0.4v-5.7c0-0.2,0.2-0.4,0.3-0.4h0.2
							c0.2,0,0.3,0.2,0.3,0.4v5.7C184.1,192.4,183.9,192.6,183.7,192.6"/>
						<circle id="XMLID_2175_" class="st0" cx="183.6" cy="185.1" r="0.4"/>
					</g>
					<path id="XMLID_2173_" class="st0" d="M187.9,186.7c-1.5,0-2.7,1.2-2.7,2.7v1.1v1.3v0.5c0,0.2,0.1,0.3,0.3,0.3h0.2
						c0.2,0,0.3-0.1,0.3-0.3v-0.5l0,0v-2.4c0-1,0.8-1.9,1.9-1.9c1,0,1.9,0.8,1.9,1.9v2.4l0,0v0.5c0,0.2,0.1,0.3,0.3,0.3h0.2
						c0.2,0,0.3-0.1,0.3-0.3v-0.5v-1.3v-1.1C190.5,187.9,189.3,186.7,187.9,186.7z"/>
					<path id="XMLID_2172_" class="st0" d="M181.2,189.4c-0.1-1.1-1.1-1.9-2.2-1.8c-1.1,0.1-1.9,1.1-1.8,2.2
						c0.1,1.1,1.1,1.9,2.2,1.8C180.5,191.5,181.3,190.5,181.2,189.4z M182.1,189.3c0.1,1.6-1,3-2.6,3.2c-1.6,0.1-3-1-3.2-2.6
						c-0.1-1.6,1-3,2.6-3.2S181.9,187.7,182.1,189.3z"/>
				</g>
				<path id="XMLID_2170_" class="st0" d="M175.2,190.3c0.1-0.2,0-0.5-0.2-0.7c-0.2-0.1-0.5-0.1-0.6,0.1l-0.3,0.5
					c-0.5,0.9-1.4,1.3-2.5,1.3c-0.8,0-1.4-0.3-2-0.8c-0.6-0.6-0.8-1.2-0.8-2c0-0.8,0.3-1.4,0.9-2c0.6-0.5,1.2-0.8,2-0.8
					c1.1,0,1.9,0.5,2.4,1.4c0.1,0.1,0.1,0.2,0.2,0.2c0.1,0.1,0.2,0,0.3,0s0.2,0,0.3-0.1c0.1,0,0.1-0.1,0.1-0.1c0-0.1,0-0.1,0-0.2
					c0-0.1-0.1-0.3-0.2-0.4c-0.1-0.2-0.3-0.5-0.5-0.7c-0.1-0.1-0.2-0.1-0.2-0.2c-0.1,0-0.1-0.1-0.2-0.1c-0.1-0.1-0.2-0.2-0.3-0.2
					c-0.6-0.4-1.3-0.6-2.1-0.6c-1,0-1.9,0.4-2.7,1.1c-0.7,0.7-1.1,1.6-1.1,2.6s0.4,1.9,1.1,2.6c0.7,0.7,1.6,1.1,2.7,1.1
					c1.3,0,2.3-0.5,3-1.4c0.1-0.2,0.3-0.4,0.4-0.6H175.2z"/>
			</g>
		</g>
		<g id="XMLID_2156_">
			<g id="XMLID_2160_">
				<path id="XMLID_2167_" class="st0" d="M87.2,223.9L87.2,223.9c3.9-0.3,6.6-1.9,6.6-3.9c0-0.4-0.4-0.8-0.8-0.8s-0.8,0.4-0.8,0.8
					c0,0.9-2,2.1-5,2.3c-0.4,0-0.8,0.4-0.7,0.8C86.4,223.6,86.8,223.9,87.2,223.9L87.2,223.9z"/>
				<path id="XMLID_2166_" class="st0" d="M86.2,220.7c4.1,0,7.5-1.5,7.5-3.4c0-1.9-3.3-3.4-7.5-3.4c-4.1,0-7.5,1.5-7.5,3.4
					C78.8,219.1,82.1,220.7,86.2,220.7L86.2,220.7z M81.6,216.2c1.2-0.5,2.9-0.9,4.6-0.9s3.4,0.3,4.6,0.9c1,0.5,1.3,0.9,1.3,1
					c0,0.1-0.3,0.5-1.3,1c-1.2,0.5-2.9,0.9-4.6,0.9s-3.4-0.3-4.6-0.9c-0.9-0.4-1.3-0.9-1.3-1C80.4,217.2,80.6,216.7,81.6,216.2
					L81.6,216.2z M93,222.3c-0.4,0-0.8,0.4-0.8,0.8c0,0.9-1.9,2-4.8,2.3c-0.4,0-0.8,0.4-0.7,0.9c0,0.4,0.4,0.7,0.8,0.7
					c0,0,0,0,0.1,0c3.7-0.3,6.3-1.9,6.3-3.9C93.8,222.7,93.4,222.3,93,222.3L93,222.3z M94.1,236.4c4.3,0,7.6-1.7,7.6-3.9
					c0-0.4-0.4-0.8-0.8-0.8s-0.8,0.4-0.8,0.8c0,1-2.3,2.3-6,2.3s-6-1.4-6-2.3c0-0.4-0.4-0.8-0.8-0.8s-0.8,0.4-0.8,0.8
					C86.6,234.7,89.8,236.4,94.1,236.4L94.1,236.4z"/>
				<path id="XMLID_2165_" class="st0" d="M86.6,229.7c0,1.9,3.3,3.4,7.5,3.4c4.1,0,7.5-1.5,7.5-3.4c0-1.9-3.3-3.4-7.5-3.4
					C90,226.3,86.6,227.8,86.6,229.7L86.6,229.7z M100,229.7c0,0.1-0.3,0.5-1.3,1c-1.2,0.5-2.9,0.9-4.6,0.9s-3.4-0.3-4.6-0.9
					c-0.9-0.4-1.3-0.9-1.3-1c0-0.1,0.3-0.5,1.3-1c1.2-0.5,2.9-0.9,4.6-0.9s3.4,0.3,4.6,0.9C99.7,229.1,100,229.6,100,229.7
					L100,229.7z M100.9,234.8c-0.4,0-0.8,0.4-0.8,0.8c0,1-2.3,2.3-6,2.3s-6-1.4-6-2.3c0-0.4-0.4-0.8-0.8-0.8s-0.8,0.4-0.8,0.8
					c0,2.2,3.2,3.9,7.6,3.9c4.3,0,7.6-1.7,7.6-3.9C101.7,235.2,101.3,234.8,100.9,234.8L100.9,234.8z M85.5,226.1
					c-0.4,0-0.8,0.4-0.8,0.8c0,1-2.3,2.3-6,2.3s-6-1.4-6-2.3c0-0.4-0.4-0.8-0.8-0.8s-0.8,0.4-0.8,0.8c0,2.2,3.2,3.9,7.6,3.9
					c4.3,0,7.5-1.7,7.5-3.9C86.3,226.5,86,226.1,85.5,226.1L85.5,226.1z"/>
				<path id="XMLID_2164_" class="st0" d="M78.8,227.6c4.1,0,7.5-1.5,7.5-3.4c0-1.9-3.3-3.4-7.5-3.4c-4.1,0-7.5,1.5-7.5,3.4
					C71.3,226,74.6,227.6,78.8,227.6L78.8,227.6z M74.1,223.1c1.2-0.5,2.9-0.9,4.6-0.9s3.4,0.3,4.6,0.9c0.9,0.4,1.3,0.9,1.3,1
					c0,0.1-0.3,0.5-1.3,1c-1.2,0.5-2.9,0.9-4.6,0.9s-3.4-0.3-4.6-0.9c-1-0.4-1.3-0.9-1.3-1C72.9,224,73.2,223.6,74.1,223.1
					L74.1,223.1z M85.5,229.2c-0.4,0-0.8,0.4-0.8,0.8c0,1-2.3,2.3-6,2.3s-6-1.4-6-2.3c0-0.4-0.4-0.8-0.8-0.8s-0.8,0.4-0.8,0.8
					c0,2.2,3.2,3.9,7.6,3.9c4.3,0,7.5-1.7,7.5-3.9C86.3,229.6,86,229.2,85.5,229.2L85.5,229.2z"/>
				<path id="XMLID_2163_" class="st0" d="M85.5,232.3c-0.4,0-0.8,0.4-0.8,0.8c0,1-2.3,2.3-6,2.3s-6-1.4-6-2.3
					c0-0.4-0.4-0.8-0.8-0.8s-0.8,0.4-0.8,0.8c0,2.2,3.2,3.9,7.6,3.9c4.3,0,7.5-1.7,7.5-3.9C86.3,232.7,86,232.3,85.5,232.3
					L85.5,232.3z"/>
				<path id="XMLID_2162_" class="st0" d="M85.5,235.5c-0.4,0-0.8,0.4-0.8,0.8c0,1-2.3,2.3-6,2.3s-6-1.4-6-2.3
					c0-0.4-0.4-0.8-0.8-0.8s-0.8,0.4-0.8,0.8c0,2.2,3.2,3.9,7.6,3.9c4.3,0,7.5-1.7,7.5-3.9C86.3,235.8,86,235.5,85.5,235.5
					L85.5,235.5z M98.5,219.8l1.3-1.4l1.9-0.2l-1.4-1.3l-0.2-1.9l-1.3,1.4l-1.9,0.2l1.4,1.3L98.5,219.8z M98.5,223.4l1.3-0.8
					l-1.5-0.4l-0.8-1.3l-0.4,1.5l-1.3,0.8l1.5,0.4l0.8,1.3L98.5,223.4z M95,214.9l0.2-0.8l0.7-0.5l-0.8-0.2l-0.5-0.7l-0.2,0.8
					l-0.7,0.5l0.8,0.2L95,214.9z M74.8,219.5l0.4-1.5l1.3-0.8l-1.5-0.4l-0.8-1.3l-0.4,1.5l-1.3,0.8l1.5,0.4L74.8,219.5z M76.6,213.3
					l0.2-0.8l0.7-0.5l-0.8-0.2l-0.5-0.7l-0.2,0.8l-0.7,0.5l0.8,0.2L76.6,213.3z"/>
				<rect id="XMLID_2161_" x="71.2" y="211" class="st11" width="30.5" height="29.2"/>
			</g>
			<path id="XMLID_2159_" class="st10" d="M85.7,216.4c-0.1,0-0.2,0.1-0.2,0.1v1.4c0,0.1,0.1,0.1,0.2,0.1h1c0.9,0,1.6-0.4,1.6-0.8
				c0-0.4-0.7-0.8-1.6-0.8C86.7,216.4,85.7,216.4,85.7,216.4z M86.4,218.4H86v0.2c0,0,0,0.1-0.1,0.1h-0.3c-0.1,0-0.1,0-0.1-0.1v-0.2
				H85c-0.1,0-0.2-0.1-0.2-0.1v-2.2c0-0.1,0.1-0.1,0.2-0.1h0.5v-0.2c0,0,0-0.1,0.1-0.1h0.3c0.1,0,0.1,0,0.1,0.1v0.2h0.4v-0.2
				c0,0,0-0.1,0.1-0.1h0.3c0.1,0,0.1,0,0.1,0.1v0.2c1.3,0,2.2,0.6,2.2,1.2c0,0.6-1,1.2-2.2,1.2v0.2c0,0,0,0.1-0.1,0.1h-0.3
				c-0.1,0-0.1,0-0.1-0.1V218.4z"/>
			<path id="XMLID_2158_" class="st10" d="M77.9,223.3c-0.1,0-0.2,0.1-0.2,0.1v1.4c0,0.1,0.1,0.1,0.2,0.1h1c0.9,0,1.6-0.4,1.6-0.8
				c0-0.4-0.7-0.8-1.6-0.8C78.9,223.3,77.9,223.3,77.9,223.3z M78.5,225.3h-0.4v0.2c0,0,0,0.1-0.1,0.1h-0.3c-0.1,0-0.1,0-0.1-0.1
				v-0.2h-0.5c-0.1,0-0.2-0.1-0.2-0.1V223c0-0.1,0.1-0.1,0.2-0.1h0.5v-0.2c0,0,0-0.1,0.1-0.1H78c0.1,0,0.1,0,0.1,0.1v0.2h0.4v-0.2
				c0,0,0-0.1,0.1-0.1h0.3c0.1,0,0.1,0,0.1,0.1v0.2c1.3,0,2.2,0.6,2.2,1.2c0,0.6-1,1.2-2.2,1.2v0.2c0,0,0,0.1-0.1,0.1h-0.3
				c-0.1,0-0.1,0-0.1-0.1V225.3z"/>
			<path id="XMLID_2157_" class="st10" d="M94,228.9c-0.1,0-0.2,0.1-0.2,0.1v1.4c0,0.1,0.1,0.1,0.2,0.1h1c0.9,0,1.6-0.4,1.6-0.8
				c0-0.4-0.7-0.8-1.6-0.8C95,228.9,94,228.9,94,228.9z M94.6,230.9h-0.4v0.2c0,0,0,0.1-0.1,0.1h-0.3c-0.1,0-0.1,0-0.1-0.1v-0.2
				h-0.5c-0.1,0-0.2-0.1-0.2-0.1v-2.2c0-0.1,0.1-0.1,0.2-0.1h0.5v-0.2c0,0,0-0.1,0.1-0.1h0.3c0.1,0,0.1,0,0.1,0.1v0.2h0.4v-0.2
				c0,0,0-0.1,0.1-0.1H95c0.1,0,0.1,0,0.1,0.1v0.2c1.3,0,2.2,0.6,2.2,1.2c0,0.6-1,1.2-2.2,1.2v0.2c0,0,0,0.1-0.1,0.1h-0.3
				c-0.1,0-0.1,0-0.1-0.1V230.9z"/>
		</g>
	</g>
	<g id="XMLID_2136_">
		<path id="XMLID_2154_" class="st12" d="M-9.5,73.3c0-2.2-1.7-3.9-3.8-4h-39.5c-2.2,0-4,1.8-4,4c0,2.2,1.8,4,4,4h16.1
			c3.9,0,7.1,3.2,7.1,7.1c0,3.9-3.2,7.1-7.1,7.1h-13.5v8h36.8v-8H-14c-3.9,0-7.1-3.2-7.1-7.1c0-3.9,3.2-7.1,7.1-7.1h0.6
			C-11.3,77.3-9.5,75.5-9.5,73.3L-9.5,73.3z M33.7,136.3H-69.9c-3.3,0-6.1-2.7-6.1-6.1l0,0c0-3.3,2.7-6.1,6.1-6.1H33.8
			c3.3,0,6.1,2.7,6.1,6.1l0,0C39.8,133.5,37.1,136.3,33.7,136.3z"/>
		<path id="XMLID_2153_" class="st13" d="M21.6,129.1h-46.9c-1.6,0-2.9-1.3-2.9-2.9V68.4h42.7c5.5,0,10,4.5,10,10v47.9
			C24.5,127.8,23.2,129.1,21.6,129.1L21.6,129.1z"/>
		<path id="XMLID_2152_" class="st14" d="M14.5,68.4H7.6c5.5,0,10,4.5,10,10v47.9c0,1.6-1.3,2.9-2.9,2.9h6.9c1.6,0,2.9-1.3,2.9-2.9
			V78.4C24.5,72.9,20.1,68.4,14.5,68.4L14.5,68.4z"/>
		<path id="XMLID_2151_" class="st15" d="M21.6,130.2h-46.9c-2.2,0-4-1.8-4-4V67.3h43.9c6.2,0,11.1,5,11.1,11.1v47.9
			C25.6,128.4,23.9,130.2,21.6,130.2L21.6,130.2z M-27.1,69.5v56.7c0,1,0.8,1.8,1.8,1.8h46.9c1,0,1.8-0.8,1.8-1.8V78.3
			c0-4.9-4-8.9-8.9-8.9L-27.1,69.5L-27.1,69.5z"/>
		<path id="XMLID_2150_" class="st16" d="M-58.5,129.1h46.9c1.6,0,2.9-1.3,2.9-2.9V68.4h-42.8c-5.5,0-10,4.5-10,10v47.9
			C-61.5,127.8-60.2,129.1-58.5,129.1L-58.5,129.1z"/>
		<path id="XMLID_2149_" class="st13" d="M-56.2,126.2V78.3c0-5.5,4.5-10,10-10h-5.2c-5.5,0-10,4.5-10,10v47.9
			c0,1.6,1.3,2.9,2.9,2.9h5.2C-54.9,129.1-56.2,127.8-56.2,126.2L-56.2,126.2z"/>
		<path id="XMLID_2148_" class="st15" d="M-11.6,130.2h-46.9c-2.2,0-4-1.8-4-4V78.3c0-6.1,5-11.1,11.1-11.1h43.9v58.9
			C-7.6,128.4-9.5,130.2-11.6,130.2L-11.6,130.2z M-51.5,69.5c-4.9,0-8.9,4-8.9,8.9v47.9c0,1,0.8,1.8,1.8,1.8h46.9
			c1,0,1.8-0.8,1.8-1.8V69.5C-9.9,69.5-51.5,69.5-51.5,69.5z"/>
		<path id="XMLID_2147_" class="st16" d="M5.9,129.1h-50c-1.6,0-2.9-1.3-2.9-2.9V46.3c0-5.1,4.1-9.2,9.2-9.2h37.5
			c5.1,0,9.2,4.1,9.2,9.2v79.9C8.8,127.8,7.5,129.1,5.9,129.1L5.9,129.1z"/>
		<path id="XMLID_2146_" class="st14" d="M-0.4,37.1h-7c5.1,0,9.2,4.1,9.2,9.2v82.9h4.1c1.6,0,2.9-1.3,2.9-2.9v-80
			C8.8,41.2,4.6,37.1-0.4,37.1L-0.4,37.1z"/>
		<path id="XMLID_2145_" class="st13" d="M-32.1,37.1h-5.8c-5.1,0-9.2,4.1-9.2,9.2v79.9c0,1.6,1.3,2.9,2.9,2.9h2.9V46.3
			C-41.2,41.2-37.1,37.1-32.1,37.1L-32.1,37.1z"/>
		<path id="XMLID_2144_" class="st15" d="M-47,84c-0.6,0-1.1-0.5-1.1-1.1v-5.7c0-0.6,0.5-1.1,1.1-1.1s1.1,0.5,1.1,1.1v5.7
			C-45.8,83.6-46.4,84-47,84L-47,84z"/>
		<path id="XMLID_2143_" class="st17" d="M-4.1,129.2h-9.3c-0.8,0-1.4-0.6-1.4-1.4v-13.2c0-0.8,0.6-1.4,1.4-1.4h9.3
			c0.8,0,1.4,0.6,1.4,1.4v13.2C-2.7,128.6-3.3,129.2-4.1,129.2L-4.1,129.2z M-24.8,129.2h-9.3c-0.8,0-1.4-0.6-1.4-1.4v-13.2
			c0-0.8,0.6-1.4,1.4-1.4h9.3c0.8,0,1.4,0.6,1.4,1.4v13.2C-23.4,128.6-24,129.2-24.8,129.2L-24.8,129.2z"/>
		<path id="XMLID_2142_" class="st15" d="M5.9,130.2h-50c-2.2,0-4-1.8-4-4V88.7c0-0.6,0.5-1.1,1.1-1.1s1.1,0.5,1.1,1.1v37.5
			c0,1,0.8,1.8,1.8,1.8h50c1,0,1.8-0.8,1.8-1.8V46.3c0-4.5-3.6-8-8-8h-37.5c-4.5,0-8,3.6-8,8v23.1c0,0.6-0.5,1.1-1.1,1.1
			S-48,70-48,69.4V46.3c0-5.6,4.6-10.2,10.2-10.2h37.5c5.6,0,10.2,4.6,10.2,10.2v79.9C9.9,128.4,8.1,130.2,5.9,130.2L5.9,130.2z"/>
		<path id="XMLID_2141_" class="st14" d="M-24.5,64.2h-8.7c-0.7,0-1.3-0.6-1.3-1.3v-8.7c0-0.7,0.6-1.3,1.3-1.3h8.6
			c0.7,0,1.3,0.6,1.3,1.3v8.6C-23.2,63.6-23.8,64.2-24.5,64.2L-24.5,64.2z M-5.1,64.2h-8.6c-0.7,0-1.3-0.6-1.3-1.3v-8.7
			c0-0.7,0.6-1.3,1.3-1.3h8.6c0.7,0,1.3,0.6,1.3,1.3v8.6C-3.8,63.6-4.4,64.2-5.1,64.2L-5.1,64.2z"/>
		<path id="XMLID_2140_" class="st14" d="M-24.5,84.1h-8.7c-0.7,0-1.3-0.6-1.3-1.3v-8.7c0-0.7,0.6-1.3,1.3-1.3h8.6
			c0.7,0,1.3,0.6,1.3,1.3v8.6C-23.2,83.5-23.8,84.1-24.5,84.1L-24.5,84.1z"/>
		<path id="XMLID_2139_" class="st0" d="M-5.1,84.1h-8.6c-0.7,0-1.3-0.6-1.3-1.3v-8.7c0-0.7,0.6-1.3,1.3-1.3h8.6
			c0.7,0,1.3,0.6,1.3,1.3v8.6C-3.8,83.5-4.4,84.1-5.1,84.1L-5.1,84.1z"/>
		<path id="XMLID_2138_" class="st14" d="M-24.5,104h-8.7c-0.7,0-1.3-0.6-1.3-1.3v-8.6c0-0.7,0.6-1.3,1.3-1.3h8.6
			c0.7,0,1.3,0.6,1.3,1.3v8.6C-23.2,103.4-23.8,104-24.5,104L-24.5,104z M-5.1,104h-8.6c-0.7,0-1.3-0.6-1.3-1.3v-8.6
			c0-0.7,0.6-1.3,1.3-1.3h8.6c0.7,0,1.3,0.6,1.3,1.3v8.6C-3.8,103.4-4.4,104-5.1,104L-5.1,104z"/>
		<path id="XMLID_2137_" class="st15" d="M27.9,131.6h-91.6c-1.3,0-2.4-1.1-2.4-2.4s1.1-2.4,2.4-2.4h91.6c1.3,0,2.4,1.1,2.4,2.4
			C30.2,130.5,29.2,131.6,27.9,131.6L27.9,131.6z"/>
	</g>
	<g id="XMLID_2132_">
		<line id="XMLID_2135_" class="st4" x1="32" y1="98" x2="320" y2="98"/>
		<g id="XMLID_2133_">
			<path id="XMLID_2134_" class="st0" d="M320,95.5c0-1.1,0.8-1.5,1.7-1L326,97c1,0.6,1,1.5,0,2l-4.3,2.5c-1,0.6-1.7,0.1-1.7-1V95.5
				z"/>
		</g>
	</g>
	<g id="XMLID_2110_">
		<path id="XMLID_2131_" class="st12" d="M419.5,135.6h-96.8c-4.6,0-8.4-3.8-8.4-8.4l0,0c0-4.6,3.8-8.4,8.4-8.4h96.8
			c4.6,0,8.4,3.8,8.4,8.4l0,0C428,131.8,424.2,135.6,419.5,135.6z"/>
		<g id="XMLID_2111_">
			<path id="XMLID_2130_" class="st18" d="M375.1,38.1c-2-1.6-4.8-1.6-6.8,0l-24.2,19.7h7.2l24-19.6L375.1,38.1z"/>
			<path id="XMLID_2129_" class="st19" d="M342.2,62c-4.3,0-7.7,3.5-7.7,7.7v5c0,1.6,0.5,3.1,1.3,4.3c0.7,0.2,1.5,0.4,2.4,0.4h66.6
				c4.3,0,7.7-3.5,7.7-7.7v-5c0-1.6-0.5-3.1-1.3-4.3c-0.7-0.2-1.5-0.4-2.4-0.4C408.8,62,342.2,62,342.2,62z"/>
			<path id="XMLID_2128_" class="st4" d="M371.7,58H405c4.3,0,7.7,3.5,7.7,7.7v5c0,4.3-3.5,7.7-7.7,7.7h-66.6
				c-4.3,0-7.7-3.5-7.7-7.7v-5c0-4.3,3.5-7.7,7.7-7.7H361"/>
			<line id="XMLID_2127_" class="st4" x1="364.4" y1="58" x2="367.7" y2="58"/>
			<path id="XMLID_2126_" class="st20" d="M362.2,119.7v-17.4c0-4.3,3.5-7.7,7.7-7.7h5c4.3,0,7.7,3.5,7.7,7.7v17.4"/>
			<path id="XMLID_2125_" class="st4" d="M417.1,132h-89.7c-1.6,0-2.8-1.3-2.8-2.8v-4.4c0-1.6,1.3-2.8,2.8-2.8h89.7
				c1.6,0,2.8,1.3,2.8,2.8v4.4C419.9,130.7,418.6,132,417.1,132z"/>
			<path id="XMLID_2124_" class="st21" d="M407.2,121.6h-70.9c-1,0-1.7-0.8-1.7-1.7v-2.2c0-1,0.8-1.7,1.7-1.7h70.9
				c1,0,1.7,0.8,1.7,1.7v2.2C408.9,120.8,408.1,121.6,407.2,121.6z"/>
			<path id="XMLID_2123_" class="st4" d="M344.1,57.8l24.2-19.7c2-1.6,4.8-1.6,6.8,0l24.2,19.7"/>
			<g id="XMLID_2118_">
				<line id="XMLID_2122_" class="st4" x1="338.4" y1="78.5" x2="338.4" y2="115.1"/>
				<line id="XMLID_2121_" class="st4" x1="345.1" y1="90.4" x2="345.1" y2="115.1"/>
				<line id="XMLID_2120_" class="st4" x1="345.1" y1="82.6" x2="345.1" y2="86"/>
				<line id="XMLID_2119_" class="st4" x1="351.8" y1="78.5" x2="351.8" y2="115.1"/>
			</g>
			<g id="XMLID_2112_">
				<line id="XMLID_2117_" class="st4" x1="392.5" y1="86" x2="392.5" y2="115.1"/>
				<line id="XMLID_2116_" class="st4" x1="392.5" y1="81.6" x2="392.5" y2="83.4"/>
				<line id="XMLID_2115_" class="st4" x1="399.2" y1="78.5" x2="399.2" y2="115.1"/>
				<line id="XMLID_2114_" class="st4" x1="405.9" y1="79.1" x2="405.9" y2="102.7"/>
				<line id="XMLID_2113_" class="st4" x1="405.9" y1="106.4" x2="405.9" y2="113.1"/>
			</g>
		</g>
	</g>
	<g id="XMLID_2104_">
		<g id="XMLID_2105_">
			<polyline id="XMLID_2109_" class="st22" points="436.8,89 436.8,90.5 435.7,91.4 			"/>
			<path id="XMLID_2108_" class="st23" d="M433.3,93.3l-6.3,5c-0.9,0.7,0.1,1.7,1.4,1.5l5.4-0.9"/>
			<polyline id="XMLID_2107_" class="st22" points="435.3,98.8 436.8,98.5 436.8,100 			"/>
			<path id="XMLID_2106_" class="st24" d="M437.1,103c1.3,4.3,7.1,7.5,13.9,7.5h87.7c7.8,0,14.2-4.2,14.2-9.3V85.3
				c0-5.1-6.4-9.3-14.2-9.3H451c-7.8,0-14.2,4.2-14.2,9.3v2.2"/>
		</g>
	</g>
	<polyline id="XMLID_2103_" class="st4" points="374,138 374,240.7 292.6,240.7 	"/>
	<g id="XMLID_2101_">
		<path id="XMLID_2102_" class="st0" d="M296.5,243.3c0,1.1-0.8,1.6-1.7,1l-4.3-2.5c-1-0.6-1-1.4,0-2l4.3-2.5c1-0.5,1.7-0.1,1.7,1
			V243.3z"/>
	</g>
	<polyline id="XMLID_2100_" class="st4" points="-24.6,148 -24.6,240.7 32.6,240.7 	"/>
	<g id="XMLID_2095_">
		<g id="XMLID_2097_">
			<path id="XMLID_2099_" class="st25" d="M363.3,162.1h43.5c4.9,0,8.8,4,8.8,8.8v25.7c0,4.9-4,8.8-8.8,8.8h-59.4
				c-4.9,0-8.8-4-8.8-8.8v-23.1c0-6.3,5.2-11.5,11.5-11.5"/>
			<line id="XMLID_2098_" class="st4" x1="355" y1="162.1" x2="358.3" y2="162.1"/>
		</g>
		<path id="XMLID_2096_" class="st3" d="M403.7,202h-53.1c-4.4,0-8-3.6-8-8v-20.3c0-4.4,3.6-8,8-8h53.1c4.4,0,8,3.6,8,8V194
			C411.7,198.4,408.1,202,403.7,202z"/>
	</g>
	<path id="XMLID_2094_" class="st0" d="M191.9,78h-2c-0.6,0-1,0.4-1,1s0.4,1,1,1h2c0.6,0,1-0.4,1-1S192.5,78,191.9,78L191.9,78z
		 M167.9,64h-2c-0.6,0-1,0.4-1,1s0.4,1,1,1h2c0.6,0,1-0.4,1-1S168.5,64,167.9,64L167.9,64z M199,60h-40.1c-1.1,0-2,0.9-2,2v20.1
		c0,1.1,0.9,2,2,2H199c1.1,0,2-0.9,2-2V62C201,60.9,200.1,60,199,60L199,60z M159.8,62c0.6,0,1,0.4,1,1s-0.4,1-1,1s-1-0.4-1-1
		S159.2,62,159.8,62L159.8,62z M159.8,82c-0.6,0-1-0.4-1-1s0.4-1,1-1s1,0.4,1,1C160.9,81.6,160.5,82,159.8,82L159.8,82z M197.9,82
		c-0.6,0-1-0.4-1-1s0.4-1,1-1s1,0.4,1,1C199,81.6,198.5,82,197.9,82L197.9,82z M199,78.2c-0.3-0.1-0.6-0.2-1-0.2c-1.7,0-3,1.3-3,3
		c0,0.4,0.1,0.7,0.2,1h-32.5c0.1-0.3,0.2-0.6,0.2-1c0-1.7-1.3-3-3-3c-0.4,0-0.7,0.1-1,0.2V65.8c0.3,0.1,0.6,0.2,1,0.2
		c1.7,0,3-1.3,3-3c0-0.4-0.1-0.7-0.2-1h32.5c-0.1,0.3-0.2,0.6-0.2,1c0,1.7,1.3,3,3,3c0.4,0,0.7-0.1,1-0.2V78.2z M197.9,64
		c-0.6,0-1-0.4-1-1s0.4-1,1-1s1,0.4,1,1C199,63.6,198.5,64,197.9,64L197.9,64z M178.9,64c-4.4,0-8,3.6-8,8s3.6,8,8,8s8-3.6,8-8
		S183.3,64,178.9,64L178.9,64z M181.1,70.6l-0.4,0.9h-3.6v0.9h3.4l-0.4,0.9h-2.9c0.1,0.7,0.4,1.3,0.7,1.7c0.4,0.5,1,0.8,1.8,0.8
		c0.5,0,0.9-0.1,1.2-0.2s0.6-0.4,1-0.7v1.5c-0.7,0.4-1.4,0.6-2.2,0.6c-1.3,0-2.3-0.4-3.1-1.1c-0.6-0.7-1-1.5-1.2-2.6h-1.1l0.4-0.9
		h0.7v-0.9h-1.1l0.4-0.9h0.8c0.2-1.1,0.7-1.9,1.3-2.5c0.8-0.7,1.7-1.1,2.9-1.1c0.9,0,1.7,0.3,2.6,0.9l-0.7,1.3
		c-0.6-0.6-1.3-0.9-2.1-0.9c-0.7,0-1.2,0.2-1.6,0.7c-0.4,0.4-0.6,1-0.7,1.6H181.1z"/>
	<path id="XMLID_2093_" class="st0" d="M117.9,78h-2c-0.6,0-1,0.4-1,1s0.4,1,1,1h2c0.6,0,1-0.4,1-1S118.5,78,117.9,78L117.9,78z
		 M93.9,64h-2c-0.6,0-1,0.4-1,1s0.4,1,1,1h2c0.6,0,1-0.4,1-1S94.5,64,93.9,64L93.9,64z M124.9,60H84.8c-1.1,0-2,0.9-2,2v20.1
		c0,1.1,0.9,2,2,2h40.1c1.1,0,2-0.9,2-2V62C126.9,60.9,126,60,124.9,60L124.9,60z M85.8,62c0.6,0,1,0.4,1,1s-0.4,1-1,1s-1-0.4-1-1
		S85.2,62,85.8,62L85.8,62z M85.8,82c-0.6,0-1-0.4-1-1s0.4-1,1-1s1,0.4,1,1S86.4,82,85.8,82L85.8,82z M123.9,82c-0.6,0-1-0.4-1-1
		s0.4-1,1-1s1,0.4,1,1S124.5,82,123.9,82L123.9,82z M124.9,78.2c-0.3-0.1-0.6-0.2-1-0.2c-1.7,0-3,1.3-3,3c0,0.4,0.1,0.7,0.2,1H88.6
		c0.1-0.3,0.2-0.6,0.2-1c0-1.7-1.3-3-3-3c-0.4,0-0.7,0.1-1,0.2V65.8c0.3,0.1,0.6,0.2,1,0.2c1.7,0,3-1.3,3-3c0-0.4-0.1-0.7-0.2-1
		h32.5c-0.1,0.3-0.2,0.6-0.2,1c0,1.7,1.3,3,3,3c0.4,0,0.7-0.1,1-0.2V78.2z M123.9,64c-0.6,0-1-0.4-1-1s0.4-1,1-1s1,0.4,1,1
		S124.5,64,123.9,64L123.9,64z M104.9,64c-4.4,0-8,3.6-8,8s3.6,8,8,8s8-3.6,8-8S109.3,64,104.9,64L104.9,64z M105.4,77.4h-0.8v-1.2
		c-0.8,0-1.5-0.2-2.2-0.5v-1.6c0.2,0.2,0.6,0.4,1,0.5c0.5,0.2,0.9,0.2,1.2,0.3v-2.2c-0.8-0.3-1.4-0.6-1.8-1s-0.6-0.9-0.6-1.5
		s0.2-1.1,0.7-1.6s1-0.7,1.7-0.7v-1.1h0.8v1.1c0.8,0,1.4,0.2,1.8,0.4v1.5c-0.5-0.3-1.1-0.5-1.8-0.6v2.3c0.8,0.3,1.4,0.7,1.8,1
		c0.4,0.4,0.6,0.9,0.6,1.4c0,0.6-0.2,1.2-0.6,1.6s-1,0.6-1.7,0.7L105.4,77.4L105.4,77.4z M104.6,69c-0.6,0.1-0.8,0.4-0.8,0.9
		c0,0.4,0.3,0.8,0.8,1.1V69z M105.4,74.8c0.6-0.1,0.9-0.4,0.9-0.9c0-0.4-0.3-0.7-0.9-1V74.8z"/>
	<g id="XMLID_2086_">
		<path id="XMLID_2092_" class="st0" d="M265.9,78h-2c-0.6,0-1,0.4-1,1s0.4,1,1,1h2c0.6,0,1-0.4,1-1S266.5,78,265.9,78L265.9,78z
			 M241.9,64h-2c-0.6,0-1,0.4-1,1s0.4,1,1,1h2c0.6,0,1-0.4,1-1S242.5,64,241.9,64L241.9,64z M273,60h-40.1c-1.1,0-2,0.9-2,2v20.1
			c0,1.1,0.9,2,2,2H273c1.1,0,2-0.9,2-2V62C275,60.9,274.1,60,273,60L273,60z M233.9,62c0.6,0,1,0.4,1,1s-0.4,1-1,1s-1-0.4-1-1
			S233.3,62,233.9,62L233.9,62z M233.9,82c-0.6,0-1-0.4-1-1s0.4-1,1-1s1,0.4,1,1S234.5,82,233.9,82L233.9,82z M272,82
			c-0.6,0-1-0.4-1-1s0.4-1,1-1s1,0.4,1,1S272.6,82,272,82L272,82z M273,78.2c-0.3-0.1-0.6-0.2-1-0.2c-1.7,0-3,1.3-3,3
			c0,0.4,0.1,0.7,0.2,1h-32.5c0.1-0.3,0.2-0.6,0.2-1c0-1.7-1.3-3-3-3c-0.4,0-0.7,0.1-1,0.2V65.8c0.3,0.1,0.6,0.2,1,0.2
			c1.7,0,3-1.3,3-3c0-0.4-0.1-0.7-0.2-1h32.5c-0.1,0.3-0.2,0.6-0.2,1c0,1.7,1.3,3,3,3c0.4,0,0.7-0.1,1-0.2V78.2z M272,64
			c-0.6,0-1-0.4-1-1s0.4-1,1-1s1,0.4,1,1S272.6,64,272,64L272,64z M252.9,64c-4.4,0-8,3.6-8,8s3.6,8,8,8s8-3.6,8-8
			S257.3,64,252.9,64L252.9,64z"/>
		<circle id="XMLID_2091_" class="st0" cx="252.9" cy="72" r="8.1"/>
		<g id="XMLID_2087_">
			<g id="XMLID_2089_">
				<path id="XMLID_2090_" class="st13" d="M256.9,67.3l-3.1,6.1v3.4h-2v-3.3l-3-6.1h2.3l1.6,3.6c0,0.1,0.1,0.3,0.2,0.7l0,0
					c0-0.3,0.1-0.5,0.2-0.7l1.6-3.6L256.9,67.3L256.9,67.3z"/>
			</g>
			<rect id="XMLID_2088_" x="249.4" y="73.4" class="st13" width="6.9" height="1"/>
		</g>
	</g>
	<path id="XMLID_2085_" class="st0" d="M-28.5,146l3-5.2c0.5-0.9,1.7-0.9,2.2,0l3,5.2c0.5,0.9-0.1,1.9-1.1,1.9h-6
		C-28.3,148-29,146.9-28.5,146z"/>
	<g class="st8">
		<path class="st26" d="M-31.2,30.8H-32v-7.7h2.5c0.8,0,1.4,0.2,1.9,0.7c0.5,0.5,0.7,1,0.7,1.7c0,0.6-0.2,1.1-0.7,1.6
			s-1,0.6-1.7,0.6h-1.9V30.8z M-29.5,27c0.5,0,0.9-0.1,1.2-0.5c0.4-0.3,0.5-0.7,0.5-1.2c0-0.4-0.2-0.8-0.6-1.1
			c-0.4-0.3-0.8-0.4-1.2-0.4h-1.7V27H-29.5z"/>
		<path class="st26" d="M-20.6,30.8h-0.7v-0.9c-0.6,0.7-1.4,1-2.3,1c-0.8,0-1.5-0.3-2-0.9c-0.5-0.6-0.8-1.3-0.8-2.1
			c0-0.8,0.3-1.5,0.9-2.1c0.6-0.6,1.3-0.9,2.1-0.8c0.8,0,1.5,0.3,2,0.9c0.6,0.6,0.8,1.3,0.8,2.1v0V30.8z M-25.7,27.9
			c0,0.6,0.2,1.1,0.6,1.6c0.4,0.5,0.9,0.7,1.5,0.7c0.6,0,1.2-0.2,1.6-0.6c0.4-0.5,0.7-1,0.6-1.6c0-0.6-0.2-1.1-0.6-1.5
			c-0.4-0.4-0.9-0.6-1.5-0.6c-0.6,0-1.1,0.2-1.5,0.6S-25.7,27.2-25.7,27.9z"/>
		<path class="st26" d="M-19.1,30.8h-0.8v-5.7h0.7v0.8c0.2-0.3,0.4-0.5,0.7-0.7c0.3-0.1,0.6-0.2,0.9-0.2v0.8c-0.3,0-0.6,0.1-0.9,0.3
			c-0.2,0.2-0.4,0.3-0.4,0.5c-0.1,0.2-0.2,0.5-0.2,0.9V30.8z"/>
		<path class="st26" d="M-14.9,30.9c-1.4,0-2.1-0.6-2.1-1.8v-6h0.8v2h1.3v0.7h-1.3V29c0,0.8,0.4,1.3,1.3,1.3V30.9z"/>
		<path class="st26" d="M-9.2,30.8H-10v-3.3c0-0.5-0.2-0.9-0.5-1.2c-0.4-0.3-0.7-0.5-1.2-0.5s-0.9,0.2-1.2,0.5
			c-0.4,0.4-0.5,0.8-0.5,1.2v3.3h-0.8v-3.2c0-0.7,0.2-1.3,0.7-1.8c0.5-0.5,1.1-0.7,1.8-0.7c0.7,0,1.3,0.2,1.8,0.7
			c0.5,0.5,0.7,1.1,0.7,1.8V30.8z"/>
		<path class="st26" d="M-2.6,28.9c-0.2,0.6-0.6,1.1-1.1,1.5s-1.1,0.5-1.7,0.5c-0.8,0-1.5-0.3-2.1-0.8c-0.6-0.6-0.9-1.3-0.9-2.1
			c0-0.8,0.3-1.6,0.9-2.2c0.6-0.6,1.4-0.9,2.2-0.9c0.8,0,1.4,0.4,2,0.9c0.5,0.6,0.8,1.2,0.8,1.9v0.4h-5.1c0.1,0.6,0.3,1,0.7,1.4
			s0.9,0.6,1.5,0.5c0.9,0,1.5-0.4,1.9-1.2H-2.6z M-3.3,27.5c-0.1-0.5-0.4-1-0.7-1.3c-0.4-0.3-0.9-0.5-1.4-0.5s-1,0.2-1.4,0.5
			c-0.4,0.3-0.7,0.8-0.8,1.3H-3.3z"/>
		<path class="st26" d="M-1.1,30.8h-0.8v-5.7h0.7v0.8c0.2-0.3,0.4-0.5,0.7-0.7c0.3-0.1,0.6-0.2,0.9-0.2v0.8c-0.3,0-0.6,0.1-0.9,0.3
			c-0.2,0.2-0.4,0.3-0.4,0.5C-1,26.7-1.1,27-1.1,27.4V30.8z"/>
	</g>
	<g class="st8">
		<path class="st26" d="M336.7,30.8h-0.8v-7h-1.7v-0.7h4.3v0.7h-1.7V30.8z"/>
		<path class="st26" d="M339.7,30.8h-0.8v-5.7h0.7v0.8c0.2-0.3,0.4-0.5,0.7-0.7c0.3-0.1,0.6-0.2,0.9-0.2v0.8c-0.3,0-0.6,0.1-0.9,0.3
			c-0.2,0.2-0.4,0.3-0.5,0.5c-0.1,0.2-0.2,0.5-0.2,0.9V30.8z"/>
		<path class="st26" d="M346.9,28.3c0,0.7-0.2,1.4-0.7,1.8c-0.5,0.5-1.1,0.7-1.8,0.7s-1.3-0.2-1.8-0.7c-0.5-0.5-0.7-1.1-0.7-1.8
			v-3.2h0.8v3.3c0,0.5,0.2,0.9,0.5,1.2c0.3,0.3,0.8,0.5,1.2,0.5s0.9-0.2,1.2-0.5c0.4-0.3,0.5-0.8,0.5-1.2v-3.3h0.8V28.3z"/>
		<path class="st26" d="M348.5,29.3c0,0.2,0.1,0.4,0.3,0.6c0.2,0.2,0.4,0.3,0.7,0.3c0.3,0,0.6-0.1,0.8-0.3c0.2-0.2,0.2-0.4,0.3-0.7
			c0-0.5-0.3-0.8-0.8-1L349,28c-0.7-0.2-1.1-0.7-1.1-1.4c0-0.4,0.1-0.8,0.4-1.1c0.3-0.3,0.7-0.5,1.1-0.5c0.4,0,0.8,0.1,1.1,0.4
			c0.3,0.3,0.5,0.6,0.5,1l0,0.2h-0.8v-0.1c0-0.4-0.4-0.7-0.8-0.7c-0.4,0-0.8,0.3-0.8,0.8c0,0.4,0.2,0.7,0.7,0.9l0.7,0.2
			c0.8,0.3,1.2,0.8,1.2,1.5c0,0.5-0.1,1-0.5,1.3c-0.4,0.4-0.9,0.5-1.4,0.5c-0.5,0-0.9-0.2-1.2-0.6c-0.3-0.3-0.5-0.8-0.5-1.3h0.8
			V29.3z"/>
		<path class="st26" d="M354.1,30.9c-1.4,0-2.1-0.6-2.1-1.8v-6h0.8v2h1.3v0.7h-1.3V29c0,0.8,0.4,1.3,1.3,1.3V30.9z"/>
		<path class="st26" d="M367.3,28.8c-0.7,1.3-2,2.1-3.5,2.1c-1.1,0-2-0.4-2.8-1.2c-0.8-0.8-1.2-1.7-1.2-2.8c0-1.1,0.4-2.1,1.2-2.8
			c0.8-0.8,1.7-1.1,2.8-1.1c0.8,0,1.5,0.2,2.1,0.6c0.6,0.4,1.1,0.9,1.4,1.5h-0.9c-0.6-0.9-1.5-1.4-2.7-1.4c-0.8,0-1.6,0.3-2.2,0.9
			c-0.6,0.6-0.9,1.3-0.9,2.2c0,0.9,0.3,1.7,0.9,2.3c0.6,0.6,1.4,1,2.3,1c0.5,0,1-0.1,1.5-0.4c0.5-0.3,0.8-0.6,1.1-1H367.3z"/>
		<path class="st26" d="M372.3,30c-0.6,0.6-1.3,0.9-2.1,0.8c-0.8,0-1.5-0.3-2-0.9c-0.5-0.6-0.8-1.3-0.8-2.1c0-0.8,0.3-1.5,0.9-2.1
			c0.6-0.6,1.3-0.9,2.1-0.9c0.8,0,1.5,0.3,2,0.9c0.5,0.6,0.8,1.3,0.8,2.1C373.2,28.7,372.9,29.4,372.3,30z M370.2,30.1
			c0.6,0,1.2-0.2,1.6-0.6c0.4-0.5,0.7-1,0.6-1.6c0-0.6-0.2-1.1-0.6-1.5c-0.4-0.4-0.9-0.6-1.5-0.6c-0.6,0-1.1,0.2-1.5,0.6
			c-0.4,0.4-0.6,0.9-0.7,1.5c0,0.6,0.2,1.1,0.6,1.6C369.2,29.9,369.6,30.1,370.2,30.1z"/>
		<path class="st26" d="M382.2,30.8h-0.8v-3.5c0-0.4-0.1-0.8-0.4-1.1s-0.6-0.5-1-0.5c-0.4,0-0.8,0.1-1.1,0.4c-0.3,0.3-0.5,0.6-0.5,1
			v3.7h-0.8v-3.7c0-0.4-0.2-0.8-0.5-1c-0.3-0.3-0.7-0.4-1.1-0.4c-0.4,0-0.7,0.2-1,0.5c-0.2,0.3-0.4,0.7-0.4,1.1v3.5H374v-3.4
			c0-0.7,0.2-1.3,0.6-1.7c0.4-0.4,0.9-0.6,1.5-0.7c0.8-0.1,1.5,0.3,2,1.1c0.5-0.8,1.1-1.1,2-1.1c0.6,0,1.1,0.3,1.5,0.7
			c0.4,0.4,0.6,1,0.6,1.7V30.8z"/>
		<path class="st26" d="M383.8,32.8H383V28c0,0,0,0,0,0c0-0.8,0.3-1.5,0.9-2.1c0.6-0.6,1.3-0.9,2.1-0.9c0.8,0,1.5,0.3,2,0.9
			s0.8,1.3,0.8,2.1c0,0.8-0.3,1.5-0.9,2.1c-0.6,0.6-1.3,0.9-2.1,0.8c-0.8,0-1.5-0.4-2.1-1V32.8z M386.1,25.7c-0.6,0-1.2,0.2-1.6,0.7
			c-0.4,0.5-0.6,1-0.6,1.6c0,0.6,0.2,1.1,0.6,1.5c0.4,0.4,0.9,0.6,1.5,0.6c0.6,0,1.1-0.2,1.5-0.6c0.4-0.4,0.6-0.9,0.7-1.5
			c0-0.6-0.2-1.1-0.6-1.6C387.1,25.9,386.6,25.7,386.1,25.7z"/>
		<path class="st26" d="M395.5,30.8h-0.7v-0.9c-0.6,0.7-1.4,1-2.3,1c-0.8,0-1.5-0.3-2-0.9c-0.5-0.6-0.8-1.3-0.8-2.1
			c0-0.8,0.3-1.5,0.9-2.1c0.6-0.6,1.3-0.9,2.1-0.8c0.8,0,1.5,0.3,2,0.9c0.6,0.6,0.8,1.3,0.8,2.1v0V30.8z M390.4,27.9
			c0,0.6,0.2,1.1,0.6,1.6c0.4,0.5,0.9,0.7,1.5,0.7c0.6,0,1.2-0.2,1.6-0.6c0.5-0.5,0.7-1,0.7-1.6c0-0.6-0.2-1.1-0.6-1.5
			c-0.4-0.4-0.9-0.6-1.5-0.6c-0.6,0-1.1,0.2-1.5,0.6S390.4,27.2,390.4,27.9z"/>
		<path class="st26" d="M401.3,30.8h-0.8v-3.3c0-0.5-0.2-0.9-0.5-1.2c-0.3-0.3-0.7-0.5-1.2-0.5s-0.9,0.2-1.2,0.5
			c-0.4,0.4-0.5,0.8-0.5,1.2v3.3h-0.8v-3.2c0-0.7,0.2-1.3,0.7-1.8c0.5-0.5,1.1-0.7,1.8-0.7c0.7,0,1.3,0.2,1.8,0.7
			c0.5,0.5,0.7,1.1,0.7,1.8V30.8z"/>
		<path class="st26" d="M404.3,32.8h-0.8l0.9-2.2l-2.2-5.5h0.8l1.8,4.5l1.9-4.5h0.8L404.3,32.8z"/>
	</g>
	<g class="st8">
		<path class="st26" d="M456.8,90.5h-2.2c-1.2,0-2-0.7-2-1.9v-3.9c0-1.2,0.8-1.9,2-1.9h2.2v0.7h-2.2c-0.4,0-0.7,0.1-0.8,0.2
			c-0.2,0.3-0.4,0.5-0.4,0.8v1.7h2.6v0.7h-2.6v1.8c0,0.3,0.1,0.5,0.4,0.8c0.2,0.2,0.4,0.2,0.8,0.2h2.2V90.5z"/>
		<path class="st26" d="M462.1,90.5h-0.9l-1.5-2.3l-1.5,2.3h-0.9l1.9-2.9l-1.9-2.8h0.9l1.5,2.2l1.5-2.2h0.9l-2,2.8L462.1,90.5z"/>
		<path class="st26" d="M463.6,92.5h-0.7v-4.8c0,0,0,0,0,0c0-0.8,0.3-1.5,0.9-2.1c0.6-0.6,1.3-0.9,2.1-0.9c0.8,0,1.5,0.3,2,0.9
			s0.8,1.3,0.8,2.1c0,0.8-0.3,1.5-0.9,2.1c-0.6,0.6-1.3,0.9-2.1,0.8c-0.8,0-1.5-0.4-2.1-1V92.5z M465.9,85.4c-0.6,0-1.2,0.2-1.6,0.7
			c-0.4,0.5-0.6,1-0.6,1.6c0,0.6,0.2,1.1,0.6,1.5c0.4,0.4,0.9,0.6,1.5,0.6c0.6,0,1.1-0.2,1.5-0.6c0.4-0.4,0.6-0.9,0.7-1.5
			c0-0.6-0.2-1.1-0.6-1.6C466.9,85.6,466.4,85.4,465.9,85.4z"/>
		<path class="st26" d="M474.4,89.7c-0.6,0.6-1.3,0.9-2.1,0.8c-0.8,0-1.5-0.3-2-0.9c-0.5-0.6-0.8-1.3-0.8-2.1c0-0.8,0.3-1.5,0.9-2.1
			c0.6-0.6,1.3-0.9,2.1-0.9c0.8,0,1.5,0.3,2,0.9c0.5,0.6,0.8,1.3,0.8,2.1C475.3,88.4,475,89.1,474.4,89.7z M472.3,89.8
			c0.6,0,1.2-0.2,1.6-0.6c0.4-0.5,0.7-1,0.6-1.6c0-0.6-0.2-1.1-0.6-1.5c-0.4-0.4-0.9-0.6-1.5-0.6c-0.6,0-1.1,0.2-1.5,0.6
			c-0.4,0.4-0.6,0.9-0.7,1.5c0,0.6,0.2,1.1,0.6,1.6C471.2,89.6,471.7,89.8,472.3,89.8z"/>
		<path class="st26" d="M476.9,89c0,0.2,0.1,0.4,0.3,0.6c0.2,0.2,0.4,0.3,0.7,0.3c0.3,0,0.6-0.1,0.8-0.3c0.2-0.2,0.2-0.4,0.3-0.7
			c0-0.5-0.3-0.8-0.8-1l-0.7-0.2c-0.7-0.2-1.1-0.7-1.1-1.4c0-0.4,0.1-0.8,0.4-1.1c0.3-0.3,0.7-0.5,1.1-0.5c0.4,0,0.8,0.1,1.1,0.4
			c0.3,0.3,0.5,0.6,0.5,1l0,0.2h-0.8V86c0-0.4-0.4-0.7-0.8-0.7c-0.4,0-0.8,0.3-0.8,0.8c0,0.4,0.2,0.7,0.7,0.9l0.7,0.2
			c0.8,0.3,1.2,0.8,1.2,1.5c0,0.5-0.1,1-0.5,1.3c-0.4,0.4-0.9,0.5-1.4,0.5c-0.5,0-0.9-0.2-1.2-0.6c-0.3-0.3-0.5-0.8-0.5-1.3h0.8V89z
			"/>
		<path class="st26" d="M486.2,88.6c-0.2,0.6-0.6,1.1-1.1,1.5s-1.1,0.5-1.7,0.5c-0.8,0-1.5-0.3-2.1-0.8c-0.6-0.6-0.9-1.3-0.9-2.1
			c0-0.8,0.3-1.6,0.9-2.2c0.6-0.6,1.4-0.9,2.2-0.9c0.8,0,1.4,0.4,2,0.9c0.5,0.6,0.8,1.2,0.8,1.9v0.4h-5.1c0.1,0.6,0.3,1,0.7,1.4
			s0.9,0.6,1.5,0.5c0.9,0,1.5-0.4,1.9-1.2H486.2z M485.6,87.2c-0.1-0.5-0.4-1-0.8-1.3c-0.4-0.3-0.9-0.5-1.4-0.5s-1,0.2-1.4,0.5
			c-0.4,0.3-0.7,0.8-0.8,1.3H485.6z"/>
		<path class="st26" d="M497.1,90.5h-0.9l-2.6-3.5h0.8c0.7,0,1.2-0.2,1.6-0.5s0.6-0.8,0.5-1.3c0-0.5-0.2-0.9-0.5-1.2
			c-0.3-0.3-0.8-0.5-1.4-0.5h-1.7v7H492v-7.7h2.5c0.8,0,1.5,0.2,2,0.7s0.7,1.1,0.7,1.8c0,0.6-0.2,1.1-0.6,1.6
			c-0.4,0.4-0.9,0.7-1.5,0.7l-0.2,0L497.1,90.5z"/>
		<path class="st26" d="M503.7,88.6c-0.2,0.6-0.6,1.1-1.1,1.5s-1.1,0.5-1.7,0.5c-0.8,0-1.5-0.3-2.1-0.8c-0.6-0.6-0.9-1.3-0.9-2.1
			c0-0.8,0.3-1.6,0.9-2.2c0.6-0.6,1.4-0.9,2.2-0.9c0.8,0,1.4,0.4,2,0.9c0.5,0.6,0.8,1.2,0.8,1.9v0.4h-5.1c0.1,0.6,0.3,1,0.7,1.4
			s0.9,0.6,1.5,0.5c0.9,0,1.5-0.4,1.9-1.2H503.7z M503.1,87.2c-0.1-0.5-0.4-1-0.8-1.3c-0.4-0.3-0.9-0.5-1.4-0.5s-1,0.2-1.4,0.5
			c-0.4,0.3-0.7,0.8-0.8,1.3H503.1z"/>
		<path class="st26" d="M510.4,90.5h-0.7v-0.9c-0.6,0.7-1.4,1-2.3,1c-0.8,0-1.5-0.3-2-0.9c-0.5-0.6-0.8-1.3-0.8-2.1
			c0-0.8,0.3-1.5,0.9-2.1c0.6-0.6,1.3-0.9,2.1-0.8c0.8,0,1.5,0.3,2,0.9c0.6,0.6,0.8,1.3,0.8,2.1v0V90.5z M505.3,87.6
			c0,0.6,0.2,1.1,0.6,1.6c0.4,0.5,0.9,0.7,1.5,0.7c0.6,0,1.2-0.2,1.6-0.6c0.5-0.5,0.7-1,0.7-1.6c0-0.6-0.2-1.1-0.6-1.5
			c-0.4-0.4-0.9-0.6-1.5-0.6c-0.6,0-1.1,0.2-1.5,0.6S505.3,86.9,505.3,87.6z"/>
		<path class="st26" d="M512,90.5h-0.8v-7.7h0.8V90.5z"/>
		<path class="st26" d="M514.9,90.6c-1.4,0-2.1-0.6-2.1-1.8v-6h0.8v2h1.3v0.7h-1.3v3.2c0,0.8,0.4,1.3,1.3,1.3V90.6z"/>
		<path class="st26" d="M516.3,84.1h-0.8v-1.3h0.8V84.1z M516.3,90.5h-0.8v-5.7h0.8V90.5z"/>
		<path class="st26" d="M525.4,90.5h-0.8V87c0-0.4-0.1-0.8-0.4-1.1s-0.6-0.5-1-0.5c-0.4,0-0.8,0.1-1.1,0.4c-0.3,0.3-0.5,0.6-0.5,1
			v3.7h-0.8v-3.7c0-0.4-0.2-0.8-0.5-1c-0.3-0.3-0.7-0.4-1.1-0.4c-0.4,0-0.7,0.2-1,0.5c-0.2,0.3-0.4,0.7-0.4,1.1v3.5h-0.8v-3.4
			c0-0.7,0.2-1.3,0.6-1.7c0.4-0.4,0.9-0.6,1.5-0.7c0.8-0.1,1.5,0.3,2,1.1c0.5-0.8,1.1-1.1,2-1.1c0.6,0,1.1,0.3,1.5,0.7
			c0.4,0.4,0.6,1,0.6,1.7V90.5z"/>
		<path class="st26" d="M531.9,88.6c-0.2,0.6-0.6,1.1-1.1,1.5s-1.1,0.5-1.7,0.5c-0.8,0-1.5-0.3-2.1-0.8c-0.6-0.6-0.9-1.3-0.9-2.1
			c0-0.8,0.3-1.6,0.9-2.2c0.6-0.6,1.4-0.9,2.2-0.9c0.8,0,1.4,0.4,2,0.9c0.5,0.6,0.8,1.2,0.8,1.9v0.4H527c0.1,0.6,0.3,1,0.7,1.4
			s0.9,0.6,1.5,0.5c0.9,0,1.5-0.4,1.9-1.2H531.9z M531.3,87.2c-0.1-0.5-0.4-1-0.7-1.3s-0.9-0.5-1.4-0.5s-1,0.2-1.4,0.5
			c-0.4,0.3-0.7,0.8-0.8,1.3H531.3z"/>
	</g>
	<g class="st8">
		<path class="st26" d="M453.4,102.5h-0.8v-7.7h2.5c0.8,0,1.4,0.2,1.9,0.7c0.5,0.5,0.7,1,0.7,1.7c0,0.6-0.2,1.1-0.7,1.6
			s-1,0.6-1.7,0.6h-1.9V102.5z M455.2,98.7c0.5,0,0.9-0.1,1.2-0.5c0.4-0.3,0.5-0.7,0.5-1.2c0-0.4-0.2-0.8-0.6-1.1
			c-0.3-0.3-0.8-0.4-1.2-0.4h-1.7v3.2H455.2z"/>
		<path class="st26" d="M458.9,102.5h-0.8v-5.7h0.7v0.8c0.2-0.3,0.4-0.5,0.7-0.7c0.3-0.1,0.6-0.2,0.9-0.2v0.8
			c-0.3,0-0.6,0.1-0.9,0.3c-0.2,0.2-0.4,0.3-0.5,0.5c-0.1,0.2-0.2,0.5-0.2,0.9V102.5z"/>
		<path class="st26" d="M466,101.7c-0.6,0.6-1.3,0.9-2.1,0.8c-0.8,0-1.5-0.3-2-0.9c-0.5-0.6-0.8-1.3-0.8-2.1c0-0.8,0.3-1.5,0.9-2.1
			c0.6-0.6,1.3-0.9,2.1-0.9c0.8,0,1.5,0.3,2,0.9c0.5,0.6,0.8,1.3,0.8,2.1C466.9,100.4,466.6,101.1,466,101.7z M463.8,101.8
			c0.6,0,1.2-0.2,1.6-0.6c0.4-0.5,0.7-1,0.6-1.6c0-0.6-0.2-1.1-0.6-1.5c-0.4-0.4-0.9-0.6-1.5-0.6c-0.6,0-1.1,0.2-1.5,0.6
			c-0.4,0.4-0.6,0.9-0.7,1.5c0,0.6,0.2,1.1,0.6,1.6C462.8,101.6,463.3,101.8,463.8,101.8z"/>
		<path class="st26" d="M472.6,101.7c-0.6,0.6-1.3,0.9-2.1,0.8c-0.8,0-1.5-0.3-2-0.9c-0.5-0.6-0.8-1.3-0.8-2.1
			c0-0.8,0.3-1.5,0.9-2.1c0.6-0.6,1.3-0.9,2.1-0.9c0.8,0,1.5,0.3,2,0.9c0.5,0.6,0.8,1.3,0.8,2.1
			C473.5,100.4,473.2,101.1,472.6,101.7z M470.5,101.8c0.6,0,1.2-0.2,1.6-0.6c0.4-0.5,0.7-1,0.6-1.6c0-0.6-0.2-1.1-0.6-1.5
			c-0.4-0.4-0.9-0.6-1.5-0.6c-0.6,0-1.1,0.2-1.5,0.6c-0.4,0.4-0.6,0.9-0.7,1.5c0,0.6,0.2,1.1,0.6,1.6
			C469.4,101.6,469.9,101.8,470.5,101.8z"/>
		<path class="st26" d="M475,102.5h-0.8v-5.8c0-1.2,0.8-1.9,2-1.9h0.2v0.7l-0.2,0c-0.4,0-0.7,0.1-0.8,0.3c-0.2,0.3-0.4,0.5-0.4,0.8
			v0.2h1.4v0.7H475V102.5z"/>
		<path class="st26" d="M487,101.7c-0.6,0.6-1.3,0.9-2.1,0.8c-0.8,0-1.5-0.3-2-0.9c-0.5-0.6-0.8-1.3-0.8-2.1c0-0.8,0.3-1.5,0.9-2.1
			c0.6-0.6,1.3-0.9,2.1-0.9c0.8,0,1.5,0.3,2,0.9c0.5,0.6,0.8,1.3,0.8,2.1C487.9,100.4,487.6,101.1,487,101.7z M484.9,101.8
			c0.6,0,1.2-0.2,1.6-0.6c0.4-0.5,0.7-1,0.6-1.6c0-0.6-0.2-1.1-0.6-1.5c-0.4-0.4-0.9-0.6-1.5-0.6c-0.6,0-1.1,0.2-1.5,0.6
			c-0.4,0.4-0.6,0.9-0.7,1.5c0,0.6,0.2,1.1,0.6,1.6C483.9,101.6,484.3,101.8,484.9,101.8z"/>
		<path class="st26" d="M489.5,102.5h-0.8v-5.8c0-1.2,0.8-1.9,2-1.9h0.2v0.7l-0.2,0c-0.4,0-0.7,0.1-0.8,0.3
			c-0.2,0.3-0.4,0.5-0.4,0.8v0.2h1.4v0.7h-1.4V102.5z"/>
		<path class="st26" d="M497.3,102.5h-0.8v-5.8c0-1.2,0.8-1.9,2-1.9h2.2v0.7h-2.2c-0.4,0-0.7,0.1-0.8,0.2c-0.2,0.3-0.4,0.5-0.4,0.8
			v1.7h2.6v0.7h-2.6V102.5z"/>
		<path class="st26" d="M506.1,100c0,0.7-0.2,1.4-0.7,1.8c-0.5,0.5-1.1,0.7-1.8,0.7s-1.3-0.2-1.8-0.7c-0.5-0.5-0.7-1.1-0.7-1.8v-3.2
			h0.8v3.3c0,0.5,0.2,0.9,0.5,1.2c0.3,0.3,0.8,0.5,1.2,0.5s0.9-0.2,1.2-0.5c0.4-0.3,0.5-0.8,0.5-1.2v-3.3h0.8V100z"/>
		<path class="st26" d="M512,102.5h-0.8v-3.3c0-0.5-0.2-0.9-0.5-1.2c-0.4-0.3-0.8-0.5-1.2-0.5s-0.9,0.2-1.2,0.5
			c-0.3,0.4-0.5,0.8-0.5,1.2v3.3h-0.8v-3.2c0-0.7,0.2-1.3,0.7-1.8c0.5-0.5,1.1-0.7,1.8-0.7c0.7,0,1.3,0.2,1.8,0.7
			c0.5,0.5,0.7,1.1,0.7,1.8V102.5z"/>
		<path class="st26" d="M518.7,99.6c0,0.8-0.3,1.5-0.9,2.1c-0.6,0.6-1.3,0.9-2.1,0.8c-0.8,0-1.5-0.3-2-0.9c-0.5-0.6-0.8-1.3-0.8-2.1
			c0-0.8,0.3-1.5,0.9-2.1c0.6-0.6,1.3-0.9,2.1-0.9c0.8,0,1.5,0.4,2.1,1v-2.9h0.7V99.6z M515.7,101.9c0.6,0,1.2-0.2,1.6-0.7
			c0.5-0.5,0.7-1,0.6-1.6c0-0.6-0.2-1.1-0.6-1.5c-0.4-0.4-0.9-0.6-1.5-0.6c-0.6,0-1.1,0.2-1.5,0.6s-0.6,0.9-0.6,1.5
			c0,0.6,0.2,1.1,0.6,1.6C514.6,101.6,515.1,101.9,515.7,101.9z"/>
		<path class="st26" d="M532.4,102.5h-0.8l-1.1-2.6h-3.6l-1.1,2.6h-1l3.4-7.7h0.9L532.4,102.5z M530.1,99.2l-1.5-3.5l-1.5,3.5H530.1
			z"/>
		<path class="st26" d="M533.7,102.5h-0.8v-7.7h2.5c0.8,0,1.4,0.2,1.9,0.7c0.5,0.5,0.8,1,0.7,1.7c0,0.6-0.2,1.1-0.7,1.6
			s-1,0.6-1.7,0.6h-1.9V102.5z M535.4,98.7c0.5,0,0.9-0.1,1.2-0.5c0.4-0.3,0.5-0.7,0.5-1.2c0-0.4-0.2-0.8-0.6-1.1
			c-0.4-0.3-0.8-0.4-1.2-0.4h-1.7v3.2H535.4z"/>
		<path class="st26" d="M539.2,102.5h-0.8v-7.7h0.8V102.5z"/>
	</g>
	<g id="XMLID_2077_">
		<g id="XMLID_2078_">
			<polyline id="XMLID_2082_" class="st22" points="251,287 251,288.5 249.9,289.4 			"/>
			<path id="XMLID_2081_" class="st23" d="M247.5,291.3l-6.3,5c-0.9,0.7,0.1,1.7,1.4,1.5l5.4-0.9"/>
			<polyline id="XMLID_2080_" class="st22" points="249.6,296.8 251,296.5 251,298 			"/>
			<path id="XMLID_2079_" class="st24" d="M251.3,301c1.3,4.3,7.1,7.5,13.9,7.5h87.7c7.8,0,14.2-4.2,14.2-9.3v-15.9
				c0-5.1-6.4-9.3-14.2-9.3h-87.7c-7.8,0-14.2,4.2-14.2,9.3v2.2"/>
		</g>
	</g>
	<g class="st8">
		<path class="st26" d="M271.1,288.5h-2.2c-1.2,0-2-0.7-2-1.9v-3.9c0-1.2,0.8-1.9,2-1.9h2.2v0.7h-2.2c-0.4,0-0.7,0.1-0.8,0.2
			c-0.2,0.3-0.4,0.5-0.4,0.8v1.7h2.6v0.7h-2.6v1.8c0,0.3,0.1,0.5,0.4,0.8c0.2,0.2,0.4,0.2,0.8,0.2h2.2V288.5z"/>
		<path class="st26" d="M276.3,288.5h-0.9l-1.5-2.3l-1.5,2.3h-0.9l1.9-2.9l-1.9-2.8h0.9l1.5,2.2l1.5-2.2h0.9l-2,2.8L276.3,288.5z"/>
		<path class="st26" d="M277.9,290.5h-0.7v-4.8c0,0,0,0,0,0c0-0.8,0.3-1.5,0.9-2.1c0.6-0.6,1.3-0.9,2.1-0.9c0.8,0,1.5,0.3,2,0.9
			s0.8,1.3,0.8,2.1c0,0.8-0.3,1.5-0.9,2.1c-0.6,0.6-1.3,0.9-2.1,0.8c-0.8,0-1.5-0.4-2.1-1V290.5z M280.1,283.4
			c-0.6,0-1.2,0.2-1.6,0.7c-0.4,0.5-0.6,1-0.6,1.6c0,0.6,0.2,1.1,0.6,1.5c0.4,0.4,0.9,0.6,1.5,0.6c0.6,0,1.1-0.2,1.5-0.6
			c0.4-0.4,0.6-0.9,0.7-1.5c0-0.6-0.2-1.1-0.6-1.6C281.2,283.6,280.7,283.4,280.1,283.4z"/>
		<path class="st26" d="M288.7,287.7c-0.6,0.6-1.3,0.9-2.1,0.8c-0.8,0-1.5-0.3-2-0.9c-0.5-0.6-0.8-1.3-0.8-2.1
			c0-0.8,0.3-1.5,0.9-2.1c0.6-0.6,1.3-0.9,2.1-0.9c0.8,0,1.5,0.3,2,0.9c0.5,0.6,0.8,1.3,0.8,2.1
			C289.6,286.4,289.3,287.1,288.7,287.7z M286.6,287.8c0.6,0,1.2-0.2,1.6-0.6c0.4-0.5,0.7-1,0.6-1.6c0-0.6-0.2-1.1-0.6-1.5
			c-0.4-0.4-0.9-0.6-1.5-0.6c-0.6,0-1.1,0.2-1.5,0.6c-0.4,0.4-0.6,0.9-0.7,1.5c0,0.6,0.2,1.1,0.6,1.6
			C285.5,287.6,286,287.8,286.6,287.8z"/>
		<path class="st26" d="M291.1,287c0,0.2,0.1,0.4,0.3,0.6c0.2,0.2,0.4,0.3,0.7,0.3c0.3,0,0.6-0.1,0.8-0.3c0.2-0.2,0.2-0.4,0.3-0.7
			c0-0.5-0.3-0.8-0.8-1l-0.7-0.2c-0.7-0.2-1.1-0.7-1.1-1.4c0-0.4,0.1-0.8,0.4-1.1c0.3-0.3,0.7-0.5,1.1-0.5c0.4,0,0.8,0.1,1.1,0.4
			c0.3,0.3,0.5,0.6,0.5,1l0,0.2H293V284c0-0.4-0.4-0.7-0.8-0.7c-0.4,0-0.8,0.3-0.8,0.8c0,0.4,0.2,0.7,0.7,0.9l0.7,0.2
			c0.8,0.3,1.2,0.8,1.2,1.5c0,0.5-0.1,1-0.5,1.3c-0.4,0.4-0.9,0.5-1.4,0.5c-0.5,0-0.9-0.2-1.2-0.6c-0.3-0.3-0.5-0.8-0.5-1.3h0.8V287
			z"/>
		<path class="st26" d="M300.5,286.6c-0.2,0.6-0.6,1.1-1.1,1.5s-1.1,0.5-1.7,0.5c-0.8,0-1.5-0.3-2.1-0.8c-0.6-0.6-0.9-1.3-0.9-2.1
			c0-0.8,0.3-1.6,0.9-2.2c0.6-0.6,1.4-0.9,2.2-0.9c0.8,0,1.4,0.4,2,0.9c0.5,0.6,0.8,1.2,0.8,1.9v0.4h-5.1c0.1,0.6,0.3,1,0.7,1.4
			s0.9,0.6,1.5,0.5c0.9,0,1.5-0.4,1.9-1.2H300.5z M299.8,285.2c-0.1-0.5-0.4-1-0.8-1.3c-0.4-0.3-0.9-0.5-1.4-0.5s-1,0.2-1.4,0.5
			c-0.4,0.3-0.7,0.8-0.8,1.3H299.8z"/>
		<path class="st26" d="M311.4,288.5h-0.9l-2.6-3.5h0.8c0.7,0,1.2-0.2,1.6-0.5s0.6-0.8,0.5-1.3c0-0.5-0.2-0.9-0.5-1.2
			c-0.3-0.3-0.8-0.5-1.4-0.5h-1.7v7h-0.8v-7.7h2.5c0.8,0,1.5,0.2,2,0.7s0.7,1.1,0.7,1.8c0,0.6-0.2,1.1-0.6,1.6
			c-0.4,0.4-0.9,0.7-1.5,0.7l-0.2,0L311.4,288.5z"/>
		<path class="st26" d="M318,286.6c-0.2,0.6-0.6,1.1-1.1,1.5s-1.1,0.5-1.7,0.5c-0.8,0-1.5-0.3-2.1-0.8c-0.6-0.6-0.9-1.3-0.9-2.1
			c0-0.8,0.3-1.6,0.9-2.2c0.6-0.6,1.4-0.9,2.2-0.9c0.8,0,1.4,0.4,2,0.9c0.5,0.6,0.8,1.2,0.8,1.9v0.4H313c0.1,0.6,0.3,1,0.7,1.4
			s0.9,0.6,1.5,0.5c0.9,0,1.5-0.4,1.9-1.2H318z M317.4,285.2c-0.1-0.5-0.4-1-0.8-1.3c-0.4-0.3-0.9-0.5-1.4-0.5s-1,0.2-1.4,0.5
			c-0.4,0.3-0.7,0.8-0.8,1.3H317.4z"/>
		<path class="st26" d="M324.7,288.5h-0.7v-0.9c-0.6,0.7-1.4,1-2.3,1c-0.8,0-1.5-0.3-2-0.9c-0.5-0.6-0.8-1.3-0.8-2.1
			c0-0.8,0.3-1.5,0.9-2.1c0.6-0.6,1.3-0.9,2.1-0.8c0.8,0,1.5,0.3,2,0.9c0.6,0.6,0.8,1.3,0.8,2.1v0V288.5z M319.6,285.6
			c0,0.6,0.2,1.1,0.6,1.6c0.4,0.5,0.9,0.7,1.5,0.7c0.6,0,1.2-0.2,1.6-0.6c0.5-0.5,0.7-1,0.7-1.6c0-0.6-0.2-1.1-0.6-1.5
			c-0.4-0.4-0.9-0.6-1.5-0.6c-0.6,0-1.1,0.2-1.5,0.6S319.6,284.9,319.6,285.6z"/>
		<path class="st26" d="M326.2,288.5h-0.8v-7.7h0.8V288.5z"/>
		<path class="st26" d="M329.2,288.6c-1.4,0-2.1-0.6-2.1-1.8v-6h0.8v2h1.3v0.7h-1.3v3.2c0,0.8,0.4,1.3,1.3,1.3V288.6z"/>
		<path class="st26" d="M330.6,282.1h-0.8v-1.3h0.8V282.1z M330.6,288.5h-0.8v-5.7h0.8V288.5z"/>
		<path class="st26" d="M339.6,288.5h-0.8V285c0-0.4-0.1-0.8-0.4-1.1s-0.6-0.5-1-0.5c-0.4,0-0.8,0.1-1.1,0.4c-0.3,0.3-0.5,0.6-0.5,1
			v3.7h-0.8v-3.7c0-0.4-0.2-0.8-0.5-1c-0.3-0.3-0.7-0.4-1.1-0.4c-0.4,0-0.7,0.2-1,0.5c-0.2,0.3-0.4,0.7-0.4,1.1v3.5h-0.8v-3.4
			c0-0.7,0.2-1.3,0.6-1.7c0.4-0.4,0.9-0.6,1.5-0.7c0.8-0.1,1.5,0.3,2,1.1c0.5-0.8,1.1-1.1,2-1.1c0.6,0,1.1,0.3,1.5,0.7
			c0.4,0.4,0.6,1,0.6,1.7V288.5z"/>
		<path class="st26" d="M346.2,286.6c-0.2,0.6-0.6,1.1-1.1,1.5s-1.1,0.5-1.7,0.5c-0.8,0-1.5-0.3-2.1-0.8c-0.6-0.6-0.9-1.3-0.9-2.1
			c0-0.8,0.3-1.6,0.9-2.2c0.6-0.6,1.4-0.9,2.2-0.9c0.8,0,1.4,0.4,2,0.9c0.5,0.6,0.8,1.2,0.8,1.9v0.4h-5.1c0.1,0.6,0.3,1,0.7,1.4
			s0.9,0.6,1.5,0.5c0.9,0,1.5-0.4,1.9-1.2H346.2z M345.6,285.2c-0.1-0.5-0.4-1-0.7-1.3s-0.9-0.5-1.4-0.5s-1,0.2-1.4,0.5
			c-0.4,0.3-0.7,0.8-0.8,1.3H345.6z"/>
	</g>
	<g class="st8">
		<path class="st26" d="M267.7,300.5h-0.8v-7.7h2.5c0.8,0,1.4,0.2,1.9,0.7c0.5,0.5,0.7,1,0.7,1.7c0,0.6-0.2,1.1-0.7,1.6
			s-1,0.6-1.7,0.6h-1.9V300.5z M269.4,296.7c0.5,0,0.9-0.1,1.2-0.5c0.4-0.3,0.5-0.7,0.5-1.2c0-0.4-0.2-0.8-0.6-1.1
			c-0.3-0.3-0.8-0.4-1.2-0.4h-1.7v3.2H269.4z"/>
		<path class="st26" d="M273.2,300.5h-0.8v-5.7h0.7v0.8c0.2-0.3,0.4-0.5,0.7-0.7c0.3-0.1,0.6-0.2,0.9-0.2v0.8
			c-0.3,0-0.6,0.1-0.9,0.3c-0.2,0.2-0.4,0.3-0.5,0.5c-0.1,0.2-0.2,0.5-0.2,0.9V300.5z"/>
		<path class="st26" d="M280.2,299.7c-0.6,0.6-1.3,0.9-2.1,0.8c-0.8,0-1.5-0.3-2-0.9c-0.5-0.6-0.8-1.3-0.8-2.1
			c0-0.8,0.3-1.5,0.9-2.1c0.6-0.6,1.3-0.9,2.1-0.9c0.8,0,1.5,0.3,2,0.9c0.5,0.6,0.8,1.3,0.8,2.1
			C281.1,298.4,280.8,299.1,280.2,299.7z M278.1,299.8c0.6,0,1.2-0.2,1.6-0.6c0.4-0.5,0.7-1,0.6-1.6c0-0.6-0.2-1.1-0.6-1.5
			c-0.4-0.4-0.9-0.6-1.5-0.6c-0.6,0-1.1,0.2-1.5,0.6c-0.4,0.4-0.6,0.9-0.7,1.5c0,0.6,0.2,1.1,0.6,1.6
			C277,299.6,277.5,299.8,278.1,299.8z"/>
		<path class="st26" d="M286.9,299.7c-0.6,0.6-1.3,0.9-2.1,0.8c-0.8,0-1.5-0.3-2-0.9c-0.5-0.6-0.8-1.3-0.8-2.1
			c0-0.8,0.3-1.5,0.9-2.1c0.6-0.6,1.3-0.9,2.1-0.9c0.8,0,1.5,0.3,2,0.9c0.5,0.6,0.8,1.3,0.8,2.1
			C287.8,298.4,287.5,299.1,286.9,299.7z M284.7,299.8c0.6,0,1.2-0.2,1.6-0.6c0.4-0.5,0.7-1,0.6-1.6c0-0.6-0.2-1.1-0.6-1.5
			c-0.4-0.4-0.9-0.6-1.5-0.6c-0.6,0-1.1,0.2-1.5,0.6c-0.4,0.4-0.6,0.9-0.7,1.5c0,0.6,0.2,1.1,0.6,1.6
			C283.7,299.6,284.2,299.8,284.7,299.8z"/>
		<path class="st26" d="M289.3,300.5h-0.8v-5.8c0-1.2,0.8-1.9,2-1.9h0.2v0.7l-0.2,0c-0.4,0-0.7,0.1-0.8,0.3
			c-0.2,0.3-0.4,0.5-0.4,0.8v0.2h1.4v0.7h-1.4V300.5z"/>
		<path class="st26" d="M301.3,299.7c-0.6,0.6-1.3,0.9-2.1,0.8c-0.8,0-1.5-0.3-2-0.9c-0.5-0.6-0.8-1.3-0.8-2.1
			c0-0.8,0.3-1.5,0.9-2.1c0.6-0.6,1.3-0.9,2.1-0.9c0.8,0,1.5,0.3,2,0.9c0.5,0.6,0.8,1.3,0.8,2.1
			C302.2,298.4,301.9,299.1,301.3,299.7z M299.2,299.8c0.6,0,1.2-0.2,1.6-0.6c0.4-0.5,0.7-1,0.6-1.6c0-0.6-0.2-1.1-0.6-1.5
			c-0.4-0.4-0.9-0.6-1.5-0.6c-0.6,0-1.1,0.2-1.5,0.6c-0.4,0.4-0.6,0.9-0.7,1.5c0,0.6,0.2,1.1,0.6,1.6
			C298.1,299.6,298.6,299.8,299.2,299.8z"/>
		<path class="st26" d="M303.8,300.5H303v-5.8c0-1.2,0.8-1.9,2-1.9h0.2v0.7l-0.2,0c-0.4,0-0.7,0.1-0.8,0.3c-0.2,0.3-0.4,0.5-0.4,0.8
			v0.2h1.4v0.7h-1.4V300.5z"/>
		<path class="st26" d="M313.3,300.5h-0.8v-7h-1.7v-0.7h4.3v0.7h-1.7V300.5z"/>
		<path class="st26" d="M320.6,299.7c-0.6,0.6-1.3,0.9-2.1,0.8c-0.8,0-1.5-0.3-2-0.9c-0.5-0.6-0.8-1.3-0.8-2.1
			c0-0.8,0.3-1.5,0.9-2.1c0.6-0.6,1.3-0.9,2.1-0.9c0.8,0,1.5,0.3,2,0.9c0.5,0.6,0.8,1.3,0.8,2.1
			C321.5,298.4,321.2,299.1,320.6,299.7z M318.5,299.8c0.6,0,1.2-0.2,1.6-0.6c0.5-0.5,0.7-1,0.6-1.6c0-0.6-0.2-1.1-0.6-1.5
			s-0.9-0.6-1.5-0.6c-0.6,0-1.1,0.2-1.5,0.6s-0.6,0.9-0.6,1.5c0,0.6,0.2,1.1,0.6,1.6C317.4,299.6,317.9,299.8,318.5,299.8z"/>
		<path class="st26" d="M326.8,300.5h-1l-1.8-2.2l-0.9,1.1v1.1h-0.8v-7.7h0.8v5.4l2.6-3.4h0.9l-2.2,2.9L326.8,300.5z"/>
		<path class="st26" d="M333.1,298.6c-0.2,0.6-0.6,1.1-1.1,1.5s-1.1,0.5-1.7,0.5c-0.8,0-1.5-0.3-2.1-0.8c-0.6-0.6-0.9-1.3-0.9-2.1
			c0-0.8,0.3-1.6,0.9-2.2c0.6-0.6,1.4-0.9,2.2-0.9c0.8,0,1.4,0.4,2,0.9c0.5,0.6,0.8,1.2,0.8,1.9v0.4h-5.1c0.1,0.6,0.3,1,0.7,1.4
			s0.9,0.6,1.5,0.5c0.9,0,1.5-0.4,1.9-1.2H333.1z M332.5,297.2c-0.1-0.5-0.4-1-0.7-1.3s-0.9-0.5-1.4-0.5s-1,0.2-1.4,0.5
			c-0.4,0.3-0.7,0.8-0.8,1.3H332.5z"/>
		<path class="st26" d="M339,300.5h-0.8v-3.3c0-0.5-0.2-0.9-0.5-1.2c-0.3-0.3-0.7-0.5-1.2-0.5s-0.9,0.2-1.2,0.5
			c-0.4,0.4-0.5,0.8-0.5,1.2v3.3h-0.8v-3.2c0-0.7,0.2-1.3,0.7-1.8c0.5-0.5,1.1-0.7,1.8-0.7c0.7,0,1.3,0.2,1.8,0.7
			c0.5,0.5,0.7,1.1,0.7,1.8V300.5z"/>
		<path class="st26" d="M352.6,300.5h-0.8l-1.1-2.6h-3.6l-1.1,2.6h-1l3.4-7.7h0.9L352.6,300.5z M350.4,297.2l-1.5-3.5l-1.5,3.5
			H350.4z"/>
		<path class="st26" d="M353.9,300.5h-0.8v-7.7h2.5c0.8,0,1.4,0.2,1.9,0.7c0.5,0.5,0.7,1,0.7,1.7c0,0.6-0.2,1.1-0.7,1.6
			s-1,0.6-1.7,0.6h-1.9V300.5z M355.7,296.7c0.5,0,0.9-0.1,1.2-0.5c0.4-0.3,0.5-0.7,0.5-1.2c0-0.4-0.2-0.8-0.6-1.1
			c-0.3-0.3-0.8-0.4-1.2-0.4h-1.7v3.2H355.7z"/>
		<path class="st26" d="M359.4,300.5h-0.8v-7.7h0.8V300.5z"/>
	</g>
	<g class="st8">
		<path class="st0" d="M352.2,181.2c-1.4,0-2.1-0.6-2.1-1.8v-6h0.8v2h1.3v0.7h-1.3v3.2c0,0.8,0.4,1.3,1.3,1.3V181.2z"/>
		<path class="st0" d="M353.6,181.1h-0.8v-5.7h0.7v0.8c0.2-0.3,0.4-0.5,0.7-0.7c0.3-0.1,0.6-0.2,0.9-0.2v0.8c-0.3,0-0.6,0.1-0.9,0.3
			s-0.4,0.3-0.4,0.5c-0.1,0.2-0.2,0.5-0.2,0.9V181.1z"/>
		<path class="st0" d="M356.5,174.7h-0.7v-1.3h0.7V174.7z M356.5,181.1h-0.7v-5.7h0.7V181.1z"/>
		<path class="st0" d="M363.2,180.8c0,0.7-0.3,1.3-0.9,1.8s-1.3,0.7-2,0.7c-0.7,0-1.3-0.2-1.8-0.6c-0.5-0.4-0.8-0.8-0.9-1.4h0.7
			c0.1,0.4,0.4,0.7,0.8,1c0.4,0.3,0.8,0.4,1.3,0.4c0.6,0,1-0.2,1.4-0.6c0.4-0.4,0.6-0.8,0.6-1.4v-0.5c-0.6,0.6-1.3,1-2.1,1
			c-0.8,0-1.5-0.3-2.1-0.8c-0.6-0.6-0.9-1.3-0.9-2.1c0-0.8,0.3-1.5,0.8-2.1c0.5-0.6,1.2-0.9,2-0.9c0.8,0,1.5,0.3,2.1,0.9
			c0.6,0.6,0.9,1.3,0.9,2.1V180.8z M361.7,179.8c0.4-0.4,0.6-0.9,0.6-1.5c0-0.6-0.2-1.2-0.6-1.6c-0.4-0.5-1-0.7-1.6-0.7
			c-0.6,0-1.1,0.3-1.5,0.7c-0.4,0.4-0.6,1-0.6,1.6c0,0.6,0.2,1.1,0.7,1.5s0.9,0.6,1.5,0.6C360.8,180.4,361.3,180.2,361.7,179.8z"/>
		<path class="st0" d="M369.8,180.8c0,0.7-0.3,1.3-0.9,1.8s-1.3,0.7-2,0.7c-0.7,0-1.3-0.2-1.8-0.6c-0.5-0.4-0.8-0.8-0.9-1.4h0.7
			c0.1,0.4,0.4,0.7,0.8,1c0.4,0.3,0.8,0.4,1.3,0.4c0.6,0,1-0.2,1.4-0.6c0.4-0.4,0.6-0.8,0.6-1.4v-0.5c-0.6,0.6-1.3,1-2.1,1
			c-0.8,0-1.5-0.3-2.1-0.8c-0.6-0.6-0.9-1.3-0.9-2.1c0-0.8,0.3-1.5,0.8-2.1c0.5-0.6,1.2-0.9,2-0.9c0.8,0,1.5,0.3,2.1,0.9
			c0.6,0.6,0.9,1.3,0.9,2.1V180.8z M368.4,179.8c0.4-0.4,0.6-0.9,0.6-1.5c0-0.6-0.2-1.2-0.6-1.6c-0.4-0.5-1-0.7-1.6-0.7
			c-0.6,0-1.1,0.3-1.5,0.7c-0.4,0.4-0.6,1-0.6,1.6c0,0.6,0.2,1.1,0.7,1.5c0.4,0.4,0.9,0.6,1.5,0.6
			C367.5,180.4,368,180.2,368.4,179.8z"/>
		<path class="st0" d="M376.4,179.2c-0.2,0.6-0.6,1.1-1.1,1.5s-1.1,0.5-1.7,0.5c-0.8,0-1.5-0.3-2.1-0.8c-0.6-0.6-0.9-1.3-0.9-2.1
			c0-0.8,0.3-1.6,0.9-2.2c0.6-0.6,1.4-0.9,2.2-0.9c0.8,0,1.4,0.4,2,0.9c0.5,0.6,0.8,1.2,0.8,1.9v0.4h-5.1c0.1,0.6,0.3,1,0.7,1.4
			s0.9,0.6,1.5,0.5c0.9,0,1.5-0.4,1.9-1.2H376.4z M375.8,177.8c-0.1-0.5-0.4-1-0.7-1.3s-0.9-0.5-1.4-0.5s-1,0.2-1.4,0.5
			c-0.4,0.3-0.7,0.8-0.8,1.3H375.8z"/>
		<path class="st0" d="M377.9,181.1h-0.8v-5.7h0.7v0.8c0.2-0.3,0.4-0.5,0.7-0.7c0.3-0.1,0.6-0.2,0.9-0.2v0.8c-0.3,0-0.6,0.1-0.9,0.3
			s-0.4,0.3-0.4,0.5c-0.1,0.2-0.2,0.5-0.2,0.9V181.1z"/>
		<path class="st0" d="M393.2,181.1h-0.8v-3.5c0-0.4-0.1-0.8-0.4-1.1c-0.2-0.3-0.6-0.5-1-0.5c-0.4,0-0.8,0.1-1.1,0.4
			c-0.3,0.3-0.5,0.6-0.5,1v3.7h-0.8v-3.7c0-0.4-0.1-0.8-0.5-1c-0.3-0.3-0.7-0.4-1.1-0.4c-0.4,0-0.7,0.2-1,0.5s-0.4,0.7-0.4,1.1v3.5
			H385v-3.4c0-0.7,0.2-1.3,0.6-1.7c0.4-0.4,0.9-0.6,1.5-0.7c0.8-0.1,1.5,0.3,2,1.1c0.5-0.8,1.1-1.1,2-1.1c0.6,0,1.1,0.3,1.5,0.7
			c0.4,0.4,0.6,1,0.6,1.7V181.1z"/>
		<path class="st0" d="M394.8,174.7H394v-1.3h0.8V174.7z M394.8,181.1H394v-5.7h0.8V181.1z"/>
		<path class="st0" d="M400.7,181.1h-0.8v-3.3c0-0.5-0.2-0.9-0.5-1.2c-0.4-0.3-0.8-0.5-1.2-0.5s-0.9,0.2-1.2,0.5
			c-0.3,0.4-0.5,0.8-0.5,1.2v3.3h-0.8v-3.2c0-0.7,0.2-1.3,0.7-1.8c0.5-0.5,1.1-0.7,1.8-0.7c0.7,0,1.3,0.2,1.8,0.7
			c0.5,0.5,0.7,1.1,0.7,1.8V181.1z"/>
		<path class="st0" d="M403.5,181.2c-1.4,0-2.1-0.6-2.1-1.8v-6h0.8v2h1.3v0.7h-1.3v3.2c0,0.8,0.4,1.3,1.3,1.3V181.2z"/>
	</g>
	<g class="st8">
		<path class="st0" d="M359.1,195.1h-0.7v-4.8c0,0,0,0,0,0c0-0.8,0.3-1.5,0.9-2.1c0.6-0.6,1.3-0.9,2.1-0.9c0.8,0,1.5,0.3,2,0.9
			s0.8,1.3,0.8,2.1c0,0.8-0.3,1.5-0.9,2.1c-0.6,0.6-1.3,0.9-2.1,0.8c-0.8,0-1.5-0.4-2.1-1V195.1z M361.3,188c-0.6,0-1.2,0.2-1.6,0.7
			c-0.4,0.5-0.6,1-0.6,1.6c0,0.6,0.2,1.1,0.6,1.5c0.4,0.4,0.9,0.6,1.5,0.6c0.6,0,1.1-0.2,1.5-0.6s0.6-0.9,0.7-1.5
			c0-0.6-0.2-1.1-0.6-1.6C362.4,188.3,361.9,188,361.3,188z"/>
		<path class="st0" d="M365.7,193.1h-0.8v-5.7h0.7v0.8c0.2-0.3,0.4-0.5,0.7-0.7c0.3-0.1,0.6-0.2,0.9-0.2v0.8c-0.3,0-0.6,0.1-0.9,0.3
			c-0.2,0.2-0.4,0.3-0.5,0.5c-0.1,0.2-0.2,0.5-0.2,0.9V193.1z"/>
		<path class="st0" d="M372.7,192.4c-0.6,0.6-1.3,0.9-2.1,0.8c-0.8,0-1.5-0.3-2-0.9c-0.5-0.6-0.8-1.3-0.8-2.1c0-0.8,0.3-1.5,0.9-2.1
			c0.6-0.6,1.3-0.9,2.1-0.9c0.8,0,1.5,0.3,2,0.9c0.5,0.6,0.8,1.3,0.8,2.1C373.6,191,373.3,191.8,372.7,192.4z M370.6,192.5
			c0.6,0,1.2-0.2,1.6-0.6c0.4-0.5,0.7-1,0.6-1.6c0-0.6-0.2-1.1-0.6-1.5c-0.4-0.4-0.9-0.6-1.5-0.6c-0.6,0-1.1,0.2-1.5,0.6
			c-0.4,0.4-0.6,0.9-0.7,1.5c0,0.6,0.2,1.1,0.6,1.6C369.5,192.2,370,192.4,370.6,192.5z"/>
		<path class="st0" d="M380.2,191.6c-0.6,1.1-1.5,1.6-2.8,1.6c-0.8,0-1.5-0.3-2.1-0.9c-0.6-0.6-0.9-1.3-0.9-2.1
			c0-0.8,0.3-1.5,0.9-2.1c0.6-0.6,1.3-0.9,2.2-0.9c0.6,0,1.2,0.2,1.7,0.5c0.5,0.3,0.8,0.7,1.1,1.2l0.1,0.2h-0.9
			c-0.4-0.7-1.1-1.1-2-1.1c-0.6,0-1.1,0.2-1.6,0.6c-0.5,0.4-0.7,1-0.7,1.6c0,0.6,0.2,1.1,0.7,1.6c0.5,0.4,1,0.7,1.6,0.6
			c0.9,0,1.5-0.4,2-1.1h0.9L380.2,191.6z"/>
		<path class="st0" d="M386.5,191.2c-0.2,0.6-0.6,1.1-1.1,1.5s-1.1,0.5-1.7,0.5c-0.8,0-1.5-0.3-2.1-0.8c-0.6-0.6-0.9-1.3-0.9-2.1
			c0-0.8,0.3-1.6,0.9-2.2c0.6-0.6,1.4-0.9,2.2-0.9c0.8,0,1.4,0.4,2,0.9c0.5,0.6,0.8,1.2,0.8,1.9v0.4h-5.1c0.1,0.6,0.3,1,0.7,1.4
			s0.9,0.6,1.5,0.5c0.9,0,1.5-0.4,1.9-1.2H386.5z M385.9,189.8c-0.1-0.5-0.4-1-0.7-1.3s-0.9-0.5-1.4-0.5s-1,0.2-1.4,0.5
			c-0.4,0.3-0.7,0.8-0.8,1.3H385.9z"/>
		<path class="st0" d="M388.1,191.6c0,0.2,0.1,0.4,0.3,0.6c0.2,0.2,0.4,0.3,0.7,0.3c0.3,0,0.6-0.1,0.8-0.3c0.2-0.2,0.2-0.4,0.3-0.7
			c0-0.5-0.3-0.8-0.8-1l-0.7-0.2c-0.7-0.2-1.1-0.7-1.1-1.4c0-0.4,0.1-0.8,0.4-1.1c0.3-0.3,0.7-0.5,1.1-0.5c0.4,0,0.8,0.1,1.1,0.4
			c0.3,0.3,0.5,0.6,0.5,1l0,0.2h-0.8v-0.1c0-0.4-0.4-0.7-0.8-0.7c-0.4,0-0.8,0.3-0.8,0.8c0,0.4,0.2,0.7,0.7,0.9l0.7,0.2
			c0.8,0.3,1.2,0.8,1.2,1.5c0,0.5-0.1,1-0.5,1.3c-0.4,0.4-0.9,0.5-1.4,0.5c-0.5,0-0.9-0.2-1.2-0.6c-0.3-0.3-0.5-0.8-0.5-1.3h0.8
			V191.6z"/>
		<path class="st0" d="M392.4,191.6c0,0.2,0.1,0.4,0.3,0.6c0.2,0.2,0.4,0.3,0.7,0.3c0.3,0,0.6-0.1,0.8-0.3c0.2-0.2,0.2-0.4,0.3-0.7
			c0-0.5-0.3-0.8-0.8-1l-0.7-0.2c-0.7-0.2-1.1-0.7-1.1-1.4c0-0.4,0.1-0.8,0.4-1.1c0.3-0.3,0.7-0.5,1.1-0.5c0.4,0,0.8,0.1,1.1,0.4
			c0.3,0.3,0.5,0.6,0.5,1l0,0.2h-0.8v-0.1c0-0.4-0.4-0.7-0.8-0.7c-0.4,0-0.8,0.3-0.8,0.8c0,0.4,0.2,0.7,0.7,0.9l0.7,0.2
			c0.8,0.3,1.2,0.8,1.2,1.5c0,0.5-0.1,1-0.5,1.3c-0.4,0.4-0.9,0.5-1.4,0.5c-0.5,0-0.9-0.2-1.2-0.6c-0.3-0.3-0.5-0.8-0.5-1.3h0.8
			V191.6z"/>
	</g>
	<g id="XMLID_2072_">
		<g id="XMLID_2074_">
			<path id="XMLID_2076_" class="st25" d="M-40.4,166H8.2c5.4,0,9.9,4,9.9,8.8v25.7c0,4.9-4.4,8.8-9.9,8.8h-66.3
				c-5.4,0-9.9-4-9.9-8.8v-23.1c0-6.3,5.8-11.5,12.8-11.5"/>
			<line id="XMLID_2075_" class="st4" x1="-49.6" y1="166" x2="-45.9" y2="166"/>
		</g>
		<path id="XMLID_2073_" class="st3" d="M5.6,205.8h-61.1c-4.4,0-8-3.6-8-8v-20.3c0-4.4,3.6-8,8-8H5.7c4.4,0,8,3.6,8,8v20.3
			C13.7,202.2,10,205.8,5.6,205.8z"/>
	</g>
	<g class="st8">
		<path class="st0" d="M-55.8,183.4c0,0.2,0.1,0.4,0.3,0.6c0.2,0.2,0.4,0.3,0.7,0.3c0.3,0,0.6-0.1,0.8-0.3c0.2-0.2,0.2-0.4,0.3-0.7
			c0-0.5-0.3-0.8-0.8-1l-0.7-0.2c-0.7-0.2-1.1-0.7-1.1-1.4c0-0.4,0.1-0.8,0.4-1.1c0.3-0.3,0.7-0.5,1.1-0.5c0.4,0,0.8,0.1,1.1,0.4
			c0.3,0.3,0.5,0.6,0.5,1l0,0.2h-0.8v-0.1c0-0.4-0.4-0.7-0.8-0.7c-0.4,0-0.8,0.3-0.8,0.8c0,0.4,0.2,0.7,0.7,0.9l0.7,0.2
			c0.8,0.3,1.2,0.8,1.2,1.5c0,0.5-0.1,1-0.5,1.3c-0.4,0.4-0.9,0.5-1.4,0.5c-0.5,0-0.9-0.2-1.2-0.6c-0.3-0.3-0.5-0.8-0.5-1.3h0.8
			V183.4z"/>
		<path class="st0" d="M-46.4,183.1c-0.2,0.6-0.6,1.1-1.1,1.5s-1.1,0.5-1.7,0.5c-0.8,0-1.5-0.3-2.1-0.8c-0.6-0.6-0.9-1.3-0.9-2.1
			c0-0.8,0.3-1.6,0.9-2.2c0.6-0.6,1.4-0.9,2.2-0.9c0.8,0,1.4,0.4,2,0.9c0.5,0.6,0.8,1.2,0.8,1.9v0.4h-5.1c0.1,0.6,0.3,1,0.7,1.4
			s0.9,0.6,1.5,0.5c0.9,0,1.5-0.4,1.9-1.2H-46.4z M-47,181.6c-0.1-0.5-0.4-1-0.7-1.3c-0.4-0.3-0.9-0.5-1.4-0.5s-1,0.2-1.4,0.5
			c-0.4,0.3-0.7,0.8-0.8,1.3H-47z"/>
		<path class="st0" d="M-40.6,184.9h-0.8v-3.3c0-0.5-0.2-0.9-0.5-1.2c-0.4-0.3-0.7-0.5-1.2-0.5s-0.9,0.2-1.2,0.5
			c-0.4,0.4-0.5,0.8-0.5,1.2v3.3h-0.8v-3.2c0-0.7,0.2-1.3,0.7-1.8c0.5-0.5,1.1-0.7,1.8-0.7c0.7,0,1.3,0.2,1.8,0.7
			c0.5,0.5,0.7,1.1,0.7,1.8V184.9z"/>
		<path class="st0" d="M-33.8,182.1c0,0.8-0.3,1.5-0.9,2.1c-0.6,0.6-1.3,0.9-2.1,0.8c-0.8,0-1.5-0.3-2-0.9c-0.5-0.6-0.8-1.3-0.8-2.1
			c0-0.8,0.3-1.5,0.9-2.1c0.6-0.6,1.3-0.9,2.1-0.9c0.8,0,1.5,0.4,2.1,1v-2.9h0.7V182.1z M-36.8,184.3c0.6,0,1.2-0.2,1.6-0.7
			c0.4-0.5,0.7-1,0.6-1.6c0-0.6-0.2-1.1-0.6-1.5s-0.9-0.6-1.5-0.6c-0.6,0-1.1,0.2-1.5,0.6s-0.6,0.9-0.6,1.5c0,0.6,0.2,1.1,0.6,1.6
			C-37.9,184.1-37.4,184.3-36.8,184.3z"/>
		<path class="st0" d="M-22.2,183.4c-0.6,1.1-1.5,1.6-2.8,1.6c-0.8,0-1.5-0.3-2.1-0.9c-0.6-0.6-0.9-1.3-0.9-2.1
			c0-0.8,0.3-1.5,0.9-2.1c0.6-0.6,1.3-0.9,2.2-0.9c0.6,0,1.2,0.2,1.7,0.5c0.5,0.3,0.8,0.7,1.1,1.2l0.1,0.2H-23
			c-0.4-0.7-1.1-1.1-2-1.1c-0.6,0-1.1,0.2-1.6,0.6c-0.5,0.4-0.7,1-0.7,1.6c0,0.6,0.2,1.1,0.7,1.6c0.4,0.4,1,0.7,1.6,0.6
			c0.9,0,1.5-0.4,2-1.1h0.9L-22.2,183.4z"/>
		<path class="st0" d="M-16.7,184.2c-0.6,0.6-1.3,0.9-2.1,0.8c-0.8,0-1.5-0.3-2-0.9c-0.5-0.6-0.8-1.3-0.8-2.1c0-0.8,0.3-1.5,0.9-2.1
			c0.6-0.6,1.3-0.9,2.1-0.9c0.8,0,1.5,0.3,2,0.9c0.5,0.6,0.8,1.3,0.8,2.1C-15.8,182.9-16.1,183.6-16.7,184.2z M-18.8,184.3
			c0.6,0,1.2-0.2,1.6-0.6c0.4-0.5,0.7-1,0.6-1.6c0-0.6-0.2-1.1-0.6-1.5c-0.4-0.4-0.9-0.6-1.5-0.6c-0.6,0-1.1,0.2-1.5,0.6
			c-0.4,0.4-0.6,0.9-0.6,1.5c0,0.6,0.2,1.1,0.6,1.6C-19.9,184.1-19.4,184.3-18.8,184.3z"/>
		<path class="st0" d="M-14.3,178.5h-0.7v-1.3h0.7V178.5z M-14.3,184.9h-0.7v-5.7h0.7V184.9z"/>
		<path class="st0" d="M-8.4,184.9h-0.8v-3.3c0-0.5-0.2-0.9-0.5-1.2c-0.4-0.3-0.7-0.5-1.2-0.5s-0.9,0.2-1.2,0.5
			c-0.4,0.4-0.5,0.8-0.5,1.2v3.3h-0.8v-3.2c0-0.7,0.2-1.3,0.7-1.8c0.5-0.5,1.1-0.7,1.8-0.7c0.7,0,1.3,0.2,1.8,0.7
			c0.5,0.5,0.7,1.1,0.7,1.8V184.9z"/>
		<path class="st0" d="M-0.6,185c-1.4,0-2.1-0.6-2.1-1.8v-6h0.8v2h1.3v0.7h-1.3v3.2c0,0.8,0.4,1.3,1.3,1.3V185z"/>
		<path class="st0" d="M5.1,184.2c-0.6,0.6-1.3,0.9-2.1,0.8c-0.8,0-1.5-0.3-2-0.9c-0.5-0.6-0.8-1.3-0.8-2.1c0-0.8,0.3-1.5,0.9-2.1
			c0.6-0.6,1.3-0.9,2.1-0.9c0.8,0,1.5,0.3,2,0.9c0.5,0.6,0.8,1.3,0.8,2.1C6,182.9,5.7,183.6,5.1,184.2z M3,184.3
			c0.6,0,1.2-0.2,1.6-0.6c0.4-0.5,0.7-1,0.6-1.6c0-0.6-0.2-1.1-0.6-1.5c-0.4-0.4-0.9-0.6-1.5-0.6c-0.6,0-1.1,0.2-1.5,0.6
			c-0.4,0.4-0.6,0.9-0.6,1.5c0,0.6,0.2,1.1,0.6,1.6C1.9,184.1,2.4,184.3,3,184.3z"/>
	</g>
	<g class="st8">
		<path class="st0" d="M-56.6,190.5h-0.7v-1.3h0.7V190.5z M-56.6,196.9h-0.7v-5.7h0.7V196.9z"/>
		<path class="st0" d="M-55,195.4c0,0.2,0.1,0.4,0.3,0.6c0.2,0.2,0.4,0.3,0.7,0.3c0.3,0,0.6-0.1,0.8-0.3c0.2-0.2,0.2-0.4,0.3-0.7
			c0-0.5-0.3-0.8-0.8-1l-0.7-0.2c-0.7-0.2-1.1-0.7-1.1-1.4c0-0.4,0.1-0.8,0.4-1.1c0.3-0.3,0.7-0.5,1.1-0.5c0.4,0,0.8,0.1,1.1,0.4
			c0.3,0.3,0.5,0.6,0.5,1l0,0.2h-0.8v-0.1c0-0.4-0.4-0.7-0.8-0.7c-0.4,0-0.8,0.3-0.8,0.8c0,0.4,0.2,0.7,0.7,0.9l0.7,0.2
			c0.8,0.3,1.2,0.8,1.2,1.5c0,0.5-0.1,1-0.5,1.3c-0.4,0.4-0.9,0.5-1.4,0.5c-0.5,0-0.9-0.2-1.2-0.6c-0.3-0.3-0.5-0.8-0.5-1.3h0.8
			V195.4z"/>
		<path class="st0" d="M-50.6,195.4c0,0.2,0.1,0.4,0.3,0.6c0.2,0.2,0.4,0.3,0.7,0.3c0.3,0,0.6-0.1,0.8-0.3c0.2-0.2,0.2-0.4,0.3-0.7
			c0-0.5-0.3-0.8-0.8-1l-0.7-0.2c-0.7-0.2-1.1-0.7-1.1-1.4c0-0.4,0.1-0.8,0.4-1.1c0.3-0.3,0.7-0.5,1.1-0.5c0.4,0,0.8,0.1,1.1,0.4
			c0.3,0.3,0.5,0.6,0.5,1l0,0.2h-0.8v-0.1c0-0.4-0.4-0.7-0.8-0.7c-0.4,0-0.8,0.3-0.8,0.8c0,0.4,0.2,0.7,0.7,0.9l0.7,0.2
			c0.8,0.3,1.2,0.8,1.2,1.5c0,0.5-0.1,1-0.5,1.3c-0.4,0.4-0.9,0.5-1.4,0.5c-0.5,0-0.9-0.2-1.2-0.6c-0.3-0.3-0.5-0.8-0.5-1.3h0.8
			V195.4z"/>
		<path class="st0" d="M-42,194.5c0,0.7-0.2,1.4-0.7,1.8c-0.5,0.5-1.1,0.7-1.8,0.7s-1.3-0.2-1.8-0.7c-0.5-0.5-0.7-1.1-0.7-1.8v-3.2
			h0.8v3.3c0,0.5,0.2,0.9,0.5,1.2c0.4,0.3,0.8,0.5,1.2,0.5s0.9-0.2,1.2-0.5c0.4-0.3,0.5-0.8,0.5-1.2v-3.3h0.8V194.5z"/>
		<path class="st0" d="M-35.4,195.1c-0.2,0.6-0.6,1.1-1.1,1.5s-1.1,0.5-1.7,0.5c-0.8,0-1.5-0.3-2.1-0.8c-0.6-0.6-0.9-1.3-0.9-2.1
			c0-0.8,0.3-1.6,0.9-2.2c0.6-0.6,1.4-0.9,2.2-0.9c0.8,0,1.4,0.4,2,0.9c0.5,0.6,0.8,1.2,0.8,1.9v0.4h-5.1c0.1,0.6,0.3,1,0.7,1.4
			s0.9,0.6,1.5,0.5c0.9,0,1.5-0.4,1.9-1.2H-35.4z M-36,193.6c-0.1-0.5-0.4-1-0.7-1.3c-0.4-0.3-0.9-0.5-1.4-0.5s-1,0.2-1.4,0.5
			c-0.4,0.3-0.7,0.8-0.8,1.3H-36z"/>
		<path class="st0" d="M-33.8,196.9h-0.8v-5.7h0.7v0.8c0.2-0.3,0.4-0.5,0.7-0.7c0.3-0.1,0.6-0.2,0.9-0.2v0.8c-0.3,0-0.6,0.1-0.9,0.3
			c-0.2,0.2-0.4,0.3-0.4,0.5c-0.1,0.2-0.2,0.5-0.2,0.9V196.9z"/>
		<path class="st0" d="M-31.1,191.6h-0.7v-2.3h0.7V191.6z"/>
		<path class="st0" d="M-29.4,195.4c0,0.2,0.1,0.4,0.3,0.6c0.2,0.2,0.4,0.3,0.7,0.3c0.3,0,0.6-0.1,0.8-0.3c0.2-0.2,0.2-0.4,0.3-0.7
			c0-0.5-0.3-0.8-0.8-1l-0.7-0.2c-0.7-0.2-1.1-0.7-1.1-1.4c0-0.4,0.1-0.8,0.4-1.1c0.3-0.3,0.7-0.5,1.1-0.5c0.4,0,0.8,0.1,1.1,0.4
			c0.3,0.3,0.5,0.6,0.5,1l0,0.2h-0.8v-0.1c0-0.4-0.4-0.7-0.8-0.7c-0.4,0-0.8,0.3-0.8,0.8c0,0.4,0.2,0.7,0.7,0.9l0.7,0.2
			c0.8,0.3,1.2,0.8,1.2,1.5c0,0.5-0.1,1-0.5,1.3c-0.4,0.4-0.9,0.5-1.4,0.5c-0.5,0-0.9-0.2-1.2-0.6c-0.3-0.3-0.5-0.8-0.5-1.3h0.8
			V195.4z"/>
		<path class="st0" d="M-14.5,196.9h-0.9l-1.2-3.8l-1.2,3.8h-0.9l-2.2-5.7h0.8l1.8,4.7l1.3-4.1h0.6l1.3,4l1.8-4.7h0.8L-14.5,196.9z"
			/>
		<path class="st0" d="M-5.9,196.9h-0.7V196c-0.6,0.7-1.4,1-2.3,1c-0.8,0-1.5-0.3-2-0.9c-0.5-0.6-0.8-1.3-0.8-2.1
			c0-0.8,0.3-1.5,0.9-2.1c0.6-0.6,1.3-0.9,2.1-0.8c0.8,0,1.5,0.3,2,0.9c0.6,0.6,0.8,1.3,0.8,2.1v0V196.9z M-11,194
			c0,0.6,0.2,1.1,0.6,1.6c0.4,0.5,0.9,0.7,1.5,0.7c0.6,0,1.2-0.2,1.6-0.6c0.4-0.5,0.7-1,0.6-1.6c0-0.6-0.2-1.1-0.6-1.5
			c-0.4-0.4-0.9-0.6-1.5-0.6c-0.6,0-1.1,0.2-1.5,0.6S-11,193.4-11,194z"/>
		<path class="st0" d="M-4.3,196.9h-0.8v-7.7h0.8V196.9z"/>
		<path class="st0" d="M-2.7,196.9h-0.8v-7.7h0.8V196.9z"/>
		<path class="st0" d="M3.9,195.1c-0.2,0.6-0.6,1.1-1.1,1.5s-1.1,0.5-1.7,0.5c-0.8,0-1.5-0.3-2.1-0.8c-0.6-0.6-0.9-1.3-0.9-2.1
			c0-0.8,0.3-1.6,0.9-2.2c0.6-0.6,1.4-0.9,2.2-0.9c0.8,0,1.4,0.4,2,0.9c0.5,0.6,0.8,1.2,0.8,1.9v0.4h-5.1c0.1,0.6,0.3,1,0.7,1.4
			s0.9,0.6,1.5,0.5c0.9,0,1.5-0.4,1.9-1.2H3.9z M3.3,193.6c-0.1-0.5-0.4-1-0.7-1.3c-0.4-0.3-0.9-0.5-1.4-0.5s-1,0.2-1.4,0.5
			c-0.4,0.3-0.7,0.8-0.8,1.3H3.3z"/>
		<path class="st0" d="M6.8,197c-1.4,0-2.1-0.6-2.1-1.8v-6h0.8v2h1.3v0.7H5.5v3.2c0,0.8,0.4,1.3,1.3,1.3V197z"/>
	</g>
	<g class="st8">
		<path class="st26" d="M113.6,110.3c0,0.2,0.1,0.4,0.3,0.6c0.2,0.2,0.4,0.3,0.7,0.3c0.3,0,0.6-0.1,0.8-0.3c0.2-0.2,0.2-0.4,0.3-0.7
			c0-0.5-0.3-0.8-0.8-1l-0.7-0.2c-0.7-0.2-1.1-0.7-1.1-1.4c0-0.4,0.1-0.8,0.4-1.1c0.3-0.3,0.7-0.5,1.1-0.5c0.4,0,0.8,0.1,1.1,0.4
			c0.3,0.3,0.5,0.6,0.5,1l0,0.2h-0.8v-0.1c0-0.4-0.4-0.7-0.8-0.7c-0.4,0-0.8,0.3-0.8,0.8c0,0.4,0.2,0.7,0.7,0.9l0.7,0.2
			c0.8,0.3,1.2,0.8,1.2,1.5c0,0.5-0.1,1-0.5,1.3c-0.4,0.4-0.9,0.5-1.4,0.5c-0.5,0-0.9-0.2-1.2-0.6c-0.3-0.3-0.5-0.8-0.5-1.3h0.8
			V110.3z"/>
		<path class="st26" d="M122.9,109.9c-0.2,0.6-0.6,1.1-1.1,1.5s-1.1,0.5-1.7,0.5c-0.8,0-1.5-0.3-2.1-0.8c-0.6-0.6-0.9-1.3-0.9-2.1
			c0-0.8,0.3-1.6,0.9-2.2c0.6-0.6,1.4-0.9,2.2-0.9c0.8,0,1.4,0.4,2,0.9c0.5,0.6,0.8,1.2,0.8,1.9v0.4h-5.1c0.1,0.6,0.3,1,0.7,1.4
			s0.9,0.6,1.5,0.5c0.9,0,1.5-0.4,1.9-1.2H122.9z M122.3,108.5c-0.1-0.5-0.4-1-0.7-1.3c-0.4-0.3-0.9-0.5-1.4-0.5s-1,0.2-1.4,0.5
			c-0.4,0.3-0.7,0.8-0.8,1.3H122.3z"/>
		<path class="st26" d="M128.7,111.8H128v-3.3c0-0.5-0.2-0.9-0.5-1.2c-0.4-0.3-0.7-0.5-1.2-0.5s-0.9,0.2-1.2,0.5
			c-0.4,0.4-0.5,0.8-0.5,1.2v3.3h-0.8v-3.2c0-0.7,0.2-1.3,0.7-1.8c0.5-0.5,1.1-0.7,1.8-0.7c0.7,0,1.3,0.2,1.8,0.7
			c0.5,0.5,0.7,1.1,0.7,1.8V111.8z"/>
		<path class="st26" d="M135.5,108.9c0,0.8-0.3,1.5-0.9,2.1c-0.6,0.6-1.3,0.9-2.1,0.8c-0.8,0-1.5-0.3-2-0.9
			c-0.5-0.6-0.8-1.3-0.8-2.1c0-0.8,0.3-1.5,0.9-2.1c0.6-0.6,1.3-0.9,2.1-0.9c0.8,0,1.5,0.4,2.1,1v-2.9h0.7V108.9z M132.5,111.2
			c0.6,0,1.2-0.2,1.6-0.7c0.4-0.5,0.7-1,0.6-1.6c0-0.6-0.2-1.1-0.6-1.5s-0.9-0.6-1.5-0.6c-0.6,0-1.1,0.2-1.5,0.6s-0.6,0.9-0.6,1.5
			c0,0.6,0.2,1.1,0.6,1.6C131.4,110.9,131.9,111.2,132.5,111.2z"/>
		<path class="st26" d="M142.1,111.8h-0.8V106c0-1.2,0.8-1.9,2-1.9h0.2v0.7l-0.2,0c-0.4,0-0.7,0.1-0.8,0.3c-0.2,0.3-0.4,0.5-0.4,0.8
			v0.2h1.4v0.7h-1.4V111.8z"/>
		<path class="st26" d="M144.9,105.4h-0.7v-1.3h0.7V105.4z M144.9,111.8h-0.7v-5.7h0.7V111.8z"/>
		<path class="st26" d="M151.6,111.8h-0.7v-0.9c-0.6,0.7-1.4,1-2.3,1c-0.8,0-1.5-0.3-2-0.9c-0.5-0.6-0.8-1.3-0.8-2.1
			c0-0.8,0.3-1.5,0.9-2.1c0.6-0.6,1.3-0.9,2.1-0.8c0.8,0,1.5,0.3,2,0.9c0.6,0.6,0.8,1.3,0.8,2.1v0V111.8z M146.5,108.9
			c0,0.6,0.2,1.1,0.6,1.6c0.4,0.5,0.9,0.7,1.5,0.7c0.6,0,1.2-0.2,1.6-0.6c0.4-0.5,0.7-1,0.6-1.6c0-0.6-0.2-1.1-0.6-1.5
			c-0.4-0.4-0.9-0.6-1.5-0.6c-0.6,0-1.1,0.2-1.5,0.6S146.5,108.2,146.5,108.9z"/>
		<path class="st26" d="M154.5,111.9c-1.4,0-2.1-0.6-2.1-1.8v-6h0.8v2h1.3v0.7h-1.3v3.2c0,0.8,0.4,1.3,1.3,1.3V111.9z"/>
		<path class="st26" d="M162.2,111.9c-1.4,0-2.1-0.6-2.1-1.8v-6h0.8v2h1.3v0.7h-1.3v3.2c0,0.8,0.4,1.3,1.3,1.3V111.9z"/>
		<path class="st26" d="M167.8,111c-0.6,0.6-1.3,0.9-2.1,0.8c-0.8,0-1.5-0.3-2-0.9c-0.5-0.6-0.8-1.3-0.8-2.1c0-0.8,0.3-1.5,0.9-2.1
			c0.6-0.6,1.3-0.9,2.1-0.9c0.8,0,1.5,0.3,2,0.9c0.5,0.6,0.8,1.3,0.8,2.1C168.7,109.7,168.4,110.4,167.8,111z M165.7,111.1
			c0.6,0,1.2-0.2,1.6-0.6c0.4-0.5,0.7-1,0.6-1.6c0-0.6-0.2-1.1-0.6-1.5c-0.4-0.4-0.9-0.6-1.5-0.6c-0.6,0-1.1,0.2-1.5,0.6
			c-0.4,0.4-0.6,0.9-0.6,1.5c0,0.6,0.2,1.1,0.6,1.6C164.6,110.9,165.1,111.1,165.7,111.1z"/>
		<path class="st26" d="M176.6,111.9c-1.4,0-2.1-0.6-2.1-1.8v-6h0.8v2h1.3v0.7h-1.3v3.2c0,0.8,0.4,1.3,1.3,1.3V111.9z"/>
		<path class="st26" d="M178,111.8h-0.8v-5.7h0.7v0.8c0.2-0.3,0.4-0.5,0.7-0.7c0.3-0.1,0.6-0.2,0.9-0.2v0.8c-0.3,0-0.6,0.1-0.9,0.3
			c-0.2,0.2-0.4,0.3-0.4,0.5c-0.1,0.2-0.2,0.5-0.2,0.9V111.8z"/>
		<path class="st26" d="M185.1,109.3c0,0.7-0.2,1.4-0.7,1.8c-0.5,0.5-1.1,0.7-1.8,0.7s-1.3-0.2-1.8-0.7c-0.5-0.5-0.7-1.1-0.7-1.8
			v-3.2h0.8v3.3c0,0.5,0.2,0.9,0.5,1.2c0.4,0.3,0.8,0.5,1.2,0.5s0.9-0.2,1.2-0.5c0.4-0.3,0.5-0.8,0.5-1.2v-3.3h0.8V109.3z"/>
		<path class="st26" d="M186.8,110.3c0,0.2,0.1,0.4,0.3,0.6c0.2,0.2,0.4,0.3,0.7,0.3c0.3,0,0.6-0.1,0.8-0.3c0.2-0.2,0.2-0.4,0.3-0.7
			c0-0.5-0.3-0.8-0.8-1l-0.7-0.2c-0.7-0.2-1.1-0.7-1.1-1.4c0-0.4,0.1-0.8,0.4-1.1c0.3-0.3,0.7-0.5,1.1-0.5c0.4,0,0.8,0.1,1.1,0.4
			c0.3,0.3,0.5,0.6,0.5,1l0,0.2h-0.8v-0.1c0-0.4-0.4-0.7-0.8-0.7c-0.4,0-0.8,0.3-0.8,0.8c0,0.4,0.2,0.7,0.7,0.9l0.7,0.2
			c0.8,0.3,1.2,0.8,1.2,1.5c0,0.5-0.1,1-0.5,1.3c-0.4,0.4-0.9,0.5-1.4,0.5c-0.5,0-0.9-0.2-1.2-0.6c-0.3-0.3-0.5-0.8-0.5-1.3h0.8
			V110.3z"/>
		<path class="st26" d="M192.4,111.9c-1.4,0-2.1-0.6-2.1-1.8v-6h0.8v2h1.3v0.7h-1.3v3.2c0,0.8,0.4,1.3,1.3,1.3V111.9z"/>
		<path class="st26" d="M203.9,110.3c-0.6,1.1-1.5,1.6-2.8,1.6c-0.8,0-1.5-0.3-2.1-0.9c-0.6-0.6-0.9-1.3-0.9-2.1
			c0-0.8,0.3-1.5,0.9-2.1c0.6-0.6,1.3-0.9,2.2-0.9c0.6,0,1.2,0.2,1.7,0.5c0.5,0.3,0.8,0.7,1.1,1.2l0.1,0.2h-0.9
			c-0.4-0.7-1.1-1.1-2-1.1c-0.6,0-1.1,0.2-1.6,0.6c-0.5,0.4-0.7,1-0.7,1.6c0,0.6,0.2,1.1,0.7,1.6c0.4,0.4,1,0.7,1.6,0.6
			c0.9,0,1.5-0.4,2-1.1h0.9L203.9,110.3z"/>
		<path class="st26" d="M209.3,111c-0.6,0.6-1.3,0.9-2.1,0.8c-0.8,0-1.5-0.3-2-0.9c-0.5-0.6-0.8-1.3-0.8-2.1c0-0.8,0.3-1.5,0.9-2.1
			c0.6-0.6,1.3-0.9,2.1-0.9c0.8,0,1.5,0.3,2,0.9c0.5,0.6,0.8,1.3,0.8,2.1C210.2,109.7,209.9,110.4,209.3,111z M207.2,111.1
			c0.6,0,1.2-0.2,1.6-0.6c0.4-0.5,0.7-1,0.6-1.6c0-0.6-0.2-1.1-0.6-1.5c-0.4-0.4-0.9-0.6-1.5-0.6c-0.6,0-1.1,0.2-1.5,0.6
			c-0.4,0.4-0.6,0.9-0.6,1.5c0,0.6,0.2,1.1,0.6,1.6C206.2,110.9,206.6,111.1,207.2,111.1z"/>
		<path class="st26" d="M219.2,111.8h-0.8v-3.5c0-0.4-0.1-0.8-0.4-1.1c-0.2-0.3-0.6-0.5-1-0.5c-0.4,0-0.8,0.1-1.1,0.4
			c-0.3,0.3-0.5,0.6-0.5,1v3.7h-0.8v-3.7c0-0.4-0.1-0.8-0.5-1c-0.3-0.3-0.7-0.4-1.1-0.4c-0.4,0-0.7,0.2-1,0.5
			c-0.2,0.3-0.4,0.7-0.4,1.1v3.5H211v-3.4c0-0.7,0.2-1.3,0.6-1.7c0.4-0.4,0.9-0.6,1.5-0.7c0.8-0.1,1.5,0.3,2,1.1
			c0.5-0.8,1.1-1.1,2-1.1c0.6,0,1.1,0.3,1.5,0.7c0.4,0.4,0.6,1,0.6,1.7V111.8z"/>
		<path class="st26" d="M220.8,113.8H220V109c0,0,0,0,0,0c0-0.8,0.3-1.5,0.9-2.1c0.6-0.6,1.3-0.9,2.1-0.9c0.8,0,1.5,0.3,2,0.9
			s0.8,1.3,0.8,2.1c0,0.8-0.3,1.5-0.9,2.1c-0.6,0.6-1.3,0.9-2.1,0.8c-0.8,0-1.5-0.4-2.1-1V113.8z M223.1,106.7
			c-0.6,0-1.2,0.2-1.6,0.7c-0.4,0.5-0.6,1-0.6,1.6c0,0.6,0.2,1.1,0.6,1.5s0.9,0.6,1.5,0.6c0.6,0,1.1-0.2,1.5-0.6
			c0.4-0.4,0.6-0.9,0.7-1.5c0-0.6-0.2-1.1-0.6-1.6C224.1,106.9,223.6,106.7,223.1,106.7z"/>
		<path class="st26" d="M232.5,111.8h-0.7v-0.9c-0.6,0.7-1.4,1-2.3,1c-0.8,0-1.5-0.3-2-0.9c-0.5-0.6-0.8-1.3-0.8-2.1
			c0-0.8,0.3-1.5,0.9-2.1c0.6-0.6,1.3-0.9,2.1-0.8c0.8,0,1.5,0.3,2,0.9c0.6,0.6,0.8,1.3,0.8,2.1v0V111.8z M227.4,108.9
			c0,0.6,0.2,1.1,0.6,1.6c0.4,0.5,0.9,0.7,1.5,0.7c0.6,0,1.2-0.2,1.6-0.6c0.4-0.5,0.7-1,0.6-1.6c0-0.6-0.2-1.1-0.6-1.5
			c-0.4-0.4-0.9-0.6-1.5-0.6c-0.6,0-1.1,0.2-1.5,0.6S227.4,108.2,227.4,108.9z"/>
		<path class="st26" d="M238.3,111.8h-0.8v-3.3c0-0.5-0.2-0.9-0.5-1.2c-0.4-0.3-0.7-0.5-1.2-0.5s-0.9,0.2-1.2,0.5
			c-0.4,0.4-0.5,0.8-0.5,1.2v3.3h-0.8v-3.2c0-0.7,0.2-1.3,0.7-1.8c0.5-0.5,1.1-0.7,1.8-0.7c0.7,0,1.3,0.2,1.8,0.7
			c0.5,0.5,0.7,1.1,0.7,1.8V111.8z"/>
		<path class="st26" d="M241.3,113.8h-0.8l0.9-2.2l-2.2-5.5h0.8l1.8,4.5l1.9-4.5h0.8L241.3,113.8z"/>
	</g>
</g>
</svg>
