<?xml version="1.0" encoding="utf-8"?>
<!-- Generator: Adobe Illustrator 19.0.0, SVG Export Plug-In . SVG Version: 6.00 Build 0)  -->
<svg version="1.1" id="图层_1" xmlns="http://www.w3.org/2000/svg" xmlns:xlink="http://www.w3.org/1999/xlink" x="0px" y="0px"
	 viewBox="0 0 800 335.2" style="enable-background:new 0 0 800 335.2;" xml:space="preserve">
<style type="text/css">
	.st0{fill:#377DFF;}
	.st1{fill:#D1ECFF;}
	.st2{fill:none;stroke:#CDDFFF;stroke-width:4;stroke-linecap:round;stroke-linejoin:round;stroke-miterlimit:10;}
	.st3{fill:#A3D9FF;}
	.st4{fill:none;stroke:#377DFF;stroke-width:4;stroke-linecap:round;stroke-linejoin:round;stroke-miterlimit:10;}
	.st5{fill:#A3D9FF;stroke:#377DFF;stroke-width:4;stroke-miterlimit:10;}
	.st6{fill:#5490FF;}
	.st7{fill:#FFFFFF;stroke:#377DFF;stroke-width:4;stroke-miterlimit:10;}
	.st8{fill:none;stroke:#377DFF;stroke-width:5;stroke-linecap:round;stroke-linejoin:round;stroke-miterlimit:10;}
	.st9{fill:none;stroke:#377DFF;stroke-width:4;stroke-miterlimit:10;}
	.st10{clip-path:url(#XMLID_64_);}
	.st11{fill:#D1ECFF;stroke:#377DFF;stroke-width:3;stroke-miterlimit:10;}
	.st12{fill:#FFFFFF;}
	.st13{opacity:0.8;}
	.st14{fill:none;stroke:#377DFF;stroke-width:2;stroke-linecap:round;stroke-linejoin:round;stroke-miterlimit:10;}
	.st15{fill-rule:evenodd;clip-rule:evenodd;fill:#4183FF;}
	.st16{opacity:0.5;}
	.st17{opacity:0.6;}
	.st18{fill:none;stroke:#377DFF;stroke-width:2;stroke-miterlimit:10;}
	.st19{fill-rule:evenodd;clip-rule:evenodd;fill:#377DFF;}
	.st20{fill:none;}
</style>
<g id="XMLID_1_">
	<g id="XMLID_2_">
		<path id="XMLID_591_" class="st0" d="M706.8,188.1H664h-6.2h-0.1c0,0,0,0,0,0c-1,0.1-1.9,0.9-1.9,2v0c0,1.1,0.8,1.9,1.9,2
			c0,0,0,0,0,0h0.1h6.2h42.9c7.2,0,13.3,5.5,13.7,12.6c0.4,7.6-5.7,13.9-13.2,13.9H517c-7.2,0-13.3-5.5-13.7-12.6
			c-0.4-7.6,5.7-13.9,13.2-13.9h56.9h5.1h1.1c1.1,0,2-0.9,2-2v0c0-1.1-0.9-2-2-2h-1.1h-5.1h-56.3c-10.3,0-18.5,8.4-17.7,18.6
			c0.7,8.9,8.2,15.9,17.2,15.9h190.8c9.1,0,16.5-7,17.2-15.9C725.4,196.5,717.1,188.1,706.8,188.1z"/>
		<g id="XMLID_65_">
			<path id="XMLID_66_" class="st1" d="M405.2,140.9c0,8.6,7,15.6,15.6,15.6c8.6,0,15.6-7,15.6-15.6v-16.3h-31.2V140.9z"/>
			<path id="XMLID_60_" class="st0" d="M437.9,124.7h-1.5v16.3c0,8.6-7,15.6-15.6,15.6c-8.6,0-15.6-7-15.6-15.6v-16.3h-1.5h-1.5
				v16.3c0,10.3,8.4,18.6,18.6,18.6c10.3,0,18.6-8.4,18.6-18.6v-16.3H437.9z"/>
		</g>
		<line id="XMLID_113_" class="st2" x1="557.6" y1="205" x2="663.4" y2="205"/>
		<line id="XMLID_128_" class="st2" x1="670.3" y1="205.3" x2="679.1" y2="205.3"/>
		<line id="XMLID_276_" class="st2" x1="420.8" y1="17.6" x2="526.6" y2="17.6"/>
		<line id="XMLID_275_" class="st2" x1="533.5" y1="17.9" x2="542.3" y2="17.9"/>
		<path id="XMLID_48_" class="st3" d="M484.6,144.8H357c-1.6,0-3-1.3-3-3v-15.4c0-1.6,1.3-3,3-3h127.5c1.6,0,3,1.3,3,3v15.4
			C487.5,143.5,486.2,144.8,484.6,144.8z"/>
		<path id="XMLID_231_" class="st4" d="M421,48h58.5c4.4,0,8,3.6,8,8v81.9c0,4.4-3.6,8-8,8H362.1c-4.4,0-8-3.6-8-8V56.1
			c0-4.4,3.6-8,8-8H385"/>
		<line id="XMLID_45_" class="st4" x1="394" y1="48" x2="412" y2="48"/>
		<g id="XMLID_88_">
			<g id="XMLID_87_">
				<path id="XMLID_84_" class="st5" d="M528.1,326.8H312.2c-4.4,0-8-3.6-8-8V187.6c0-4.4,3.6-8,8-8h215.9c4.4,0,8,3.6,8,8v131.2
					C536.1,323.2,532.5,326.8,528.1,326.8z"/>
			</g>
			<path id="XMLID_86_" class="st6" d="M528.1,233.6H312.2c-4.4,0-8-3.6-8-8V194c0-4.4,3.6-8,8-8h215.9c4.4,0,8,3.6,8,8v31.5
				C536.1,229.9,532.5,233.6,528.1,233.6z"/>
			<path id="XMLID_85_" class="st7" d="M528.1,227.2H312.2c-4.4,0-8-3.6-8-8v-31.5c0-4.4,3.6-8,8-8h215.9c4.4,0,8,3.6,8,8v31.5
				C536.1,223.5,532.5,227.2,528.1,227.2z"/>
		</g>
		<g id="XMLID_17_">
			<g id="XMLID_13_">
				<line id="XMLID_14_" class="st4" x1="195.9" y1="35.4" x2="247.2" y2="35.4"/>
				<line id="XMLID_15_" class="st4" x1="254.6" y1="35.4" x2="266.6" y2="35.4"/>
			</g>
			<g id="XMLID_12_">
				<line id="XMLID_11_" class="st8" x1="195.9" y1="15.9" x2="210.9" y2="15.9"/>
				<line id="XMLID_10_" class="st8" x1="203.4" y1="23.4" x2="203.4" y2="8.4"/>
			</g>
			<g id="XMLID_5_">
				<circle id="XMLID_6_" class="st0" cx="206.3" cy="82.4" r="5.3"/>
				<circle id="XMLID_9_" class="st0" cx="301.9" cy="15.5" r="2.3"/>
			</g>
		</g>
		<circle id="XMLID_44_" class="st0" cx="420.8" cy="152.5" r="2"/>
		<line id="XMLID_47_" class="st9" x1="382.1" y1="146" x2="382.1" y2="179.6"/>
		<line id="XMLID_49_" class="st9" x1="457.2" y1="146" x2="457.2" y2="179.6"/>
		<g id="XMLID_50_">
			<line id="XMLID_52_" class="st4" x1="99.9" y1="307.7" x2="151.3" y2="307.7"/>
			<line id="XMLID_51_" class="st4" x1="158.6" y1="307.7" x2="170.6" y2="307.7"/>
		</g>
		<g id="XMLID_129_">
			<line id="XMLID_182_" class="st4" x1="541.3" y1="107" x2="592.6" y2="107"/>
			<line id="XMLID_181_" class="st4" x1="600" y1="107" x2="612" y2="107"/>
		</g>
		<g id="XMLID_53_">
			<line id="XMLID_55_" class="st8" x1="174.3" y1="276.9" x2="184.9" y2="266.3"/>
			<line id="XMLID_54_" class="st8" x1="184.9" y1="276.9" x2="174.3" y2="266.3"/>
		</g>
		<circle id="XMLID_56_" class="st0" cx="17.5" cy="124.7" r="4"/>
		<circle id="XMLID_277_" class="st0" cx="553.6" cy="73.1" r="4"/>
		<g id="XMLID_57_">
			<line id="XMLID_59_" class="st8" x1="624.9" y1="107" x2="639.9" y2="107"/>
			<line id="XMLID_58_" class="st8" x1="632.4" y1="114.5" x2="632.4" y2="99.5"/>
		</g>
		<g id="XMLID_191_">
			<line id="XMLID_20_" class="st4" x1="56.3" y1="190.3" x2="303" y2="190.3"/>
			<line id="XMLID_23_" class="st2" x1="56.3" y1="205.8" x2="122.2" y2="205.8"/>
			<line id="XMLID_24_" class="st2" x1="135.3" y1="205.8" x2="242.7" y2="205.8"/>
			<line id="XMLID_25_" class="st2" x1="282.7" y1="205.8" x2="294.2" y2="205.8"/>
			<line id="XMLID_22_" class="st4" x1="56.3" y1="220.9" x2="303" y2="220.9"/>
			<g id="XMLID_1411_">
				<defs>
					<rect id="XMLID_1552_" x="84.6" y="105.6" width="130.6" height="101.6"/>
				</defs>
				<clipPath id="XMLID_64_">
					<use xlink:href="#XMLID_1552_"  style="overflow:visible;"/>
				</clipPath>
				<g id="XMLID_1412_" class="st10">
					<g id="XMLID_1543_">
						<path id="XMLID_1550_" class="st11" d="M134.3,231.5l-35.7-63c-2.9-5.2-1.1-11.8,4.1-14.7l13.1-7.4c5.2-2.9,11.8-1.1,14.7,4.1
							l35.7,63c2.9,5.2,1.1,11.8-4.1,14.7l-13.1,7.4C143.8,238.5,137.2,236.7,134.3,231.5z"/>
						<path id="XMLID_1549_" class="st0" d="M109.8,174.5l-3.6-6.4c2.9-2.1,3.9-5.8,2.7-9.1l8.2-4.6c2.1,2.7,5.8,3.8,9,2.5l3.6,6.4
							c0.3,0.5,0.9,0.7,1.4,0.4s0.7-0.9,0.4-1.4l-4.1-7.3c-0.3-0.5-0.9-0.7-1.4-0.4c-2.7,1.5-6.1,0.6-7.6-2.1
							c-0.3-0.5-0.9-0.7-1.4-0.4l-9.9,5.6c-0.5,0.3-0.7,0.9-0.4,1.4c1.5,2.7,0.6,6.1-2.1,7.6c-0.5,0.3-0.7,0.9-0.4,1.4
							c0.1,0.1,0.1,0.2,0.2,0.3l4,7c0.3,0.4,0.8,0.6,1.3,0.3C109.9,175.5,110.1,174.9,109.8,174.5z"/>
						<path id="XMLID_1548_" class="st0" d="M155.3,208.1l3.6,6.4c-2.9,2.1-3.9,5.8-2.7,9.1l-8.2,4.6c-2.1-2.7-5.8-3.8-9-2.5
							l-3.6-6.4c-0.3-0.5-0.9-0.7-1.4-0.4s-0.7,0.9-0.4,1.4l4.1,7.3c0.3,0.5,0.9,0.7,1.4,0.4c2.7-1.5,6.1-0.6,7.6,2.1
							c0.3,0.5,0.9,0.7,1.4,0.4l9.9-5.6c0.5-0.3,0.7-0.9,0.4-1.4c-1.5-2.7-0.6-6.1,2.1-7.6c0.5-0.3,0.7-0.9,0.4-1.4
							c-0.1-0.1-0.1-0.2-0.2-0.3l-4-7c-0.3-0.4-0.8-0.6-1.3-0.3S155,207.6,155.3,208.1z"/>
						<circle id="XMLID_1547_" class="st12" cx="119.3" cy="169.9" r="3.3"/>
						<circle id="XMLID_1546_" class="st12" cx="143.9" cy="213.4" r="3.3"/>
						<circle id="XMLID_1545_" class="st12" cx="131.6" cy="191.6" r="13.2"/>
						<path id="XMLID_1544_" class="st0" d="M135.1,193.6l-1.5,0.1l-2.6-4.7l-1.2,0.7l2.5,4.4l-1.5,0.1l-2.1-3.7
							c-0.8,0.6-1.4,1.5-1.7,2.1c-0.4,0.9-0.3,1.9,0.3,2.9c0.4,0.6,0.8,1.1,1.1,1.4c0.3,0.3,1,0.5,1.6,0.8l-1.9,1.1
							c-1-0.6-1.8-1.4-2.4-2.4c-1-1.7-1.2-3.3-0.8-4.8c0.5-1.3,1.2-2.4,2.5-3.5l-0.8-1.4l1.5-0.1l0.5,0.9l1.2-0.7l-0.8-1.4l1.5-0.1
							l0.6,1c1.6-0.5,3-0.5,4.2-0.2c1.5,0.5,2.7,1.4,3.5,2.9c0.7,1.2,0.9,2.4,0.7,4l-2.2,0c0.3-1.2,0.2-2.3-0.4-3.4
							c-0.5-0.9-1.1-1.4-2.1-1.6c-0.8-0.2-1.7,0-2.6,0.3L135.1,193.6z"/>
					</g>
					<g id="XMLID_1529_">
						<path id="XMLID_1542_" class="st11" d="M169.9,138.9l0,78.7c0,4.2-3.5,7.7-7.7,7.7l-21.3,0c-4.2,0-7.7-3.5-7.7-7.7l0-78.7
							c0-4.2,3.5-7.7,7.7-7.7l21.3,0C166.5,131.2,169.9,134.7,169.9,138.9z"/>
						<path id="XMLID_1541_" class="st0" d="M163.1,203.7v7.4c-3.5,0.4-6.3,3.1-6.8,6.6l-9.4,0c-0.5-3.4-3.2-6.1-6.6-6.6v-7.4
							c0-0.6-0.5-1.1-1.1-1.1s-1.1,0.5-1.1,1.1l0,8.3c0,0.6,0.5,1.1,1.1,1.1c3.1,0,5.6,2.5,5.6,5.6c0,0.6,0.5,1.1,1.1,1.1l11.4,0
							c0.6,0,1.1-0.5,1.1-1.1c0-3.1,2.5-5.6,5.6-5.6c0.6,0,1.1-0.5,1.1-1.1c0-0.1,0-0.2-0.1-0.3v-8.1c0-0.5-0.4-0.9-0.9-0.9
							S163.1,203.2,163.1,203.7z"/>
						<path id="XMLID_1540_" class="st0" d="M140.1,152.1l0-7.4c3.5-0.4,6.3-3.1,6.8-6.6h9.4c0.5,3.4,3.2,6.1,6.6,6.6l0,7.4
							c0,0.6,0.5,1.1,1.1,1.1c0.6,0,1.1-0.5,1.1-1.1v-8.3c0-0.6-0.5-1.1-1.1-1.1c-3.1,0-5.6-2.5-5.6-5.6c0-0.6-0.5-1.1-1.1-1.1
							h-11.4c-0.6,0-1.1,0.5-1.1,1.1c0,3.1-2.5,5.6-5.6,5.6c-0.6,0-1.1,0.5-1.1,1.1c0,0.1,0,0.2,0.1,0.3v8.1c0,0.5,0.4,0.9,0.9,0.9
							C139.7,153,140.1,152.6,140.1,152.1z"/>
						<circle id="XMLID_1539_" class="st12" cx="152.6" cy="203" r="3.3"/>
						<circle id="XMLID_1538_" class="st12" cx="152.6" cy="153" r="3.3"/>
						<circle id="XMLID_1537_" class="st12" cx="152.6" cy="178" r="13.2"/>
						<g id="XMLID_1530_">
							<path id="XMLID_1531_" class="st0" d="M160.2,177.2v1.2l-1.8,0c0,1.2-0.3,2.3-0.8,3.3h-2.3c0.3-0.3,0.5-0.8,0.8-1.5
								c0.2-0.7,0.4-1.3,0.4-1.7h-3.3c-0.4,1.2-0.9,2.1-1.5,2.6c-0.6,0.6-1.3,0.8-2.2,0.8c-0.9,0-1.7-0.3-2.3-1
								c-0.7-0.7-1-1.5-1.1-2.5h-1.6v-1.2l1.6,0c0.1-1.2,0.2-2.1,0.6-2.7h2.3c-0.5,0.8-0.8,1.7-0.9,2.7h3.4c0.5-1.2,1-2.1,1.5-2.7
								c0.6-0.6,1.3-0.8,2.1-0.8c0.9,0,1.7,0.3,2.3,0.9c0.6,0.6,0.9,1.5,1.1,2.6H160.2z M147.9,178.4c0.2,0.8,0.6,1.3,1.3,1.3
								c0.6,0,1.1-0.4,1.6-1.3H147.9z M156.4,177.2c-0.1-0.9-0.6-1.3-1.3-1.3c-0.6,0-1.1,0.4-1.5,1.3H156.4z"/>
						</g>
					</g>
					<g id="XMLID_1413_">
						<path id="XMLID_1527_" class="st11" d="M203.1,175.4l-29.8,60.4c-2.1,4.2-7.2,5.9-11.4,3.9l-14.3-7c-4.2-2.1-5.9-7.2-3.9-11.4
							l29.8-60.4c2.1-4.2,7.2-5.9,11.4-3.9l14.3,7C203.4,166,205.1,171.2,203.1,175.4z"/>
						<path id="XMLID_1485_" class="st0" d="M172.5,223.3l-2.9,5.9c-3-1.1-6.3,0-8.1,2.6l-7.6-3.7c1-2.9-0.1-6.2-2.7-7.9l2.9-5.9
							c0.2-0.5,0-1-0.4-1.3c-0.5-0.2-1,0-1.3,0.4l-3.3,6.7c-0.2,0.5,0,1,0.4,1.3c2.5,1.2,3.5,4.2,2.3,6.7c-0.2,0.5,0,1,0.4,1.3
							l9.2,4.5c0.5,0.2,1,0,1.3-0.4c1.2-2.5,4.2-3.5,6.7-2.3c0.5,0.2,1,0,1.3-0.4c0-0.1,0.1-0.2,0.1-0.3l3.2-6.5
							c0.2-0.4,0-0.9-0.4-1.1C173.2,222.7,172.7,222.9,172.5,223.3z"/>
						<path id="XMLID_1484_" class="st0" d="M174.6,172.6l2.9-5.9c3,1.1,6.3,0,8.1-2.6l7.6,3.7c-1,2.9,0.1,6.2,2.7,7.9l-2.9,5.9
							c-0.2,0.5,0,1,0.4,1.3c0.5,0.2,1,0,1.3-0.4l3.3-6.7c0.2-0.5,0-1-0.4-1.3c-2.5-1.2-3.5-4.2-2.3-6.7c0.2-0.5,0-1-0.4-1.3
							l-9.2-4.5c-0.5-0.2-1,0-1.3,0.4c-1.2,2.5-4.2,3.5-6.7,2.3c-0.5-0.2-1,0-1.3,0.4c0,0.1-0.1,0.2-0.1,0.3l-3.2,6.5
							c-0.2,0.4,0,0.9,0.4,1.1C173.9,173.2,174.4,173,174.6,172.6z"/>
						<circle id="XMLID_1483_" class="st12" cx="164.4" cy="218.6" r="2.9"/>
						<circle id="XMLID_1479_" class="st12" cx="184.2" cy="178.4" r="2.9"/>
						<circle id="XMLID_1478_" class="st12" cx="174.3" cy="198.5" r="11.8"/>
						<g id="XMLID_1466_">
							<g id="XMLID_108_">
								<g id="XMLID_110_">
									<path id="XMLID_111_" class="st0" d="M171,190.8l5.5,7.3l4.1,2l-1.2,2.4l-4-2l-9.1,0l1.4-2.8l5.3,0.2c0.1,0,0.4,0.1,1,0.2
										l0,0c-0.3-0.2-0.6-0.5-0.8-0.7l-3.4-4.1L171,190.8z"/>
								</g>
								
									<rect id="XMLID_109_" x="175.9" y="194.9" transform="matrix(-0.8965 -0.4431 0.4431 -0.8965 246.3864 456.7515)" class="st0" width="1.3" height="9.3"/>
							</g>
						</g>
					</g>
				</g>
			</g>
		</g>
		<circle id="XMLID_131_" class="st9" cx="707.6" cy="205.3" r="15.3"/>
		<g id="XMLID_198_" class="st13">
			<circle id="XMLID_202_" class="st14" cx="659.5" cy="269.8" r="9.9"/>
			<path id="XMLID_199_" class="st15" d="M658.1,266.5c-0.3,0-0.5,0.2-0.5,0.5v5.7c0,0.3,0.2,0.5,0.5,0.5h2.1c1.9,0,3.5-1.5,3.5-3.3
				c0-1.8-1.6-3.3-3.5-3.3H658.1z M659.4,274.8h-1v0.8c0,0.1-0.1,0.2-0.2,0.2h-0.6c-0.1,0-0.2-0.1-0.2-0.2v-0.8h-1
				c-0.3,0-0.5-0.2-0.5-0.5v-9.1c0-0.3,0.2-0.5,0.5-0.5h1V264c0-0.1,0.1-0.2,0.2-0.2h0.6c0.1,0,0.2,0.1,0.2,0.2v0.8h1V264
				c0-0.1,0.1-0.2,0.2-0.2h0.6c0.1,0,0.2,0.1,0.2,0.2v0.8c2.8,0.2,4.9,2.4,4.9,5c0,2.6-2.2,4.8-4.9,5v0.8c0,0.1-0.1,0.2-0.2,0.2
				h-0.6c-0.1,0-0.2-0.1-0.2-0.2V274.8z"/>
		</g>
		<g id="XMLID_205_" class="st16">
			<circle id="XMLID_209_" class="st14" cx="773" cy="247.4" r="8.5"/>
			<path id="XMLID_206_" class="st15" d="M771.7,244.6c-0.2,0-0.4,0.2-0.4,0.4l0,4.9c0,0.2,0.2,0.4,0.4,0.4h1.8c1.7,0,3-1.3,3-2.9
				c0-1.6-1.3-2.9-3-2.9H771.7z M772.9,251.7h-0.8v0.7c0,0.1-0.1,0.2-0.2,0.2h-0.5c-0.1,0-0.2-0.1-0.2-0.2v-0.7h-0.9
				c-0.2,0-0.4-0.2-0.4-0.4v-7.8c0-0.2,0.2-0.4,0.4-0.4h0.9v-0.7c0-0.1,0.1-0.2,0.2-0.2h0.5c0.1,0,0.2,0.1,0.2,0.2v0.7h0.8v-0.7
				c0-0.1,0.1-0.2,0.2-0.2h0.5c0.1,0,0.2,0.1,0.2,0.2v0.7c2.4,0.2,4.2,2,4.2,4.3s-1.9,4.1-4.2,4.3v0.7c0,0.1-0.1,0.2-0.2,0.2h-0.5
				c-0.1,0-0.2-0.1-0.2-0.2V251.7z"/>
		</g>
		<g id="XMLID_210_" class="st17">
			<circle id="XMLID_214_" class="st14" cx="778.1" cy="299.4" r="8.5"/>
			<path id="XMLID_211_" class="st15" d="M776.8,296.6c-0.2,0-0.4,0.2-0.4,0.4v4.9c0,0.2,0.2,0.4,0.4,0.4h1.8c1.7,0,3-1.3,3-2.9
				s-1.3-2.9-3-2.9H776.8z M778,303.7h-0.8v0.7c0,0.1-0.1,0.2-0.2,0.2h-0.5c-0.1,0-0.2-0.1-0.2-0.2v-0.7h-0.9
				c-0.2,0-0.4-0.2-0.4-0.4l0-7.8c0-0.2,0.2-0.4,0.4-0.4l0.9,0v-0.7c0-0.1,0.1-0.2,0.2-0.2h0.5c0.1,0,0.2,0.1,0.2,0.2v0.7h0.8v-0.7
				c0-0.1,0.1-0.2,0.2-0.2h0.5c0.1,0,0.2,0.1,0.2,0.2v0.7c2.4,0.2,4.2,2,4.2,4.3s-1.9,4.1-4.2,4.3v0.7c0,0.1-0.1,0.2-0.2,0.2h-0.5
				c-0.1,0-0.2-0.1-0.2-0.2V303.7z"/>
		</g>
		<g id="XMLID_399_">
			
				<ellipse id="XMLID_403_" transform="matrix(0.9091 0.4167 -0.4167 0.9091 165.0289 -278.2694)" class="st18" cx="720" cy="238.9" rx="17.4" ry="6.9"/>
			<path id="XMLID_400_" class="st15" d="M718.6,235.7c-0.4-0.2-0.8-0.2-0.9,0l-1.7,3.6c-0.1,0.2,0.2,0.5,0.6,0.6l3.3,1.5
				c3.1,1.4,6,1.6,6.6,0.4s-1.5-3.3-4.6-4.7L718.6,235.7z M718.4,242l-1.5-0.7l-0.2,0.5c0,0.1-0.2,0.1-0.4,0l-0.9-0.4
				c-0.2-0.1-0.3-0.2-0.3-0.3l0.2-0.5l-1.6-0.7c-0.4-0.2-0.7-0.5-0.6-0.6l2.6-5.7c0.1-0.2,0.5-0.1,0.9,0l1.6,0.7l0.2-0.5
				c0-0.1,0.2-0.1,0.4,0l0.9,0.4c0.2,0.1,0.3,0.2,0.3,0.3l-0.2,0.5l1.5,0.7l0.2-0.5c0-0.1,0.2-0.1,0.4,0l0.9,0.4
				c0.2,0.1,0.3,0.2,0.3,0.3l-0.2,0.5c4.3,2.1,7.2,5.1,6.4,6.8c-0.8,1.7-4.8,1.4-9.3-0.4l-0.2,0.5c0,0.1-0.2,0.1-0.4,0l-0.9-0.4
				c-0.2-0.1-0.3-0.2-0.3-0.3L718.4,242z"/>
		</g>
		<g id="XMLID_133_">
			
				<ellipse id="XMLID_186_" transform="matrix(0.9371 -0.349 0.349 0.9371 -48.1901 279.7183)" class="st18" cx="752.1" cy="273.6" rx="13.1" ry="5.2"/>
			<path id="XMLID_183_" class="st15" d="M749.7,272.6c-0.3,0.1-0.6,0.3-0.5,0.5l1.1,2.8c0,0.1,0.4,0.1,0.7,0l2.6-1
				c2.4-0.9,4.1-2.4,3.7-3.3c-0.3-0.9-2.6-0.9-5,0L749.7,272.6z M753,276.1l-1.2,0.4l0.2,0.4c0,0.1-0.1,0.2-0.3,0.2l-0.7,0.3
				c-0.2,0.1-0.3,0.1-0.3,0l-0.2-0.4l-1.3,0.5c-0.3,0.1-0.6,0.1-0.7,0l-1.7-4.5c0-0.1,0.2-0.3,0.5-0.5l1.3-0.5l-0.2-0.4
				c0-0.1,0.1-0.2,0.3-0.2l0.7-0.3c0.2-0.1,0.3-0.1,0.3,0l0.2,0.4l1.2-0.4l-0.2-0.4c0-0.1,0.1-0.2,0.3-0.2l0.7-0.3
				c0.2-0.1,0.3-0.1,0.3,0l0.2,0.4c3.5-1.2,6.5-1.1,7,0.2c0.5,1.3-1.8,3.4-5.2,4.7l0.2,0.4c0,0.1-0.1,0.2-0.3,0.2l-0.7,0.3
				c-0.2,0.1-0.3,0.1-0.3,0L753,276.1z"/>
		</g>
		<g id="XMLID_193_">
			
				<ellipse id="XMLID_197_" transform="matrix(0.9751 -0.222 0.222 0.9751 -43.2977 161.7072)" class="st18" cx="697.8" cy="273.5" rx="13.1" ry="5.2"/>
			<path id="XMLID_194_" class="st15" d="M695.5,272.2c-0.3,0.1-0.6,0.2-0.6,0.4l0.7,2.9c0,0.1,0.3,0.2,0.7,0.1l2.7-0.6
				c2.5-0.6,4.4-1.8,4.1-2.7c-0.2-0.9-2.4-1.3-4.9-0.7L695.5,272.2z M698.3,276.1l-1.2,0.3l0.1,0.4c0,0.1-0.1,0.2-0.3,0.2l-0.8,0.2
				c-0.2,0-0.3,0-0.3-0.1l-0.1-0.4l-1.3,0.3c-0.3,0.1-0.6,0-0.7-0.1l-1.1-4.6c0-0.1,0.2-0.3,0.6-0.4l1.3-0.3l-0.1-0.4
				c0-0.1,0.1-0.2,0.3-0.2l0.8-0.2c0.2,0,0.3,0,0.3,0.1l0.1,0.4l1.2-0.3l-0.1-0.4c0-0.1,0.1-0.2,0.3-0.2l0.8-0.2
				c0.2,0,0.3,0,0.3,0.1l0.1,0.4c3.6-0.7,6.6-0.2,6.9,1.1s-2.2,3.1-5.8,4l0.1,0.4c0,0.1-0.1,0.2-0.3,0.2l-0.8,0.2
				c-0.2,0-0.3,0-0.3-0.1L698.3,276.1z"/>
		</g>
		<g id="XMLID_187_">
			
				<ellipse id="XMLID_192_" transform="matrix(0.9223 -0.3864 0.3864 0.9223 -63.0597 302.0782)" class="st18" cx="720" cy="307.9" rx="21.5" ry="8.5"/>
			<path id="XMLID_188_" class="st15" d="M716,306.5c-0.5,0.2-0.9,0.6-0.8,0.8l1.9,4.5c0.1,0.2,0.6,0.2,1.1,0l4.2-1.7
				c3.9-1.6,6.5-4.1,5.9-5.6c-0.6-1.5-4.2-1.3-8.1,0.3L716,306.5z M721.5,311.9l-1.9,0.8l0.3,0.7c0,0.1-0.1,0.3-0.4,0.4l-1.2,0.5
				c-0.3,0.1-0.5,0.1-0.6,0l-0.3-0.7l-2,0.9c-0.5,0.2-1,0.2-1.1,0l-3-7.2c-0.1-0.2,0.3-0.6,0.8-0.8l2-0.9l-0.3-0.7
				c0-0.1,0.1-0.3,0.4-0.4l1.2-0.5c0.3-0.1,0.5-0.1,0.6,0l0.3,0.7l1.9-0.8l-0.3-0.7c0-0.1,0.1-0.3,0.4-0.4l1.2-0.5
				c0.3-0.1,0.5-0.1,0.6,0l0.3,0.7c5.6-2.1,10.6-2.3,11.5-0.2s-2.7,5.6-8.2,8.1l0.3,0.7c0,0.1-0.1,0.3-0.4,0.4l-1.2,0.5
				c-0.3,0.1-0.5,0.1-0.6,0L721.5,311.9z"/>
		</g>
		<path id="XMLID_132_" class="st15" d="M704.7,200.4c-0.4,0-0.7,0.3-0.7,0.7v8.1c0,0.4,0.3,0.7,0.7,0.7l3,0c2.7,0,5-2.1,5-4.7
			c0-2.6-2.2-4.7-5-4.7H704.7z M706.6,212.2h-1.4v1.2c0,0.2-0.2,0.3-0.3,0.3h-0.8c-0.2,0-0.3-0.2-0.3-0.3v-1.2h-1.5
			c-0.4,0-0.7-0.3-0.7-0.7v-12.8c0-0.4,0.3-0.7,0.7-0.7h1.5v-1.2c0-0.2,0.2-0.3,0.3-0.3h0.8c0.2,0,0.3,0.2,0.3,0.3v1.2h1.4v-1.2
			c0-0.2,0.2-0.3,0.3-0.3h0.8c0.2,0,0.3,0.2,0.3,0.3v1.2c3.9,0.3,7,3.3,7,7.1s-3.1,6.8-7,7.1v1.2c0,0.2-0.2,0.3-0.3,0.3H707
			c-0.2,0-0.3-0.2-0.3-0.3V212.2z"/>
		<g id="XMLID_4_">
			<g id="XMLID_215_">
				<path id="XMLID_222_" class="st19" d="M401.8,99.4c-0.4,0-0.7-0.3-0.7-0.7v-9.8c0-0.4,0.3-0.7,0.7-0.7h0.4
					c0.4,0,0.7,0.3,0.7,0.7v9.8c0,0.4-0.3,0.7-0.7,0.7H401.8z M400.4,98.7c-0.8,0.5-1.6,0.8-2.6,0.9c-3.3,0.3-6.2-2.1-6.5-5.4
					c-0.3-3.3,2.1-6.2,5.4-6.5c1.3-0.1,2.6,0.2,3.7,0.9v2.3c-0.9-1-2.1-1.5-3.5-1.4c-2.3,0.2-4,2.3-3.8,4.6c0.2,2.3,2.3,4,4.6,3.8
					c1.1-0.1,2.1-0.6,2.8-1.4V98.7z"/>
				<path id="XMLID_219_" class="st19" d="M415.3,93.2c-0.2-2.3-2.3-4-4.6-3.8c-2.3,0.2-4,2.3-3.8,4.6c0.2,2.3,2.3,4,4.6,3.8
					C413.8,97.5,415.5,95.5,415.3,93.2z M417.1,93c0.3,3.3-2.1,6.2-5.4,6.5c-3.3,0.3-6.2-2.1-6.5-5.4c-0.3-3.3,2.1-6.2,5.4-6.5
					C413.8,87.3,416.8,89.7,417.1,93z"/>
				<path id="XMLID_216_" class="st19" d="M382,86.2h-4.7v11.7h4.7C389.6,97.9,390,86.2,382,86.2z M382.3,99.7h-5.3
					c-0.7,0-1.5-0.4-1.5-1.4V85.8c0-0.8,0.8-1.4,1.5-1.4h5.1C392.2,84.4,392,99.7,382.3,99.7z"/>
			</g>
			<g id="XMLID_8_">
				<g id="XMLID_229_">
					<g id="XMLID_234_">
						<path id="XMLID_226_" class="st19" d="M452,99.8h-0.4c-0.4,0-0.7-0.3-0.7-0.7V87.2c0-0.4,0.3-0.7,0.7-0.7h0.4
							c0.4,0,0.7,0.3,0.7,0.7V99C452.8,99.5,452.4,99.8,452,99.8"/>
						<circle id="XMLID_235_" class="st19" cx="451.8" cy="84.5" r="0.9"/>
					</g>
					<path id="XMLID_233_" class="st0" d="M460.5,87.6c-3,0-5.5,2.5-5.5,5.5v2.2V98v1c0,0.3,0.3,0.6,0.6,0.6h0.4
						c0.3,0,0.6-0.3,0.6-0.6v-1h0v-4.9c0-2.1,1.7-3.9,3.9-3.9s3.9,1.7,3.9,3.9V98h0v1c0,0.3,0.3,0.6,0.6,0.6h0.4
						c0.3,0,0.6-0.3,0.6-0.6v-1v-2.7v-2.2C466,90.1,463.6,87.6,460.5,87.6z"/>
					<path id="XMLID_225_" class="st19" d="M446.9,93.2c-0.2-2.3-2.3-4-4.6-3.8c-2.3,0.2-4,2.3-3.8,4.6c0.2,2.3,2.3,4,4.6,3.8
						C445.4,97.5,447.1,95.5,446.9,93.2z M448.7,93c0.3,3.3-2.1,6.2-5.4,6.5c-3.3,0.3-6.2-2.1-6.5-5.4c-0.3-3.3,2.1-6.2,5.4-6.5
						C445.4,87.3,448.4,89.7,448.7,93z"/>
				</g>
				<path id="XMLID_21_" class="st0" d="M434.5,95.2c0.3-0.4,0.1-1-0.3-1.3c-0.4-0.3-1-0.2-1.3,0.2l-0.6,1c-1.1,1.8-2.8,2.7-5.1,2.7
					c-1.6,0-3-0.5-4.1-1.7c-1.2-1.2-1.7-2.5-1.7-4.1c0-1.6,0.6-3,1.9-4.1c1.2-1.1,2.5-1.7,4-1.6c2.3,0.1,3.9,1,5,2.9
					c0.1,0.2,0.2,0.4,0.4,0.5c0.2,0.1,0.5,0.1,0.7,0.1c0.2,0,0.5-0.1,0.7-0.2c0.1-0.1,0.2-0.2,0.2-0.3c0-0.1,0-0.3,0-0.4
					c-0.1-0.3-0.2-0.5-0.3-0.8c-0.3-0.5-0.6-0.9-1-1.3c-0.2-0.2-0.3-0.3-0.5-0.4c-0.1-0.1-0.2-0.2-0.3-0.3c-0.2-0.2-0.4-0.3-0.6-0.5
					c-1.3-0.8-2.8-1.2-4.3-1.2c-2.1,0-4,0.8-5.6,2.3c-1.5,1.5-2.3,3.3-2.3,5.4c0,2.1,0.8,3.9,2.3,5.3c1.5,1.5,3.4,2.2,5.5,2.2
					c2.7,0,4.8-1,6.3-2.9c0.3-0.4,0.5-0.7,0.8-1.2L434.5,95.2z"/>
			</g>
		</g>
	</g>
	<g id="XMLID_516_">
		<g id="XMLID_493_">
			<path id="XMLID_527_" class="st0" d="M620.7,167.8c0,0,0.1,0,0.1,0c8.4-0.6,14.3-4.1,14.3-8.5c0-1-0.8-1.8-1.8-1.8
				c-1,0-1.8,0.8-1.8,1.8c0,2.1-4.4,4.6-11.1,5c-1,0.1-1.7,0.9-1.6,1.9C619,167.1,619.8,167.8,620.7,167.8L620.7,167.8z
				 M620.7,167.8"/>
			<path id="XMLID_521_" class="st0" d="M618.6,160.8c9.1,0,16.4-3.4,16.4-7.6c0-4.2-7.3-7.6-16.4-7.6c-9.1,0-16.4,3.4-16.4,7.6
				C602.2,157.4,609.5,160.8,618.6,160.8L618.6,160.8z M608.4,151c2.6-1.2,6.3-1.9,10.1-1.9s7.5,0.7,10.1,1.9c2.3,1,2.8,2,2.8,2.2
				c0,0.2-0.7,1.2-2.8,2.2c-2.6,1.2-6.3,1.9-10.1,1.9s-7.5-0.7-10.1-1.9c-2.1-1-2.8-1.9-2.8-2.2C605.7,153.1,606.2,152.1,608.4,151
				L608.4,151z M633.4,164.4c-1,0-1.8,0.8-1.8,1.8c0,2-4.3,4.5-10.6,5c-1,0.1-1.7,0.9-1.6,1.9c0.1,0.9,0.8,1.6,1.7,1.6
				c0,0,0.1,0,0.1,0c8.1-0.7,13.8-4.2,13.8-8.5C635.1,165.2,634.4,164.4,633.4,164.4L633.4,164.4z M635.9,195.3
				c9.4,0,16.6-3.7,16.6-8.6c0-1-0.8-1.8-1.8-1.8c-1,0-1.8,0.8-1.8,1.8c0,2.1-5,5.1-13.1,5.1c-8.1,0-13.1-3-13.1-5.1
				c0-1-0.8-1.8-1.8-1.8c-1,0-1.8,0.8-1.8,1.8C619.3,191.6,626.4,195.3,635.9,195.3L635.9,195.3z M635.9,195.3"/>
			<path id="XMLID_515_" class="st0" d="M619.4,180.6c0,4.2,7.3,7.6,16.4,7.6c9.1,0,16.4-3.4,16.4-7.6c0-4.2-7.3-7.6-16.4-7.6
				C626.8,173,619.4,176.4,619.4,180.6L619.4,180.6z M648.7,180.6c0,0.2-0.7,1.2-2.8,2.2c-2.6,1.2-6.3,1.9-10.1,1.9
				c-3.8,0-7.5-0.7-10.1-1.9c-2.1-1-2.8-1.9-2.8-2.2s0.7-1.2,2.8-2.2c2.6-1.2,6.3-1.9,10.1-1.9c3.8,0,7.5,0.7,10.1,1.9
				C648.1,179.4,648.7,180.3,648.7,180.6L648.7,180.6z M650.7,191.8c-1,0-1.8,0.8-1.8,1.8c0,2.1-5,5.1-13.1,5.1
				c-8.1,0-13.1-3-13.1-5.1c0-1-0.8-1.8-1.8-1.8c-1,0-1.8,0.8-1.8,1.8c0,4.9,7.1,8.6,16.6,8.6c9.4,0,16.6-3.7,16.6-8.6
				C652.4,192.6,651.6,191.8,650.7,191.8L650.7,191.8z M617,172.7c-1,0-1.8,0.8-1.8,1.8c0,2.1-5,5.1-13.1,5.1
				c-8.1,0-13.1-3-13.1-5.1c0-1-0.8-1.8-1.8-1.8c-1,0-1.8,0.8-1.8,1.8c0,4.9,7.1,8.6,16.6,8.6c9.4,0,16.6-3.7,16.6-8.6
				C618.7,173.5,618,172.7,617,172.7L617,172.7z M617,172.7"/>
			<path id="XMLID_510_" class="st0" d="M602.2,175.9c9.1,0,16.4-3.4,16.4-7.6s-7.3-7.6-16.4-7.6c-9.1,0-16.4,3.4-16.4,7.6
				S593.1,175.9,602.2,175.9L602.2,175.9z M592,166.2c2.6-1.2,6.3-1.9,10.1-1.9c3.8,0,7.5,0.7,10.1,1.9c2.1,1,2.8,1.9,2.8,2.2
				c0,0.2-0.7,1.2-2.8,2.2c-2.6,1.2-6.3,1.9-10.1,1.9c-3.8,0-7.5-0.7-10.1-1.9c-2.1-1-2.8-1.9-2.8-2.2
				C589.3,168.1,590,167.1,592,166.2L592,166.2z M617,179.5c-1,0-1.8,0.8-1.8,1.8c0,2.1-5,5.1-13.1,5.1c-8.1,0-13.1-3-13.1-5.1
				c0-1-0.8-1.8-1.8-1.8c-1,0-1.8,0.8-1.8,1.8c0,4.9,7.1,8.6,16.6,8.6c9.4,0,16.6-3.7,16.6-8.6C618.7,180.3,618,179.5,617,179.5
				L617,179.5z M617,179.5"/>
			<path id="XMLID_507_" class="st0" d="M617,186.4c-1,0-1.8,0.8-1.8,1.8c0,2.1-5,5.1-13.1,5.1c-8.1,0-13.1-3-13.1-5.1
				c0-1-0.8-1.8-1.8-1.8c-1,0-1.8,0.8-1.8,1.8c0,4.9,7.1,8.6,16.6,8.6c9.4,0,16.6-3.7,16.6-8.6C618.7,187.2,618,186.4,617,186.4
				L617,186.4z M617,186.4"/>
			<path id="XMLID_496_" class="st0" d="M617,193.2c-1,0-1.8,0.8-1.8,1.8c0,2.1-5,5.1-13.1,5.1c-8.1,0-13.1-3-13.1-5.1
				c0-1-0.8-1.8-1.8-1.8c-1,0-1.8,0.8-1.8,1.8c0,4.9,7.1,8.6,16.6,8.6c9.4,0,16.6-3.7,16.6-8.6C618.7,194,618,193.2,617,193.2
				L617,193.2z M645.4,158.9l2.8-3.1l4.2-0.3l-3.1-2.8l-0.3-4.2l-2.8,3.1l-4.2,0.3l3.1,2.8L645.4,158.9z M645.4,166.8l2.8-1.8
				l-3.2-0.8l-1.8-2.8l-0.8,3.2l-2.8,1.8l3.2,0.8l1.8,2.8L645.4,166.8z M637.8,148.1l0.5-1.8l1.6-1l-1.8-0.5l-1-1.6l-0.5,1.8l-1.6,1
				l1.8,0.5L637.8,148.1z M593.5,158.1l0.8-3.3l2.8-1.8l-3.2-0.8l-1.8-2.8l-0.8,3.3l-2.8,1.8l3.2,0.8L593.5,158.1z M597.5,144.5
				l0.5-1.8l1.6-1l-1.8-0.5l-1-1.6l-0.5,1.8l-1.6,1l1.8,0.5L597.5,144.5z M597.5,144.5"/>
			<rect id="XMLID_456_" x="585.6" y="139.6" class="st20" width="66.8" height="64"/>
		</g>
		<path id="XMLID_494_" class="st15" d="M617.4,151.4c-0.3,0-0.5,0.1-0.5,0.3v3c0,0.1,0.2,0.3,0.5,0.3h2.1c1.9,0,3.5-0.8,3.5-1.8
			c0-1-1.6-1.8-3.5-1.8H617.4z M618.8,155.9h-1v0.4c0,0.1-0.1,0.1-0.2,0.1H617c-0.1,0-0.2-0.1-0.2-0.1v-0.4h-1
			c-0.3,0-0.5-0.1-0.5-0.3v-4.8c0-0.1,0.2-0.3,0.5-0.3h1v-0.4c0-0.1,0.1-0.1,0.2-0.1h0.6c0.1,0,0.2,0.1,0.2,0.1v0.4h1v-0.4
			c0-0.1,0.1-0.1,0.2-0.1h0.6c0.1,0,0.2,0.1,0.2,0.1v0.4c2.8,0.1,4.9,1.2,4.9,2.6c0,1.4-2.2,2.5-4.9,2.6v0.4c0,0.1-0.1,0.1-0.2,0.1
			h-0.6c-0.1,0-0.2-0.1-0.2-0.1V155.9z"/>
		<path id="XMLID_517_" class="st15" d="M600.2,166.6c-0.3,0-0.5,0.1-0.5,0.3v3c0,0.1,0.2,0.3,0.5,0.3h2.1c1.9,0,3.5-0.8,3.5-1.8
			c0-1-1.6-1.8-3.5-1.8H600.2z M601.6,171h-1v0.4c0,0.1-0.1,0.1-0.2,0.1h-0.6c-0.1,0-0.2-0.1-0.2-0.1V171h-1c-0.3,0-0.5-0.1-0.5-0.3
			v-4.8c0-0.1,0.2-0.3,0.5-0.3h1v-0.4c0-0.1,0.1-0.1,0.2-0.1h0.6c0.1,0,0.2,0.1,0.2,0.1v0.4h1v-0.4c0-0.1,0.1-0.1,0.2-0.1h0.6
			c0.1,0,0.2,0.1,0.2,0.1v0.4c2.8,0.1,4.9,1.2,4.9,2.6c0,1.4-2.2,2.5-4.9,2.6v0.4c0,0.1-0.1,0.1-0.2,0.1h-0.6
			c-0.1,0-0.2-0.1-0.2-0.1V171z"/>
		<path id="XMLID_520_" class="st15" d="M635.5,178.8c-0.3,0-0.5,0.1-0.5,0.3v3c0,0.1,0.2,0.3,0.5,0.3h2.1c1.9,0,3.5-0.8,3.5-1.8
			c0-1-1.6-1.8-3.5-1.8H635.5z M636.9,183.2h-1v0.4c0,0.1-0.1,0.1-0.2,0.1h-0.6c-0.1,0-0.2-0.1-0.2-0.1v-0.4h-1
			c-0.3,0-0.5-0.1-0.5-0.3v-4.8c0-0.1,0.2-0.3,0.5-0.3h1v-0.4c0-0.1,0.1-0.1,0.2-0.1h0.6c0.1,0,0.2,0.1,0.2,0.1v0.4h1v-0.4
			c0-0.1,0.1-0.1,0.2-0.1h0.6c0.1,0,0.2,0.1,0.2,0.1v0.4c2.8,0.1,4.9,1.2,4.9,2.6c0,1.4-2.2,2.5-4.9,2.6v0.4c0,0.1-0.1,0.1-0.2,0.1
			h-0.6c-0.1,0-0.2-0.1-0.2-0.1V183.2z"/>
	</g>
</g>
</svg>
