<?xml version="1.0" encoding="utf-8"?>
<!-- Generator: Adobe Illustrator 19.0.0, SVG Export Plug-In . SVG Version: 6.00 Build 0)  -->
<svg version="1.1" id="图层_1" xmlns="http://www.w3.org/2000/svg" xmlns:xlink="http://www.w3.org/1999/xlink" x="0px" y="0px"
	 viewBox="3 0.6 642 299" style="enable-background:new 3 0.6 642 299;" xml:space="preserve">
<style type="text/css">
	.st0{fill:none;stroke:#377DFF;stroke-width:2;stroke-linecap:round;stroke-linejoin:round;stroke-miterlimit:10;}
	.st1{fill:#377DFF;}
	.st2{fill:#CDDFFF;}
	.st3{fill:#73A4FF;}
	.st4{fill:none;stroke:#377DFF;stroke-width:3;stroke-linecap:round;stroke-linejoin:round;stroke-miterlimit:10;}
	.st5{fill:#E1ECFF;}
	.st6{fill:#CDDFFF;stroke:#377DFF;stroke-width:2;stroke-miterlimit:10;}
	.st7{fill:#A3D9FF;stroke:#377DFF;stroke-width:3;stroke-linecap:round;stroke-linejoin:round;stroke-miterlimit:10;}
	.st8{fill:#5D5D5D;}
	.st9{fill:#73A4FF;stroke:#377DFF;stroke-width:3;stroke-linecap:round;stroke-linejoin:round;stroke-miterlimit:10;}
	.st10{fill:#FFFFFF;}
	.st11{fill:#FFD816;}
	.st12{fill:#333333;}
	.st13{fill:#E5BC10;}
	.st14{fill:#FD9802;}
	.st15{fill:url(#XMLID_48_);}
	.st16{fill:url(#XMLID_53_);}
	.st17{fill:url(#XMLID_54_);}
	.st18{fill:url(#XMLID_55_);}
	.st19{fill:url(#XMLID_60_);}
	.st20{fill:url(#XMLID_68_);}
	.st21{fill:none;stroke:url(#XMLID_69_);stroke-width:5;stroke-miterlimit:10;}
</style>
<g id="XMLID_645_">
	<g id="XMLID_1942_">
		<line id="XMLID_1944_" class="st0" x1="13.5" y1="186.5" x2="13.5" y2="173"/>
		<line id="XMLID_1943_" class="st0" x1="13.5" y1="203.1" x2="13.5" y2="196.3"/>
		<path id="XMLID_1946_" class="st0" d="M634.5,256v27.9c0,5.8-6.3,10.5-14,10.5h-593c-7.7,0-14-4.7-14-10.5v-66.4"/>
		<line id="XMLID_1945_" class="st0" x1="634.5" y1="224.6" x2="634.5" y2="247.1"/>
		<path id="XMLID_1787_" class="st0" d="M13.5,162.2v-23.3c0-5.8,6.3-10.5,14-10.5h593c7.7,0,14,4.7,14,10.5v77.5"/>
	</g>
	<g id="XMLID_199_">
		<line id="XMLID_198_" class="st0" x1="140" y1="60.8" x2="140" y2="127.4"/>
		<path class="st1" d="M135.4,59.7l3.4-5.9c0.5-0.9,1.7-0.9,2.2,0l3.4,5.9c0.5,0.9-0.1,1.9-1.1,1.9h-6.8
			C135.6,61.6,134.9,60.5,135.4,59.7z"/>
	</g>
	<g id="XMLID_3_">
		<line id="XMLID_4_" class="st0" x1="324" y1="60.8" x2="324" y2="127.4"/>
		<path class="st1" d="M319.5,59.7l3.4-5.9c0.5-0.9,1.7-0.9,2.2,0l3.4,5.9c0.5,0.9-0.1,1.9-1.1,1.9h-6.8
			C319.6,61.6,319,60.5,319.5,59.7z"/>
	</g>
	<g id="XMLID_5_">
		<line id="XMLID_6_" class="st0" x1="503.2" y1="60.8" x2="503.2" y2="127.4"/>
		<path class="st1" d="M498.6,59.7l3.4-5.9c0.5-0.9,1.7-0.9,2.2,0l3.4,5.9c0.5,0.9-0.1,1.9-1.1,1.9h-6.8
			C498.8,61.6,498.1,60.5,498.6,59.7z"/>
	</g>
	<g id="XMLID_1_">
		<g id="XMLID_184_">
			<path id="XMLID_193_" class="st2" d="M175.7,207.6v-54.1c0-3.1,4-5.6,8.8-5.6h-2.1c-6.1,0-11.1,3.2-11.1,7.1v51.2
				c0,3.9,5,7.1,11.1,7.1h2.1C179.6,213.2,175.7,210.6,175.7,207.6z"/>
			<g id="XMLID_190_">
				<path id="XMLID_192_" class="st3" d="M215,206.4c-8.1,0-14.6-6.6-14.6-14.6c0-1.7,0.3-3.3,0.8-4.8c-2.2,2.7-3.5,6.1-3.5,9.8
					c0,8.6,7,15.6,15.6,15.6s15.6-7,15.6-15.6c0-0.1,0-0.2,0-0.4C226.9,202.2,221.4,206.4,215,206.4z"/>
				<path id="XMLID_191_" class="st2" d="M215,206.4c6.5,0,11.9-4.2,13.9-10c-0.2-8.4-7.1-15.2-15.6-15.2c-4.9,0-9.3,2.3-12.1,5.8
					c-0.5,1.5-0.8,3.1-0.8,4.8C200.3,199.8,206.9,206.4,215,206.4z"/>
			</g>
			<path id="XMLID_189_" class="st4" d="M196,211.3h-18.8c-3.3,0-5.7-2.5-5.7-5.7v-51.2c0-3.3,2.5-6.1,5.7-6.1h7.8"/>
			<path id="XMLID_188_" class="st4" d="M198,148.3h16.4c3.3,0,6.1,2.8,6.1,6.1v14.4"/>
			<line id="XMLID_1673_" class="st4" x1="191" y1="148.3" x2="193" y2="148.3"/>
			<line id="XMLID_1706_" class="st4" x1="181" y1="164.3" x2="205" y2="164.3"/>
			<line id="XMLID_1708_" class="st4" x1="181" y1="178.3" x2="198" y2="178.3"/>
			<line id="XMLID_1709_" class="st4" x1="181" y1="192.3" x2="192" y2="192.3"/>
			<line id="XMLID_187_" class="st4" x1="225.6" y1="202.2" x2="232.3" y2="208.9"/>
			<path id="XMLID_186_" class="st4" d="M227.8,184.1c1.4,2.2,2.2,4.9,2.2,7.7c0,8.1-6.5,14.6-14.6,14.6s-14.6-6.5-14.6-14.6
				s6.5-14.6,14.6-14.6"/>
			<path id="XMLID_185_" class="st4" d="M220.2,178c1.6,0.6,3.1,1.4,4.4,2.5"/>
		</g>
		<g id="XMLID_195_">
			<circle id="XMLID_194_" class="st2" cx="574.6" cy="185.5" r="27.9"/>
			<path id="XMLID_183_" class="st4" d="M539.5,185.5c0-12,7.5-22.2,18.1-26.2"/>
			<path id="XMLID_182_" class="st4" d="M574.6,212.5c-2.3,0.6-4.7,0.9-7.1,0.9c-5.4,0-10.5-1.6-14.8-4.2"/>
			<path id="XMLID_181_" class="st4" d="M574.6,212.5"/>
			<path id="XMLID_180_" class="st4" d="M584.1,163c6.9,5.1,11.3,13.3,11.3,22.5c0,2.7-0.4,5.4-1.1,7.9"/>
			<circle id="XMLID_179_" class="st4" cx="567.4" cy="157.5" r="10"/>
			<circle id="XMLID_178_" class="st4" cx="545" cy="202.8" r="10"/>
			<circle id="XMLID_177_" class="st4" cx="589.6" cy="202.8" r="10"/>
		</g>
		<g id="XMLID_162_">
			<circle id="XMLID_176_" class="st2" cx="323.7" cy="154.3" r="7.4"/>
			<polygon id="XMLID_175_" class="st2" points="293.2,182.4 299.2,169.2 305.2,182.4 			"/>
			<polygon id="XMLID_174_" class="st2" points="343,182.4 349,169.2 355,182.4 			"/>
			<path id="XMLID_173_" class="st3" d="M302.2,200.5c6.1,0,11-3.9,11-10h-22C291.2,196.5,296.2,200.5,302.2,200.5z"/>
			<line id="XMLID_172_" class="st4" x1="342.5" y1="214.1" x2="353.1" y2="214.1"/>
			<line id="XMLID_171_" class="st4" x1="294.3" y1="214.1" x2="337.1" y2="214.1"/>
			<line id="XMLID_170_" class="st4" x1="299.6" y1="165.7" x2="347.8" y2="165.7"/>
			<line id="XMLID_169_" class="st4" x1="323.7" y1="178.4" x2="323.7" y2="158.5"/>
			<line id="XMLID_168_" class="st4" x1="323.7" y1="186.8" x2="323.7" y2="182.3"/>
			<line id="XMLID_167_" class="st4" x1="323.7" y1="213.3" x2="323.7" y2="190.5"/>
			<circle id="XMLID_166_" class="st1" cx="323.7" cy="158.3" r="4"/>
			<g id="XMLID_165_">
				<g id="XMLID_653_">
					<path id="XMLID_654_" class="st1" d="M302.2,173.5l8,17.6c-0.3,4.1-3.8,7.4-8,7.4c-2.1,0-4.2-0.8-5.7-2.3
						c-1.4-1.4-2.2-3.2-2.3-5.1L302.2,173.5 M302.2,166.2l-11,24.2l0,0c0,6.1,4.9,11,11,11s11-4.9,11-11l0,0L302.2,166.2
						L302.2,166.2z M313.3,190.4L313.3,190.4L313.3,190.4z"/>
				</g>
			</g>
			<path id="XMLID_164_" class="st3" d="M345.8,200.5c6.1,0,11-3.9,11-10h-22C334.7,196.5,339.7,200.5,345.8,200.5z"/>
			<g id="XMLID_163_">
				<g id="XMLID_659_">
					<path id="XMLID_660_" class="st1" d="M345.7,173.5l8,17.6c-0.3,4.1-3.8,7.4-8,7.4c-2.1,0-4.2-0.8-5.7-2.3
						c-1.4-1.4-2.2-3.2-2.3-5.1L345.7,173.5 M345.7,166.2l-11,24.2l0,0c0,6.1,4.9,11,11,11s11-4.9,11-11l0,0L345.7,166.2
						L345.7,166.2z M356.8,190.4L356.8,190.4L356.8,190.4z"/>
				</g>
			</g>
		</g>
		<g id="XMLID_245_">
			<g id="XMLID_196_">
				<path id="XMLID_197_" class="st5" d="M81.2,147.8c-1.4-1.1-3.4-1.1-4.8,0l-17.1,13.9h5.1L81.2,147.8L81.2,147.8z"/>
				<path id="XMLID_1123_" class="st3" d="M59,166.7c-3,0-5.5,2.5-5.5,5.5v1.5c0,1.1,0.3,2.2,0.9,3.1c0.5,0.2,1.1,0.3,1.7,0.3h47
					c3,0,5.5-2.5,5.5-5.5v-1.5c0-1.1-0.3-2.2-0.9-3.1c-0.5-0.2-1.1-0.3-1.7-0.3H59z"/>
				<path id="XMLID_1120_" class="st4" d="M78.8,161.8h23.5c3,0,5.5,2.5,5.5,5.5v3.5c0,3-2.5,5.5-5.5,5.5h-47c-3,0-5.5-2.5-5.5-5.5
					v-3.5c0-3,2.5-5.5,5.5-5.5h15.9"/>
				<line id="XMLID_718_" class="st4" x1="74.9" y1="161.8" x2="75.4" y2="161.8"/>
				<path id="XMLID_797_" class="st6" d="M72.1,207.4v-12.3c0-3,2.5-5.5,5.5-5.5h3.5c3,0,5.5,2.5,5.5,5.5v12.3"/>
				<path id="XMLID_787_" class="st4" d="M110,214H48.4c-1.6,0-2.8-1.3-2.8-2.8v-0.4c0-1.6,1.3-2.8,2.8-2.8H110
					c1.6,0,2.8,1.3,2.8,2.8v0.4C112.8,212.8,111.6,214,110,214z"/>
				<path id="XMLID_788_" class="st7" d="M103.3,208h-49c-1,0-1.7-0.8-1.7-1.7v-1.9c0-1,0.8-1.7,1.7-1.7h49c1,0,1.7,0.8,1.7,1.7v1.9
					C105.1,207.2,104.3,208,103.3,208z"/>
				<path id="XMLID_719_" class="st4" d="M59.3,161.7l17.1-13.9c1.4-1.1,3.4-1.1,4.8,0l17.1,13.9"/>
				<g id="XMLID_785_">
					<line id="XMLID_720_" class="st4" x1="55.4" y1="176.3" x2="55.4" y2="202.1"/>
					<line id="XMLID_722_" class="st4" x1="62.1" y1="186.8" x2="62.1" y2="202.1"/>
					<line id="XMLID_793_" class="st4" x1="62.1" y1="180.2" x2="62.1" y2="182.6"/>
				</g>
				<g id="XMLID_721_">
					<line id="XMLID_726_" class="st4" x1="96.5" y1="186.8" x2="96.5" y2="202.1"/>
					<line id="XMLID_794_" class="st4" x1="96.5" y1="180.5" x2="96.5" y2="181.8"/>
					<line id="XMLID_724_" class="st4" x1="103" y1="176.7" x2="103" y2="190.4"/>
					<line id="XMLID_795_" class="st4" x1="103" y1="196" x2="103" y2="200.7"/>
				</g>
			</g>
		</g>
		<g id="XMLID_590_">
			<path id="XMLID_591_" class="st8" d="M64.3,227.8v-6.2H66c0.5,0,0.9,0.1,1.3,0.4s0.6,0.7,0.6,1.2c0,0.6-0.2,1-0.7,1.3
				c0.6,0.3,1,0.8,1,1.5c0,0.5-0.2,0.9-0.6,1.2c-0.4,0.3-0.8,0.5-1.4,0.5h-1.9V227.8z M66.1,224.3c0.3,0,0.6-0.1,0.8-0.3
				c0.2-0.2,0.4-0.4,0.4-0.7c0-0.3-0.1-0.6-0.4-0.8c-0.2-0.2-0.5-0.3-0.9-0.3h-1v2.1L66.1,224.3L66.1,224.3z M66.1,227.2
				c1,0,1.5-0.5,1.5-1.2c0-0.4-0.2-0.7-0.5-0.9c-0.3-0.2-0.6-0.3-1-0.3H65v2.4H66.1z"/>
			<path id="XMLID_595_" class="st8" d="M73.5,227.8h-0.6v-0.7c-0.5,0.6-1.1,0.8-1.8,0.8c-0.6,0-1.2-0.3-1.6-0.7
				c-0.4-0.5-0.7-1-0.7-1.7s0.2-1.2,0.7-1.7s1-0.7,1.7-0.7c0.6,0,1.2,0.3,1.6,0.7c0.4,0.5,0.7,1,0.6,1.6l0,0v2.4H73.5z M69.4,225.5
				c0,0.5,0.1,0.9,0.5,1.3c0.3,0.4,0.7,0.5,1.2,0.6c0.5,0,0.9-0.2,1.3-0.5c0.4-0.4,0.5-0.8,0.5-1.3s-0.2-0.9-0.5-1.2
				s-0.7-0.5-1.2-0.5s-0.9,0.2-1.2,0.5S69.4,225,69.4,225.5z"/>
			<path id="XMLID_598_" class="st8" d="M78.1,227.8h-0.6v-2.7c0-0.4-0.1-0.7-0.4-1s-0.6-0.4-1-0.4s-0.7,0.1-1,0.4s-0.4,0.6-0.4,1
				v2.7h-0.6v-2.6c0-0.6,0.2-1.1,0.6-1.5s0.9-0.6,1.4-0.6c0.6,0,1.1,0.2,1.4,0.6s0.6,0.9,0.6,1.5V227.8z"/>
			<path id="XMLID_600_" class="st8" d="M82.4,227.8h-0.8l-1.5-1.8l-0.7,0.9v0.9h-0.7v-6.2h0.6v4.3l2.1-2.7h0.8l-1.7,2.3L82.4,227.8
				z"/>
			<path id="XMLID_602_" class="st8" d="M83.5,222.7h-0.6v-1.1h0.6V222.7z M83.5,227.8h-0.6v-4.6h0.6V227.8z"/>
			<path id="XMLID_605_" class="st8" d="M88.2,227.8h-0.6v-2.7c0-0.4-0.1-0.7-0.4-1s-0.6-0.4-1-0.4s-0.7,0.1-1,0.4s-0.4,0.6-0.4,1
				v2.7h-0.6v-2.6c0-0.6,0.2-1.1,0.6-1.5s0.9-0.6,1.4-0.6c0.6,0,1.1,0.2,1.4,0.6s0.6,0.9,0.6,1.5V227.8z"/>
			<path id="XMLID_607_" class="st8" d="M93.5,227.6c0,0.6-0.2,1.1-0.7,1.4c-0.5,0.4-1,0.6-1.6,0.5c-0.5,0-1-0.2-1.4-0.5
				s-0.6-0.7-0.8-1.1h0.6c0.1,0.3,0.3,0.6,0.6,0.8c0.3,0.2,0.7,0.3,1,0.3c0.4,0,0.8-0.2,1.2-0.5c0.3-0.3,0.5-0.7,0.5-1.1V227
				c-0.4,0.5-1,0.8-1.7,0.8s-1.2-0.2-1.7-0.7s-0.7-1.1-0.7-1.7s0.2-1.2,0.7-1.7c0.4-0.5,1-0.7,1.6-0.7c0.7,0,1.2,0.2,1.7,0.7
				s0.7,1,0.7,1.7C93.5,225.4,93.5,227.6,93.5,227.6z M92.4,226.7c0.3-0.3,0.5-0.8,0.5-1.2c0-0.5-0.2-0.9-0.5-1.3
				c-0.4-0.4-0.8-0.6-1.3-0.5c-0.5,0-0.9,0.2-1.2,0.6s-0.5,0.8-0.5,1.3s0.2,0.9,0.5,1.2s0.8,0.5,1.2,0.5
				C91.6,227.3,92,227.1,92.4,226.7z"/>
			<path id="XMLID_610_" class="st8" d="M55.9,237.4h-0.6v-6.2h0.6V237.4z"/>
			<path id="XMLID_612_" class="st8" d="M60.6,237.4H60v-2.7c0-0.4-0.1-0.7-0.4-1c-0.3-0.3-0.6-0.4-1-0.4s-0.7,0.1-1,0.4
				s-0.4,0.6-0.4,1v2.7h-0.6v-2.6c0-0.6,0.2-1.1,0.6-1.5s0.9-0.6,1.4-0.6c0.6,0,1.1,0.2,1.4,0.6s0.6,0.9,0.6,1.5V237.4z"/>
			<path id="XMLID_614_" class="st8" d="M61.8,237.4h-0.6v-4.6c0-1,0.7-1.5,1.6-1.5H63v0.5h-0.2c-0.3,0-0.5,0.1-0.7,0.2
				c-0.2,0.2-0.3,0.4-0.3,0.6v0.2H63v0.6h-1.1v4H61.8z"/>
			<path id="XMLID_616_" class="st8" d="M64.1,237.4h-0.6v-4.6H64v0.6c0.1-0.2,0.3-0.4,0.6-0.6c0.2-0.1,0.5-0.2,0.7-0.2v0.6
				c-0.3,0-0.5,0.1-0.7,0.2s-0.3,0.3-0.4,0.4c-0.1,0.2-0.2,0.4-0.2,0.7v2.9H64.1z"/>
			<path id="XMLID_618_" class="st8" d="M70.4,237.4h-0.6v-0.7c-0.5,0.6-1.1,0.8-1.8,0.8c-0.6,0-1.2-0.3-1.6-0.7
				c-0.4-0.5-0.7-1-0.7-1.7s0.2-1.2,0.7-1.7s1-0.7,1.7-0.7c0.6,0,1.2,0.3,1.6,0.7c0.4,0.5,0.7,1,0.6,1.6l0,0v2.4H70.4z M66.3,235.1
				c0,0.5,0.1,0.9,0.5,1.3c0.3,0.4,0.7,0.5,1.2,0.6c0.5,0,0.9-0.2,1.3-0.5c0.4-0.4,0.5-0.8,0.5-1.3s-0.2-0.9-0.5-1.2
				c-0.3-0.3-0.7-0.5-1.2-0.5s-0.9,0.2-1.2,0.5C66.5,234.2,66.4,234.6,66.3,235.1z"/>
			<path id="XMLID_621_" class="st8" d="M71.7,236.2c0,0.2,0.1,0.3,0.3,0.5c0.2,0.2,0.4,0.2,0.5,0.2c0.3,0,0.5-0.1,0.6-0.2
				s0.2-0.3,0.2-0.5c0-0.4-0.2-0.7-0.7-0.8l-0.5-0.2c-0.6-0.2-0.9-0.6-0.9-1.1c0-0.4,0.1-0.7,0.4-0.9c0.3-0.2,0.6-0.4,0.9-0.4
				s0.6,0.1,0.9,0.3c0.3,0.2,0.4,0.5,0.4,0.8v0.1h-0.6v-0.2c0-0.3-0.3-0.5-0.7-0.5c-0.3,0-0.6,0.3-0.6,0.6c0,0.3,0.2,0.6,0.6,0.7
				l0.5,0.2c0.6,0.2,0.9,0.6,1,1.2c0,0.4-0.1,0.8-0.4,1.1c-0.3,0.3-0.7,0.4-1.1,0.4s-0.7-0.2-1-0.5s-0.4-0.6-0.4-1h0.6V236.2z"/>
			<path id="XMLID_623_" class="st8" d="M76.2,237.5c-1.1,0-1.7-0.5-1.7-1.4v-4.8h0.6v1.6h1v0.6h-1v2.6c0,0.7,0.4,1,1,1L76.2,237.5
				L76.2,237.5z"/>
			<path id="XMLID_625_" class="st8" d="M77.3,237.4h-0.6v-4.6h0.6v0.6c0.1-0.2,0.3-0.4,0.6-0.6c0.2-0.1,0.5-0.2,0.7-0.2v0.6
				c-0.3,0-0.5,0.1-0.7,0.2s-0.3,0.3-0.4,0.4c-0.1,0.2-0.2,0.4-0.2,0.7V237.4z"/>
			<path id="XMLID_627_" class="st8" d="M83,235.4c0,0.6-0.2,1.1-0.6,1.5s-0.9,0.6-1.4,0.6c-0.6,0-1.1-0.2-1.4-0.6
				c-0.4-0.4-0.6-0.9-0.6-1.5v-2.6h0.6v2.7c0,0.4,0.1,0.7,0.4,1s0.6,0.4,1,0.4s0.7-0.1,1-0.4s0.4-0.6,0.4-1v-2.7H83V235.4z"/>
			<path id="XMLID_629_" class="st8" d="M88.4,236.2c-0.5,0.9-1.2,1.3-2.2,1.3c-0.7,0-1.2-0.2-1.7-0.7s-0.7-1-0.7-1.7
				s0.2-1.2,0.7-1.7s1.1-0.7,1.7-0.7c0.5,0,0.9,0.1,1.3,0.4c0.4,0.2,0.7,0.6,0.8,0.9l0.1,0.2h-0.7c-0.3-0.6-0.9-0.9-1.6-0.9
				c-0.5,0-0.9,0.2-1.3,0.5c-0.4,0.4-0.6,0.8-0.6,1.3s0.2,0.9,0.5,1.3c0.4,0.4,0.8,0.5,1.3,0.5c0.7,0,1.2-0.3,1.6-0.9h0.7
				L88.4,236.2z"/>
			<path id="XMLID_631_" class="st8" d="M90.4,237.5c-1.1,0-1.7-0.5-1.7-1.4v-4.8h0.6v1.6h1v0.6h-1v2.6c0,0.7,0.4,1,1,1L90.4,237.5
				L90.4,237.5z"/>
			<path id="XMLID_633_" class="st8" d="M95,235.4c0,0.6-0.2,1.1-0.6,1.5s-0.9,0.6-1.4,0.6c-0.6,0-1.1-0.2-1.4-0.6
				c-0.4-0.4-0.6-0.9-0.6-1.5v-2.6h0.6v2.7c0,0.4,0.1,0.7,0.4,1s0.6,0.4,1,0.4s0.7-0.1,1-0.4s0.4-0.6,0.4-1v-2.7H95V235.4z"/>
			<path id="XMLID_635_" class="st8" d="M96.3,237.4h-0.6v-4.6h0.6v0.6c0.1-0.2,0.3-0.4,0.6-0.6c0.2-0.1,0.5-0.2,0.7-0.2v0.6
				c-0.3,0-0.5,0.1-0.7,0.2s-0.3,0.3-0.4,0.4c-0.1,0.2-0.2,0.4-0.2,0.7V237.4z"/>
			<path id="XMLID_637_" class="st8" d="M102.5,235.9c-0.2,0.5-0.5,0.9-0.9,1.2c-0.4,0.3-0.9,0.4-1.4,0.4c-0.6,0-1.2-0.2-1.7-0.7
				s-0.7-1-0.7-1.7s0.2-1.3,0.7-1.8s1.1-0.7,1.8-0.7c0.6,0,1.1,0.3,1.6,0.8c0.4,0.5,0.6,1,0.6,1.5v0.3h-4.1c0,0.5,0.2,0.8,0.6,1.1
				c0.3,0.3,0.7,0.4,1.2,0.4c0.7,0,1.2-0.3,1.5-1h0.8V235.9z M102.1,234.8c-0.1-0.4-0.3-0.8-0.6-1s-0.7-0.4-1.1-0.4
				s-0.8,0.1-1.2,0.4c-0.3,0.3-0.5,0.6-0.6,1H102.1z"/>
		</g>
		<g id="XMLID_546_">
			<path id="XMLID_547_" class="st8" d="M197.8,227.8h-0.7l-0.9-2.1h-2.9l-0.9,2.1h-0.8l2.8-6.2h0.7L197.8,227.8z M196,225.2
				l-1.2-2.8l-1.2,2.8H196z"/>
			<path id="XMLID_550_" class="st8" d="M202.2,225.8c0,0.6-0.2,1.1-0.6,1.5c-0.4,0.4-0.9,0.6-1.4,0.6c-0.6,0-1.1-0.2-1.4-0.6
				c-0.4-0.4-0.6-0.9-0.6-1.5v-2.6h0.6v2.7c0,0.4,0.1,0.7,0.4,1c0.3,0.3,0.6,0.4,1,0.4s0.7-0.1,1-0.4s0.4-0.6,0.4-1v-2.7h0.6V225.8z
				"/>
			<path id="XMLID_552_" class="st8" d="M207.7,225.5c0,0.7-0.2,1.2-0.7,1.7s-1.1,0.7-1.7,0.7c-0.6,0-1.2-0.3-1.6-0.7
				c-0.4-0.5-0.7-1-0.7-1.7s0.2-1.2,0.7-1.7s1-0.7,1.7-0.7s1.2,0.3,1.7,0.8v-2.3h0.6V225.5z M205.3,227.3c0.5,0,0.9-0.1,1.3-0.5
				c0.4-0.4,0.5-0.8,0.5-1.3s-0.2-0.9-0.5-1.2s-0.7-0.5-1.2-0.5s-0.9,0.2-1.2,0.5s-0.5,0.8-0.5,1.2c0,0.5,0.2,0.9,0.5,1.3
				C204.4,227.1,204.8,227.3,205.3,227.3z"/>
			<path id="XMLID_555_" class="st8" d="M208.9,222.7h-0.6v-1.1h0.6V222.7z M208.9,227.8h-0.6v-4.6h0.6V227.8z"/>
			<path id="XMLID_558_" class="st8" d="M211.3,227.9c-1.1,0-1.7-0.5-1.7-1.4v-4.8h0.6v1.6h1v0.6h-1v2.6c0,0.7,0.4,1,1,1
				L211.3,227.9L211.3,227.9z"/>
			<path id="XMLID_560_" class="st8" d="M178.3,237.4h-0.6v-6.2h0.6V237.4z"/>
			<path id="XMLID_562_" class="st8" d="M183,237.4h-0.6v-2.7c0-0.4-0.1-0.7-0.4-1c-0.3-0.3-0.6-0.4-1-0.4s-0.7,0.1-1,0.4
				s-0.4,0.6-0.4,1v2.7H179v-2.6c0-0.6,0.2-1.1,0.6-1.5s0.9-0.6,1.4-0.6c0.6,0,1.1,0.2,1.4,0.6s0.6,0.9,0.6,1.5V237.4z"/>
			<path id="XMLID_564_" class="st8" d="M184.3,237.4h-0.6v-4.6c0-1,0.7-1.5,1.6-1.5h0.2v0.5h-0.2c-0.3,0-0.5,0.1-0.7,0.2
				c-0.2,0.2-0.3,0.4-0.3,0.6v0.2h1.1v0.6h-1.1V237.4z"/>
			<path id="XMLID_566_" class="st8" d="M186.5,237.4h-0.6v-4.6h0.6v0.6c0.1-0.2,0.3-0.4,0.6-0.6c0.2-0.1,0.5-0.2,0.7-0.2v0.6
				c-0.3,0-0.5,0.1-0.7,0.2s-0.3,0.3-0.4,0.4c-0.1,0.2-0.2,0.4-0.2,0.7L186.5,237.4L186.5,237.4z"/>
			<path id="XMLID_568_" class="st8" d="M192.8,237.4h-0.6v-0.7c-0.5,0.6-1.1,0.8-1.8,0.8c-0.6,0-1.2-0.3-1.6-0.7
				c-0.4-0.5-0.7-1-0.7-1.7s0.2-1.2,0.7-1.7s1-0.7,1.7-0.7c0.6,0,1.2,0.3,1.6,0.7c0.4,0.5,0.7,1,0.6,1.6l0,0v2.4H192.8z
				 M188.8,235.1c0,0.5,0.1,0.9,0.5,1.3c0.3,0.4,0.7,0.5,1.2,0.6c0.5,0,0.9-0.2,1.3-0.5c0.4-0.4,0.5-0.8,0.5-1.3s-0.2-0.9-0.5-1.2
				c-0.3-0.3-0.7-0.5-1.2-0.5s-0.9,0.2-1.2,0.5C189,234.2,188.8,234.6,188.8,235.1z"/>
			<path id="XMLID_571_" class="st8" d="M194.1,236.2c0,0.2,0.1,0.3,0.3,0.5s0.4,0.2,0.5,0.2c0.3,0,0.5-0.1,0.6-0.2s0.2-0.3,0.2-0.5
				c0-0.4-0.2-0.7-0.7-0.8l-0.5-0.2c-0.6-0.2-0.9-0.6-0.9-1.1c0-0.4,0.1-0.7,0.4-0.9c0.3-0.2,0.6-0.4,0.9-0.4c0.3,0,0.6,0.1,0.9,0.3
				c0.3,0.2,0.4,0.5,0.4,0.8v0.1h-0.6v-0.2c0-0.3-0.3-0.5-0.7-0.5c-0.3,0-0.6,0.3-0.6,0.6c0,0.3,0.2,0.6,0.6,0.7l0.5,0.2
				c0.6,0.2,0.9,0.6,1,1.2c0,0.4-0.1,0.8-0.4,1.1c-0.3,0.3-0.7,0.4-1.1,0.4c-0.4,0-0.7-0.2-1-0.5s-0.4-0.6-0.4-1h0.6V236.2z"/>
			<path id="XMLID_573_" class="st8" d="M198.6,237.5c-1.1,0-1.7-0.5-1.7-1.4v-4.8h0.6v1.6h1v0.6h-1v2.6c0,0.7,0.4,1,1,1
				L198.6,237.5L198.6,237.5z"/>
			<path id="XMLID_575_" class="st8" d="M199.8,237.4h-0.6v-4.6h0.6v0.6c0.1-0.2,0.3-0.4,0.6-0.6c0.2-0.1,0.5-0.2,0.7-0.2v0.6
				c-0.3,0-0.5,0.1-0.7,0.2s-0.3,0.3-0.4,0.4c-0.1,0.2-0.2,0.4-0.2,0.7L199.8,237.4L199.8,237.4z"/>
			<path id="XMLID_577_" class="st8" d="M205.5,235.4c0,0.6-0.2,1.1-0.6,1.5c-0.4,0.4-0.9,0.6-1.4,0.6c-0.6,0-1.1-0.2-1.4-0.6
				c-0.4-0.4-0.6-0.9-0.6-1.5v-2.6h0.6v2.7c0,0.4,0.1,0.7,0.4,1c0.3,0.3,0.6,0.4,1,0.4s0.7-0.1,1-0.4s0.4-0.6,0.4-1v-2.7h0.6V235.4z
				"/>
			<path id="XMLID_579_" class="st8" d="M210.8,236.2c-0.5,0.9-1.2,1.3-2.2,1.3c-0.7,0-1.2-0.2-1.7-0.7s-0.7-1-0.7-1.7
				s0.2-1.2,0.7-1.7s1.1-0.7,1.7-0.7c0.5,0,0.9,0.1,1.3,0.4c0.4,0.2,0.7,0.6,0.8,0.9l0.1,0.2h-0.7c-0.3-0.6-0.9-0.9-1.6-0.9
				c-0.5,0-0.9,0.2-1.3,0.5c-0.4,0.4-0.6,0.8-0.6,1.3s0.2,0.9,0.5,1.3c0.4,0.4,0.8,0.5,1.3,0.5c0.7,0,1.2-0.3,1.6-0.9h0.7
				L210.8,236.2z"/>
			<path id="XMLID_581_" class="st8" d="M212.9,237.5c-1.1,0-1.7-0.5-1.7-1.4v-4.8h0.6v1.6h1v0.6h-1v2.6c0,0.7,0.4,1,1,1
				L212.9,237.5L212.9,237.5z"/>
			<path id="XMLID_583_" class="st8" d="M217.4,235.4c0,0.6-0.2,1.1-0.6,1.5c-0.4,0.4-0.9,0.6-1.4,0.6c-0.6,0-1.1-0.2-1.4-0.6
				c-0.4-0.4-0.6-0.9-0.6-1.5v-2.6h0.6v2.7c0,0.4,0.1,0.7,0.4,1c0.3,0.3,0.6,0.4,1,0.4s0.7-0.1,1-0.4s0.4-0.6,0.4-1v-2.7h0.6V235.4z
				"/>
			<path id="XMLID_585_" class="st8" d="M218.7,237.4h-0.6v-4.6h0.6v0.6c0.1-0.2,0.3-0.4,0.6-0.6c0.2-0.1,0.5-0.2,0.7-0.2v0.6
				c-0.3,0-0.5,0.1-0.7,0.2s-0.3,0.3-0.4,0.4c-0.1,0.2-0.2,0.4-0.2,0.7L218.7,237.4L218.7,237.4z"/>
			<path id="XMLID_587_" class="st8" d="M225,235.9c-0.2,0.5-0.5,0.9-0.9,1.2c-0.4,0.3-0.9,0.4-1.4,0.4c-0.6,0-1.2-0.2-1.7-0.7
				s-0.7-1-0.7-1.7s0.2-1.3,0.7-1.8s1.1-0.7,1.8-0.7c0.6,0,1.1,0.3,1.6,0.8c0.4,0.5,0.6,1,0.6,1.5v0.3h-4c0,0.5,0.2,0.8,0.6,1.1
				c0.3,0.3,0.7,0.4,1.2,0.4c0.7,0,1.2-0.3,1.5-1h0.7V235.9z M224.5,234.8c-0.1-0.4-0.3-0.8-0.6-1s-0.7-0.4-1.1-0.4
				c-0.4,0-0.8,0.1-1.2,0.4c-0.3,0.3-0.5,0.6-0.6,1H224.5z"/>
		</g>
		<g id="XMLID_511_">
			<path id="XMLID_512_" class="st8" d="M317,227.8h-1.8c-0.9,0-1.6-0.5-1.6-1.5v-4.6h0.6v4.7c0,0.2,0.1,0.4,0.3,0.6
				c0.1,0.1,0.4,0.2,0.7,0.2h1.8V227.8z"/>
			<path id="XMLID_514_" class="st8" d="M321.8,226.3c-0.2,0.5-0.5,0.9-0.9,1.2c-0.4,0.3-0.9,0.4-1.4,0.4c-0.6,0-1.2-0.2-1.7-0.7
				s-0.7-1-0.7-1.7s0.2-1.3,0.7-1.8s1.1-0.7,1.8-0.7c0.6,0,1.1,0.3,1.6,0.8c0.4,0.5,0.6,1,0.6,1.5v0.3h-4.1c0,0.5,0.2,0.8,0.6,1.1
				c0.3,0.3,0.7,0.4,1.2,0.4c0.7,0,1.2-0.3,1.5-1h0.8V226.3z M321.3,225.2c-0.1-0.4-0.3-0.8-0.6-1c-0.3-0.3-0.7-0.4-1.1-0.4
				s-0.8,0.1-1.2,0.4c-0.3,0.3-0.5,0.6-0.6,1H321.3z"/>
			<path id="XMLID_517_" class="st8" d="M327.1,227.6c0,0.6-0.2,1.1-0.7,1.4s-1,0.6-1.6,0.5c-0.5,0-1-0.2-1.4-0.5s-0.6-0.7-0.8-1.1
				h0.6c0.1,0.3,0.3,0.6,0.6,0.8c0.3,0.2,0.7,0.3,1,0.3c0.4,0,0.8-0.2,1.2-0.5c0.3-0.3,0.5-0.7,0.5-1.1V227c-0.4,0.5-1,0.8-1.7,0.8
				s-1.2-0.2-1.7-0.7s-0.7-1.1-0.7-1.7s0.2-1.2,0.7-1.7c0.4-0.5,1-0.7,1.6-0.7c0.7,0,1.2,0.2,1.7,0.7s0.7,1,0.7,1.7L327.1,227.6
				L327.1,227.6z M326,226.7c0.3-0.3,0.5-0.8,0.5-1.2c0-0.5-0.2-0.9-0.5-1.3c-0.4-0.4-0.8-0.6-1.3-0.5c-0.5,0-0.9,0.2-1.2,0.6
				s-0.5,0.8-0.5,1.3s0.2,0.9,0.5,1.2s0.8,0.5,1.2,0.5C325.3,227.3,325.7,227.1,326,226.7z"/>
			<path id="XMLID_520_" class="st8" d="M332.5,227.8h-0.6v-0.7c-0.5,0.6-1.1,0.8-1.8,0.8c-0.6,0-1.2-0.3-1.6-0.7
				c-0.4-0.5-0.7-1-0.7-1.7s0.2-1.2,0.7-1.7s1-0.7,1.7-0.7c0.6,0,1.2,0.3,1.6,0.7c0.4,0.5,0.7,1,0.6,1.6l0,0L332.5,227.8
				L332.5,227.8z M328.4,225.5c0,0.5,0.1,0.9,0.5,1.3c0.3,0.4,0.7,0.5,1.2,0.6c0.5,0,0.9-0.2,1.3-0.5c0.4-0.4,0.5-0.8,0.5-1.3
				s-0.2-0.9-0.5-1.2s-0.7-0.5-1.2-0.5s-0.9,0.2-1.2,0.5S328.4,225,328.4,225.5z"/>
			<path id="XMLID_523_" class="st8" d="M333.7,227.8h-0.6v-6.2h0.6V227.8z"/>
			<path id="XMLID_525_" class="st8" d="M303.3,237.4h-0.6v-4.6c0-1,0.7-1.5,1.6-1.5h1.8v0.6h-1.8c-0.3,0-0.5,0.1-0.7,0.2
				c-0.2,0.2-0.3,0.4-0.3,0.6v1.3h2.1v0.6h-2.1V237.4z"/>
			<path id="XMLID_527_" class="st8" d="M306.9,237.4h-0.6v-4.6h0.6v0.6c0.1-0.2,0.3-0.4,0.6-0.6c0.2-0.1,0.5-0.2,0.7-0.2v0.6
				c-0.3,0-0.5,0.1-0.7,0.2s-0.3,0.3-0.4,0.4c-0.1,0.2-0.2,0.4-0.2,0.7V237.4z"/>
			<path id="XMLID_529_" class="st8" d="M313.2,237.4h-0.6v-0.7c-0.5,0.6-1.1,0.8-1.8,0.8c-0.6,0-1.2-0.3-1.6-0.7
				c-0.4-0.5-0.7-1-0.7-1.7s0.2-1.2,0.7-1.7s1-0.7,1.7-0.7c0.6,0,1.2,0.3,1.6,0.7c0.4,0.5,0.7,1,0.6,1.6l0,0L313.2,237.4
				L313.2,237.4z M309.2,235.1c0,0.5,0.1,0.9,0.5,1.3c0.3,0.4,0.7,0.5,1.2,0.6c0.5,0,0.9-0.2,1.3-0.5c0.4-0.4,0.5-0.8,0.5-1.3
				s-0.2-0.9-0.5-1.2c-0.3-0.3-0.7-0.5-1.2-0.5s-0.9,0.2-1.2,0.5C309.3,234.2,309.2,234.6,309.2,235.1z"/>
			<path id="XMLID_532_" class="st8" d="M320.4,237.4h-0.6v-2.8c0-0.4-0.1-0.7-0.3-0.9c-0.2-0.2-0.5-0.4-0.8-0.4s-0.6,0.1-0.9,0.3
				c-0.2,0.2-0.4,0.5-0.4,0.8v2.9h-0.6v-2.9c0-0.3-0.1-0.6-0.4-0.8c-0.2-0.2-0.5-0.3-0.9-0.3c-0.3,0-0.6,0.1-0.8,0.4
				c-0.2,0.2-0.3,0.5-0.3,0.9v2.8h-0.6v-2.7c0-0.6,0.2-1,0.5-1.4c0.3-0.3,0.7-0.5,1.2-0.6c0.7-0.1,1.2,0.2,1.6,0.8
				c0.4-0.6,0.9-0.9,1.6-0.8c0.5,0,0.9,0.2,1.2,0.6c0.3,0.3,0.5,0.8,0.5,1.4L320.4,237.4L320.4,237.4z"/>
			<path id="XMLID_534_" class="st8" d="M325.7,235.9c-0.2,0.5-0.5,0.9-0.9,1.2c-0.4,0.3-0.9,0.4-1.4,0.4c-0.6,0-1.2-0.2-1.7-0.7
				s-0.7-1-0.7-1.7s0.2-1.3,0.7-1.8s1.1-0.7,1.8-0.7c0.6,0,1.1,0.3,1.6,0.8c0.4,0.5,0.6,1,0.6,1.5v0.3h-4.1c0,0.5,0.2,0.8,0.6,1.1
				s0.7,0.4,1.2,0.4c0.7,0,1.2-0.3,1.5-1h0.8V235.9z M325.2,234.8c-0.1-0.4-0.3-0.8-0.6-1s-0.7-0.4-1.1-0.4s-0.8,0.1-1.2,0.4
				c-0.3,0.3-0.5,0.6-0.6,1H325.2z"/>
			<path id="XMLID_537_" class="st8" d="M331.4,237.4h-0.7l-1-3l-0.9,3h-0.7l-1.7-4.6h0.6l1.4,3.8l1.1-3.2h0.5l1,3.2l1.4-3.8h0.7
				L331.4,237.4z"/>
			<path id="XMLID_539_" class="st8" d="M337.6,236.8c-0.5,0.5-1,0.7-1.7,0.7c-0.6,0-1.2-0.3-1.6-0.7c-0.4-0.5-0.7-1-0.7-1.7
				s0.2-1.2,0.7-1.7s1-0.7,1.7-0.7c0.6,0,1.2,0.3,1.6,0.7c0.4,0.5,0.7,1,0.7,1.7C338.3,235.8,338.1,236.3,337.6,236.8z M335.9,236.9
				c0.5,0,0.9-0.1,1.3-0.5s0.5-0.8,0.5-1.3s-0.2-0.9-0.5-1.2c-0.3-0.3-0.7-0.5-1.2-0.5s-0.9,0.2-1.2,0.5s-0.5,0.8-0.5,1.2
				c0,0.5,0.1,0.9,0.5,1.3C335.1,236.7,335.5,236.9,335.9,236.9z"/>
			<path id="XMLID_542_" class="st8" d="M339.6,237.4H339v-4.6h0.6v0.6c0.1-0.2,0.3-0.4,0.6-0.6c0.2-0.1,0.5-0.2,0.7-0.2v0.6
				c-0.3,0-0.5,0.1-0.7,0.2s-0.3,0.3-0.4,0.4c-0.1,0.2-0.2,0.4-0.2,0.7V237.4z"/>
			<path id="XMLID_544_" class="st8" d="M344.9,237.4h-0.8l-1.5-1.8l-0.7,0.9v0.9h-0.7v-6.2h0.6v4.3l2.1-2.7h0.8l-1.7,2.3
				L344.9,237.4z"/>
		</g>
		<g id="XMLID_461_">
			<path id="XMLID_462_" class="st8" d="M436.4,226c0,0.3,0.1,0.6,0.3,0.9c0.2,0.2,0.5,0.4,0.8,0.4s0.6-0.1,0.9-0.4
				c0.2-0.2,0.4-0.5,0.4-0.9c0-0.6-0.4-1-1.1-1.2l-0.7-0.2c-0.7-0.2-1.1-0.8-1.1-1.5c0-0.5,0.2-0.8,0.5-1.2c0.3-0.3,0.7-0.5,1.2-0.5
				s0.8,0.2,1.2,0.5c0.3,0.3,0.5,0.7,0.5,1.2h-0.6c0-0.3-0.1-0.5-0.3-0.7c-0.2-0.2-0.4-0.3-0.7-0.3c-0.3,0-0.6,0.1-0.8,0.3
				c-0.2,0.2-0.3,0.5-0.3,0.8c0,0.5,0.2,0.8,0.7,0.9l0.7,0.2c1,0.3,1.4,0.9,1.4,1.7c0,0.5-0.2,0.9-0.5,1.3c-0.4,0.4-0.8,0.5-1.3,0.5
				s-0.9-0.2-1.3-0.5c-0.4-0.4-0.5-0.8-0.5-1.3L436.4,226L436.4,226z"/>
			<path id="XMLID_464_" class="st8" d="M446.5,227.8h-0.6V225c0-0.4-0.1-0.7-0.3-0.9c-0.2-0.2-0.5-0.4-0.8-0.4s-0.6,0.1-0.9,0.3
				c-0.2,0.2-0.4,0.5-0.4,0.8v2.9h-0.6v-2.9c0-0.3-0.1-0.6-0.4-0.8c-0.2-0.2-0.5-0.3-0.9-0.3c-0.3,0-0.6,0.1-0.8,0.4
				c-0.2,0.2-0.3,0.5-0.3,0.9v2.8H440v-2.7c0-0.6,0.2-1,0.5-1.4c0.3-0.3,0.7-0.5,1.2-0.6c0.7-0.1,1.2,0.2,1.6,0.8
				c0.4-0.6,0.9-0.9,1.6-0.8c0.5,0,0.9,0.2,1.2,0.6c0.3,0.3,0.5,0.8,0.5,1.4v2.7H446.5z"/>
			<path id="XMLID_466_" class="st8" d="M451.9,227.8h-0.6v-0.7c-0.5,0.6-1.1,0.8-1.8,0.8c-0.6,0-1.2-0.3-1.6-0.7
				c-0.4-0.5-0.7-1-0.7-1.7s0.2-1.2,0.7-1.7s1-0.7,1.7-0.7c0.6,0,1.2,0.3,1.6,0.7c0.4,0.5,0.7,1,0.6,1.6l0,0L451.9,227.8
				L451.9,227.8z M447.8,225.5c0,0.5,0.1,0.9,0.5,1.3c0.3,0.4,0.7,0.5,1.2,0.6c0.5,0,0.9-0.2,1.3-0.5c0.4-0.4,0.5-0.8,0.5-1.3
				s-0.2-0.9-0.5-1.2s-0.7-0.5-1.2-0.5s-0.9,0.2-1.2,0.5S447.8,225,447.8,225.5z"/>
			<path id="XMLID_469_" class="st8" d="M453.1,227.8h-0.6v-4.6h0.6v0.6c0.1-0.2,0.3-0.4,0.6-0.6c0.2-0.1,0.5-0.2,0.7-0.2v0.6
				c-0.3,0-0.5,0.1-0.7,0.2s-0.3,0.3-0.4,0.4c-0.1,0.2-0.2,0.4-0.2,0.7V227.8z"/>
			<path id="XMLID_471_" class="st8" d="M456.5,227.9c-1.1,0-1.7-0.5-1.7-1.4v-4.8h0.6v1.6h1v0.6h-1v2.6c0,0.7,0.4,1,1,1v0.4H456.5z
				"/>
			<path id="XMLID_473_" class="st8" d="M416,235.8c-0.6,1.1-1.6,1.7-2.8,1.7c-0.9,0-1.6-0.3-2.2-0.9s-0.9-1.4-0.9-2.3
				s0.3-1.7,0.9-2.3c0.6-0.6,1.4-0.9,2.2-0.9c0.6,0,1.2,0.2,1.7,0.5s0.9,0.7,1.1,1.2h-0.7c-0.5-0.7-1.2-1.1-2.1-1.1
				c-0.7,0-1.3,0.2-1.8,0.7s-0.7,1.1-0.8,1.8c0,0.7,0.2,1.3,0.7,1.9c0.5,0.5,1.1,0.8,1.8,0.8c0.4,0,0.8-0.1,1.2-0.3
				c0.4-0.2,0.7-0.5,0.9-0.8L416,235.8L416,235.8z"/>
			<path id="XMLID_475_" class="st8" d="M420,236.8c-0.5,0.5-1,0.7-1.7,0.7c-0.6,0-1.2-0.3-1.6-0.7c-0.4-0.5-0.7-1-0.7-1.7
				s0.2-1.2,0.7-1.7s1-0.7,1.7-0.7c0.6,0,1.2,0.3,1.6,0.7c0.4,0.5,0.7,1,0.7,1.7C420.8,235.8,420.5,236.3,420,236.8z M418.4,236.9
				c0.5,0,0.9-0.1,1.3-0.5s0.5-0.8,0.5-1.3s-0.2-0.9-0.5-1.2s-0.7-0.5-1.2-0.5s-0.9,0.2-1.2,0.5s-0.5,0.8-0.5,1.2
				c0,0.5,0.1,0.9,0.5,1.3C417.5,236.7,417.9,236.9,418.4,236.9z"/>
			<path id="XMLID_478_" class="st8" d="M425.4,237.4h-0.6v-2.7c0-0.4-0.1-0.7-0.4-1s-0.6-0.4-1-0.4s-0.7,0.1-1,0.4s-0.4,0.6-0.4,1
				v2.7h-0.6v-2.6c0-0.6,0.2-1.1,0.6-1.5s0.9-0.6,1.4-0.6c0.6,0,1.1,0.2,1.4,0.6s0.6,0.9,0.6,1.5V237.4z"/>
			<path id="XMLID_480_" class="st8" d="M427.7,237.5c-1.1,0-1.7-0.5-1.7-1.4v-4.8h0.6v1.6h1v0.6h-1v2.6c0,0.7,0.4,1,1,1v0.4H427.7z
				"/>
			<path id="XMLID_482_" class="st8" d="M428.8,237.4h-0.6v-4.6h0.6v0.6c0.1-0.2,0.3-0.4,0.6-0.6c0.2-0.1,0.5-0.2,0.7-0.2v0.6
				c-0.3,0-0.5,0.1-0.7,0.2s-0.3,0.3-0.4,0.4c-0.1,0.2-0.2,0.4-0.2,0.7V237.4z"/>
			<path id="XMLID_484_" class="st8" d="M435.2,237.4h-0.6v-0.7c-0.5,0.6-1.1,0.8-1.8,0.8c-0.6,0-1.2-0.3-1.6-0.7
				c-0.4-0.5-0.7-1-0.7-1.7s0.2-1.2,0.7-1.7s1-0.7,1.7-0.7c0.6,0,1.2,0.3,1.6,0.7c0.4,0.5,0.7,1,0.6,1.6l0,0L435.2,237.4
				L435.2,237.4z M431.1,235.1c0,0.5,0.1,0.9,0.5,1.3c0.3,0.4,0.7,0.5,1.2,0.6c0.5,0,0.9-0.2,1.3-0.5c0.4-0.4,0.5-0.8,0.5-1.3
				s-0.2-0.9-0.5-1.2c-0.3-0.3-0.7-0.5-1.2-0.5s-0.9,0.2-1.2,0.5C431.3,234.2,431.1,234.6,431.1,235.1z"/>
			<path id="XMLID_487_" class="st8" d="M440.5,236.2c-0.5,0.9-1.2,1.3-2.2,1.3c-0.7,0-1.2-0.2-1.7-0.7s-0.7-1-0.7-1.7
				s0.2-1.2,0.7-1.7s1.1-0.7,1.7-0.7c0.5,0,0.9,0.1,1.3,0.4c0.4,0.2,0.7,0.6,0.8,0.9l0.1,0.2h-0.7c-0.3-0.6-0.9-0.9-1.6-0.9
				c-0.5,0-0.9,0.2-1.3,0.5c-0.4,0.4-0.6,0.8-0.6,1.3s0.2,0.9,0.5,1.3c0.4,0.4,0.8,0.5,1.3,0.5c0.7,0,1.2-0.3,1.6-0.9h0.7
				L440.5,236.2z"/>
			<path id="XMLID_489_" class="st8" d="M442.5,237.5c-1.1,0-1.7-0.5-1.7-1.4v-4.8h0.6v1.6h1v0.6h-1v2.6c0,0.7,0.4,1,1,1v0.4H442.5z
				"/>
			<path id="XMLID_491_" class="st8" d="M449.1,237.4h-0.6v-5.6h-1.4v-0.6h3.4v0.6h-1.4V237.4z"/>
			<path id="XMLID_493_" class="st8" d="M455.5,235.9c-0.2,0.5-0.5,0.9-0.9,1.2c-0.4,0.3-0.9,0.4-1.4,0.4c-0.6,0-1.2-0.2-1.7-0.7
				s-0.7-1-0.7-1.7s0.2-1.3,0.7-1.8s1.1-0.7,1.8-0.7c0.6,0,1.1,0.3,1.6,0.8c0.4,0.5,0.6,1,0.6,1.5v0.3h-4.1c0,0.5,0.2,0.8,0.6,1.1
				c0.3,0.3,0.7,0.4,1.2,0.4c0.7,0,1.2-0.3,1.5-1h0.8V235.9z M455,234.8c-0.1-0.4-0.3-0.8-0.6-1s-0.7-0.4-1.1-0.4s-0.8,0.1-1.2,0.4
				c-0.3,0.3-0.5,0.6-0.6,1H455z"/>
			<path id="XMLID_496_" class="st8" d="M462.7,237.4h-0.6v-2.8c0-0.4-0.1-0.7-0.3-0.9c-0.2-0.2-0.5-0.4-0.8-0.4s-0.6,0.1-0.9,0.3
				c-0.2,0.2-0.4,0.5-0.4,0.8v2.9h-0.6v-2.9c0-0.3-0.1-0.6-0.4-0.8c-0.2-0.2-0.5-0.3-0.9-0.3c-0.3,0-0.6,0.1-0.8,0.4
				c-0.2,0.2-0.3,0.5-0.3,0.9v2.8h-0.6v-2.7c0-0.6,0.2-1,0.5-1.4c0.3-0.3,0.7-0.5,1.2-0.6c0.7-0.1,1.2,0.2,1.6,0.8
				c0.4-0.6,0.9-0.9,1.6-0.8c0.5,0,0.9,0.2,1.2,0.6c0.3,0.3,0.5,0.8,0.5,1.4L462.7,237.4L462.7,237.4z"/>
			<path id="XMLID_498_" class="st8" d="M464,239h-0.6v-3.8l0,0c0-0.7,0.2-1.2,0.7-1.7s1-0.7,1.7-0.7c0.6,0,1.2,0.3,1.6,0.7
				s0.7,1,0.7,1.7s-0.2,1.2-0.7,1.7s-1,0.7-1.7,0.7s-1.2-0.3-1.7-0.8V239z M465.8,233.3c-0.5,0-0.9,0.1-1.3,0.5s-0.5,0.8-0.5,1.3
				s0.2,0.9,0.5,1.2s0.7,0.5,1.2,0.5s0.9-0.2,1.2-0.5s0.5-0.8,0.5-1.2c0-0.5-0.2-0.9-0.5-1.3S466.3,233.3,465.8,233.3z"/>
			<path id="XMLID_501_" class="st8" d="M469.3,237.4h-0.6v-6.2h0.6V237.4z"/>
			<path id="XMLID_503_" class="st8" d="M474.6,237.4H474v-0.7c-0.5,0.6-1.1,0.8-1.8,0.8c-0.6,0-1.2-0.3-1.6-0.7
				c-0.4-0.5-0.7-1-0.7-1.7s0.2-1.2,0.7-1.7s1-0.7,1.7-0.7c0.6,0,1.2,0.3,1.6,0.7c0.4,0.5,0.7,1,0.6,1.6l0,0L474.6,237.4
				L474.6,237.4z M470.6,235.1c0,0.5,0.1,0.9,0.5,1.3c0.3,0.4,0.7,0.5,1.2,0.6c0.5,0,0.9-0.2,1.3-0.5c0.4-0.4,0.5-0.8,0.5-1.3
				s-0.2-0.9-0.5-1.2c-0.3-0.3-0.7-0.5-1.2-0.5s-0.9,0.2-1.2,0.5C470.8,234.2,470.6,234.6,470.6,235.1z"/>
			<path id="XMLID_506_" class="st8" d="M477,237.5c-1.1,0-1.7-0.5-1.7-1.4v-4.8h0.6v1.6h1v0.6h-1v2.6c0,0.7,0.4,1,1,1v0.4H477z"/>
			<path id="XMLID_508_" class="st8" d="M482.1,235.9c-0.2,0.5-0.5,0.9-0.9,1.2c-0.4,0.3-0.9,0.4-1.4,0.4c-0.6,0-1.2-0.2-1.7-0.7
				s-0.7-1-0.7-1.7s0.2-1.3,0.7-1.8s1.1-0.7,1.8-0.7c0.6,0,1.1,0.3,1.6,0.8c0.4,0.5,0.6,1,0.6,1.5v0.3H478c0,0.5,0.2,0.8,0.6,1.1
				c0.3,0.3,0.7,0.4,1.2,0.4c0.7,0,1.2-0.3,1.5-1h0.8V235.9z M481.6,234.8c-0.1-0.4-0.3-0.8-0.6-1s-0.7-0.4-1.1-0.4
				s-0.8,0.1-1.2,0.4c-0.3,0.3-0.5,0.6-0.6,1H481.6z"/>
		</g>
		<g id="XMLID_402_">
			<path id="XMLID_403_" class="st8" d="M546.5,227.8v-6.1h1.8c1,0,1.8,0.3,2.4,0.9c0.6,0.6,1,1.3,1,2.2c0,0.8-0.3,1.6-0.9,2.2
				c-0.6,0.6-1.3,0.9-2.2,0.9h-2.1V227.8z M548.6,227.2c0.7,0,1.3-0.3,1.8-0.8s0.7-1.1,0.7-1.8c0-0.7-0.3-1.3-0.8-1.7
				s-1.1-0.7-1.8-0.7h-1.3v5H548.6z"/>
			<path id="XMLID_406_" class="st8" d="M556.9,227.8h-0.6v-0.7c-0.5,0.6-1.1,0.8-1.8,0.8c-0.6,0-1.2-0.3-1.6-0.7
				c-0.4-0.5-0.7-1-0.7-1.7s0.2-1.2,0.7-1.7s1-0.7,1.7-0.7c0.6,0,1.2,0.3,1.6,0.7c0.4,0.5,0.7,1,0.6,1.6l0,0L556.9,227.8
				L556.9,227.8z M552.8,225.5c0,0.5,0.1,0.9,0.5,1.3s0.7,0.5,1.2,0.6c0.5,0,0.9-0.2,1.3-0.5c0.4-0.4,0.5-0.8,0.5-1.3
				s-0.2-0.9-0.5-1.2s-0.7-0.5-1.2-0.5s-0.9,0.2-1.2,0.5S552.8,225,552.8,225.5z"/>
			<path id="XMLID_409_" class="st8" d="M561.5,227.2c-0.5,0.5-1,0.7-1.7,0.7c-0.6,0-1.2-0.3-1.6-0.7c-0.4-0.5-0.7-1-0.7-1.7
				s0.2-1.2,0.7-1.7s1-0.7,1.7-0.7c0.6,0,1.2,0.3,1.6,0.7c0.4,0.5,0.7,1,0.7,1.7S562,226.7,561.5,227.2z M559.8,227.3
				c0.5,0,0.9-0.1,1.3-0.5c0.4-0.4,0.5-0.8,0.5-1.3s-0.2-0.9-0.5-1.2c-0.3-0.3-0.7-0.5-1.2-0.5s-0.9,0.2-1.2,0.5s-0.5,0.8-0.5,1.2
				c0,0.5,0.1,0.9,0.5,1.3C559,227.1,559.3,227.3,559.8,227.3z"/>
			<path id="XMLID_412_" class="st8" d="M563.4,227.8h-0.6v-6.2h0.6V227.8z"/>
			<path id="XMLID_414_" class="st8" d="M564.7,227.8h-0.6v-6.2h0.6V227.8z"/>
			<path id="XMLID_416_" class="st8" d="M570.1,227.8h-0.6v-0.7c-0.5,0.6-1.1,0.8-1.8,0.8c-0.6,0-1.2-0.3-1.6-0.7
				c-0.4-0.5-0.7-1-0.7-1.7s0.2-1.2,0.7-1.7s1-0.7,1.7-0.7c0.6,0,1.2,0.3,1.6,0.7c0.4,0.5,0.7,1,0.6,1.6l0,0L570.1,227.8
				L570.1,227.8z M566,225.5c0,0.5,0.1,0.9,0.5,1.3c0.3,0.4,0.7,0.5,1.2,0.6c0.5,0,0.9-0.2,1.3-0.5c0.4-0.4,0.5-0.8,0.5-1.3
				s-0.2-0.9-0.5-1.2c-0.3-0.3-0.7-0.5-1.2-0.5s-0.9,0.2-1.2,0.5S566,225,566,225.5z"/>
			<path id="XMLID_419_" class="st8" d="M571.3,227.8h-0.6v-4.6h0.6v0.6c0.1-0.2,0.3-0.4,0.6-0.6c0.2-0.1,0.5-0.2,0.7-0.2v0.6
				c-0.3,0-0.5,0.1-0.7,0.2s-0.3,0.3-0.4,0.4c-0.1,0.2-0.2,0.4-0.2,0.7L571.3,227.8L571.3,227.8z"/>
			<path id="XMLID_421_" class="st8" d="M580.4,227.8h-1.8c-0.9,0-1.6-0.5-1.6-1.5v-3.1c0-1,0.7-1.5,1.6-1.5h1.8v0.6h-1.8
				c-0.3,0-0.5,0.1-0.7,0.2c-0.2,0.2-0.3,0.4-0.3,0.6v1.3h2.1v0.6h-2.1v1.4c0,0.2,0.1,0.4,0.3,0.6c0.1,0.1,0.4,0.2,0.7,0.2h1.8
				V227.8z"/>
			<path id="XMLID_423_" class="st8" d="M585.4,226.6c-0.5,0.9-1.2,1.3-2.2,1.3c-0.7,0-1.2-0.2-1.7-0.7s-0.7-1-0.7-1.7
				s0.2-1.2,0.7-1.7s1.1-0.7,1.7-0.7c0.5,0,0.9,0.1,1.3,0.4c0.4,0.2,0.7,0.6,0.8,0.9l0.1,0.2h-0.7c-0.3-0.6-0.9-0.9-1.6-0.9
				c-0.5,0-0.9,0.2-1.3,0.5c-0.4,0.4-0.6,0.8-0.6,1.3s0.2,0.9,0.5,1.3c0.4,0.4,0.8,0.5,1.3,0.5c0.7,0,1.2-0.3,1.6-0.9h0.7
				L585.4,226.6z"/>
			<path id="XMLID_425_" class="st8" d="M589.7,227.2c-0.5,0.5-1,0.7-1.7,0.7c-0.6,0-1.2-0.3-1.6-0.7c-0.4-0.5-0.7-1-0.7-1.7
				s0.2-1.2,0.7-1.7s1-0.7,1.7-0.7c0.6,0,1.2,0.3,1.6,0.7c0.4,0.5,0.7,1,0.7,1.7S590.2,226.7,589.7,227.2z M588,227.3
				c0.5,0,0.9-0.1,1.3-0.5c0.4-0.4,0.5-0.8,0.5-1.3s-0.2-0.9-0.5-1.2c-0.3-0.3-0.7-0.5-1.2-0.5s-0.9,0.2-1.2,0.5s-0.5,0.8-0.5,1.2
				c0,0.5,0.1,0.9,0.5,1.3C587.2,227.1,587.6,227.3,588,227.3z"/>
			<path id="XMLID_428_" class="st8" d="M542.8,237.4h-0.6v-4.6c0-1,0.7-1.5,1.6-1.5h0.2v0.5h-0.2c-0.3,0-0.5,0.1-0.7,0.2
				c-0.2,0.2-0.3,0.4-0.3,0.6v0.2h1.1v0.6h-1.1V237.4z"/>
			<path id="XMLID_430_" class="st8" d="M548.4,236.8c-0.5,0.5-1,0.7-1.7,0.7c-0.6,0-1.2-0.3-1.6-0.7c-0.4-0.5-0.7-1-0.7-1.7
				s0.2-1.2,0.7-1.7s1-0.7,1.7-0.7c0.6,0,1.2,0.3,1.6,0.7c0.4,0.5,0.7,1,0.7,1.7C549.1,235.8,548.9,236.3,548.4,236.8z M546.7,236.9
				c0.5,0,0.9-0.1,1.3-0.5c0.4-0.4,0.5-0.8,0.5-1.3s-0.2-0.9-0.5-1.2c-0.3-0.3-0.7-0.5-1.2-0.5s-0.9,0.2-1.2,0.5s-0.5,0.8-0.5,1.2
				c0,0.5,0.1,0.9,0.5,1.3C545.8,236.7,546.2,236.9,546.7,236.9z"/>
			<path id="XMLID_433_" class="st8" d="M550.3,237.4h-0.6v-4.6h0.6v0.6c0.1-0.2,0.3-0.4,0.6-0.6c0.2-0.1,0.5-0.2,0.7-0.2v0.6
				c-0.3,0-0.5,0.1-0.7,0.2s-0.3,0.3-0.4,0.4c-0.1,0.2-0.2,0.4-0.2,0.7L550.3,237.4L550.3,237.4z"/>
			<path id="XMLID_435_" class="st8" d="M561.9,235.8c-0.6,1.1-1.6,1.7-2.8,1.7c-0.9,0-1.6-0.3-2.2-0.9c-0.6-0.6-0.9-1.4-0.9-2.3
				s0.3-1.7,0.9-2.3c0.6-0.6,1.4-0.9,2.2-0.9c0.6,0,1.2,0.2,1.7,0.5s0.9,0.7,1.1,1.2h-0.7c-0.5-0.7-1.2-1.1-2.1-1.1
				c-0.7,0-1.3,0.2-1.8,0.7s-0.7,1.1-0.8,1.8c0,0.7,0.2,1.3,0.7,1.9c0.5,0.5,1.1,0.8,1.8,0.8c0.4,0,0.8-0.1,1.2-0.3
				c0.4-0.2,0.7-0.5,0.9-0.8L561.9,235.8L561.9,235.8z"/>
			<path id="XMLID_437_" class="st8" d="M562.6,232.3H562v-1.1h0.6V232.3z M562.6,237.4H562v-4.6h0.6V237.4z"/>
			<path id="XMLID_440_" class="st8" d="M563.9,237.4h-0.6v-4.6h0.6v0.6c0.1-0.2,0.3-0.4,0.6-0.6c0.2-0.1,0.5-0.2,0.7-0.2v0.6
				c-0.3,0-0.5,0.1-0.7,0.2s-0.3,0.3-0.4,0.4c-0.1,0.2-0.2,0.4-0.2,0.7L563.9,237.4L563.9,237.4z"/>
			<path id="XMLID_442_" class="st8" d="M570.2,236.2c-0.5,0.9-1.2,1.3-2.2,1.3c-0.7,0-1.2-0.2-1.7-0.7s-0.7-1-0.7-1.7
				s0.2-1.2,0.7-1.7s1.1-0.7,1.7-0.7c0.5,0,0.9,0.1,1.3,0.4c0.4,0.2,0.7,0.6,0.8,0.9l0.1,0.2h-0.7c-0.3-0.6-0.9-0.9-1.6-0.9
				c-0.5,0-0.9,0.2-1.3,0.5c-0.4,0.4-0.6,0.8-0.6,1.3s0.2,0.9,0.5,1.3c0.4,0.4,0.8,0.5,1.3,0.5c0.7,0,1.2-0.3,1.6-0.9h0.7
				L570.2,236.2z"/>
			<path id="XMLID_444_" class="st8" d="M574.7,235.4c0,0.6-0.2,1.1-0.6,1.5c-0.4,0.4-0.9,0.6-1.4,0.6c-0.6,0-1.1-0.2-1.4-0.6
				c-0.4-0.4-0.6-0.9-0.6-1.5v-2.6h0.6v2.7c0,0.4,0.1,0.7,0.4,1c0.3,0.3,0.6,0.4,1,0.4s0.7-0.1,1-0.4s0.4-0.6,0.4-1v-2.7h0.6V235.4z
				"/>
			<path id="XMLID_446_" class="st8" d="M575.9,237.4h-0.6v-6.2h0.6V237.4z"/>
			<path id="XMLID_448_" class="st8" d="M581.3,237.4h-0.6v-0.7c-0.5,0.6-1.1,0.8-1.8,0.8c-0.6,0-1.2-0.3-1.6-0.7
				c-0.4-0.5-0.7-1-0.7-1.7s0.2-1.2,0.7-1.7s1-0.7,1.7-0.7c0.6,0,1.2,0.3,1.6,0.7c0.4,0.5,0.7,1,0.6,1.6l0,0L581.3,237.4
				L581.3,237.4z M577.2,235.1c0,0.5,0.1,0.9,0.5,1.3c0.3,0.4,0.7,0.5,1.2,0.6c0.5,0,0.9-0.2,1.3-0.5c0.4-0.4,0.5-0.8,0.5-1.3
				s-0.2-0.9-0.5-1.2c-0.3-0.3-0.7-0.5-1.2-0.5s-0.9,0.2-1.2,0.5C577.4,234.2,577.3,234.6,577.2,235.1z"/>
			<path id="XMLID_451_" class="st8" d="M583.6,237.5c-1.1,0-1.7-0.5-1.7-1.4v-4.8h0.6v1.6h1v0.6h-1v2.6c0,0.7,0.4,1,1,1v0.4H583.6z
				"/>
			<path id="XMLID_453_" class="st8" d="M584.8,232.3h-0.6v-1.1h0.6V232.3z M584.8,237.4h-0.6v-4.6h0.6V237.4z"/>
			<path id="XMLID_456_" class="st8" d="M589.4,236.8c-0.5,0.5-1,0.7-1.7,0.7c-0.6,0-1.2-0.3-1.6-0.7s-0.7-1-0.7-1.7
				s0.2-1.2,0.7-1.7s1-0.7,1.7-0.7c0.6,0,1.2,0.3,1.6,0.7c0.4,0.5,0.7,1,0.7,1.7C590.1,235.8,589.9,236.3,589.4,236.8z M587.7,236.9
				c0.5,0,0.9-0.1,1.3-0.5c0.4-0.4,0.5-0.8,0.5-1.3s-0.2-0.9-0.5-1.2s-0.7-0.5-1.2-0.5s-0.9,0.2-1.2,0.5s-0.5,0.8-0.5,1.2
				c0,0.5,0.1,0.9,0.5,1.3C586.8,236.7,587.2,236.9,587.7,236.9z"/>
			<path id="XMLID_459_" class="st8" d="M594.8,237.4h-0.6v-2.7c0-0.4-0.1-0.7-0.4-1c-0.3-0.3-0.6-0.4-1-0.4s-0.7,0.1-1,0.4
				s-0.4,0.6-0.4,1v2.7h-0.6v-2.6c0-0.6,0.2-1.1,0.6-1.5s0.9-0.6,1.4-0.6c0.6,0,1.1,0.2,1.4,0.6s0.6,0.9,0.6,1.5V237.4z"/>
		</g>
		<g id="XMLID_2_">
			<path id="XMLID_270_" class="st2" d="M466.7,215.7h-34.1c-3.7,0-6.7-3-6.7-6.7v-49.3c0-3.7,3-6.7,6.7-6.7h34.1
				c3.7,0,6.7,3,6.7,6.7V209C473.4,212.7,470.4,215.7,466.7,215.7z"/>
			<g id="XMLID_271_">
				<path id="XMLID_243_" class="st4" d="M419.4,179.3v24.4c0,3.6,2.9,6.5,6.5,6.5h22.5l18.5-18.5V154c0-3.6-2.9-6.5-6.5-6.5h-34.5
					c-3.6,0-6.5,2.9-6.5,6.5v7.5"/>
				<line id="XMLID_272_" class="st4" x1="419.4" y1="168.4" x2="419.4" y2="173.8"/>
				<path id="XMLID_274_" class="st9" d="M454.9,191.7h12l-18.5,18.5v-12C448.4,194.7,451.3,191.7,454.9,191.7z"/>
			</g>
			<line id="XMLID_241_" class="st4" x1="436" y1="163.3" x2="459" y2="163.3"/>
			<line id="XMLID_273_" class="st4" x1="436" y1="171.3" x2="459" y2="171.3"/>
		</g>
	</g>
	<g id="XMLID_304_">
		<path id="XMLID_305_" class="st1" d="M121.8,274.6v-13.8h4c2.2,0,4,0.7,5.5,2s2.1,3,2.1,5c0,1.9-0.7,3.5-2.1,4.9
			c-1.4,1.4-3,2-4.9,2h-4.6V274.6z M126.4,273.3c1.6,0,2.9-0.6,4-1.7c1.1-1.2,1.6-2.5,1.6-4.1c0-1.5-0.6-2.8-1.8-3.9
			c-1.2-1-2.6-1.6-4.2-1.6h-2.9v11.3H126.4L126.4,273.3z"/>
		<path id="XMLID_308_" class="st1" d="M145.2,274.6h-1.3V273c-1.1,1.3-2.5,1.9-4.1,1.8c-1.4-0.1-2.6-0.6-3.6-1.6s-1.5-2.3-1.5-3.7
			c0-1.5,0.5-2.8,1.6-3.9c1.1-1.1,2.3-1.6,3.8-1.5c1.4,0.1,2.7,0.6,3.7,1.7c1,1,1.5,2.3,1.4,3.7v0.1L145.2,274.6L145.2,274.6z
			 M136,269.4c0,1.1,0.3,2,1.1,2.8s1.6,1.2,2.7,1.3c1.1,0.1,2.1-0.3,2.9-1.2c0.8-0.8,1.2-1.8,1.2-3c0-1.1-0.4-2-1.2-2.8
			c-0.7-0.8-1.6-1.2-2.7-1.2c-1.1,0-2,0.4-2.8,1.2C136.4,267.3,136.1,268.3,136,269.4z"/>
		<path id="XMLID_311_" class="st1" d="M155.6,273.3c-1.1,1.1-2.3,1.6-3.8,1.5c-1.4,0-2.6-0.6-3.6-1.6s-1.5-2.3-1.5-3.7
			c0-1.5,0.5-2.8,1.6-3.9c1.1-1.1,2.3-1.6,3.8-1.5c1.4,0.1,2.6,0.6,3.6,1.7c1,1,1.5,2.3,1.5,3.7
			C157.2,270.9,156.7,272.2,155.6,273.3z M151.8,273.5c1.1,0.1,2.1-0.3,2.9-1.2c0.8-0.8,1.2-1.8,1.2-3c0-1.1-0.4-2-1.2-2.8
			s-1.6-1.2-2.7-1.2c-1.1,0-2,0.4-2.8,1.2s-1.2,1.7-1.2,2.8c0,1.1,0.3,2,1.1,2.8C149.8,273,150.7,273.4,151.8,273.5z"/>
		<path id="XMLID_314_" class="st1" d="M159.9,274.6h-1.4v-13.9h1.4V274.6z"/>
		<path id="XMLID_316_" class="st1" d="M162.9,274.6h-1.4v-13.9h1.4V274.6z"/>
		<path id="XMLID_318_" class="st1" d="M174.9,274.6h-1.3V273c-1.1,1.3-2.5,1.9-4.1,1.8c-1.4-0.1-2.6-0.6-3.6-1.6s-1.5-2.3-1.5-3.7
			c0-1.5,0.5-2.8,1.6-3.9c1.1-1.1,2.3-1.6,3.8-1.5c1.4,0.1,2.7,0.6,3.7,1.7c1,1,1.5,2.3,1.4,3.7v0.1L174.9,274.6L174.9,274.6z
			 M165.8,269.4c0,1.1,0.3,2,1.1,2.8s1.6,1.2,2.7,1.3c1.1,0.1,2.1-0.3,2.9-1.2c0.8-0.8,1.2-1.8,1.2-3c0-1.1-0.4-2-1.2-2.8
			c-0.7-0.8-1.6-1.2-2.7-1.2c-1.1,0-2,0.4-2.8,1.2C166.2,267.3,165.8,268.3,165.8,269.4z"/>
		<path id="XMLID_321_" class="st1" d="M177.7,274.6h-1.4v-10.3h1.3v1.5c0.3-0.6,0.7-1,1.3-1.3c0.5-0.3,1-0.4,1.6-0.4v1.4
			c-0.6,0-1.2,0.2-1.5,0.5c-0.4,0.3-0.7,0.6-0.8,0.8c-0.2,0.4-0.3,0.9-0.3,1.6v6.2H177.7z"/>
		<path id="XMLID_323_" class="st1" d="M203.9,271c-1.3,2.4-3.5,3.8-6.3,3.8c-2,0-3.6-0.7-5-2.1c-1.4-1.4-2.1-3.1-2.1-5.1
			s0.7-3.7,2.1-5.1c1.4-1.4,3-2,5-2c1.4,0,2.6,0.4,3.8,1.1c1.1,0.7,1.9,1.6,2.5,2.8h-1.6c-1.2-1.7-2.8-2.5-4.8-2.5
			c-1.5,0-2.9,0.6-4,1.7c-1.1,1.1-1.7,2.4-1.7,4c0,1.6,0.5,3,1.7,4.2s2.5,1.8,4.1,1.8c0.9,0,1.9-0.3,2.7-0.7c0.8-0.5,1.5-1.1,2-1.8
			L203.9,271L203.9,271z"/>
		<path id="XMLID_325_" class="st1" d="M205.4,274.6H204v-10.3h1.3v1.5c0.3-0.6,0.7-1,1.3-1.3c0.5-0.3,1-0.4,1.6-0.4v1.4
			c-0.6,0-1.2,0.2-1.5,0.5s-0.7,0.6-0.8,0.8c-0.2,0.4-0.3,0.9-0.3,1.6v6.2H205.4z"/>
		<path id="XMLID_327_" class="st1" d="M213,278.2h-1.5l1.5-3.9l-3.9-9.9h1.5l3.3,8.1l3.5-8.1h1.4L213,278.2z"/>
		<path id="XMLID_329_" class="st1" d="M221.3,278.2H220v-8.7v-0.1c0-1.5,0.5-2.8,1.6-3.8c1.1-1.1,2.4-1.6,3.8-1.5
			c1.4,0,2.6,0.6,3.6,1.6s1.5,2.3,1.5,3.7c0,1.5-0.5,2.8-1.6,3.9c-1.1,1.1-2.3,1.6-3.8,1.5c-1.5-0.1-2.8-0.7-3.8-1.8V278.2z
			 M225.4,265.5c-1.1-0.1-2.1,0.3-2.9,1.2c-0.8,0.8-1.2,1.8-1.2,3c0,1.1,0.4,2,1.2,2.8c0.7,0.8,1.6,1.2,2.7,1.2c1.1,0,2-0.4,2.8-1.2
			c0.8-0.8,1.2-1.7,1.2-2.8s-0.3-2-1.1-2.8C227.4,265.9,226.5,265.5,225.4,265.5z"/>
		<path id="XMLID_332_" class="st1" d="M235.6,274.8c-2.5,0-3.7-1.1-3.7-3.2v-10.9h1.4v3.6h2.4v1.3h-2.4v5.8c0,1.5,0.8,2.3,2.4,2.3
			L235.6,274.8L235.6,274.8z"/>
		<path id="XMLID_334_" class="st1" d="M245.8,273.3c-1.1,1.1-2.3,1.6-3.8,1.5c-1.4,0-2.6-0.6-3.6-1.6s-1.5-2.3-1.5-3.7
			c0-1.5,0.5-2.8,1.6-3.9c1.1-1.1,2.3-1.6,3.8-1.5c1.4,0.1,2.6,0.6,3.6,1.7c1,1,1.5,2.3,1.5,3.7
			C247.4,270.9,246.8,272.2,245.8,273.3z M242,273.5c1.1,0.1,2.1-0.3,2.9-1.2c0.8-0.8,1.2-1.8,1.2-3c0-1.1-0.4-2-1.2-2.8
			c-0.7-0.8-1.6-1.2-2.7-1.2c-1.1,0-2,0.4-2.8,1.2s-1.2,1.7-1.2,2.8c0,1.1,0.3,2,1.1,2.8C240,273,240.9,273.4,242,273.5z"/>
		<path id="XMLID_337_" class="st1" d="M259.3,271.9c-1.1,2-2.8,3-5,3c-1.5,0-2.8-0.5-3.9-1.6c-1.1-1-1.6-2.3-1.6-3.8
			s0.5-2.8,1.6-3.8c1.1-1.1,2.4-1.6,3.9-1.6c1.1,0,2.1,0.3,3,0.8c0.9,0.6,1.5,1.2,1.9,2.1l0.2,0.5h-1.5c-0.8-1.3-1.9-2-3.5-2
			c-1.1,0-2,0.4-2.8,1.2c-0.9,0.8-1.3,1.8-1.3,2.9c0,1.1,0.4,2.1,1.2,2.9s1.8,1.2,2.9,1.2c1.6,0,2.8-0.7,3.6-1.9h1.5L259.3,271.9z"
			/>
		<path id="XMLID_339_" class="st1" d="M269.2,270.2c0,1.3-0.4,2.4-1.3,3.3c-0.8,0.9-1.9,1.3-3.2,1.3c-1.3,0-2.4-0.5-3.3-1.3
			c-0.8-0.9-1.3-2-1.3-3.3v-5.9h1.4v6c0,0.9,0.3,1.6,0.9,2.2c0.6,0.6,1.4,0.9,2.2,0.9c0.8,0,1.6-0.3,2.2-0.9c0.6-0.6,1-1.4,1-2.2v-6
			h1.4L269.2,270.2L269.2,270.2z"/>
		<path id="XMLID_341_" class="st1" d="M272.1,274.6h-1.4v-10.3h1.3v1.5c0.3-0.6,0.7-1,1.3-1.3c0.5-0.3,1-0.4,1.6-0.4v1.4
			c-0.6,0-1.2,0.2-1.5,0.5c-0.4,0.3-0.7,0.6-0.8,0.8c-0.2,0.4-0.3,0.9-0.3,1.6v6.2H272.1z"/>
		<path id="XMLID_343_" class="st1" d="M277.2,274.6h-1.4v-10.3h1.3v1.5c0.3-0.6,0.7-1,1.3-1.3c0.5-0.3,1-0.4,1.6-0.4v1.4
			c-0.6,0-1.2,0.2-1.5,0.5c-0.4,0.3-0.7,0.6-0.8,0.8c-0.2,0.4-0.3,0.9-0.3,1.6v6.2H277.2z"/>
		<path id="XMLID_345_" class="st1" d="M291.3,271.2c-0.4,1.1-1,2-1.9,2.6c-0.9,0.6-1.9,1-3,1c-1.4,0-2.6-0.5-3.7-1.5
			c-1.1-1.1-1.6-2.3-1.7-3.8c0-1.5,0.5-2.9,1.6-4c1.1-1.1,2.4-1.6,4-1.5c1.4,0.1,2.6,0.6,3.6,1.7c1,1,1.5,2.2,1.5,3.5v0.7h-9.2
			c0.1,1,0.5,1.9,1.3,2.6s1.7,1,2.7,1c1.6,0,2.8-0.8,3.5-2.3L291.3,271.2L291.3,271.2z M290.2,268.7c-0.2-1-0.6-1.7-1.4-2.3
			s-1.5-0.9-2.5-0.9s-1.9,0.3-2.6,0.9c-0.7,0.6-1.2,1.4-1.4,2.4L290.2,268.7L290.2,268.7z"/>
		<path id="XMLID_348_" class="st1" d="M301.8,274.6h-1.4v-6c0-0.9-0.3-1.6-1-2.2c-0.6-0.6-1.4-0.9-2.2-0.9s-1.6,0.3-2.2,0.9
			c-0.6,0.6-0.9,1.4-0.9,2.2v6h-1.4v-5.9c0-1.3,0.4-2.4,1.3-3.3c0.9-0.9,1.9-1.3,3.3-1.3c1.3,0,2.4,0.5,3.2,1.3s1.3,2,1.3,3.3
			L301.8,274.6L301.8,274.6z"/>
		<path id="XMLID_350_" class="st1" d="M313.7,271.9c-1.1,2-2.8,3-5,3c-1.5,0-2.8-0.5-3.9-1.6c-1.1-1-1.6-2.3-1.6-3.8
			s0.5-2.8,1.6-3.8c1.1-1.1,2.4-1.6,3.9-1.6c1.1,0,2.1,0.3,3,0.8c0.9,0.6,1.5,1.2,1.9,2.1l0.2,0.5h-1.5c-0.8-1.3-1.9-2-3.5-2
			c-1.1,0-2,0.4-2.8,1.2c-0.9,0.8-1.3,1.8-1.3,2.9c0,1.1,0.4,2.1,1.2,2.9c0.8,0.8,1.8,1.2,2.9,1.2c1.6,0,2.8-0.7,3.6-1.9h1.5
			L313.7,271.9z"/>
		<path id="XMLID_352_" class="st1" d="M318.5,278.2H317l1.5-3.9l-3.9-9.9h1.5l3.3,8.1l3.5-8.1h1.4L318.5,278.2z"/>
		<path id="XMLID_354_" class="st1" d="M335.8,274.6h-1.4v-13.9h1.4V274.6z"/>
		<path id="XMLID_356_" class="st1" d="M338.8,271.9c0,0.3,0.2,0.7,0.6,1.1c0.4,0.4,0.8,0.6,1.2,0.5c0.6,0,1-0.2,1.4-0.5
			c0.3-0.3,0.5-0.7,0.5-1.2c0-0.9-0.5-1.5-1.5-1.8l-1.2-0.4c-1.3-0.4-1.9-1.3-2-2.6c0-0.8,0.2-1.5,0.8-2c0.6-0.6,1.3-0.9,2.1-0.9
			c0.7,0,1.4,0.2,1.9,0.7c0.6,0.5,0.9,1.1,1,1.8v0.3h-1.4v-0.2c0-0.7-0.7-1.2-1.5-1.2s-1.4,0.6-1.4,1.4c-0.1,0.7,0.4,1.3,1.3,1.6
			l1.2,0.4c1.4,0.5,2.1,1.4,2.2,2.7c0.1,0.9-0.3,1.7-1,2.4s-1.5,1-2.5,0.9c-0.9-0.1-1.6-0.4-2.2-1c-0.6-0.6-0.9-1.4-0.9-2.3h1.4
			V271.9z"/>
		<path id="XMLID_358_" class="st1" d="M346.6,271.9c0,0.3,0.2,0.7,0.6,1.1c0.4,0.4,0.8,0.6,1.2,0.5c0.6,0,1-0.2,1.4-0.5
			c0.3-0.3,0.5-0.7,0.5-1.2c0-0.9-0.5-1.5-1.5-1.8l-1.2-0.4c-1.3-0.4-1.9-1.3-2-2.6c0-0.8,0.2-1.5,0.8-2c0.6-0.6,1.3-0.9,2.1-0.9
			c0.7,0,1.4,0.2,1.9,0.7c0.6,0.5,0.9,1.1,1,1.8v0.3H350v-0.2c0-0.7-0.7-1.2-1.5-1.2s-1.4,0.6-1.4,1.4c-0.1,0.7,0.4,1.3,1.3,1.6
			l1.2,0.4c1.4,0.5,2.1,1.4,2.2,2.7c0.1,0.9-0.3,1.7-1,2.4s-1.5,1-2.5,0.9c-0.9-0.1-1.6-0.4-2.2-1c-0.6-0.6-0.9-1.4-0.9-2.3h1.4
			V271.9z"/>
		<path id="XMLID_360_" class="st1" d="M362.1,270.2c0,1.3-0.4,2.4-1.3,3.3c-0.8,0.9-1.9,1.3-3.2,1.3c-1.3,0-2.4-0.5-3.3-1.3
			c-0.8-0.9-1.3-2-1.3-3.3v-5.9h1.4v6c0,0.9,0.3,1.6,0.9,2.2c0.6,0.6,1.4,0.9,2.2,0.9c0.8,0,1.6-0.3,2.2-0.9c0.6-0.6,1-1.4,1-2.2v-6
			h1.4L362.1,270.2L362.1,270.2z"/>
		<path id="XMLID_362_" class="st1" d="M374.1,274.6h-1.3V273c-1.1,1.3-2.5,1.9-4.1,1.8c-1.4-0.1-2.6-0.6-3.6-1.6s-1.5-2.3-1.5-3.7
			c0-1.5,0.5-2.8,1.6-3.9c1.1-1.1,2.3-1.6,3.8-1.5c1.4,0.1,2.7,0.6,3.7,1.7c1,1,1.5,2.3,1.4,3.7v0.1V274.6z M365,269.4
			c0,1.1,0.3,2,1.1,2.8s1.6,1.2,2.7,1.3s2.1-0.3,2.9-1.2c0.8-0.8,1.2-1.8,1.2-3c0-1.1-0.4-2-1.2-2.8c-0.7-0.8-1.6-1.2-2.7-1.2
			s-2,0.4-2.8,1.2C365.4,267.3,365,268.3,365,269.4z"/>
		<path id="XMLID_365_" class="st1" d="M384.6,274.6h-1.4v-6c0-0.9-0.3-1.6-1-2.2c-0.6-0.6-1.4-0.9-2.2-0.9c-0.8,0-1.6,0.3-2.2,0.9
			c-0.6,0.6-0.9,1.4-0.9,2.2v6h-1.4v-5.9c0-1.3,0.4-2.4,1.3-3.3c0.9-0.9,1.9-1.3,3.3-1.3c1.3,0,2.4,0.5,3.2,1.3s1.3,2,1.3,3.3
			L384.6,274.6L384.6,274.6z"/>
		<path id="XMLID_367_" class="st1" d="M396.6,271.9c-1.1,2-2.8,3-5,3c-1.5,0-2.8-0.5-3.9-1.6c-1.1-1-1.6-2.3-1.6-3.8
			s0.5-2.8,1.6-3.8c1.1-1.1,2.4-1.6,3.9-1.6c1.1,0,2.1,0.3,3,0.8c0.9,0.6,1.5,1.2,1.9,2.1l0.2,0.5h-1.5c-0.8-1.3-1.9-2-3.5-2
			c-1.1,0-2,0.4-2.8,1.2c-0.9,0.8-1.3,1.8-1.3,2.9c0,1.1,0.4,2.1,1.2,2.9c0.8,0.8,1.8,1.2,2.9,1.2c1.6,0,2.8-0.7,3.6-1.9h1.5
			L396.6,271.9z"/>
		<path id="XMLID_369_" class="st1" d="M407.8,271.2c-0.4,1.1-1,2-1.9,2.6c-0.9,0.6-1.9,1-3,1c-1.4,0-2.6-0.5-3.7-1.5
			c-1.1-1.1-1.6-2.3-1.7-3.8c0-1.5,0.5-2.9,1.6-4c1.1-1.1,2.4-1.6,4-1.5c1.4,0.1,2.6,0.6,3.6,1.7c1,1,1.5,2.2,1.5,3.5v0.7H399
			c0.1,1,0.5,1.9,1.3,2.6s1.7,1,2.7,1c1.6,0,2.8-0.8,3.5-2.3L407.8,271.2L407.8,271.2z M406.7,268.7c-0.2-1-0.6-1.7-1.4-2.3
			s-1.5-0.9-2.5-0.9s-1.9,0.3-2.6,0.9c-0.7,0.6-1.2,1.4-1.4,2.4L406.7,268.7L406.7,268.7z"/>
		<path id="XMLID_372_" class="st1" d="M419.7,274.6h-1.4v-13.9h1.4V274.6z"/>
		<path id="XMLID_374_" class="st1" d="M430.3,274.6h-1.4v-6c0-0.9-0.3-1.6-1-2.2c-0.6-0.6-1.4-0.9-2.2-0.9s-1.6,0.3-2.2,0.9
			c-0.6,0.6-0.9,1.4-0.9,2.2v6h-1.4v-5.9c0-1.3,0.4-2.4,1.3-3.3c0.9-0.9,1.9-1.3,3.3-1.3c1.3,0,2.4,0.5,3.2,1.3s1.3,2,1.3,3.3
			L430.3,274.6L430.3,274.6z"/>
		<path id="XMLID_376_" class="st1" d="M433.1,274.6h-1.4v-10.5c0-2.2,1.5-3.4,3.6-3.4h0.4v1.2h-0.4c-0.7,0-1.2,0.2-1.5,0.5
			c-0.5,0.5-0.7,1-0.7,1.4v0.4h2.6v1.3h-2.6V274.6z"/>
		<path id="XMLID_378_" class="st1" d="M438.1,274.6h-1.4v-10.3h1.3v1.5c0.3-0.6,0.7-1,1.3-1.3c0.5-0.3,1-0.4,1.6-0.4v1.4
			c-0.6,0-1.2,0.2-1.5,0.5s-0.7,0.6-0.8,0.8c-0.2,0.4-0.3,0.9-0.3,1.6v6.2H438.1z"/>
		<path id="XMLID_380_" class="st1" d="M452.4,274.6h-1.3V273c-1.1,1.3-2.5,1.9-4.1,1.8c-1.4-0.1-2.6-0.6-3.6-1.6s-1.5-2.3-1.5-3.7
			c0-1.5,0.5-2.8,1.6-3.9c1.1-1.1,2.3-1.6,3.8-1.5c1.4,0.1,2.7,0.6,3.7,1.7c1,1,1.5,2.3,1.4,3.7v0.1V274.6z M443.3,269.4
			c0,1.1,0.3,2,1.1,2.8s1.6,1.2,2.7,1.3s2.1-0.3,2.9-1.2c0.8-0.8,1.2-1.8,1.2-3c0-1.1-0.4-2-1.2-2.8c-0.7-0.8-1.6-1.2-2.7-1.2
			s-2,0.4-2.8,1.2C443.7,267.3,443.3,268.3,443.3,269.4z"/>
		<path id="XMLID_383_" class="st1" d="M455.3,271.9c0,0.3,0.2,0.7,0.6,1.1c0.4,0.4,0.8,0.6,1.2,0.5c0.6,0,1-0.2,1.4-0.5
			c0.3-0.3,0.5-0.7,0.5-1.2c0-0.9-0.5-1.5-1.5-1.8l-1.2-0.4c-1.3-0.4-1.9-1.3-2-2.6c0-0.8,0.2-1.5,0.8-2c0.6-0.6,1.3-0.9,2.1-0.9
			c0.7,0,1.4,0.2,1.9,0.7c0.6,0.5,0.9,1.1,1,1.8v0.3h-1.4v-0.2c0-0.7-0.7-1.2-1.5-1.2s-1.4,0.6-1.4,1.4c-0.1,0.7,0.4,1.3,1.3,1.6
			l1.2,0.4c1.4,0.5,2.1,1.4,2.2,2.7c0.1,0.9-0.3,1.7-1,2.4s-1.5,1-2.5,0.9c-0.9-0.1-1.6-0.4-2.2-1c-0.6-0.6-0.9-1.4-0.9-2.3h1.4
			V271.9z"/>
		<path id="XMLID_385_" class="st1" d="M465.4,274.8c-2.5,0-3.7-1.1-3.7-3.2v-10.9h1.4v3.6h2.4v1.3h-2.4v5.8c0,1.5,0.8,2.3,2.4,2.3
			L465.4,274.8L465.4,274.8z"/>
		<path id="XMLID_387_" class="st1" d="M468,274.6h-1.4v-10.3h1.3v1.5c0.3-0.6,0.7-1,1.3-1.3c0.5-0.3,1-0.4,1.6-0.4v1.4
			c-0.6,0-1.2,0.2-1.5,0.5c-0.4,0.3-0.7,0.6-0.8,0.8c-0.2,0.4-0.3,0.9-0.3,1.6v6.2H468z"/>
		<path id="XMLID_389_" class="st1" d="M480.8,270.2c0,1.3-0.4,2.4-1.3,3.3c-0.8,0.9-1.9,1.3-3.2,1.3c-1.3,0-2.4-0.5-3.3-1.3
			c-0.8-0.9-1.3-2-1.3-3.3v-5.9h1.4v6c0,0.9,0.3,1.6,0.9,2.2c0.6,0.6,1.4,0.9,2.2,0.9c0.8,0,1.6-0.3,2.2-0.9c0.6-0.6,1-1.4,1-2.2v-6
			h1.4L480.8,270.2L480.8,270.2z"/>
		<path id="XMLID_391_" class="st1" d="M492.8,271.9c-1.1,2-2.8,3-5,3c-1.5,0-2.8-0.5-3.9-1.6c-1.1-1-1.6-2.3-1.6-3.8
			s0.5-2.8,1.6-3.8c1.1-1.1,2.4-1.6,3.9-1.6c1.1,0,2.1,0.3,3,0.8c0.9,0.6,1.5,1.2,1.9,2.1l0.2,0.5h-1.5c-0.8-1.3-1.9-2-3.5-2
			c-1.1,0-2,0.4-2.8,1.2c-0.9,0.8-1.3,1.8-1.3,2.9c0,1.1,0.4,2.1,1.2,2.9c0.8,0.8,1.8,1.2,2.9,1.2c1.6,0,2.8-0.7,3.6-1.9h1.5
			L492.8,271.9z"/>
		<path id="XMLID_393_" class="st1" d="M497.4,274.8c-2.5,0-3.7-1.1-3.7-3.2v-10.9h1.4v3.6h2.4v1.3h-2.4v5.8c0,1.5,0.8,2.3,2.4,2.3
			L497.4,274.8L497.4,274.8z"/>
		<path id="XMLID_395_" class="st1" d="M507.7,270.2c0,1.3-0.4,2.4-1.3,3.3c-0.8,0.9-1.9,1.3-3.2,1.3c-1.3,0-2.4-0.5-3.3-1.3
			c-0.8-0.9-1.3-2-1.3-3.3v-5.9h1.4v6c0,0.9,0.3,1.6,0.9,2.2c0.6,0.6,1.4,0.9,2.2,0.9c0.8,0,1.6-0.3,2.2-0.9c0.6-0.6,1-1.4,1-2.2v-6
			h1.4L507.7,270.2L507.7,270.2z"/>
		<path id="XMLID_397_" class="st1" d="M510.6,274.6h-1.4v-10.3h1.3v1.5c0.3-0.6,0.7-1,1.3-1.3c0.5-0.3,1-0.4,1.6-0.4v1.4
			c-0.6,0-1.2,0.2-1.5,0.5c-0.4,0.3-0.7,0.6-0.8,0.8c-0.2,0.4-0.3,0.9-0.3,1.6v6.2H510.6z"/>
		<path id="XMLID_399_" class="st1" d="M524.7,271.2c-0.4,1.1-1,2-1.9,2.6c-0.9,0.6-1.9,1-3,1c-1.4,0-2.6-0.5-3.7-1.5
			c-1.1-1.1-1.6-2.3-1.7-3.8c0-1.5,0.5-2.9,1.6-4c1.1-1.1,2.4-1.6,4-1.5c1.4,0.1,2.6,0.6,3.6,1.7c1,1,1.5,2.2,1.5,3.5v0.7h-9.2
			c0.1,1,0.5,1.9,1.3,2.6s1.7,1,2.7,1c1.6,0,2.8-0.8,3.5-2.3L524.7,271.2L524.7,271.2z M523.6,268.7c-0.2-1-0.6-1.7-1.4-2.3
			s-1.5-0.9-2.5-0.9s-1.9,0.3-2.6,0.9c-0.7,0.6-1.2,1.4-1.4,2.4L523.6,268.7L523.6,268.7z"/>
	</g>
	<path class="st1" d="M175,43.8h-70c-7.7,0-14-6.3-14-14v-10c0-7.7,6.3-14,14-14h70c7.7,0,14,6.3,14,14v10
		C189,37.5,182.7,43.8,175,43.8z"/>
	<path class="st1" d="M359,43.8h-70c-7.7,0-14-6.3-14-14v-10c0-7.7,6.3-14,14-14h70c7.7,0,14,6.3,14,14v10
		C373,37.5,366.7,43.8,359,43.8z"/>
	<path class="st1" d="M538.2,43.8h-70c-7.7,0-14-6.3-14-14v-10c0-7.7,6.3-14,14-14h70c7.7,0,14,6.3,14,14v10
		C552.2,37.5,545.9,43.8,538.2,43.8z"/>
	<g id="XMLID_16_">
		<g id="XMLID_22_">
			<path id="XMLID_32_" class="st10" d="M118.4,27c0,6-2.6,9-7.7,9c-4.9,0-7.3-2.9-7.3-8.7V14h1.5v13.1c0,5,2,7.5,6.1,7.5
				c4,0,5.9-2.4,5.9-7.3V14h1.5V27z"/>
			<path id="XMLID_29_" class="st10" d="M123,34.9v-1.7c1.5,1,3.1,1.5,4.7,1.5c1.7,0,3-0.3,3.9-1c0.9-0.7,1.3-1.7,1.3-2.9
				c0-1.1-0.3-2-0.9-2.7c-0.6-0.7-1.9-1.6-3.8-2.7c-2.2-1.3-3.6-2.3-4.2-3.2c-0.6-0.9-0.9-1.9-0.9-3c0-1.5,0.6-2.8,1.8-3.9
				c1.2-1.1,2.8-1.6,4.7-1.6c1.3,0,2.6,0.2,3.9,0.7v1.6c-1.3-0.6-2.6-0.9-4.1-0.9c-1.5,0-2.6,0.4-3.5,1.1c-0.9,0.7-1.3,1.7-1.3,2.8
				c0,1.1,0.3,2,0.9,2.6c0.6,0.7,1.9,1.6,3.8,2.7c2,1.1,3.4,2.2,4,3.1c0.7,0.9,1,1.9,1,3.1c0,1.7-0.6,3-1.7,4.1s-2.8,1.6-4.9,1.6
				c-0.7,0-1.6-0.1-2.6-0.3C124.2,35.4,123.5,35.2,123,34.9z"/>
			<path id="XMLID_26_" class="st10" d="M139.3,35.6V14h5.4c3.6,0,6.3,0.9,8.2,2.7c1.9,1.8,2.8,4.4,2.8,7.8c0,3.3-1,6-3,8
				c-2,2.1-4.8,3.1-8.3,3.1H139.3z M140.8,15.3v18.9h3.4c3.2,0,5.7-0.8,7.4-2.5c1.7-1.7,2.6-4.1,2.6-7.2c0-6.1-3.2-9.2-9.7-9.2
				H140.8z"/>
			<path id="XMLID_23_" class="st10" d="M160.1,35.6V14h5.4c3.6,0,6.3,0.9,8.2,2.7c1.9,1.8,2.8,4.4,2.8,7.8c0,3.3-1,6-3,8
				c-2,2.1-4.8,3.1-8.3,3.1H160.1z M161.6,15.3v18.9h3.4c3.2,0,5.7-0.8,7.4-2.5c1.7-1.7,2.6-4.1,2.6-7.2c0-6.1-3.2-9.2-9.7-9.2
				H161.6z"/>
		</g>
		<rect id="XMLID_20_" x="136.5" y="20.7" class="st10" width="7.5" height="1.8"/>
		<rect id="XMLID_18_" x="136.5" y="25.6" class="st10" width="7.5" height="1.8"/>
	</g>
	<g id="XMLID_38_">
		<g id="XMLID_43_">
			<g>
				<g id="XMLID_141_">
					<path id="XMLID_142_" class="st10" d="M362.8,22.5c-0.1-0.8-0.3-1.6-0.5-2.3c-0.2-0.8-0.6-1.5-1-2.2c-0.4-0.7-1-1.3-1.6-1.7
						c-0.5-0.3-0.9-0.6-1.4-0.8c-0.5-0.2-1-0.4-1.5-0.5c-0.5-0.1-1-0.2-1.6-0.2c-0.5,0-1.1,0-1.6,0h-2.2c-0.4,0-0.8,0.4-0.8,0.8v0
						c0,0.4,0.4,0.8,0.8,0.8h1.8c0.8,0,1.6,0,2.4,0.1c0.8,0.1,1.5,0.3,2.1,0.6c0.7,0.4,1.3,0.8,1.7,1.4c0.4,0.6,0.8,1.2,1,1.8
						c0.3,0.7,0.4,1.4,0.5,2.1c0.1,0.7,0.1,1.5,0.1,2.2c0,0.7-0.1,1.4-0.2,2.1c-0.1,0.7-0.3,1.4-0.5,2.1c-0.2,0.7-0.6,1.3-1,1.9
						c-0.4,0.6-1,1-1.6,1.3c-0.8,0.4-1.5,0.7-2.3,0.8c-0.7,0.1-1.5,0.2-2.4,0.2h-1.8c-0.4,0-0.8,0.4-0.8,0.8v0
						c0,0.4,0.4,0.8,0.8,0.8h2.2c0.7,0,1.3,0,2-0.1c0.6-0.1,1.3-0.2,1.9-0.4c0.6-0.2,1.2-0.4,1.7-0.7c0.5-0.3,1-0.7,1.5-1.2
						c0.5-0.5,0.8-1,1.1-1.6c0.3-0.6,0.5-1.2,0.7-1.9c0.2-0.7,0.3-1.3,0.4-2c0.1-0.7,0.1-1.3,0.1-2C362.9,24,362.9,23.3,362.8,22.5z
						"/>
				</g>
				<path id="XMLID_140_" class="st10" d="M347.6,34.8L347.6,34.8c-0.5,0-0.9-0.4-0.9-0.9V15.7c0-0.5,0.4-0.9,0.9-0.9h0
					c0.5,0,0.9,0.4,0.9,0.9v18.2C348.6,34.4,348.2,34.8,347.6,34.8z"/>
				<path id="XMLID_139_" class="st10" d="M329.3,34.8L329.3,34.8c-0.5,0-0.9-0.4-0.9-0.9V15.7c0-0.5,0.4-0.9,0.9-0.9l0,0
					c0.5,0,0.9,0.4,0.9,0.9v18.2C330.3,34.4,329.8,34.8,329.3,34.8z"/>
				<path id="XMLID_138_" class="st10" d="M341.9,25.7c-0.7-0.9-1.7-1.4-3.1-1.6V24c0.4-0.1,0.8-0.2,1.2-0.4c0.4-0.2,0.7-0.5,1-0.8
					c0.3-0.3,0.5-0.8,0.7-1.3c0.2-0.5,0.3-1.1,0.3-1.8c0-0.7-0.1-1.4-0.4-2c-0.2-0.6-0.6-1.1-1.1-1.6c-0.5-0.4-1.2-0.8-2-1
					c-0.8-0.2-1.7-0.3-2.8-0.4c0,0,0,0,0,0h-0.1c0,0,0,0,0,0h-2.4l0,0h-0.2c-0.4,0-0.8,0.4-0.8,0.8c0,0.4,0.4,0.8,0.8,0.8h0.2l0,0
					h1.4c1,0,1.9,0.1,2.6,0.2c0.7,0.1,1.3,0.3,1.7,0.6c0.4,0.3,0.8,0.6,1,1c0.2,0.4,0.3,1,0.3,1.6c0,0.6-0.1,1.1-0.3,1.6
					c-0.2,0.5-0.5,0.9-0.9,1.2c-0.4,0.3-0.9,0.6-1.6,0.7c-0.7,0.2-1.5,0.2-2.4,0.2h-0.8h-0.5h0v0c-0.5,0-0.9,0.4-0.8,1
					c0.1,0.4,0.4,0.7,0.8,0.7h0.5c0,0,0.1,0,0.1,0h0.9c0.9,0,1.7,0.1,2.4,0.2c0.7,0.1,1.3,0.3,1.8,0.6c0.5,0.3,0.9,0.7,1.2,1.2
					c0.3,0.5,0.4,1.2,0.4,2c0,0.9-0.1,1.6-0.4,2.1c-0.2,0.5-0.6,0.9-1.1,1.2c-0.5,0.3-1.1,0.5-1.9,0.6c-0.8,0.1-1.7,0.1-2.7,0.1
					h-1.6l0,0h-0.5c-0.4,0-0.8,0.4-0.8,0.8s0.4,0.8,0.8,0.8h0.5l0,0h3.1c0.9,0,1.8-0.1,2.6-0.3c0.8-0.2,1.5-0.5,2-0.9
					c0.6-0.4,1-1,1.3-1.7c0.3-0.7,0.5-1.6,0.5-2.6C342.9,27.7,342.6,26.6,341.9,25.7z"/>
				<path id="XMLID_137_" class="st10" d="M301.4,34c-0.1-0.2-0.2-0.4-0.2-0.7c-0.1-0.3-0.1-0.7-0.2-1.2c0-0.5-0.1-1.1-0.1-1.9
					c0-0.5-0.1-1-0.1-1.6c0-0.6-0.2-1.1-0.3-1.6c-0.2-0.5-0.4-0.9-0.7-1.3c0-0.1-0.1-0.1-0.1-0.2c-0.4-0.4-0.3-1.1,0.1-1.5
					c0.5-0.3,0.8-0.7,1.1-1.1c0.5-0.7,0.8-1.7,0.8-3c0-1.8-0.6-3.2-1.7-4c-1.2-0.8-2.8-1.2-5-1.2c0,0,0,0,0,0h0h-2.4h0
					c-0.4,0-0.8,0.4-0.8,0.8c0,0.4,0.4,0.8,0.8,0.8h0h2.4h0.1c0.6,0,1.2,0.1,1.8,0.2c0.6,0.1,1.1,0.3,1.5,0.6
					c0.4,0.3,0.8,0.7,1.1,1.1c0.3,0.5,0.4,1.1,0.4,1.8c0,0.7-0.1,1.3-0.4,1.8c-0.3,0.5-0.6,0.9-1,1.2c-0.4,0.3-1,0.6-1.6,0.7
					c-0.6,0.1-1.2,0.2-1.9,0.2h-2.7v0h-0.5c-0.4,0-0.8,0.3-0.8,0.8v0.1c0,0.4,0.3,0.8,0.8,0.8h0.5h1.6h1.2c0.5,0,0.9,0,1.3,0.1
					c0.4,0.1,0.8,0.2,1.2,0.3c0.3,0.2,0.6,0.4,0.9,0.7c0.2,0.3,0.4,0.7,0.5,1.3c0.1,0.4,0.1,0.9,0.2,1.5c0,0.6,0.1,1.2,0.1,1.9
					c0,0.6,0.1,1.3,0.2,1.8c0,0.2,0.1,0.4,0.1,0.6c0.1,0.4,0.5,0.7,1,0.7l1.4,0v-0.2C301.6,34.3,301.5,34.2,301.4,34z"/>
			</g>
		</g>
		<path id="XMLID_42_" class="st10" d="M306.3,34.6L306.3,34.6c-0.5,0-0.9-0.4-0.9-0.9V15.7c0-0.5,0.4-0.9,0.9-0.9l0,0
			c0.5,0,0.9,0.4,0.9,0.9v17.9C307.3,34.2,306.8,34.6,306.3,34.6z"/>
		<path id="XMLID_41_" class="st10" d="M288,34.6L288,34.6c-0.5,0-0.9-0.4-0.9-0.9V15.7c0-0.5,0.4-0.9,0.9-0.9l0,0
			c0.5,0,0.9,0.4,0.9,0.9v17.9C289,34.2,288.5,34.6,288,34.6z"/>
		<path id="XMLID_40_" class="st10" d="M323.1,34.6L323.1,34.6c-0.5,0-0.9-0.4-0.9-0.9V15.7c0-0.5,0.4-0.9,0.9-0.9l0,0
			c0.5,0,0.9,0.4,0.9,0.9v17.9C324,34.2,323.6,34.6,323.1,34.6z"/>
		<path id="XMLID_39_" class="st10" d="M321.5,14.9L321.5,14.9c-0.5-0.2-1.1,0.1-1.2,0.6l-5.6,15.3l-5.5-15.3
			c-0.2-0.5-0.7-0.8-1.2-0.6l0,0c-0.5,0.2-0.8,0.8-0.6,1.3l6.4,17.8c0.1,0.3,0.3,0.5,0.6,0.6c0,0,0,0,0,0l0,0c0,0,0,0,0,0
			c0,0,0.1,0,0.1,0c0,0,0.1,0,0.1,0c0,0,0,0,0.1,0c0.1,0,0.1,0,0.2,0c0,0,0,0,0,0c0.3,0,0.6-0.3,0.8-0.6l6.5-17.7
			C322.3,15.6,322,15.1,321.5,14.9z"/>
	</g>
	<g id="XMLID_45_">
		<g>
			<path id="XMLID_202_" class="st10" d="M473.4,18.5c-1.7,0-3,0.4-3.9,1.1c-0.4,0.4-0.8,0.8-1.1,1.4c-0.3,0.6-0.4,1.2-0.4,2l13.2,0
				v3.3H468c0,1.7,0.4,2.9,1.3,3.6c0.8,0.7,2.2,1.1,4.1,1.1h18.1l3,3.3h-21.3c-1.8,0-3.2-0.1-4.2-0.4c-1-0.2-1.9-0.7-2.9-1.3
				c-1.1-0.8-2-1.8-2.6-3c-0.6-1.2-0.9-2.7-0.9-4.5c0-3.3,0.9-5.8,2.6-7.5c1.7-1.6,4.4-2.4,8-2.4h10.9v3.3H473.4z"/>
			<path id="XMLID_200_" class="st10" d="M490,15.2v11.4c0,1.8,0.4,3,1.2,3.7c0.8,0.7,2.1,1.1,3.9,1.1c1.9,0,3.2-0.4,3.9-1.1
				c0.8-0.7,1.2-1.9,1.2-3.7V15.2h4.7v11.5c0,0.7,0,1.3-0.1,1.8c-0.1,0.5-0.1,1-0.2,1.5c-0.2,0.8-0.5,1.4-1,1.9
				c-0.9,0.9-2,1.5-3.4,2c-1.4,0.4-3.1,0.6-5.1,0.6c-2,0-3.7-0.2-5.1-0.6c-1.4-0.4-2.5-1.1-3.4-2c-0.4-0.5-0.8-1.1-1-1.8
				c-0.2-0.8-0.3-1.9-0.3-3.3V15.2H490z"/>
			<path id="XMLID_159_" class="st10" d="M522.6,15.2H533c3.6,0,6.3,0.8,8,2.4c1.8,1.6,2.6,4.1,2.6,7.5c0,1.7-0.3,3.2-0.9,4.5
				c-0.6,1.3-1.5,2.3-2.6,3c-0.9,0.6-1.8,1-2.9,1.3c-1,0.3-2.4,0.4-4.2,0.4h-10.5V15.2z M532.9,18.5h-5.5v12.4h5.5
				c2.1,0,3.5-0.5,4.3-1.4c0.8-0.9,1.2-2.5,1.2-4.8c0-2.3-0.4-3.9-1.2-4.8C536.5,19,535,18.5,532.9,18.5z"/>
			<path id="XMLID_158_" class="st10" d="M515.2,26.3c1.5-0.3,2.6-0.9,3.4-1.8c0.8-0.9,1.2-2.1,1.2-3.5c0-2-0.6-3.4-1.9-4.4
				c-1.3-0.9-3.3-1.4-6-1.4h-7v3.4h5.8c1.6,0,2.7,0.2,3.3,0.5c0.6,0.4,0.9,1,0.9,1.8c0,0.9-0.3,1.5-0.9,1.8
				c-0.6,0.4-1.7,0.6-3.3,0.6h-5.8v3.4h5.6l5,7.5h5.3L515.2,26.3z"/>
		</g>
	</g>
</g>
<g id="XMLID_17_">
	<g>
		<path id="XMLID_113_" class="st11" d="M819.2,456.4c-5.1,0-8.9,1.1-11.5,3.2c-1.3,1.1-2.4,2.4-3.1,4c-0.8,1.7-1.2,3.6-1.2,5.8
			l38.9,0.1v9.7h-38.9c0,4.9,1.2,8.4,3.7,10.5c2.4,2.1,6.4,3.2,12.2,3.2h53.3l8.9,9.8h-62.9c-5.4,0-9.5-0.4-12.3-1.1
			c-2.9-0.7-5.7-2-8.4-3.8c-3.3-2.2-5.8-5.2-7.6-8.9c-1.8-3.6-2.6-8-2.6-13.2c0-9.9,2.6-17.2,7.7-22c5.1-4.7,13-7.1,23.7-7.1H851
			v9.8H819.2z"/>
		<path id="XMLID_111_" class="st11" d="M868.1,446.6v33.6c0,5.2,1.1,8.9,3.4,10.9c2.3,2.1,6.1,3.1,11.6,3.1c5.5,0,9.3-1,11.6-3.1
			c2.3-2.1,3.4-5.7,3.4-10.9v-33.6h14v33.9c0,2.1-0.1,3.8-0.3,5.2c-0.2,1.4-0.4,2.9-0.7,4.3c-0.6,2.4-1.6,4.2-3,5.6
			c-2.6,2.6-5.9,4.6-10,5.8c-4.1,1.3-9.1,1.9-15,1.9c-6,0-11-0.6-15-1.8c-4-1.2-7.4-3.2-10.1-5.9c-1.3-1.4-2.2-3.2-2.9-5.4
			c-0.6-2.4-0.9-5.7-0.9-9.7v-33.9H868.1z"/>
		<path id="XMLID_108_" class="st12" d="M964.3,446.6h30.6c10.6,0,18.5,2.4,23.7,7.1c5.2,4.7,7.7,12.1,7.7,22
			c0,5.1-0.9,9.5-2.6,13.2c-1.8,3.8-4.3,6.7-7.7,8.9c-2.6,1.7-5.4,3-8.4,3.7c-3,0.8-7.1,1.2-12.3,1.2h-30.9V446.6z M994.7,456.4
			h-16.3v36.5h16.3c6.1,0,10.4-1.3,12.8-4c2.4-2.6,3.5-7.3,3.5-14.2c0-6.8-1.1-11.6-3.4-14.3C1005.2,457.7,1000.9,456.4,994.7,456.4
			z"/>
		<path id="XMLID_107_" class="st13" d="M942.4,479.3c4.4-0.8,7.8-2.6,10-5.4c2.3-2.7,3.4-6.2,3.4-10.4c0-5.8-1.8-10.1-5.5-12.8
			c-3.7-2.7-9.6-4-17.7-4h-20.6v10.1h17.2c4.6,0,7.9,0.5,9.7,1.6c1.8,1.1,2.7,2.9,2.7,5.4c0,2.6-0.9,4.4-2.7,5.4
			c-1.9,1.1-5.1,1.7-9.7,1.7h-17.2v10h16.5l14.7,22h15.8L942.4,479.3z"/>
	</g>
</g>
<g id="XMLID_31_">
	<g id="XMLID_59_">
		<g>
			<g id="XMLID_90_">
				<path id="XMLID_91_" class="st14" d="M1089.5,358.8c-0.4-3.1-1.1-6.1-2.1-9.1c-1-3-2.3-5.8-4-8.6c-1.7-2.7-3.8-5-6.4-6.9
					c-1.8-1.3-3.7-2.3-5.6-3.1c-1.9-0.8-3.9-1.4-5.9-1.8c-2-0.4-4.1-0.6-6.2-0.8c-2.1-0.1-4.2-0.2-6.4-0.2h-8.8
					c-1.7,0-3.1,1.4-3.1,3.1l0,0c0,1.7,1.4,3.1,3.1,3.1h7.1c3.2,0,6.5,0.2,9.6,0.5c3.2,0.4,5.9,1.2,8.2,2.4c2.7,1.4,5,3.3,6.7,5.5
					c1.7,2.2,3.1,4.6,4.1,7.3c1,2.6,1.7,5.4,2.1,8.3c0.4,2.9,0.5,5.8,0.5,8.6c0,2.7-0.2,5.5-0.6,8.3c-0.4,2.9-1.1,5.6-2.1,8.3
					c-1,2.6-2.3,5.1-4,7.3c-1.7,2.2-3.8,4-6.4,5.3c-3,1.6-6,2.6-8.9,3c-2.9,0.4-6,0.6-9.4,0.6h-7.1c-1.7,0-3.1,1.4-3.1,3.1l0,0
					c0,1.7,1.4,3.1,3.1,3.1h8.8c2.6,0,5.2-0.1,7.7-0.4c2.5-0.3,5-0.7,7.3-1.4c2.3-0.7,4.6-1.6,6.7-2.9c2.1-1.2,4.1-2.9,5.9-4.9
					c1.8-1.9,3.3-4.1,4.5-6.4c1.2-2.3,2.1-4.8,2.9-7.4c0.7-2.6,1.2-5.2,1.6-7.8c0.3-2.7,0.5-5.3,0.5-7.9
					C1090.1,364.7,1089.9,361.8,1089.5,358.8z"/>
			</g>
			<path id="XMLID_89_" class="st14" d="M1030,407.3L1030,407.3c-2,0-3.7-1.7-3.7-3.7v-71.6c0-2,1.7-3.7,3.7-3.7l0,0
				c2,0,3.7,1.7,3.7,3.7v71.6C1033.7,405.7,1032,407.3,1030,407.3z"/>
			<path id="XMLID_88_" class="st14" d="M957.9,407.3L957.9,407.3c-2,0-3.7-1.7-3.7-3.7v-71.6c0-2,1.7-3.7,3.7-3.7l0,0
				c2,0,3.7,1.7,3.7,3.7v71.6C961.6,405.7,959.9,407.3,957.9,407.3z"/>
			<path id="XMLID_87_" class="st14" d="M1007.5,371.4c-2.6-3.5-6.7-5.6-12.1-6.4v-0.2c1.6-0.3,3.1-0.8,4.6-1.6
				c1.5-0.8,2.8-1.8,4-3.1c1.2-1.3,2.1-3,2.8-5c0.7-2,1.1-4.3,1.1-7.1c0-2.9-0.5-5.5-1.4-8c-0.9-2.4-2.4-4.5-4.5-6.2
				c-2.1-1.7-4.7-3.1-8-4c-3.1-0.9-6.8-1.4-11-1.4c0,0-0.1,0-0.1,0h-0.6c0,0,0,0,0,0H973l0,0h-0.9c-1.7,0-3.1,1.4-3.1,3.1
				s1.4,3.1,3.1,3.1h0.9l0,0h5.6c4,0,7.5,0.2,10.2,0.7c2.8,0.5,5,1.2,6.8,2.3c1.7,1,3,2.4,3.8,4.1c0.8,1.7,1.2,3.8,1.2,6.2
				c0,2.4-0.3,4.5-1,6.3c-0.7,1.8-1.8,3.4-3.4,4.7c-1.6,1.3-3.7,2.2-6.3,2.9c-2.6,0.6-5.8,1-9.6,1h-3h-2.1h0v0
				c-1.9,0-3.4,1.8-3.1,3.7c0.3,1.5,1.7,2.6,3.3,2.6h1.9c0.1,0,0.2,0,0.3,0h3.7c3.5,0,6.6,0.2,9.4,0.6c2.8,0.4,5.2,1.1,7.3,2.2
				c2,1.1,3.6,2.6,4.7,4.6c1.1,2,1.6,4.6,1.6,7.8c0,3.4-0.5,6.1-1.5,8.2s-2.4,3.6-4.4,4.8c-1.9,1.1-4.4,1.9-7.4,2.2
				c-3,0.4-6.5,0.5-10.6,0.5H974l0,0h-1.9c-1.7,0-3.1,1.4-3.1,3.1s1.4,3.1,3.1,3.1h1.9v0h12c3.7,0,7.1-0.4,10.2-1.1
				c3.1-0.8,5.8-2,8.1-3.7c2.2-1.7,4-4,5.3-6.8c1.3-2.8,1.9-6.2,1.9-10.3C1011.5,379.2,1010.1,374.8,1007.5,371.4z"/>
			<path id="XMLID_86_" class="st14" d="M848,404c-0.4-0.7-0.7-1.6-0.9-2.9c-0.3-1.2-0.5-2.8-0.6-4.8c-0.2-1.9-0.3-4.4-0.4-7.4
				c-0.1-2-0.2-4.1-0.4-6.3c-0.2-2.2-0.6-4.2-1.2-6.2c-0.6-1.9-1.6-3.7-2.9-5.2c-0.2-0.2-0.4-0.4-0.6-0.6c-1.7-1.7-1.3-4.5,0.6-5.9
				c1.8-1.3,3.2-2.7,4.3-4.3c2-2.9,3-6.8,3-11.7c0-7.2-2.3-12.4-6.8-15.6c-4.5-3.2-11.1-4.8-19.7-4.8c0,0,0,0,0,0h0h-9.5h0
				c-1.7,0-3.1,1.4-3.1,3.1s1.4,3.1,3.1,3.1h0h9.6h0.2c2.5,0,4.8,0.2,7.1,0.6c2.3,0.4,4.3,1.2,6.1,2.3c1.8,1.1,3.2,2.6,4.2,4.4
				c1,1.9,1.6,4.3,1.6,7.1c0,2.7-0.5,5.1-1.5,7c-1,1.9-2.4,3.6-4.1,4.8c-1.7,1.3-3.8,2.2-6.1,2.8c-2.3,0.6-4.9,0.9-7.6,0.9h-10.6v0
				h-2.1c-1.7,0-3,1.4-3,3v0.2c0,1.7,1.4,3,3,3h2.1h6.3h4.6c1.8,0,3.6,0.1,5.3,0.3c1.7,0.2,3.2,0.6,4.6,1.3c1.4,0.6,2.5,1.6,3.5,2.9
				c1,1.3,1.7,2.9,2.1,5c0.3,1.5,0.5,3.5,0.6,5.8c0.1,2.4,0.3,4.8,0.4,7.4c0.2,2.5,0.4,4.9,0.8,7.3c0.1,0.9,0.3,1.7,0.5,2.5
				c0.5,1.7,2,2.9,3.8,2.9l5.5-0.1v-0.6C848.8,405.2,848.3,404.7,848,404z"/>
		</g>
	</g>
	<path id="XMLID_58_" class="st14" d="M867.4,406.3L867.4,406.3c-2,0-3.7-1.7-3.7-3.7v-70.6c0-2,1.7-3.7,3.7-3.7l0,0
		c2,0,3.7,1.7,3.7,3.7v70.6C871,404.7,869.4,406.3,867.4,406.3z"/>
	<path id="XMLID_64_" class="st14" d="M795.4,406.3L795.4,406.3c-2,0-3.7-1.7-3.7-3.7v-70.6c0-2,1.7-3.7,3.7-3.7l0,0
		c2,0,3.7,1.7,3.7,3.7v70.6C799,404.7,797.4,406.3,795.4,406.3z"/>
	<path id="XMLID_57_" class="st14" d="M933.3,406.3L933.3,406.3c-2,0-3.7-1.7-3.7-3.7v-70.6c0-2,1.7-3.7,3.7-3.7l0,0
		c2,0,3.7,1.7,3.7,3.7v70.6C937,404.7,935.3,406.3,933.3,406.3z"/>
	<path id="XMLID_56_" class="st14" d="M927.1,328.8L927.1,328.8c-2-0.8-4.2,0.3-4.9,2.3l-22.1,60.1l-21.7-60.3c-0.7-2-2.9-3-4.9-2.3
		l0,0c-2,0.7-3,3-2.3,5l25.2,70c0.4,1.1,1.2,1.9,2.2,2.3c0,0,0,0,0.1,0h0c0,0,0.1,0,0.1,0c0.1,0,0.3,0.1,0.4,0.1
		c0.1,0,0.3,0.1,0.4,0.1c0.1,0,0.1,0,0.2,0c0.2,0,0.4,0,0.7,0c0,0,0,0,0,0c1.3-0.2,2.6-1.1,3.1-2.5l25.7-69.8
		C930.1,331.9,929.1,329.6,927.1,328.8z"/>
</g>
<g id="XMLID_72_">
	<g id="XMLID_10_">
		<linearGradient id="XMLID_48_" gradientUnits="userSpaceOnUse" x1="776.4911" y1="169.43" x2="1049.4775" y2="247.4261">
			<stop  offset="0" style="stop-color:#0BD1EF"/>
			<stop  offset="1" style="stop-color:#34EC92"/>
		</linearGradient>
		<path id="XMLID_11_" class="st15" d="M851.9,193.6c0,22.8-9.7,34.2-29.1,34.2c-18.5,0-27.7-11-27.7-32.9v-50.4h5.6V194
			c0,19,7.7,28.5,23.2,28.5c14.9,0,22.4-9.2,22.4-27.7v-50.4h5.6V193.6z"/>
		<linearGradient id="XMLID_53_" gradientUnits="userSpaceOnUse" x1="780.9548" y1="153.8075" x2="1053.941" y2="231.8036">
			<stop  offset="0" style="stop-color:#0BD1EF"/>
			<stop  offset="1" style="stop-color:#34EC92"/>
		</linearGradient>
		<path id="XMLID_13_" class="st16" d="M869.3,223.4v-6.4c5.8,3.7,11.8,5.6,17.8,5.6c6.4,0,11.3-1.3,14.6-4
			c3.3-2.6,4.9-6.3,4.9-11.1c0-4.2-1.1-7.5-3.3-10s-7-5.9-14.5-10.2c-8.3-4.8-13.5-8.9-15.7-12.1c-2.2-3.3-3.3-7-3.3-11.3
			c0-5.8,2.2-10.7,6.7-14.7c4.5-4,10.5-6.1,17.9-6.1c4.9,0,9.8,0.8,14.6,2.5v5.9c-4.8-2.1-9.9-3.2-15.4-3.2c-5.5,0-9.9,1.4-13.2,4.2
			c-3.3,2.8-4.9,6.4-4.9,10.8c0,4.2,1.1,7.5,3.3,10c2.2,2.5,7,5.9,14.4,10.1c7.6,4.3,12.7,8.2,15.3,11.6c2.5,3.4,3.8,7.2,3.8,11.6
			c0,6.3-2.2,11.4-6.6,15.4s-10.5,5.9-18.4,5.9c-2.8,0-6.1-0.4-9.8-1.3C874,225.5,871.2,224.5,869.3,223.4z"/>
		<linearGradient id="XMLID_54_" gradientUnits="userSpaceOnUse" x1="785.0671" y1="139.4144" x2="1058.0535" y2="217.4105">
			<stop  offset="0" style="stop-color:#0BD1EF"/>
			<stop  offset="1" style="stop-color:#34EC92"/>
		</linearGradient>
		<path id="XMLID_15_" class="st17" d="M931,226.3v-81.9h20.5c13.6,0,23.9,3.4,31,10.2c7.1,6.8,10.6,16.7,10.6,29.6
			c0,12.5-3.8,22.6-11.4,30.4c-7.6,7.8-18.1,11.7-31.4,11.7H931z M936.6,149.6v71.5h12.8c12.1,0,21.4-3.2,28-9.5
			c6.5-6.3,9.8-15.4,9.8-27.3c0-23.2-12.2-34.8-36.6-34.8H936.6z"/>
		<linearGradient id="XMLID_55_" gradientUnits="userSpaceOnUse" x1="791.0119" y1="118.6075" x2="1063.9983" y2="196.6036">
			<stop  offset="0" style="stop-color:#0BD1EF"/>
			<stop  offset="1" style="stop-color:#34EC92"/>
		</linearGradient>
		<path id="XMLID_44_" class="st18" d="M1009.7,226.3v-81.9h20.5c13.6,0,23.9,3.4,31,10.2c7.1,6.8,10.6,16.7,10.6,29.6
			c0,12.5-3.8,22.6-11.4,30.4c-7.6,7.8-18.1,11.7-31.4,11.7H1009.7z M1015.4,149.6v71.5h12.8c12.1,0,21.4-3.2,28-9.5
			c6.5-6.3,9.8-15.4,9.8-27.3c0-23.2-12.2-34.8-36.6-34.8H1015.4z"/>
	</g>
	<linearGradient id="XMLID_60_" gradientUnits="userSpaceOnUse" x1="787.4296" y1="131.1454" x2="1060.416" y2="209.1415">
		<stop  offset="0" style="stop-color:#0BD1EF"/>
		<stop  offset="1" style="stop-color:#34EC92"/>
	</linearGradient>
	<rect id="XMLID_9_" x="920.3" y="169.8" class="st19" width="28.3" height="6.7"/>
	<linearGradient id="XMLID_68_" gradientUnits="userSpaceOnUse" x1="782.4988" y1="148.4033" x2="1055.4851" y2="226.3994">
		<stop  offset="0" style="stop-color:#0BD1EF"/>
		<stop  offset="1" style="stop-color:#34EC92"/>
	</linearGradient>
	<rect id="XMLID_8_" x="920.3" y="188.5" class="st20" width="28.3" height="6.7"/>
</g>
<linearGradient id="XMLID_69_" gradientUnits="userSpaceOnUse" x1="755.3074" y1="185.361" x2="1107.6266" y2="185.361">
	<stop  offset="0" style="stop-color:#0BD1EF"/>
	<stop  offset="1" style="stop-color:#34EC92"/>
</linearGradient>
<path id="XMLID_7_" class="st21" d="M1066.5,242h-270c-21.3,0-38.7-17.4-38.7-38.7v-36c0-21.3,17.4-38.7,38.7-38.7h270
	c21.3,0,38.7,17.4,38.7,38.7v36C1105.1,224.6,1087.7,242,1066.5,242z"/>
</svg>
