<?xml version="1.0" encoding="utf-8"?>
<!-- Generator: Adobe Illustrator 19.0.0, SVG Export Plug-In . SVG Version: 6.00 Build 0)  -->
<svg version="1.1" id="图层_1" xmlns="http://www.w3.org/2000/svg" xmlns:xlink="http://www.w3.org/1999/xlink" x="0px" y="0px"
	 viewBox="278 -116.1 635 312.1" style="enable-background:new 278 -116.1 635 312.1;" xml:space="preserve">
<style type="text/css">
	.st0{fill:#377DFF;}
	.st1{fill:#D1ECFF;}
	.st2{fill:none;stroke:#CDDFFF;stroke-width:2;stroke-linecap:round;stroke-linejoin:round;stroke-miterlimit:10;}
	.st3{fill:#A3D9FF;}
	.st4{fill:none;stroke:#377DFF;stroke-width:2;stroke-linecap:round;stroke-linejoin:round;stroke-miterlimit:10;}
	.st5{fill:#A3D9FF;stroke:#377DFF;stroke-width:2;stroke-miterlimit:10;}
	.st6{fill:#5490FF;}
	.st7{fill:#FFFFFF;stroke:#377DFF;stroke-width:2;stroke-miterlimit:10;}
	.st8{fill:none;stroke:#377DFF;stroke-width:2;stroke-miterlimit:10;}
	.st9{fill-rule:evenodd;clip-rule:evenodd;fill:#4183FF;}
	.st10{fill-rule:evenodd;clip-rule:evenodd;fill:#377DFF;}
	.st11{fill:none;}
	.st12{fill:#E3EEFF;}
	.st13{fill:#FFFFFF;}
	.st14{fill:#76A6EF;}
	.st15{fill:#2B77EF;}
	.st16{fill:#CDDFFF;}
	.st17{fill:#A4C4F4;}
	.st18{fill:#E1ECFF;}
	.st19{fill:#73A4FF;}
	.st20{fill:#CDDFFF;stroke:#377DFF;stroke-width:2;stroke-miterlimit:10;}
	.st21{fill:#A3D9FF;stroke:#377DFF;stroke-width:2;stroke-linecap:round;stroke-linejoin:round;stroke-miterlimit:10;}
	.st22{fill:none;stroke:#377DFF;stroke-miterlimit:10;}
	.st23{fill:none;stroke:#377DFF;stroke-miterlimit:10;stroke-dasharray:2.9876,2.9876;}
	.st24{fill:none;stroke:#377DFF;stroke-miterlimit:10;stroke-dasharray:3.0075,3.0075;}
	.st25{fill:#FFFFFF;stroke:#377DFF;stroke-width:2;stroke-linecap:round;stroke-linejoin:round;stroke-miterlimit:10;}
	.st26{fill:#5D5D5D;}
	.st27{fill:none;stroke:#377DFF;stroke-miterlimit:10;stroke-dasharray:2.9728,2.9728;}
	.st28{fill:#F4C222;}
</style>
<g>
	<g id="XMLID_730_">
		<path id="XMLID_1524_" class="st0" d="M404.9,100.6l19.5,0h2.8h0c0,0,0,0,0,0c0.5,0,0.9,0.4,0.9,0.9v0c0,0.5-0.4,0.9-0.9,0.9
			c0,0,0,0,0,0h0h-2.8l-19.5,0c-3.3,0-6.1,2.5-6.2,5.8c-0.2,3.5,2.6,6.3,6,6.3l86.7,0c3.3,0,6.1-2.5,6.2-5.8c0.2-3.5-2.6-6.3-6-6.3
			l-25.9,0h-2.3h-0.5c-0.5,0-0.9-0.4-0.9-0.9v0c0-0.5,0.4-0.9,0.9-0.9h0.5h2.3l25.7,0c4.7,0,8.5,3.8,8.1,8.5c-0.3,4-3.7,7.2-7.8,7.2
			l-86.9,0c-4.1,0-7.5-3.2-7.8-7.2C396.5,104.5,400.3,100.6,404.9,100.6z"/>
		<g id="XMLID_1521_">
			<path id="XMLID_1523_" class="st1" d="M519.7,79.2c0,3.9,3.2,7.1,7.1,7.1c3.9,0,7.1-3.2,7.1-7.1v-7.4l-14.2,0V79.2z"/>
			<path id="XMLID_1522_" class="st0" d="M534.6,71.7h-0.7v7.4c0,3.9-3.2,7.1-7.1,7.1c-3.9,0-7.1-3.2-7.1-7.1v-7.4H519h-0.7v7.4
				c0,4.7,3.8,8.5,8.5,8.5c4.7,0,8.5-3.8,8.5-8.5v-7.4H534.6z"/>
		</g>
		<line id="XMLID_1520_" class="st2" x1="472.9" y1="108.4" x2="424.7" y2="108.4"/>
		<line id="XMLID_1519_" class="st2" x1="421.6" y1="108.5" x2="417.5" y2="108.5"/>
		<path id="XMLID_1518_" class="st3" d="M548,81.5l-43.9,0c-1.9,0-7.7-3.5-7.7-5.4l0-2.9c0-1.9,1.5-3.4,3.4-3.4l54,0
			c1.9,0,3.4,1.5,3.4,3.4v2.9C557.2,78,549.9,81.5,548,81.5z"/>
		<path id="XMLID_1157_" class="st4" d="M527.7,36.8l20.3,0c5.1,0,9.2,4.2,9.2,9.2l0,26.2c0,5.1-4.2,9.2-9.2,9.2l-42.3,0
			c-5.1,0-9.2-4.2-9.2-9.2V46.1c0-5.1,4.2-9.2,9.2-9.2h7.1"/>
		<line id="XMLID_1517_" class="st4" x1="516.2" y1="36.8" x2="523.7" y2="36.8"/>
		<g id="XMLID_1512_">
			<g id="XMLID_1515_">
				<path id="XMLID_1516_" class="st5" d="M571.3,189.4l-89.6,0c-4.4,0-8-3.6-8-8l0-76.5c0-4.4,3.6-8,8-8l89.6,0c4.4,0,8,3.6,8,8
					l0,76.5C579.4,185.8,575.7,189.4,571.3,189.4z"/>
			</g>
			<path id="XMLID_1514_" class="st6" d="M571.3,121.4l-89.6,0c-4.4,0-8-3.6-8-8v-5.6c0-4.4,3.6-8,8-8l89.6,0c4.4,0,8,3.6,8,8v5.6
				C579.4,117.8,575.7,121.4,571.3,121.4z"/>
			<path id="XMLID_1513_" class="st7" d="M571.3,118.5l-89.6,0c-4.4,0-8-3.6-8-8v-5.6c0-4.4,3.6-8,8-8l89.6,0c4.4,0,8,3.6,8,8v5.6
				C579.4,114.8,575.7,118.5,571.3,118.5z"/>
			<g>
				<path class="st0" d="M492.5,151.3v-7.7h2.2c1.2,0,2.2,0.4,3,1.1c0.8,0.7,1.2,1.6,1.2,2.7c0,1-0.4,2-1.1,2.7
					c-0.7,0.7-1.6,1.1-2.7,1.1H492.5z M495.1,150.6c0.9,0,1.6-0.3,2.2-1c0.6-0.6,0.9-1.4,0.9-2.3c0-0.8-0.4-1.6-1-2.1
					c-0.6-0.6-1.4-0.9-2.3-0.9h-1.6v6.2H495.1z"/>
				<path class="st0" d="M505.5,151.3h-0.7v-0.9c-0.6,0.7-1.4,1-2.3,1c-0.8,0-1.5-0.3-2-0.9s-0.8-1.3-0.8-2.1c0-0.8,0.3-1.5,0.9-2.1
					c0.6-0.6,1.3-0.9,2.1-0.8c0.8,0,1.5,0.3,2,0.9c0.6,0.6,0.8,1.3,0.8,2.1v0V151.3z M500.4,148.4c0,0.6,0.2,1.1,0.6,1.6
					c0.4,0.5,0.9,0.7,1.5,0.7c0.6,0,1.2-0.2,1.6-0.6c0.5-0.5,0.7-1,0.6-1.6c0-0.6-0.2-1.1-0.6-1.5c-0.4-0.4-0.9-0.6-1.5-0.6
					c-0.6,0-1.1,0.2-1.5,0.6S500.4,147.8,500.4,148.4z"/>
				<path class="st0" d="M511.3,150.6c-0.6,0.6-1.3,0.9-2.1,0.8c-0.8,0-1.5-0.3-2-0.9c-0.5-0.6-0.8-1.3-0.8-2.1
					c0-0.8,0.3-1.5,0.9-2.1c0.6-0.6,1.3-0.9,2.1-0.9c0.8,0,1.5,0.3,2,0.9c0.5,0.6,0.8,1.3,0.8,2.1
					C512.2,149.3,511.9,150,511.3,150.6z M509.1,150.7c0.6,0,1.2-0.2,1.6-0.6c0.5-0.5,0.7-1,0.7-1.6c0-0.6-0.2-1.1-0.7-1.5
					c-0.4-0.4-0.9-0.6-1.5-0.6c-0.6,0-1.1,0.2-1.5,0.6s-0.6,0.9-0.6,1.5c0,0.6,0.2,1.1,0.6,1.6C508.1,150.4,508.6,150.7,509.1,150.7
					z"/>
				<path class="st0" d="M521.1,147.8c-0.1,1.2-0.6,2.1-1.6,2.8c-0.8,0.6-1.6,0.9-2.5,0.8c-1.1,0-2.1-0.4-2.9-1.2
					c-0.8-0.8-1.2-1.7-1.2-2.8c0-1.1,0.4-2.1,1.2-2.8c0.8-0.8,1.7-1.1,2.9-1.1c0.8,0,1.5,0.2,2.1,0.5c0.6,0.4,1.1,0.9,1.5,1.7h-0.9
					c-0.7-1-1.6-1.5-2.8-1.5c-0.9,0-1.6,0.3-2.3,0.9c-0.7,0.6-1,1.4-1,2.3c0,0.9,0.3,1.6,1,2.3c0.6,0.6,1.4,0.9,2.4,1
					c0.7,0,1.3-0.1,1.9-0.6c0.6-0.4,1.1-1,1.3-1.6l-4.3,0v-0.7L521.1,147.8z"/>
				<path class="st0" d="M526.4,150.6c-0.6,0.6-1.3,0.9-2.1,0.8c-0.8,0-1.5-0.3-2-0.9c-0.5-0.6-0.8-1.3-0.8-2.1
					c0-0.8,0.3-1.5,0.9-2.1c0.6-0.6,1.3-0.9,2.1-0.9c0.8,0,1.5,0.3,2,0.9c0.5,0.6,0.8,1.3,0.8,2.1C527.3,149.3,527,150,526.4,150.6z
					 M524.3,150.7c0.6,0,1.2-0.2,1.6-0.6c0.5-0.5,0.7-1,0.7-1.6c0-0.6-0.2-1.1-0.7-1.5c-0.4-0.4-0.9-0.6-1.5-0.6
					c-0.6,0-1.1,0.2-1.5,0.6s-0.6,0.9-0.6,1.5c0,0.6,0.2,1.1,0.6,1.6C523.2,150.4,523.7,150.7,524.3,150.7z"/>
				<path class="st0" d="M528.8,151.3h-0.8v-7.7h0.8V151.3z"/>
				<path class="st0" d="M535.6,148.5c0,0.8-0.3,1.5-0.9,2.1c-0.6,0.6-1.3,0.9-2.1,0.8c-0.8,0-1.5-0.3-2-0.9s-0.8-1.3-0.8-2.1
					c0-0.8,0.3-1.5,0.9-2.1c0.6-0.6,1.3-0.9,2.1-0.9c0.8,0,1.5,0.4,2.1,1v-2.9h0.8V148.5z M532.6,150.7c0.6,0,1.2-0.2,1.6-0.6
					c0.4-0.5,0.7-1,0.6-1.6c0-0.6-0.2-1.1-0.6-1.5c-0.4-0.4-0.9-0.6-1.5-0.6c-0.6,0-1.1,0.2-1.5,0.6s-0.6,0.9-0.7,1.5
					c0,0.6,0.2,1.1,0.6,1.6C531.6,150.5,532,150.7,532.6,150.7z"/>
				<path class="st0" d="M549.5,151.3h-0.8v-6.8l-2.9,6.8h-0.6l-2.9-6.8l0,6.8h-0.8v-7.7h1.2l2.8,6.6l2.9-6.6h1.2V151.3z"/>
				<path class="st0" d="M551.1,144.9h-0.8v-1.3h0.8V144.9z M551.1,151.3h-0.8v-5.7h0.8V151.3z"/>
				<path class="st0" d="M557,151.3h-0.8V148c0-0.5-0.2-0.9-0.5-1.2c-0.3-0.3-0.7-0.5-1.2-0.5s-0.9,0.2-1.2,0.5s-0.5,0.8-0.5,1.2
					v3.3h-0.8v-3.2c0-0.7,0.2-1.3,0.7-1.8c0.5-0.5,1.1-0.7,1.8-0.7c0.7,0,1.3,0.2,1.8,0.7s0.7,1.1,0.7,1.8V151.3z"/>
				<path class="st0" d="M559.8,151.4c-1.4,0-2.1-0.6-2.1-1.8v-6h0.8v2h1.3v0.7h-1.3v3.2c0,0.8,0.4,1.3,1.3,1.3V151.4z"/>
				<path class="st0" d="M509,163.3h-0.8v-7.7h2.5c0.8,0,1.4,0.2,1.9,0.7c0.5,0.5,0.8,1,0.7,1.7c0,0.6-0.2,1.1-0.7,1.6
					c-0.5,0.4-1,0.6-1.7,0.6H509V163.3z M510.8,159.5c0.5,0,0.9-0.1,1.2-0.5c0.4-0.3,0.5-0.7,0.5-1.2c0-0.4-0.2-0.8-0.6-1.1
					c-0.3-0.3-0.8-0.4-1.2-0.4H509v3.2H510.8z"/>
				<path class="st0" d="M514.5,163.3h-0.8v-5.7h0.7v0.8c0.2-0.3,0.4-0.5,0.7-0.7c0.3-0.1,0.6-0.2,0.9-0.2v0.8
					c-0.3,0-0.6,0.1-0.9,0.3c-0.2,0.2-0.4,0.3-0.4,0.5c-0.1,0.2-0.2,0.5-0.2,0.9V163.3z"/>
				<path class="st0" d="M521.5,162.6c-0.6,0.6-1.3,0.9-2.1,0.8c-0.8,0-1.5-0.3-2-0.9c-0.5-0.6-0.8-1.3-0.8-2.1
					c0-0.8,0.3-1.5,0.9-2.1c0.6-0.6,1.3-0.9,2.1-0.9c0.8,0,1.5,0.3,2,0.9c0.5,0.6,0.8,1.3,0.8,2.1
					C522.4,161.3,522.1,162,521.5,162.6z M519.4,162.7c0.6,0,1.2-0.2,1.6-0.6c0.5-0.5,0.7-1,0.7-1.6c0-0.6-0.2-1.1-0.7-1.5
					c-0.4-0.4-0.9-0.6-1.5-0.6c-0.6,0-1.1,0.2-1.5,0.6s-0.6,0.9-0.6,1.5c0,0.6,0.2,1.1,0.6,1.6C518.4,162.4,518.8,162.7,519.4,162.7
					z"/>
				<path class="st0" d="M529,161.8c-0.6,1.1-1.5,1.6-2.8,1.6c-0.8,0-1.5-0.3-2.1-0.9s-0.9-1.3-0.9-2.1c0-0.8,0.3-1.5,0.9-2.1
					c0.6-0.6,1.3-0.9,2.2-0.9c0.6,0,1.2,0.1,1.7,0.5c0.5,0.3,0.8,0.7,1.1,1.2l0.1,0.2h-0.9c-0.4-0.7-1.1-1.1-2-1.1
					c-0.6,0-1.1,0.2-1.6,0.6c-0.5,0.4-0.7,1-0.7,1.6c0,0.6,0.2,1.1,0.7,1.6c0.5,0.4,1,0.7,1.6,0.6c0.9,0,1.5-0.4,2-1.1h0.9
					L529,161.8z"/>
				<path class="st0" d="M535.3,161.4c-0.2,0.6-0.6,1.1-1.1,1.5c-0.5,0.4-1.1,0.5-1.7,0.5c-0.8,0-1.5-0.3-2.1-0.8
					c-0.6-0.6-0.9-1.3-0.9-2.1c0-0.8,0.3-1.6,0.9-2.2c0.6-0.6,1.4-0.9,2.2-0.9c0.8,0,1.4,0.4,2,0.9c0.5,0.6,0.8,1.2,0.8,1.9v0.4
					h-5.1c0.1,0.6,0.3,1,0.7,1.4s0.9,0.6,1.5,0.5c0.9,0,1.5-0.4,1.9-1.2H535.3z M534.7,160c-0.1-0.5-0.4-1-0.8-1.3s-0.9-0.5-1.4-0.5
					s-1,0.2-1.4,0.5c-0.4,0.3-0.7,0.8-0.8,1.3H534.7z"/>
				<path class="st0" d="M536.9,161.8c0,0.2,0.1,0.4,0.3,0.6s0.4,0.3,0.7,0.3c0.3,0,0.6-0.1,0.8-0.3c0.2-0.2,0.2-0.4,0.3-0.7
					c0-0.5-0.3-0.8-0.8-1l-0.7-0.2c-0.7-0.2-1.1-0.7-1.1-1.4c0-0.4,0.1-0.8,0.4-1.1c0.3-0.3,0.7-0.5,1.1-0.5c0.4,0,0.8,0.1,1.1,0.4
					c0.3,0.3,0.5,0.6,0.5,1l0,0.2h-0.8v-0.1c0-0.4-0.4-0.7-0.8-0.7c-0.4,0-0.8,0.3-0.8,0.8c0,0.4,0.2,0.7,0.7,0.9l0.7,0.2
					c0.8,0.3,1.2,0.8,1.2,1.5c0,0.5-0.1,1-0.5,1.3c-0.4,0.4-0.9,0.5-1.4,0.5c-0.5,0-0.9-0.2-1.2-0.6c-0.3-0.3-0.5-0.8-0.5-1.3h0.8
					V161.8z"/>
				<path class="st0" d="M541.2,161.8c0,0.2,0.1,0.4,0.3,0.6s0.4,0.3,0.7,0.3c0.3,0,0.6-0.1,0.8-0.3c0.2-0.2,0.2-0.4,0.3-0.7
					c0-0.5-0.3-0.8-0.8-1l-0.7-0.2c-0.7-0.2-1.1-0.7-1.1-1.4c0-0.4,0.1-0.8,0.4-1.1c0.3-0.3,0.7-0.5,1.1-0.5c0.4,0,0.8,0.1,1.1,0.4
					c0.3,0.3,0.5,0.6,0.5,1l0,0.2h-0.8v-0.1c0-0.4-0.4-0.7-0.8-0.7c-0.4,0-0.8,0.3-0.8,0.8c0,0.4,0.2,0.7,0.7,0.9l0.7,0.2
					c0.8,0.3,1.2,0.8,1.2,1.5c0,0.5-0.1,1-0.5,1.3c-0.4,0.4-0.9,0.5-1.4,0.5c-0.5,0-0.9-0.2-1.2-0.6c-0.3-0.3-0.5-0.8-0.5-1.3h0.8
					V161.8z"/>
			</g>
		</g>
		<circle id="XMLID_1511_" class="st0" cx="526.8" cy="84.4" r="0.9"/>
		<line id="XMLID_1510_" class="st8" x1="509.2" y1="81.5" x2="509.2" y2="96.8"/>
		<line id="XMLID_1509_" class="st8" x1="543.4" y1="81.5" x2="543.4" y2="96.8"/>
		<g id="XMLID_1184_">
			<line id="XMLID_1508_" class="st4" x1="657.9" y1="101.7" x2="579.4" y2="101.7"/>
			<line id="XMLID_1501_" class="st2" x1="657.9" y1="108.7" x2="651.3" y2="108.7"/>
			<line id="XMLID_1500_" class="st2" x1="643.3" y1="108.7" x2="602.4" y2="108.7"/>
			<line id="XMLID_1492_" class="st2" x1="588.7" y1="108.7" x2="583.5" y2="108.7"/>
			<line id="XMLID_1491_" class="st4" x1="657.9" y1="115.6" x2="579.4" y2="115.6"/>
		</g>
		<circle id="XMLID_1183_" class="st8" cx="404.6" cy="108.5" r="7"/>
		<path id="XMLID_1180_" class="st9" d="M403.7,106.3c-0.2,0-0.3,0.1-0.3,0.3l0,3.7c0,0.2,0.1,0.3,0.3,0.3h1.3c1.2,0,2.3-1,2.3-2.1
			c0-1.2-1-2.1-2.3-2.1H403.7z M404.6,111.6H404v0.5c0,0.1-0.1,0.2-0.2,0.2h-0.4c-0.1,0-0.2-0.1-0.2-0.2v-0.5h-0.7
			c-0.2,0-0.3-0.1-0.3-0.3v-5.8c0-0.2,0.1-0.3,0.3-0.3h0.7v-0.5c0-0.1,0.1-0.2,0.2-0.2h0.4c0.1,0,0.2,0.1,0.2,0.2v0.5h0.6v-0.5
			c0-0.1,0.1-0.2,0.2-0.2h0.4c0.1,0,0.2,0.1,0.2,0.2v0.5c1.8,0.1,3.2,1.5,3.2,3.2s-1.4,3.1-3.2,3.2v0.5c0,0.1-0.1,0.2-0.2,0.2h-0.4
			c-0.1,0-0.2-0.1-0.2-0.2V111.6z"/>
		<g id="XMLID_1159_">
			<g id="XMLID_1213_">
				<path id="XMLID_1488_" class="st10" d="M518.2,62.7c-0.2,0-0.3-0.2-0.3-0.3l0-4.8c0-0.2,0.2-0.3,0.3-0.3h0.2
					c0.2,0,0.3,0.2,0.3,0.3v4.8c0,0.2-0.2,0.3-0.3,0.3H518.2z M517.6,62.3c-0.4,0.2-0.8,0.4-1.3,0.4c-1.6,0.1-3-1-3.2-2.6
					c-0.1-1.6,1-3,2.6-3.2c0.7-0.1,1.3,0.1,1.8,0.4v1.1c-0.4-0.5-1-0.7-1.7-0.7c-1.1,0.1-1.9,1.1-1.8,2.2c0.1,1.1,1.1,1.9,2.2,1.8
					c0.5,0,1-0.3,1.3-0.7V62.3z"/>
				<path id="XMLID_1477_" class="st10" d="M524.7,59.7c-0.1-1.1-1.1-1.9-2.2-1.8c-1.1,0.1-1.9,1.1-1.8,2.2c0.1,1.1,1.1,1.9,2.2,1.8
					C524,61.8,524.8,60.8,524.7,59.7z M525.6,59.6c0.1,1.6-1,3-2.6,3.2c-1.6,0.1-3-1-3.2-2.6c-0.1-1.6,1-3,2.6-3.2
					C524,56.8,525.5,58,525.6,59.6z"/>
				<path id="XMLID_1309_" class="st10" d="M508.6,56.3l-2.3,0V62h2.3C512.3,62,512.5,56.3,508.6,56.3z M508.8,62.8h-2.5
					c-0.4,0-0.7-0.2-0.7-0.7v-6.1c0-0.4,0.4-0.7,0.7-0.7h2.4C513.6,55.4,513.5,62.8,508.8,62.8z"/>
			</g>
			<g id="XMLID_1710_">
				<g id="XMLID_1203_">
					<path id="XMLID_1212_" class="st10" d="M541.8,62.9h-0.1c-0.2,0-0.3-0.1-0.3-0.3v-6.9c0-0.2,0.1-0.3,0.3-0.3h0.1
						c0.2,0,0.3,0.1,0.3,0.3v6.9C542.1,62.7,542,62.9,541.8,62.9"/>
				</g>
				<path id="XMLID_1707_" class="st10" d="M534.9,59.4l-1,0l-3.8,0c-0.1,0-0.3,0.1-0.3,0.3v0.1c0,0.1,0.1,0.3,0.3,0.3l3.2,0l0.7,0
					c0,0,0.1,0,0.1,0.1c-0.2,0.6-0.6,1.1-1.2,1.5c-0.6,0.4-1.2,0.6-1.8,0.6c-0.9-0.1-1.6-0.4-2.2-1c-0.6-0.6-0.9-1.3-0.9-2.1
					c0-0.8,0.3-1.5,1-2.1c0.6-0.6,1.3-0.9,2.1-0.9c1.1,0,2,0.4,2.6,1.4c0,0,0,0,0,0c0.1,0.1,0.2,0.1,0.4,0.1c0.2,0,0.3,0,0.4-0.1
					c0,0,0,0,0,0c0,0,0,0,0,0c0,0,0,0,0,0c0,0,0,0,0,0c-0.4-0.7-0.9-1.2-1.4-1.5c-0.5-0.3-1.2-0.5-2-0.5c-1.1,0-2,0.4-2.7,1.1
					c-0.7,0.7-1.1,1.6-1.1,2.7c0,1,0.4,1.9,1.1,2.6c0.8,0.7,1.7,1.1,2.7,1.1c0.9,0,1.6-0.3,2.4-0.8
					C534.3,61.4,534.8,60.6,534.9,59.4C535,59.4,534.9,59.4,534.9,59.4z"/>
				<path id="XMLID_1712_" class="st10" d="M538.2,57.2c-0.8,0-1.4,0.2-2,0.8c-0.6,0.6-0.9,1.4-0.8,2.2c0,0.6,0.3,1.1,0.6,1.6
					c0.5,0.7,1.2,1,2.1,1c0.8,0,1.4-0.2,2-0.8c0.6-0.6,0.8-1.2,0.8-2c0-0.8-0.3-1.4-0.8-2C539.6,57.6,538.9,57.3,538.2,57.2z
					 M539.5,61.6c-0.4,0.4-0.9,0.6-1.5,0.6c-0.6,0-1-0.2-1.4-0.7c-0.5-0.5-0.6-1.1-0.5-1.9c0-0.3,0.2-0.6,0.4-0.9
					c0.4-0.6,1-0.8,1.7-0.8c0.5,0,1,0.2,1.4,0.6c0.4,0.4,0.6,0.9,0.6,1.5C540.2,60.6,540,61.1,539.5,61.6z"/>
				<path id="XMLID_1711_" class="st10" d="M548.1,55.6c0-0.1-0.1-0.2-0.3-0.2h-0.1c-0.2,0-0.3,0.1-0.3,0.3v2.5
					c-0.5-0.6-1.2-0.9-2-0.9c-0.8,0-1.4,0.2-2,0.8c-0.6,0.6-0.9,1.4-0.8,2.3c0,0.6,0.3,1.1,0.6,1.5c0.5,0.7,1.2,1,2.1,1
					c0.8,0,1.4-0.2,2-0.8c0.6-0.6,0.8-1.2,0.8-2L548.1,55.6z M546.8,61.6c-0.4,0.4-0.9,0.6-1.5,0.6c-0.6,0-1-0.2-1.4-0.7
					c-0.4-0.4-0.6-1-0.6-1.6c0-0.5,0.2-1,0.6-1.4c0.4-0.4,0.9-0.6,1.5-0.6c0.6,0,1,0.2,1.4,0.6c0.4,0.4,0.6,0.9,0.6,1.5
					C547.4,60.6,547.2,61.1,546.8,61.6z"/>
			</g>
		</g>
		<g id="XMLID_731_">
			<g id="XMLID_741_">
				<path id="XMLID_1153_" class="st0" d="M445.7,91.4C445.7,91.4,445.7,91.4,445.7,91.4c3.9-0.3,6.6-1.9,6.6-3.9
					c0-0.4-0.4-0.8-0.8-0.8c-0.4,0-0.8,0.4-0.8,0.8c0,0.9-2,2.1-5,2.3c-0.4,0-0.8,0.4-0.7,0.8C444.9,91.1,445.3,91.4,445.7,91.4
					L445.7,91.4z M445.7,91.4"/>
				<path id="XMLID_1146_" class="st0" d="M444.7,88.2c4.1,0,7.5-1.5,7.5-3.4c0-1.9-3.3-3.4-7.5-3.4c-4.1,0-7.5,1.5-7.5,3.4
					C437.3,86.7,440.6,88.2,444.7,88.2L444.7,88.2z M440.1,83.8c1.2-0.5,2.9-0.9,4.6-0.9s3.4,0.3,4.6,0.9c1,0.5,1.3,0.9,1.3,1
					c0,0.1-0.3,0.5-1.3,1c-1.2,0.5-2.9,0.9-4.6,0.9c-1.7,0-3.4-0.3-4.6-0.9c-0.9-0.4-1.3-0.9-1.3-1
					C438.9,84.7,439.1,84.2,440.1,83.8L440.1,83.8z M451.5,89.9c-0.4,0-0.8,0.4-0.8,0.8c0,0.9-1.9,2-4.8,2.3c-0.4,0-0.8,0.4-0.7,0.9
					c0,0.4,0.4,0.7,0.8,0.7c0,0,0,0,0.1,0c3.7-0.3,6.3-1.9,6.3-3.9C452.3,90.2,451.9,89.9,451.5,89.9L451.5,89.9z M452.6,103.9
					c4.3,0,7.6-1.7,7.6-3.9c0-0.4-0.4-0.8-0.8-0.8c-0.4,0-0.8,0.4-0.8,0.8c0,1-2.3,2.3-6,2.3c-3.7,0-6-1.4-6-2.3
					c0-0.4-0.4-0.8-0.8-0.8c-0.4,0-0.8,0.4-0.8,0.8C445.1,102.2,448.3,103.9,452.6,103.9L452.6,103.9z M452.6,103.9"/>
				<path id="XMLID_1140_" class="st0" d="M445.1,97.2c0,1.9,3.3,3.4,7.5,3.4c4.1,0,7.5-1.5,7.5-3.4c0-1.9-3.3-3.4-7.5-3.4
					C448.5,93.8,445.1,95.3,445.1,97.2L445.1,97.2z M458.5,97.2c0,0.1-0.3,0.5-1.3,1c-1.2,0.5-2.9,0.9-4.6,0.9
					c-1.7,0-3.4-0.3-4.6-0.9c-0.9-0.4-1.3-0.9-1.3-1s0.3-0.5,1.3-1c1.2-0.5,2.9-0.9,4.6-0.9c1.7,0,3.4,0.3,4.6,0.9
					C458.2,96.7,458.5,97.1,458.5,97.2L458.5,97.2z M459.4,102.3c-0.4,0-0.8,0.4-0.8,0.8c0,1-2.3,2.3-6,2.3c-3.7,0-6-1.4-6-2.3
					c0-0.4-0.4-0.8-0.8-0.8c-0.4,0-0.8,0.4-0.8,0.8c0,2.2,3.2,3.9,7.6,3.9c4.3,0,7.6-1.7,7.6-3.9
					C460.2,102.7,459.8,102.3,459.4,102.3L459.4,102.3z M444,93.6c-0.4,0-0.8,0.4-0.8,0.8c0,1-2.3,2.3-6,2.3c-3.7,0-6-1.4-6-2.3
					c0-0.4-0.4-0.8-0.8-0.8c-0.4,0-0.8,0.4-0.8,0.8c0,2.2,3.2,3.9,7.6,3.9c4.3,0,7.5-1.7,7.5-3.9C444.8,94,444.5,93.6,444,93.6
					L444,93.6z M444,93.6"/>
				<path id="XMLID_1135_" class="st0" d="M437.3,95.1c4.1,0,7.5-1.5,7.5-3.4c0-1.9-3.3-3.4-7.5-3.4c-4.1,0-7.5,1.5-7.5,3.4
					C429.8,93.5,433.1,95.1,437.3,95.1L437.3,95.1z M432.6,90.7c1.2-0.5,2.9-0.9,4.6-0.9c1.7,0,3.4,0.3,4.6,0.9
					c0.9,0.4,1.3,0.9,1.3,1c0,0.1-0.3,0.5-1.3,1c-1.2,0.5-2.9,0.9-4.6,0.9c-1.7,0-3.4-0.3-4.6-0.9c-1-0.4-1.3-0.9-1.3-1
					C431.4,91.5,431.7,91.1,432.6,90.7L432.6,90.7z M444,96.8c-0.4,0-0.8,0.4-0.8,0.8c0,1-2.3,2.3-6,2.3c-3.7,0-6-1.4-6-2.3
					c0-0.4-0.4-0.8-0.8-0.8c-0.4,0-0.8,0.4-0.8,0.8c0,2.2,3.2,3.9,7.6,3.9c4.3,0,7.5-1.7,7.5-3.9C444.8,97.1,444.5,96.8,444,96.8
					L444,96.8z M444,96.8"/>
				<path id="XMLID_751_" class="st0" d="M444,99.9c-0.4,0-0.8,0.4-0.8,0.8c0,1-2.3,2.3-6,2.3c-3.7,0-6-1.4-6-2.3
					c0-0.4-0.4-0.8-0.8-0.8c-0.4,0-0.8,0.4-0.8,0.8c0,2.2,3.2,3.9,7.6,3.9c4.3,0,7.5-1.7,7.5-3.9C444.8,100.2,444.5,99.9,444,99.9
					L444,99.9z M444,99.9"/>
				<path id="XMLID_743_" class="st0" d="M444,103c-0.4,0-0.8,0.4-0.8,0.8c0,1-2.3,2.3-6,2.3c-3.7,0-6-1.4-6-2.3
					c0-0.4-0.4-0.8-0.8-0.8c-0.4,0-0.8,0.4-0.8,0.8c0,2.2,3.2,3.9,7.6,3.9c4.3,0,7.5-1.7,7.5-3.9C444.8,103.4,444.5,103,444,103
					L444,103z M457,87.4l1.3-1.4l1.9-0.2l-1.4-1.3l-0.2-1.9l-1.3,1.4l-1.9,0.2l1.4,1.3L457,87.4z M457,90.9l1.3-0.8l-1.5-0.4
					l-0.8-1.3l-0.4,1.5l-1.3,0.8l1.5,0.4l0.8,1.3L457,90.9z M453.5,82.4l0.2-0.8l0.7-0.5l-0.8-0.2l-0.5-0.7l-0.2,0.8l-0.7,0.5
					l0.8,0.2L453.5,82.4z M433.3,87l0.4-1.5l1.3-0.8l-1.5-0.4l-0.8-1.3l-0.4,1.5l-1.3,0.8l1.5,0.4L433.3,87z M435.1,80.8l0.2-0.8
					l0.7-0.5l-0.8-0.2l-0.5-0.7l-0.2,0.8l-0.7,0.5l0.8,0.2L435.1,80.8z M435.1,80.8"/>
				<rect id="XMLID_742_" x="429.7" y="78.6" class="st11" width="30.5" height="29.2"/>
			</g>
			<path id="XMLID_738_" class="st9" d="M444.2,84c-0.1,0-0.2,0.1-0.2,0.1v1.4c0,0.1,0.1,0.1,0.2,0.1h1c0.9,0,1.6-0.4,1.6-0.8
				s-0.7-0.8-1.6-0.8H444.2z M444.9,86h-0.4v0.2c0,0,0,0.1-0.1,0.1H444c-0.1,0-0.1,0-0.1-0.1V86h-0.5c-0.1,0-0.2-0.1-0.2-0.1v-2.2
				c0-0.1,0.1-0.1,0.2-0.1h0.5v-0.2c0,0,0-0.1,0.1-0.1h0.3c0.1,0,0.1,0,0.1,0.1v0.2h0.4v-0.2c0,0,0-0.1,0.1-0.1h0.3
				c0.1,0,0.1,0,0.1,0.1v0.2c1.3,0,2.2,0.6,2.2,1.2c0,0.6-1,1.2-2.2,1.2v0.2c0,0,0,0.1-0.1,0.1H445c-0.1,0-0.1,0-0.1-0.1V86z"/>
			<path id="XMLID_735_" class="st9" d="M436.4,90.8c-0.1,0-0.2,0.1-0.2,0.1v1.4c0,0.1,0.1,0.1,0.2,0.1h1c0.9,0,1.6-0.4,1.6-0.8
				c0-0.4-0.7-0.8-1.6-0.8H436.4z M437,92.9h-0.4v0.2c0,0,0,0.1-0.1,0.1h-0.3c-0.1,0-0.1,0-0.1-0.1v-0.2h-0.5
				c-0.1,0-0.2-0.1-0.2-0.1v-2.2c0-0.1,0.1-0.1,0.2-0.1h0.5v-0.2c0,0,0-0.1,0.1-0.1h0.3c0.1,0,0.1,0,0.1,0.1v0.2h0.4v-0.2
				c0,0,0-0.1,0.1-0.1h0.3c0.1,0,0.1,0,0.1,0.1v0.2c1.3,0,2.2,0.6,2.2,1.2c0,0.6-1,1.2-2.2,1.2v0.2c0,0,0,0.1-0.1,0.1h-0.3
				c-0.1,0-0.1,0-0.1-0.1V92.9z"/>
			<path id="XMLID_732_" class="st9" d="M452.5,96.4c-0.1,0-0.2,0.1-0.2,0.1l0,1.4c0,0.1,0.1,0.1,0.2,0.1h1c0.9,0,1.6-0.4,1.6-0.8
				s-0.7-0.8-1.6-0.8H452.5z M453.1,98.4h-0.4v0.2c0,0,0,0.1-0.1,0.1h-0.3c-0.1,0-0.1,0-0.1-0.1v-0.2h-0.5c-0.1,0-0.2-0.1-0.2-0.1
				v-2.2c0-0.1,0.1-0.1,0.2-0.1h0.5v-0.2c0,0,0-0.1,0.1-0.1h0.3c0.1,0,0.1,0,0.1,0.1V96h0.4v-0.2c0,0,0-0.1,0.1-0.1h0.3
				c0.1,0,0.1,0,0.1,0.1V96c1.3,0,2.2,0.6,2.2,1.2c0,0.6-1,1.2-2.2,1.2v0.2c0,0,0,0.1-0.1,0.1h-0.3c-0.1,0-0.1,0-0.1-0.1V98.4z"/>
		</g>
	</g>
	<g id="XMLID_431_">
		<path id="XMLID_625_" class="st12" d="M347.6-59.1c0-2.2-1.7-3.9-3.8-4h-39.5c-2.2,0-4,1.8-4,4c0,2.2,1.8,4,4,4h16.1
			c3.9,0,7.1,3.2,7.1,7.1c0,3.9-3.2,7.1-7.1,7.1h-13.4v8h36.8v-8h-0.6c-3.9,0-7.1-3.2-7.1-7.1c0-3.9,3.2-7.1,7.1-7.1h0.6
			C345.8-55.2,347.6-57,347.6-59.1L347.6-59.1z M395.4-7.9 M390.8,3.8H287.2c-3.3,0-6.1-2.7-6.1-6.1v0c0-3.3,2.7-6.1,6.1-6.1h103.7
			c3.3,0,6.1,2.7,6.1,6.1v0C396.9,1.1,394.2,3.8,390.8,3.8z"/>
		<path id="XMLID_580_" class="st13" d="M378.7-3.4h-46.9c-1.6,0-2.9-1.3-2.9-2.9v-57.8h42.7c5.5,0,10,4.5,10,10v47.9
			C381.6-4.7,380.3-3.4,378.7-3.4L378.7-3.4z M378.7-3.4"/>
		<path id="XMLID_577_" class="st14" d="M371.6-64.1h-6.9c5.5,0,10,4.5,10,10v47.9c0,1.6-1.3,2.9-2.9,2.9h6.9c1.6,0,2.9-1.3,2.9-2.9
			v-47.9C381.6-59.6,377.2-64.1,371.6-64.1L371.6-64.1z M371.6-64.1"/>
		<path id="XMLID_556_" class="st15" d="M378.7-2.3h-46.9c-2.2,0-4-1.8-4-4v-58.9h43.9c6.2,0,11.1,5,11.1,11.1v47.9
			C382.7-4.1,381-2.3,378.7-2.3L378.7-2.3z M330-63v56.7c0,1,0.8,1.8,1.8,1.8h46.9c1,0,1.8-0.8,1.8-1.8v-47.9c0-4.9-4-8.9-8.9-8.9
			L330-63L330-63z M330-63"/>
		<path id="XMLID_542_" class="st16" d="M298.6-3.4h46.9c1.6,0,2.9-1.3,2.9-2.9v-57.8h-42.8c-5.5,0-10,4.5-10,10v47.9
			C295.6-4.7,296.9-3.4,298.6-3.4L298.6-3.4z M298.6-3.4"/>
		<path id="XMLID_525_" class="st13" d="M300.9-6.3v-47.9c0-5.5,4.5-10,10-10h-5.2c-5.5,0-10,4.5-10,10v47.9c0,1.6,1.3,2.9,2.9,2.9
			h5.2C302.2-3.4,300.9-4.7,300.9-6.3L300.9-6.3z M300.9-6.3"/>
		<path id="XMLID_502_" class="st15" d="M345.5-2.3h-46.9c-2.2,0-4-1.8-4-4v-47.9c0-6.1,5-11.1,11.1-11.1h43.9v58.9
			C349.5-4.1,347.6-2.3,345.5-2.3L345.5-2.3z M305.6-63c-4.9,0-8.9,4-8.9,8.9v47.9c0,1,0.8,1.8,1.8,1.8h46.9c1,0,1.8-0.8,1.8-1.8
			V-63H305.6z M305.6-63"/>
		<path id="XMLID_499_" class="st16" d="M363-3.4H313c-1.6,0-2.9-1.3-2.9-2.9v-79.9c0-5.1,4.1-9.2,9.2-9.2h37.5
			c5.1,0,9.2,4.1,9.2,9.2v79.9C365.9-4.7,364.6-3.4,363-3.4L363-3.4z M363-3.4"/>
		<path id="XMLID_495_" class="st14" d="M356.7-95.4h-7c5.1,0,9.2,4.1,9.2,9.2v82.9h4.1c1.6,0,2.9-1.3,2.9-2.9v-79.9
			C365.9-91.3,361.7-95.4,356.7-95.4L356.7-95.4z M356.7-95.4"/>
		<path id="XMLID_468_" class="st13" d="M325-95.4h-5.8c-5.1,0-9.2,4.1-9.2,9.2v79.9c0,1.6,1.3,2.9,2.9,2.9h2.9v-82.9
			C315.9-91.3,320-95.4,325-95.4L325-95.4z M325-95.4"/>
		<path id="XMLID_458_" class="st15" d="M310.1-48.4c-0.6,0-1.1-0.5-1.1-1.1v-5.7c0-0.6,0.5-1.1,1.1-1.1c0.6,0,1.1,0.5,1.1,1.1v5.7
			C311.3-48.9,310.7-48.4,310.1-48.4L310.1-48.4z M310.1-48.4"/>
		<path id="XMLID_452_" class="st17" d="M353-3.3h-9.3c-0.8,0-1.4-0.6-1.4-1.4v-13.2c0-0.8,0.6-1.4,1.4-1.4h9.3
			c0.8,0,1.4,0.6,1.4,1.4v13.2C354.4-3.9,353.8-3.3,353-3.3L353-3.3z M332.3-3.3H323c-0.8,0-1.4-0.6-1.4-1.4v-13.2
			c0-0.8,0.6-1.4,1.4-1.4h9.3c0.8,0,1.4,0.6,1.4,1.4v13.2C333.7-3.9,333.1-3.3,332.3-3.3L332.3-3.3z M332.3-3.3"/>
		<path id="XMLID_449_" class="st15" d="M363-2.3H313c-2.2,0-4-1.8-4-4v-37.5c0-0.6,0.5-1.1,1.1-1.1c0.6,0,1.1,0.5,1.1,1.1v37.5
			c0,1,0.8,1.8,1.8,1.8h50c1,0,1.8-0.8,1.8-1.8v-79.9c0-4.5-3.6-8-8-8h-37.5c-4.5,0-8,3.6-8,8v23.1c0,0.6-0.5,1.1-1.1,1.1
			c-0.6,0-1.1-0.5-1.1-1.1v-23.1c0-5.6,4.6-10.2,10.2-10.2h37.5c5.6,0,10.2,4.6,10.2,10.2v79.9C367-4.1,365.2-2.3,363-2.3L363-2.3z
			 M363-2.3"/>
		<path id="XMLID_445_" class="st14" d="M332.6-68.3h-8.7c-0.7,0-1.3-0.6-1.3-1.3v-8.7c0-0.7,0.6-1.3,1.3-1.3h8.6
			c0.7,0,1.3,0.6,1.3,1.3v8.6C333.9-68.9,333.3-68.3,332.6-68.3L332.6-68.3z M352-68.3h-8.6c-0.7,0-1.3-0.6-1.3-1.3v-8.7
			c0-0.7,0.6-1.3,1.3-1.3h8.6c0.7,0,1.3,0.6,1.3,1.3v8.6C353.3-68.9,352.7-68.3,352-68.3L352-68.3z M352-68.3"/>
		<path id="XMLID_442_" class="st14" d="M332.6-48.4h-8.7c-0.7,0-1.3-0.6-1.3-1.3v-8.7c0-0.7,0.6-1.3,1.3-1.3h8.6
			c0.7,0,1.3,0.6,1.3,1.3v8.6C333.9-49,333.3-48.4,332.6-48.4L332.6-48.4z M332.6-48.4"/>
		<path id="XMLID_439_" class="st0" d="M352-48.4h-8.6c-0.7,0-1.3-0.6-1.3-1.3v-8.7c0-0.7,0.6-1.3,1.3-1.3h8.6
			c0.7,0,1.3,0.6,1.3,1.3v8.6C353.3-49,352.7-48.4,352-48.4L352-48.4z M352-48.4"/>
		<path id="XMLID_435_" class="st14" d="M332.6-28.4h-8.7c-0.7,0-1.3-0.6-1.3-1.3v-8.6c0-0.7,0.6-1.3,1.3-1.3h8.6
			c0.7,0,1.3,0.6,1.3,1.3v8.6C333.9-29.1,333.3-28.4,332.6-28.4L332.6-28.4z M352-28.4h-8.6c-0.7,0-1.3-0.6-1.3-1.3v-8.6
			c0-0.7,0.6-1.3,1.3-1.3h8.6c0.7,0,1.3,0.6,1.3,1.3v8.6C353.3-29.1,352.7-28.4,352-28.4L352-28.4z M352-28.4"/>
		<path id="XMLID_432_" class="st15" d="M385-0.9h-91.5c-1.3,0-2.4-1.1-2.4-2.4c0-1.3,1.1-2.4,2.4-2.4H385c1.3,0,2.4,1.1,2.4,2.4
			C387.3-2,386.3-0.9,385-0.9L385-0.9z M385-0.9"/>
	</g>
	<line id="XMLID_633_" class="st4" x1="389.1" y1="-34.5" x2="677.1" y2="-34.5"/>
	<g id="XMLID_245_">
		<path id="XMLID_717_" class="st12" d="M776.6,3.1h-96.8c-4.6,0-8.4-3.8-8.4-8.4v0c0-4.6,3.8-8.4,8.4-8.4h96.8
			c4.6,0,8.4,3.8,8.4,8.4v0C785.1-0.7,781.3,3.1,776.6,3.1z"/>
		<g id="XMLID_18_">
			<path id="XMLID_83_" class="st18" d="M732.2-94.4c-2-1.6-4.8-1.6-6.8,0l-24.2,19.7h7.2l24-19.6L732.2-94.4z"/>
			<path id="XMLID_1123_" class="st19" d="M699.3-70.5c-4.3,0-7.7,3.5-7.7,7.7v5c0,1.6,0.5,3.1,1.3,4.3c0.7,0.2,1.5,0.4,2.4,0.4
				h66.6c4.3,0,7.7-3.5,7.7-7.7v-5c0-1.6-0.5-3.1-1.3-4.3c-0.7-0.2-1.5-0.4-2.4-0.4H699.3z"/>
			<path id="XMLID_1120_" class="st4" d="M728.8-74.5h33.3c4.3,0,7.7,3.5,7.7,7.7v5c0,4.3-3.5,7.7-7.7,7.7h-66.6
				c-4.3,0-7.7-3.5-7.7-7.7v-5c0-4.3,3.5-7.7,7.7-7.7h22.6"/>
			<line id="XMLID_718_" class="st4" x1="721.5" y1="-74.5" x2="724.8" y2="-74.5"/>
			<path id="XMLID_797_" class="st20" d="M719.3-12.7l0-17.4c0-4.3,3.5-7.7,7.7-7.7l5,0c4.3,0,7.7,3.5,7.7,7.7v17.4"/>
			<path id="XMLID_787_" class="st4" d="M774.2-0.5h-89.7c-1.6,0-2.8-1.3-2.8-2.8v-4.4c0-1.6,1.3-2.8,2.8-2.8h89.7
				c1.6,0,2.8,1.3,2.8,2.8v4.4C777-1.8,775.7-0.5,774.2-0.5z"/>
			<path id="XMLID_788_" class="st21" d="M764.3-10.9h-70.9c-1,0-1.7-0.8-1.7-1.7v-2.2c0-1,0.8-1.7,1.7-1.7h70.9
				c1,0,1.7,0.8,1.7,1.7v2.2C766-11.7,765.2-10.9,764.3-10.9z"/>
			<path id="XMLID_719_" class="st4" d="M701.2-74.6l24.2-19.7c2-1.6,4.8-1.6,6.8,0l24.2,19.7"/>
			<g id="XMLID_785_">
				<line id="XMLID_720_" class="st4" x1="695.5" y1="-54" x2="695.5" y2="-17.4"/>
				<line id="XMLID_722_" class="st4" x1="702.2" y1="-42.1" x2="702.2" y2="-17.4"/>
				<line id="XMLID_793_" class="st4" x1="702.2" y1="-49.9" x2="702.2" y2="-46.5"/>
				<line id="XMLID_723_" class="st4" x1="708.9" y1="-54" x2="708.9" y2="-17.4"/>
			</g>
			<g id="XMLID_721_">
				<line id="XMLID_726_" class="st4" x1="749.6" y1="-46.5" x2="749.6" y2="-17.4"/>
				<line id="XMLID_794_" class="st4" x1="749.6" y1="-50.9" x2="749.6" y2="-49.1"/>
				<line id="XMLID_725_" class="st4" x1="756.3" y1="-54" x2="756.3" y2="-17.4"/>
				<line id="XMLID_724_" class="st4" x1="763" y1="-53.3" x2="763" y2="-29.7"/>
				<line id="XMLID_795_" class="st4" x1="763" y1="-26.1" x2="763" y2="-19.4"/>
			</g>
		</g>
	</g>
	<g id="XMLID_583_">
		<g>
			<polyline class="st22" points="793.9,-43.5 793.9,-42 792.8,-41 			"/>
			<path class="st23" d="M790.4-39.2l-6.3,5c-0.9,0.7,0.1,1.7,1.4,1.5l5.4-0.9"/>
			<polyline class="st22" points="792.4,-33.7 793.9,-34 793.9,-32.5 			"/>
			<path class="st24" d="M793.9-29.5v26.9c0,5.1,6.4,9,14.2,9h87.7c7.8,0,14.2-3.9,14.2-9v-44.7c0-5.1-6.4-9.3-14.2-9.3h-87.7
				c-7.8,0-14.2,4.2-14.2,9.3v2.2"/>
		</g>
	</g>
	<polyline id="XMLID_246_" class="st4" points="731.1,5.5 731.1,108.2 649.7,108.2 	"/>
	<polyline id="XMLID_1528_" class="st4" points="332.5,15.5 332.5,108.2 387.9,108.2 	"/>
	<g id="XMLID_592_">
		<g id="XMLID_586_">
			<path id="XMLID_585_" class="st25" d="M720.4,29.6h43.5c4.9,0,8.8,4,8.8,8.8v25.7c0,4.9-4,8.8-8.8,8.8h-59.4
				c-4.9,0-8.8-4-8.8-8.8V41.1c0-6.3,5.2-11.5,11.5-11.5"/>
			<line id="XMLID_428_" class="st25" x1="712.1" y1="29.6" x2="715.4" y2="29.6"/>
		</g>
		<path id="XMLID_584_" class="st3" d="M760.8,69.5h-53.1c-4.4,0-8-3.6-8-8V41.2c0-4.4,3.6-8,8-8h53.1c4.4,0,8,3.6,8,8v20.3
			C768.8,65.9,765.2,69.5,760.8,69.5z"/>
	</g>
	<path id="XMLID_247_" class="st0" d="M328.6,13.6l3-5.2c0.5-0.9,1.7-0.9,2.2,0l3,5.2c0.5,0.9-0.1,1.9-1.1,1.9h-6
		C328.8,15.5,328.1,14.4,328.6,13.6z"/>
	<path id="XMLID_2_" class="st0" d="M675.8-38.6l5.2,3c0.9,0.5,0.9,1.7,0,2.2l-5.2,3c-0.9,0.5-1.9-0.1-1.9-1.1v-6
		C673.9-38.5,675-39.1,675.8-38.6z"/>
	<path id="XMLID_4_" class="st0" d="M653.4,112.6l-5.2-3c-0.9-0.5-0.9-1.7,0-2.2l5.2-3c0.9-0.5,1.9,0.1,1.9,1.1v6
		C655.3,112.5,654.2,113.1,653.4,112.6z"/>
	<g>
		<path class="st26" d="M311.6-103.7c-0.7,1.3-2,2.1-3.5,2.1c-1.1,0-2-0.4-2.8-1.2c-0.8-0.8-1.2-1.7-1.2-2.8c0-1.1,0.4-2.1,1.2-2.8
			c0.8-0.7,1.7-1.1,2.8-1.1c0.8,0,1.5,0.2,2.1,0.6c0.6,0.4,1.1,0.9,1.4,1.5h-0.9c-0.6-0.9-1.5-1.4-2.7-1.4c-0.8,0-1.6,0.3-2.2,0.9
			c-0.6,0.6-0.9,1.3-1,2.2c0,0.9,0.3,1.7,0.9,2.3c0.6,0.6,1.4,1,2.3,1c0.5,0,1-0.1,1.5-0.4c0.5-0.3,0.8-0.6,1.1-1H311.6z"/>
		<path class="st26" d="M317.5-103.6c-0.2,0.6-0.6,1.1-1.1,1.5s-1.1,0.5-1.7,0.5c-0.8,0-1.5-0.3-2.1-0.8c-0.6-0.6-0.9-1.3-0.9-2.1
			c0-0.8,0.3-1.6,0.9-2.2c0.6-0.6,1.4-0.9,2.2-0.9c0.8,0.1,1.4,0.4,2,0.9c0.5,0.6,0.8,1.2,0.8,1.9v0.4h-5.1c0.1,0.6,0.3,1,0.7,1.4
			c0.4,0.4,0.9,0.6,1.5,0.5c0.9,0,1.5-0.4,1.9-1.2H317.5z M316.9-105c-0.1-0.5-0.4-1-0.8-1.3c-0.4-0.3-0.9-0.5-1.4-0.5
			c-0.5,0-1,0.2-1.4,0.5c-0.4,0.3-0.7,0.8-0.8,1.3H316.9z"/>
		<path class="st26" d="M319-101.7h-0.8v-5.7h0.7v0.8c0.2-0.3,0.4-0.5,0.7-0.7c0.3-0.1,0.6-0.2,0.9-0.2v0.8c-0.4,0-0.6,0.1-0.9,0.3
			s-0.4,0.3-0.4,0.5c-0.1,0.2-0.2,0.5-0.2,0.9V-101.7z"/>
		<path class="st26" d="M323.2-101.6c-1.4,0-2.1-0.6-2.1-1.8v-6h0.8v2h1.3v0.7h-1.3v3.2c0,0.8,0.4,1.3,1.3,1.3V-101.6z"/>
		<path class="st26" d="M324.6-108.1h-0.8v-1.3h0.8V-108.1z M324.6-101.7h-0.8v-5.7h0.8V-101.7z"/>
		<path class="st26" d="M326.2-101.7h-0.8v-5.8c0-1.2,0.8-1.9,2-1.9h0.2v0.7l-0.2,0c-0.4,0-0.7,0.1-0.8,0.3
			c-0.2,0.3-0.4,0.5-0.4,0.8v0.2h1.4v0.7h-1.4V-101.7z"/>
		<path class="st26" d="M329-108.1h-0.8v-1.3h0.8V-108.1z M329-101.7h-0.8v-5.7h0.8V-101.7z"/>
		<path class="st26" d="M335.6-103.6c-0.2,0.6-0.6,1.1-1.1,1.5s-1.1,0.5-1.7,0.5c-0.8,0-1.5-0.3-2.1-0.8c-0.6-0.6-0.9-1.3-0.9-2.1
			c0-0.8,0.3-1.6,0.9-2.2c0.6-0.6,1.4-0.9,2.2-0.9c0.8,0.1,1.4,0.4,2,0.9c0.5,0.6,0.8,1.2,0.8,1.9v0.4h-5.1c0.1,0.6,0.3,1,0.7,1.4
			c0.4,0.4,0.9,0.6,1.5,0.5c0.9,0,1.5-0.4,1.9-1.2H335.6z M335-105c-0.1-0.5-0.4-1-0.8-1.3c-0.4-0.3-0.9-0.5-1.4-0.5
			c-0.5,0-1,0.2-1.4,0.5c-0.4,0.3-0.7,0.8-0.8,1.3H335z"/>
		<path class="st26" d="M342.4-104.5c0,0.8-0.3,1.5-0.9,2.1c-0.6,0.6-1.3,0.9-2.1,0.8c-0.8,0-1.5-0.3-2-0.9
			c-0.5-0.6-0.8-1.3-0.8-2.1c0-0.8,0.3-1.5,0.9-2.1c0.6-0.6,1.3-0.9,2.1-0.9c0.8,0,1.5,0.4,2.1,1v-2.9h0.8V-104.5z M339.4-102.3
			c0.6,0,1.2-0.2,1.6-0.6c0.4-0.5,0.7-1,0.6-1.6c0-0.6-0.2-1.1-0.6-1.5c-0.4-0.4-0.9-0.6-1.5-0.6c-0.6,0-1.1,0.2-1.5,0.6
			s-0.6,0.9-0.7,1.5c0,0.6,0.2,1.1,0.6,1.6C338.3-102.5,338.8-102.3,339.4-102.3z"/>
		<path class="st26" d="M349-101.7h-0.8v-7.7h0.8V-101.7z"/>
		<path class="st26" d="M350.7-103.2c0,0.2,0.1,0.4,0.3,0.6s0.4,0.3,0.7,0.3c0.3,0,0.6-0.1,0.8-0.3c0.2-0.2,0.2-0.4,0.3-0.7
			c0-0.5-0.3-0.8-0.8-1l-0.7-0.2c-0.7-0.2-1.1-0.7-1.1-1.4c0-0.4,0.1-0.8,0.4-1.1c0.3-0.3,0.7-0.5,1.1-0.5c0.4,0,0.8,0.1,1.1,0.4
			c0.3,0.3,0.5,0.6,0.5,1l0,0.2h-0.8v-0.1c0-0.4-0.4-0.7-0.8-0.7c-0.4,0-0.8,0.3-0.8,0.8c0,0.4,0.2,0.7,0.7,0.9l0.7,0.2
			c0.8,0.3,1.2,0.8,1.2,1.5c0,0.5-0.1,1-0.5,1.3c-0.4,0.4-0.9,0.5-1.4,0.5c-0.5,0-0.9-0.2-1.2-0.6c-0.3-0.3-0.5-0.8-0.5-1.3h0.8
			V-103.2z"/>
		<path class="st26" d="M355-103.2c0,0.2,0.1,0.4,0.3,0.6s0.4,0.3,0.7,0.3c0.3,0,0.6-0.1,0.8-0.3c0.2-0.2,0.2-0.4,0.3-0.7
			c0-0.5-0.3-0.8-0.8-1l-0.7-0.2c-0.7-0.2-1.1-0.7-1.1-1.4c0-0.4,0.1-0.8,0.4-1.1c0.3-0.3,0.7-0.5,1.1-0.5c0.4,0,0.8,0.1,1.1,0.4
			c0.3,0.3,0.5,0.6,0.5,1l0,0.2h-0.8v-0.1c0-0.4-0.4-0.7-0.8-0.7c-0.4,0-0.8,0.3-0.8,0.8c0,0.4,0.2,0.7,0.7,0.9l0.7,0.2
			c0.8,0.3,1.2,0.8,1.2,1.5c0,0.5-0.1,1-0.5,1.3c-0.4,0.4-0.9,0.5-1.4,0.5c-0.5,0-0.9-0.2-1.2-0.6c-0.3-0.3-0.5-0.8-0.5-1.3h0.8
			V-103.2z"/>
		<path class="st26" d="M363.6-104.1c0,0.7-0.2,1.4-0.7,1.8c-0.5,0.5-1.1,0.7-1.8,0.7s-1.3-0.2-1.8-0.7c-0.5-0.5-0.7-1.1-0.7-1.8
			v-3.2h0.8v3.3c0,0.5,0.2,0.9,0.5,1.2c0.3,0.3,0.8,0.5,1.2,0.5s0.9-0.2,1.2-0.5c0.3-0.4,0.5-0.8,0.5-1.2v-3.3h0.8V-104.1z"/>
		<path class="st26" d="M370.2-103.6c-0.2,0.6-0.6,1.1-1.1,1.5s-1.1,0.5-1.7,0.5c-0.8,0-1.5-0.3-2.1-0.8c-0.6-0.6-0.9-1.3-0.9-2.1
			c0-0.8,0.3-1.6,0.9-2.2c0.6-0.6,1.4-0.9,2.2-0.9c0.8,0.1,1.4,0.4,2,0.9c0.5,0.6,0.8,1.2,0.8,1.9v0.4h-5.1c0.1,0.6,0.3,1,0.7,1.4
			c0.4,0.4,0.9,0.6,1.5,0.5c0.9,0,1.5-0.4,1.9-1.2H370.2z M369.6-105c-0.1-0.5-0.4-1-0.8-1.3c-0.4-0.3-0.9-0.5-1.4-0.5
			c-0.5,0-1,0.2-1.4,0.5c-0.4,0.3-0.7,0.8-0.8,1.3H369.6z"/>
		<path class="st26" d="M371.8-101.7H371v-5.7h0.7v0.8c0.2-0.3,0.4-0.5,0.7-0.7c0.3-0.1,0.6-0.2,0.9-0.2v0.8c-0.4,0-0.6,0.1-0.9,0.3
			s-0.4,0.3-0.4,0.5c-0.1,0.2-0.2,0.5-0.2,0.9V-101.7z"/>
	</g>
	<g>
		<path class="st26" d="M700.9-101.7h-0.8l-3.2-7.7h0.8l2.7,6.8l2.7-6.8h0.8L700.9-101.7z"/>
		<path class="st26" d="M710.4-101.7h-0.7v-0.9c-0.6,0.7-1.4,1-2.3,1c-0.8,0-1.5-0.3-2-0.9c-0.5-0.6-0.8-1.3-0.8-2.1
			c0-0.8,0.3-1.5,0.9-2.1c0.6-0.6,1.3-0.9,2.1-0.8c0.8,0,1.5,0.3,2,0.9c0.6,0.6,0.8,1.3,0.8,2.1v0V-101.7z M705.3-104.6
			c0,0.6,0.2,1.1,0.6,1.6c0.4,0.4,0.9,0.7,1.5,0.7c0.6,0,1.2-0.2,1.6-0.6c0.5-0.5,0.7-1,0.6-1.6c0-0.6-0.2-1.1-0.6-1.5
			c-0.4-0.4-0.9-0.6-1.5-0.6c-0.6,0-1.1,0.2-1.5,0.6S705.3-105.2,705.3-104.6z"/>
		<path class="st26" d="M716.2-104.1c0,0.7-0.2,1.4-0.7,1.8c-0.5,0.5-1.1,0.7-1.8,0.7s-1.3-0.2-1.8-0.7c-0.5-0.5-0.7-1.1-0.7-1.8
			v-3.2h0.8v3.3c0,0.5,0.2,0.9,0.5,1.2c0.3,0.3,0.8,0.5,1.2,0.5s0.9-0.2,1.2-0.5c0.3-0.4,0.5-0.8,0.5-1.2v-3.3h0.8V-104.1z"/>
		<path class="st26" d="M717.9-101.7h-0.8v-7.7h0.8V-101.7z"/>
		<path class="st26" d="M720.8-101.6c-1.4,0-2.1-0.6-2.1-1.8v-6h0.8v2h1.3v0.7h-1.3v3.2c0,0.8,0.4,1.3,1.3,1.3V-101.6z"/>
		<path class="st26" d="M727.3-101.7h-0.8v-7.7h2.5c0.8,0,1.4,0.2,1.9,0.7c0.5,0.4,0.8,1,0.7,1.7c0,0.6-0.2,1.1-0.7,1.6
			c-0.5,0.4-1,0.6-1.7,0.6h-1.9V-101.7z M729-105.5c0.5,0,0.9-0.1,1.2-0.5c0.4-0.3,0.5-0.7,0.5-1.2c0-0.4-0.2-0.8-0.6-1.1
			c-0.3-0.3-0.8-0.4-1.2-0.4h-1.7v3.2H729z"/>
		<path class="st26" d="M737.9-101.7h-0.7v-0.9c-0.6,0.7-1.4,1-2.3,1c-0.8,0-1.5-0.3-2-0.9c-0.5-0.6-0.8-1.3-0.8-2.1
			c0-0.8,0.3-1.5,0.9-2.1c0.6-0.6,1.3-0.9,2.1-0.8c0.8,0,1.5,0.3,2,0.9c0.6,0.6,0.8,1.3,0.8,2.1v0V-101.7z M732.8-104.6
			c0,0.6,0.2,1.1,0.6,1.6c0.4,0.4,0.9,0.7,1.5,0.7c0.6,0,1.2-0.2,1.6-0.6c0.5-0.5,0.7-1,0.6-1.6c0-0.6-0.2-1.1-0.6-1.5
			c-0.4-0.4-0.9-0.6-1.5-0.6c-0.6,0-1.1,0.2-1.5,0.6S732.8-105.2,732.8-104.6z"/>
		<path class="st26" d="M739.4-101.7h-0.8v-5.7h0.7v0.8c0.2-0.3,0.4-0.5,0.7-0.7c0.3-0.1,0.6-0.2,0.9-0.2v0.8
			c-0.4,0-0.6,0.1-0.9,0.3s-0.4,0.3-0.4,0.5c-0.1,0.2-0.2,0.5-0.2,0.9V-101.7z"/>
		<path class="st26" d="M743.6-101.6c-1.4,0-2.1-0.6-2.1-1.8v-6h0.8v2h1.3v0.7h-1.3v3.2c0,0.8,0.4,1.3,1.3,1.3V-101.6z"/>
		<path class="st26" d="M749.3-101.7h-0.8v-3.3c0-0.5-0.2-0.9-0.5-1.2c-0.3-0.4-0.7-0.5-1.2-0.5s-0.9,0.2-1.2,0.5
			c-0.3,0.3-0.5,0.8-0.5,1.2v3.3h-0.8v-3.2c0-0.7,0.2-1.3,0.7-1.8c0.5-0.5,1.1-0.7,1.8-0.7c0.7,0,1.3,0.2,1.8,0.7
			c0.5,0.5,0.7,1.1,0.7,1.8V-101.7z"/>
		<path class="st26" d="M755.8-103.6c-0.2,0.6-0.6,1.1-1.1,1.5s-1.1,0.5-1.7,0.5c-0.8,0-1.5-0.3-2.1-0.8c-0.6-0.6-0.9-1.3-0.9-2.1
			c0-0.8,0.3-1.6,0.9-2.2c0.6-0.6,1.4-0.9,2.2-0.9c0.8,0.1,1.4,0.4,2,0.9c0.5,0.6,0.8,1.2,0.8,1.9v0.4h-5.1c0.1,0.6,0.3,1,0.7,1.4
			c0.4,0.4,0.9,0.6,1.5,0.5c0.9,0,1.5-0.4,1.9-1.2H755.8z M755.2-105c-0.1-0.5-0.4-1-0.8-1.3c-0.4-0.3-0.9-0.5-1.4-0.5
			c-0.5,0-1,0.2-1.4,0.5c-0.4,0.3-0.7,0.8-0.8,1.3H755.2z"/>
		<path class="st26" d="M757.4-101.7h-0.8v-5.7h0.7v0.8c0.2-0.3,0.4-0.5,0.7-0.7c0.3-0.1,0.6-0.2,0.9-0.2v0.8
			c-0.3,0-0.6,0.1-0.9,0.3c-0.2,0.2-0.4,0.3-0.4,0.5c-0.1,0.2-0.2,0.5-0.2,0.9V-101.7z"/>
	</g>
	<g>
		<path class="st26" d="M810.5-40.9c0,0.4,0.1,0.8,0.4,1.1c0.3,0.3,0.6,0.5,1.1,0.5c0.4,0,0.8-0.1,1.1-0.4s0.5-0.7,0.4-1.1
			c0-0.7-0.5-1.2-1.4-1.5l-0.8-0.2c-0.9-0.3-1.4-1-1.4-1.9c0-0.6,0.2-1,0.6-1.4c0.4-0.4,0.9-0.6,1.5-0.6c0.6,0,1.1,0.2,1.5,0.6
			c0.4,0.4,0.6,0.9,0.6,1.5h-0.8c0-0.4-0.1-0.7-0.4-0.9c-0.2-0.3-0.5-0.4-0.9-0.4c-0.4,0-0.7,0.1-1,0.4c-0.3,0.3-0.4,0.6-0.4,0.9
			c0,0.6,0.3,1,0.9,1.2l0.9,0.3c1.2,0.4,1.8,1.1,1.8,2.2c0,0.6-0.2,1.2-0.7,1.6c-0.4,0.4-1,0.7-1.6,0.7s-1.2-0.2-1.6-0.7
			c-0.5-0.4-0.7-1-0.7-1.6H810.5z"/>
		<path class="st26" d="M820.8-38.7H820v-0.9c-0.6,0.7-1.4,1-2.3,1c-0.8,0-1.5-0.3-2-0.9c-0.5-0.6-0.8-1.3-0.8-2.1
			c0-0.8,0.3-1.5,0.9-2.1c0.6-0.6,1.3-0.9,2.1-0.8c0.8,0,1.5,0.3,2,0.9c0.6,0.6,0.8,1.3,0.8,2.1v0V-38.7z M815.7-41.6
			c0,0.6,0.2,1.1,0.6,1.6c0.4,0.4,0.9,0.7,1.5,0.7c0.6,0,1.2-0.2,1.6-0.6c0.5-0.5,0.7-1,0.6-1.6c0-0.6-0.2-1.1-0.6-1.5
			c-0.4-0.4-0.9-0.6-1.5-0.6c-0.6,0-1.1,0.2-1.5,0.6S815.7-42.2,815.7-41.6z"/>
		<path class="st26" d="M822.3-38.7h-0.8v-5.8c0-1.2,0.8-1.9,2-1.9h0.2v0.7l-0.2,0c-0.4,0-0.7,0.1-0.8,0.3c-0.2,0.3-0.4,0.5-0.4,0.8
			v0.2h1.4v0.7h-1.4V-38.7z"/>
		<path class="st26" d="M830.2-40.6c-0.2,0.6-0.6,1.1-1.1,1.5s-1.1,0.5-1.7,0.5c-0.8,0-1.5-0.3-2.1-0.8c-0.6-0.6-0.9-1.3-0.9-2.1
			c0-0.8,0.3-1.6,0.9-2.2c0.6-0.6,1.4-0.9,2.2-0.9c0.8,0.1,1.4,0.4,2,0.9c0.5,0.6,0.8,1.2,0.8,1.9v0.4h-5.1c0.1,0.6,0.3,1,0.7,1.4
			c0.4,0.4,0.9,0.6,1.5,0.5c0.9,0,1.5-0.4,1.9-1.2H830.2z M829.5-42c-0.1-0.5-0.4-1-0.8-1.3c-0.4-0.3-0.9-0.5-1.4-0.5
			c-0.5,0-1,0.2-1.4,0.5c-0.4,0.3-0.7,0.8-0.8,1.3H829.5z"/>
		<path class="st26" d="M831.7-38.7H831v-7.7h0.8V-38.7z"/>
		<path class="st26" d="M834.7-36.7h-0.8l0.9-2.2l-2.2-5.5h0.8l1.8,4.5l1.9-4.5h0.8L834.7-36.7z"/>
		<path class="st26" d="M844.4-40.9c0,0.4,0.1,0.8,0.4,1.1c0.3,0.3,0.6,0.5,1.1,0.5c0.4,0,0.8-0.1,1.1-0.4s0.5-0.7,0.4-1.1
			c0-0.7-0.5-1.2-1.4-1.5l-0.8-0.2c-0.9-0.3-1.4-1-1.4-1.9c0-0.6,0.2-1,0.6-1.4c0.4-0.4,0.9-0.6,1.5-0.6c0.6,0,1.1,0.2,1.5,0.6
			c0.4,0.4,0.6,0.9,0.6,1.5h-0.8c0-0.4-0.1-0.7-0.4-0.9c-0.2-0.3-0.5-0.4-0.9-0.4c-0.4,0-0.7,0.1-1,0.4c-0.3,0.3-0.4,0.6-0.4,0.9
			c0,0.6,0.3,1,0.9,1.2l0.9,0.3c1.2,0.4,1.8,1.1,1.8,2.2c0,0.6-0.2,1.2-0.7,1.6c-0.4,0.4-1,0.7-1.6,0.7s-1.2-0.2-1.6-0.7
			c-0.5-0.4-0.7-1-0.7-1.6H844.4z"/>
		<path class="st26" d="M850.9-38.6c-1.4,0-2.1-0.6-2.1-1.8v-6h0.8v2h1.3v0.7h-1.3v3.2c0,0.8,0.4,1.3,1.3,1.3V-38.6z"/>
		<path class="st26" d="M856.6-39.4c-0.6,0.6-1.3,0.9-2.1,0.8c-0.8,0-1.5-0.3-2-0.9s-0.8-1.3-0.8-2.1c0-0.8,0.3-1.5,0.9-2.1
			c0.6-0.6,1.3-0.9,2.1-0.9c0.8,0,1.5,0.3,2,0.9c0.5,0.6,0.8,1.3,0.8,2.1C857.5-40.7,857.2-40,856.6-39.4z M854.4-39.3
			c0.6,0,1.2-0.2,1.6-0.6c0.5-0.5,0.7-1,0.7-1.6c0-0.6-0.2-1.1-0.7-1.5c-0.4-0.4-0.9-0.6-1.5-0.6c-0.6,0-1.1,0.2-1.5,0.6
			c-0.4,0.4-0.6,0.9-0.6,1.5c0,0.6,0.2,1.1,0.6,1.6C853.4-39.6,853.9-39.3,854.4-39.3z"/>
		<path class="st26" d="M859-38.7h-0.8v-5.7h0.7v0.8c0.2-0.3,0.4-0.5,0.7-0.7c0.3-0.1,0.6-0.2,0.9-0.2v0.8c-0.4,0-0.6,0.1-0.9,0.3
			s-0.4,0.3-0.4,0.5c-0.1,0.2-0.2,0.5-0.2,0.9V-38.7z"/>
		<path class="st26" d="M866.8-40.6c-0.2,0.6-0.6,1.1-1.1,1.5s-1.1,0.5-1.7,0.5c-0.8,0-1.5-0.3-2.1-0.8c-0.6-0.6-0.9-1.3-0.9-2.1
			c0-0.8,0.3-1.6,0.9-2.2c0.6-0.6,1.4-0.9,2.2-0.9c0.8,0.1,1.4,0.4,2,0.9c0.5,0.6,0.8,1.2,0.8,1.9v0.4h-5.1c0.1,0.6,0.3,1,0.7,1.4
			c0.4,0.4,0.9,0.6,1.5,0.5c0.9,0,1.5-0.4,1.9-1.2H866.8z M866.2-42c-0.1-0.5-0.4-1-0.8-1.3c-0.4-0.3-0.9-0.5-1.4-0.5
			c-0.5,0-1,0.2-1.4,0.5c-0.4,0.3-0.7,0.8-0.8,1.3H866.2z"/>
		<path class="st26" d="M873.6-41.5c0,0.8-0.3,1.5-0.9,2.1c-0.6,0.6-1.3,0.9-2.1,0.8c-0.8,0-1.5-0.3-2-0.9c-0.5-0.6-0.8-1.3-0.8-2.1
			c0-0.8,0.3-1.5,0.9-2.1c0.6-0.6,1.3-0.9,2.1-0.9c0.8,0,1.5,0.4,2.1,1v-2.9h0.8V-41.5z M870.6-39.3c0.6,0,1.2-0.2,1.6-0.6
			c0.4-0.5,0.7-1,0.6-1.6c0-0.6-0.2-1.1-0.6-1.5c-0.4-0.4-0.9-0.6-1.5-0.6c-0.6,0-1.1,0.2-1.5,0.6s-0.6,0.9-0.7,1.5
			c0,0.6,0.2,1.1,0.6,1.6C869.5-39.5,870-39.3,870.6-39.3z"/>
		<path class="st26" d="M885.3-38.7h-0.7v-0.9c-0.6,0.7-1.4,1-2.3,1c-0.8,0-1.5-0.3-2-0.9c-0.5-0.6-0.8-1.3-0.8-2.1
			c0-0.8,0.3-1.5,0.9-2.1c0.6-0.6,1.3-0.9,2.1-0.8c0.8,0,1.5,0.3,2,0.9c0.6,0.6,0.8,1.3,0.8,2.1v0V-38.7z M880.2-41.6
			c0,0.6,0.2,1.1,0.6,1.6c0.4,0.4,0.9,0.7,1.5,0.7c0.6,0,1.2-0.2,1.6-0.6c0.5-0.5,0.7-1,0.6-1.6c0-0.6-0.2-1.1-0.6-1.5
			c-0.4-0.4-0.9-0.6-1.5-0.6c-0.6,0-1.1,0.2-1.5,0.6S880.2-42.2,880.2-41.6z"/>
		<path class="st26" d="M891.1-38.7h-0.8V-42c0-0.5-0.2-0.9-0.5-1.2c-0.3-0.4-0.7-0.5-1.2-0.5s-0.9,0.2-1.2,0.5
			c-0.3,0.3-0.5,0.8-0.5,1.2v3.3H886v-3.2c0-0.7,0.2-1.3,0.7-1.8c0.5-0.5,1.1-0.7,1.8-0.7c0.7,0,1.3,0.2,1.8,0.7
			c0.5,0.5,0.7,1.1,0.7,1.8V-38.7z"/>
		<path class="st26" d="M897.9-41.5c0,0.8-0.3,1.5-0.9,2.1c-0.6,0.6-1.3,0.9-2.1,0.8c-0.8,0-1.5-0.3-2-0.9c-0.5-0.6-0.8-1.3-0.8-2.1
			c0-0.8,0.3-1.5,0.9-2.1c0.6-0.6,1.3-0.9,2.1-0.9c0.8,0,1.5,0.4,2.1,1v-2.9h0.8V-41.5z M894.9-39.3c0.6,0,1.2-0.2,1.6-0.6
			c0.4-0.5,0.7-1,0.6-1.6c0-0.6-0.2-1.1-0.6-1.5c-0.4-0.4-0.9-0.6-1.5-0.6c-0.6,0-1.1,0.2-1.5,0.6s-0.6,0.9-0.7,1.5
			c0,0.6,0.2,1.1,0.6,1.6C893.8-39.5,894.3-39.3,894.9-39.3z"/>
		<path class="st26" d="M814.7-26.7h-0.9l-2.6-3.5h0.7c0.7,0,1.2-0.2,1.6-0.5c0.4-0.4,0.6-0.8,0.5-1.3c0-0.5-0.2-0.9-0.5-1.2
			c-0.4-0.3-0.8-0.5-1.4-0.5h-1.7v7h-0.8v-7.7h2.5c0.8,0,1.5,0.2,2,0.7c0.5,0.5,0.8,1.1,0.7,1.8c0,0.6-0.2,1.1-0.6,1.6
			c-0.4,0.4-0.9,0.7-1.5,0.7l-0.2,0L814.7-26.7z"/>
		<path class="st26" d="M821.4-28.6c-0.2,0.6-0.6,1.1-1.1,1.5s-1.1,0.5-1.7,0.5c-0.8,0-1.5-0.3-2.1-0.8c-0.6-0.6-0.9-1.3-0.9-2.1
			c0-0.8,0.3-1.6,0.9-2.2c0.6-0.6,1.4-0.9,2.2-0.9c0.8,0.1,1.4,0.4,2,0.9c0.5,0.6,0.8,1.2,0.8,1.9v0.4h-5.1c0.1,0.6,0.3,1,0.7,1.4
			c0.4,0.4,0.9,0.6,1.5,0.5c0.9,0,1.5-0.4,1.9-1.2H821.4z M820.8-30c-0.1-0.5-0.4-1-0.8-1.3c-0.4-0.3-0.9-0.5-1.4-0.5
			c-0.5,0-1,0.2-1.4,0.5c-0.4,0.3-0.7,0.8-0.8,1.3H820.8z"/>
		<path class="st26" d="M828.1-26.7h-0.7v-0.9c-0.6,0.7-1.4,1-2.3,1c-0.8,0-1.5-0.3-2-0.9c-0.5-0.6-0.8-1.3-0.8-2.1
			c0-0.8,0.3-1.5,0.9-2.1c0.6-0.6,1.3-0.9,2.1-0.8c0.8,0,1.5,0.3,2,0.9c0.6,0.6,0.8,1.3,0.8,2.1v0V-26.7z M823-29.6
			c0,0.6,0.2,1.1,0.6,1.6c0.4,0.4,0.9,0.7,1.5,0.7c0.6,0,1.2-0.2,1.6-0.6c0.5-0.5,0.7-1,0.6-1.6c0-0.6-0.2-1.1-0.6-1.5
			c-0.4-0.4-0.9-0.6-1.5-0.6c-0.6,0-1.1,0.2-1.5,0.6S823-30.2,823-29.6z"/>
		<path class="st26" d="M829.6-26.7h-0.8v-7.7h0.8V-26.7z"/>
		<path class="st26" d="M838-26.7h-0.8v-7h-1.7v-0.7h4.3v0.7H838V-26.7z"/>
		<path class="st26" d="M841-33.1h-0.8v-1.3h0.8V-33.1z M841-26.7h-0.8v-5.7h0.8V-26.7z"/>
		<path class="st26" d="M850.1-26.7h-0.8v-3.5c0-0.4-0.1-0.8-0.4-1.1c-0.2-0.3-0.6-0.5-1-0.5c-0.4,0-0.8,0.1-1.1,0.4
			c-0.3,0.3-0.5,0.6-0.5,1v3.7h-0.8v-3.7c0-0.4-0.1-0.7-0.5-1c-0.3-0.3-0.7-0.4-1.1-0.4c-0.4,0-0.7,0.2-1,0.5
			c-0.2,0.3-0.4,0.7-0.4,1.1v3.5h-0.8v-3.4c0-0.7,0.2-1.3,0.6-1.7c0.4-0.4,0.9-0.6,1.5-0.7c0.8-0.1,1.5,0.3,2,1.1
			c0.5-0.8,1.1-1.1,2-1.1c0.6,0.1,1.1,0.3,1.5,0.7c0.4,0.4,0.6,1,0.6,1.7V-26.7z"/>
		<path class="st26" d="M856.6-28.6c-0.2,0.6-0.6,1.1-1.1,1.5s-1.1,0.5-1.7,0.5c-0.8,0-1.5-0.3-2.1-0.8c-0.6-0.6-0.9-1.3-0.9-2.1
			c0-0.8,0.3-1.6,0.9-2.2c0.6-0.6,1.4-0.9,2.2-0.9c0.8,0.1,1.4,0.4,2,0.9c0.5,0.6,0.8,1.2,0.8,1.9v0.4h-5.1c0.1,0.6,0.3,1,0.7,1.4
			c0.4,0.4,0.9,0.6,1.5,0.5c0.9,0,1.5-0.4,1.9-1.2H856.6z M856-30c-0.1-0.5-0.4-1-0.8-1.3c-0.4-0.3-0.9-0.5-1.4-0.5
			c-0.5,0-1,0.2-1.4,0.5c-0.4,0.3-0.7,0.8-0.8,1.3H856z"/>
		<path class="st26" d="M870.3-26.7h-0.8l-1.1-2.6h-3.6l-1.1,2.6h-1l3.4-7.7h0.9L870.3-26.7z M868.1-30l-1.5-3.5l-1.5,3.5H868.1z"/>
		<path class="st26" d="M875.8-29.1c0,0.7-0.2,1.4-0.7,1.8c-0.5,0.5-1.1,0.7-1.8,0.7s-1.3-0.2-1.8-0.7c-0.5-0.5-0.7-1.1-0.7-1.8
			v-3.2h0.8v3.3c0,0.5,0.2,0.9,0.5,1.2c0.3,0.3,0.8,0.5,1.2,0.5s0.9-0.2,1.2-0.5c0.3-0.4,0.5-0.8,0.5-1.2v-3.3h0.8V-29.1z"/>
		<path class="st26" d="M882.6-29.5c0,0.8-0.3,1.5-0.9,2.1c-0.6,0.6-1.3,0.9-2.1,0.8c-0.8,0-1.5-0.3-2-0.9c-0.5-0.6-0.8-1.3-0.8-2.1
			c0-0.8,0.3-1.5,0.9-2.1c0.6-0.6,1.3-0.9,2.1-0.9c0.8,0,1.5,0.4,2.1,1v-2.9h0.8V-29.5z M879.6-27.3c0.6,0,1.2-0.2,1.6-0.6
			c0.4-0.5,0.7-1,0.6-1.6c0-0.6-0.2-1.1-0.6-1.5c-0.4-0.4-0.9-0.6-1.5-0.6c-0.6,0-1.1,0.2-1.5,0.6s-0.6,0.9-0.7,1.5
			c0,0.6,0.2,1.1,0.6,1.6C878.6-27.5,879-27.3,879.6-27.3z"/>
		<path class="st26" d="M884.2-33.1h-0.8v-1.3h0.8V-33.1z M884.2-26.7h-0.8v-5.7h0.8V-26.7z"/>
		<path class="st26" d="M887.1-26.6c-1.4,0-2.1-0.6-2.1-1.8v-6h0.8v2h1.3v0.7h-1.3v3.2c0,0.8,0.4,1.3,1.3,1.3V-26.6z"/>
		<path class="st26" d="M810.5-2.7h-0.8v-7.7h2.5c0.8,0,1.4,0.2,1.9,0.7c0.5,0.4,0.8,1,0.7,1.7c0,0.6-0.2,1.1-0.7,1.6
			c-0.5,0.4-1,0.6-1.7,0.6h-1.9V-2.7z M812.2-6.5c0.5,0,0.9-0.1,1.2-0.5c0.4-0.3,0.5-0.7,0.5-1.2c0-0.4-0.2-0.8-0.6-1.1
			c-0.3-0.3-0.8-0.4-1.2-0.4h-1.7v3.2H812.2z"/>
		<path class="st26" d="M816-2.7h-0.8v-5.7h0.7v0.8c0.2-0.3,0.4-0.5,0.7-0.7c0.3-0.1,0.6-0.2,0.9-0.2v0.8c-0.4,0-0.6,0.1-0.9,0.3
			s-0.4,0.3-0.4,0.5C816-6.8,816-6.5,816-6.1V-2.7z"/>
		<path class="st26" d="M823-3.4c-0.6,0.6-1.3,0.9-2.1,0.8c-0.8,0-1.5-0.3-2-0.9S818-4.7,818-5.5c0-0.8,0.3-1.5,0.9-2.1
			c0.6-0.6,1.3-0.9,2.1-0.9c0.8,0,1.5,0.3,2,0.9c0.5,0.6,0.8,1.3,0.8,2.1C823.9-4.7,823.6-4,823-3.4z M820.9-3.3
			c0.6,0,1.2-0.2,1.6-0.6c0.5-0.5,0.7-1,0.7-1.6c0-0.6-0.2-1.1-0.7-1.5c-0.4-0.4-0.9-0.6-1.5-0.6c-0.6,0-1.1,0.2-1.5,0.6
			c-0.4,0.4-0.6,0.9-0.6,1.5c0,0.6,0.2,1.1,0.6,1.6C819.8-3.6,820.3-3.3,820.9-3.3z"/>
		<path class="st26" d="M829.6-3.4c-0.6,0.6-1.3,0.9-2.1,0.8c-0.8,0-1.5-0.3-2-0.9s-0.8-1.3-0.8-2.1c0-0.8,0.3-1.5,0.9-2.1
			c0.6-0.6,1.3-0.9,2.1-0.9c0.8,0,1.5,0.3,2,0.9c0.5,0.6,0.8,1.3,0.8,2.1C830.5-4.7,830.2-4,829.6-3.4z M827.5-3.3
			c0.6,0,1.2-0.2,1.6-0.6c0.5-0.5,0.7-1,0.7-1.6c0-0.6-0.2-1.1-0.7-1.5c-0.4-0.4-0.9-0.6-1.5-0.6c-0.6,0-1.1,0.2-1.5,0.6
			c-0.4,0.4-0.6,0.9-0.6,1.5c0,0.6,0.2,1.1,0.6,1.6C826.4-3.6,826.9-3.3,827.5-3.3z"/>
		<path class="st26" d="M832.1-2.7h-0.8v-5.8c0-1.2,0.8-1.9,2-1.9h0.2v0.7l-0.2,0c-0.4,0-0.7,0.1-0.8,0.3c-0.2,0.3-0.4,0.5-0.4,0.8
			v0.2h1.4v0.7h-1.4V-2.7z"/>
		<path class="st26" d="M844.1-3.4c-0.6,0.6-1.3,0.9-2.1,0.8c-0.8,0-1.5-0.3-2-0.9s-0.8-1.3-0.8-2.1c0-0.8,0.3-1.5,0.9-2.1
			c0.6-0.6,1.3-0.9,2.1-0.9c0.8,0,1.5,0.3,2,0.9c0.5,0.6,0.8,1.3,0.8,2.1C845-4.7,844.7-4,844.1-3.4z M842-3.3
			c0.6,0,1.2-0.2,1.6-0.6c0.5-0.5,0.7-1,0.7-1.6c0-0.6-0.2-1.1-0.7-1.5c-0.4-0.4-0.9-0.6-1.5-0.6c-0.6,0-1.1,0.2-1.5,0.6
			c-0.4,0.4-0.6,0.9-0.6,1.5c0,0.6,0.2,1.1,0.6,1.6C840.9-3.6,841.4-3.3,842-3.3z"/>
		<path class="st26" d="M846.5-2.7h-0.8v-5.8c0-1.2,0.8-1.9,2-1.9h0.2v0.7l-0.2,0c-0.4,0-0.7,0.1-0.8,0.3c-0.2,0.3-0.4,0.5-0.4,0.8
			v0.2h1.4v0.7h-1.4V-2.7z"/>
		<path class="st26" d="M861.8-6.2c-0.1,1.2-0.6,2.1-1.6,2.8c-0.8,0.6-1.6,0.9-2.5,0.8c-1.1,0-2.1-0.4-2.9-1.2
			c-0.8-0.8-1.2-1.7-1.2-2.8c0-1.1,0.4-2.1,1.2-2.8c0.8-0.8,1.7-1.1,2.9-1.1c0.8,0,1.5,0.2,2.1,0.5c0.6,0.4,1.1,0.9,1.5,1.7h-0.9
			c-0.7-1-1.6-1.5-2.8-1.5c-0.9,0-1.6,0.3-2.3,0.9c-0.7,0.6-1,1.4-1,2.3c0,0.9,0.3,1.6,1,2.3c0.6,0.6,1.4,0.9,2.4,1
			c0.7,0,1.3-0.1,1.9-0.6s1.1-1,1.3-1.6l-4.3,0v-0.7L861.8-6.2z"/>
		<path class="st26" d="M867.1-3.4c-0.6,0.6-1.3,0.9-2.1,0.8c-0.8,0-1.5-0.3-2-0.9s-0.8-1.3-0.8-2.1c0-0.8,0.3-1.5,0.9-2.1
			c0.6-0.6,1.3-0.9,2.1-0.9c0.8,0,1.5,0.3,2,0.9c0.5,0.6,0.8,1.3,0.8,2.1C868-4.7,867.7-4,867.1-3.4z M864.9-3.3
			c0.6,0,1.2-0.2,1.6-0.6c0.5-0.5,0.7-1,0.7-1.6c0-0.6-0.2-1.1-0.7-1.5c-0.4-0.4-0.9-0.6-1.5-0.6c-0.6,0-1.1,0.2-1.5,0.6
			c-0.4,0.4-0.6,0.9-0.6,1.5c0,0.6,0.2,1.1,0.6,1.6C863.9-3.6,864.4-3.3,864.9-3.3z"/>
		<path class="st26" d="M869.5-2.7h-0.8v-7.7h0.8V-2.7z"/>
		<path class="st26" d="M876.3-5.5c0,0.8-0.3,1.5-0.9,2.1c-0.6,0.6-1.3,0.9-2.1,0.8c-0.8,0-1.5-0.3-2-0.9c-0.5-0.6-0.8-1.3-0.8-2.1
			c0-0.8,0.3-1.5,0.9-2.1c0.6-0.6,1.3-0.9,2.1-0.9c0.8,0,1.5,0.4,2.1,1v-2.9h0.8V-5.5z M873.3-3.3c0.6,0,1.2-0.2,1.6-0.6
			c0.4-0.5,0.7-1,0.6-1.6c0-0.6-0.2-1.1-0.6-1.5c-0.4-0.4-0.9-0.6-1.5-0.6c-0.6,0-1.1,0.2-1.5,0.6s-0.6,0.9-0.7,1.5
			c0,0.6,0.2,1.1,0.6,1.6C872.2-3.5,872.7-3.3,873.3-3.3z"/>
		<path class="st26" d="M889.9-2.7h-0.8L888-5.3h-3.6l-1.1,2.6h-1l3.4-7.7h0.9L889.9-2.7z M887.7-6l-1.5-3.5L884.8-6H887.7z"/>
		<path class="st26" d="M891.3-2.7h-0.8v-7.7h2.5c0.8,0,1.4,0.2,1.9,0.7c0.5,0.4,0.8,1,0.7,1.7c0,0.6-0.2,1.1-0.7,1.6
			c-0.5,0.4-1,0.6-1.7,0.6h-1.9V-2.7z M893-6.5c0.5,0,0.9-0.1,1.2-0.5c0.4-0.3,0.5-0.7,0.5-1.2c0-0.4-0.2-0.8-0.6-1.1
			c-0.3-0.3-0.8-0.4-1.2-0.4h-1.7v3.2H893z"/>
		<path class="st26" d="M896.8-2.7H896v-7.7h0.8V-2.7z"/>
	</g>
	<g id="XMLID_600_">
		<g>
			<polyline class="st22" points="604.9,154.5 604.9,156 603.8,157 			"/>
			<path class="st23" d="M601.4,158.8l-6.3,5c-0.9,0.7,0.1,1.7,1.4,1.5l5.4-0.9"/>
			<polyline class="st22" points="603.4,164.3 604.9,164 604.9,165.5 			"/>
			<path class="st27" d="M605.2,168.5c1.3,4.3,7.1,7.5,13.9,7.5h87.7c7.8,0,14.2-4.2,14.2-9.3v-15.9c0-5.1-6.4-9.3-14.2-9.3h-87.7
				c-7.8,0-14.2,4.2-14.2,9.3v2.2"/>
		</g>
	</g>
	<g>
		<path class="st26" d="M624.9,156h-2.2c-1.2,0-2-0.7-2-1.9v-3.9c0-1.2,0.8-1.9,2-1.9h2.2v0.7h-2.2c-0.4,0-0.7,0.1-0.8,0.2
			c-0.2,0.3-0.4,0.5-0.4,0.8v1.7h2.6v0.7h-2.6v1.8c0,0.3,0.1,0.5,0.4,0.8c0.2,0.2,0.4,0.2,0.8,0.2h2.2V156z"/>
		<path class="st26" d="M630.1,156h-1l-1.5-2.3l-1.5,2.3h-0.9l1.9-2.9l-1.9-2.8h0.9l1.5,2.2l1.5-2.2h0.9l-2,2.8L630.1,156z"/>
		<path class="st26" d="M631.6,158h-0.7v-4.8c0,0,0,0,0,0c0-0.8,0.3-1.5,0.9-2.1c0.6-0.6,1.3-0.9,2.1-0.9c0.8,0,1.5,0.3,2,0.9
			c0.5,0.6,0.8,1.3,0.8,2.1c0,0.8-0.3,1.5-0.9,2.1c-0.6,0.6-1.3,0.9-2.1,0.8c-0.8,0-1.5-0.4-2.1-1V158z M633.9,150.9
			c-0.6,0-1.2,0.2-1.6,0.6c-0.4,0.5-0.6,1-0.6,1.6c0,0.6,0.2,1.1,0.6,1.5c0.4,0.4,0.9,0.6,1.5,0.6c0.6,0,1.1-0.2,1.5-0.6
			c0.4-0.4,0.7-0.9,0.7-1.5c0-0.6-0.2-1.1-0.6-1.6C635,151.2,634.5,150.9,633.9,150.9z"/>
		<path class="st26" d="M642.5,155.3c-0.6,0.6-1.3,0.9-2.1,0.8c-0.8,0-1.5-0.3-2-0.9c-0.5-0.6-0.8-1.3-0.8-2.1
			c0-0.8,0.3-1.5,0.9-2.1c0.6-0.6,1.3-0.9,2.1-0.9c0.8,0,1.5,0.3,2,0.9c0.5,0.6,0.8,1.3,0.8,2.1C643.4,154,643.1,154.7,642.5,155.3z
			 M640.3,155.4c0.6,0,1.2-0.2,1.6-0.6c0.5-0.5,0.7-1,0.7-1.6c0-0.6-0.2-1.1-0.7-1.5c-0.4-0.4-0.9-0.6-1.5-0.6
			c-0.6,0-1.1,0.2-1.5,0.6c-0.4,0.4-0.6,0.9-0.6,1.5c0,0.6,0.2,1.1,0.6,1.6C639.3,155.1,639.8,155.4,640.3,155.4z"/>
		<path class="st26" d="M644.9,154.5c0,0.2,0.1,0.4,0.3,0.6s0.4,0.3,0.7,0.3c0.3,0,0.6-0.1,0.8-0.3c0.2-0.2,0.2-0.4,0.3-0.7
			c0-0.5-0.3-0.8-0.8-1l-0.7-0.2c-0.7-0.2-1.1-0.7-1.1-1.4c0-0.4,0.1-0.8,0.4-1.1c0.3-0.3,0.7-0.5,1.1-0.5c0.4,0,0.8,0.1,1.1,0.4
			c0.3,0.3,0.5,0.6,0.5,1l0,0.2h-0.8v-0.1c0-0.4-0.4-0.7-0.8-0.7c-0.4,0-0.8,0.3-0.8,0.8c0,0.4,0.2,0.7,0.7,0.9l0.7,0.2
			c0.8,0.3,1.2,0.8,1.2,1.5c0,0.5-0.1,1-0.5,1.3c-0.4,0.4-0.9,0.5-1.4,0.5c-0.5,0-0.9-0.2-1.2-0.6c-0.3-0.3-0.5-0.8-0.5-1.3h0.8
			V154.5z"/>
		<path class="st26" d="M654.2,154.1c-0.2,0.6-0.6,1.1-1.1,1.5c-0.5,0.4-1.1,0.5-1.7,0.5c-0.8,0-1.5-0.3-2.1-0.8
			c-0.6-0.6-0.9-1.3-0.9-2.1c0-0.8,0.3-1.6,0.9-2.2c0.6-0.6,1.4-0.9,2.2-0.9c0.8,0.1,1.4,0.4,2,0.9c0.5,0.6,0.8,1.2,0.8,1.9v0.4
			h-5.1c0.1,0.6,0.3,1,0.7,1.4c0.4,0.4,0.9,0.6,1.5,0.5c0.9,0,1.5-0.4,1.9-1.2H654.2z M653.6,152.7c-0.1-0.5-0.4-1-0.8-1.3
			c-0.4-0.3-0.9-0.5-1.4-0.5c-0.5,0-1,0.2-1.4,0.5c-0.4,0.3-0.7,0.8-0.8,1.3H653.6z"/>
		<path class="st26" d="M665.1,156h-0.9l-2.6-3.5h0.7c0.7,0,1.2-0.2,1.6-0.5s0.6-0.8,0.5-1.3c0-0.5-0.2-0.9-0.5-1.2
			c-0.4-0.3-0.8-0.5-1.4-0.5h-1.7v7h-0.8v-7.7h2.5c0.8,0,1.5,0.2,2,0.7c0.5,0.5,0.8,1.1,0.7,1.8c0,0.6-0.2,1.1-0.6,1.6
			c-0.4,0.4-0.9,0.7-1.5,0.7l-0.2,0L665.1,156z"/>
		<path class="st26" d="M671.8,154.1c-0.2,0.6-0.6,1.1-1.1,1.5c-0.5,0.4-1.1,0.5-1.7,0.5c-0.8,0-1.5-0.3-2.1-0.8
			c-0.6-0.6-0.9-1.3-0.9-2.1c0-0.8,0.3-1.6,0.9-2.2c0.6-0.6,1.4-0.9,2.2-0.9c0.8,0.1,1.4,0.4,2,0.9c0.5,0.6,0.8,1.2,0.8,1.9v0.4
			h-5.1c0.1,0.6,0.3,1,0.7,1.4c0.4,0.4,0.9,0.6,1.5,0.5c0.9,0,1.5-0.4,1.9-1.2H671.8z M671.2,152.7c-0.1-0.5-0.4-1-0.8-1.3
			c-0.4-0.3-0.9-0.5-1.4-0.5c-0.5,0-1,0.2-1.4,0.5c-0.4,0.3-0.7,0.8-0.8,1.3H671.2z"/>
		<path class="st26" d="M678.4,156h-0.7v-0.9c-0.6,0.7-1.4,1-2.3,1c-0.8,0-1.5-0.3-2-0.9c-0.5-0.6-0.8-1.3-0.8-2.1
			c0-0.8,0.3-1.5,0.9-2.1c0.6-0.6,1.3-0.9,2.1-0.8c0.8,0,1.5,0.3,2,0.9c0.6,0.6,0.8,1.3,0.8,2.1v0V156z M673.4,153.1
			c0,0.6,0.2,1.1,0.6,1.6c0.4,0.4,0.9,0.7,1.5,0.7c0.6,0,1.2-0.2,1.6-0.6c0.5-0.5,0.7-1,0.6-1.6c0-0.6-0.2-1.1-0.6-1.5
			c-0.4-0.4-0.9-0.6-1.5-0.6c-0.6,0-1.1,0.2-1.5,0.6S673.4,152.5,673.4,153.1z"/>
		<path class="st26" d="M680,156h-0.8v-7.7h0.8V156z"/>
		<path class="st26" d="M682.9,156.1c-1.4,0-2.1-0.6-2.1-1.8v-6h0.8v2h1.3v0.7h-1.3v3.2c0,0.8,0.4,1.3,1.3,1.3V156.1z"/>
		<path class="st26" d="M684.4,149.6h-0.8v-1.3h0.8V149.6z M684.4,156h-0.8v-5.7h0.8V156z"/>
		<path class="st26" d="M693.4,156h-0.8v-3.5c0-0.4-0.1-0.8-0.4-1.1c-0.2-0.3-0.6-0.5-1-0.5c-0.4,0-0.8,0.1-1.1,0.4
			c-0.3,0.3-0.5,0.6-0.5,1v3.7h-0.8v-3.7c0-0.4-0.1-0.8-0.5-1c-0.3-0.3-0.7-0.4-1.1-0.4c-0.4,0-0.7,0.2-1,0.5
			c-0.2,0.3-0.4,0.7-0.4,1.1v3.5h-0.8v-3.4c0-0.7,0.2-1.3,0.6-1.7c0.4-0.4,0.9-0.6,1.5-0.7c0.8-0.1,1.5,0.3,2,1.1
			c0.5-0.8,1.1-1.1,2-1.1c0.6,0.1,1.1,0.3,1.5,0.7c0.4,0.4,0.6,1,0.6,1.7V156z"/>
		<path class="st26" d="M700,154.1c-0.2,0.6-0.6,1.1-1.1,1.5c-0.5,0.4-1.1,0.5-1.7,0.5c-0.8,0-1.5-0.3-2.1-0.8
			c-0.6-0.6-0.9-1.3-0.9-2.1c0-0.8,0.3-1.6,0.9-2.2c0.6-0.6,1.4-0.9,2.2-0.9c0.8,0.1,1.4,0.4,2,0.9c0.5,0.6,0.8,1.2,0.8,1.9v0.4H695
			c0.1,0.6,0.3,1,0.7,1.4c0.4,0.4,0.9,0.6,1.5,0.5c0.9,0,1.5-0.4,1.9-1.2H700z M699.4,152.7c-0.1-0.5-0.4-1-0.8-1.3
			c-0.4-0.3-0.9-0.5-1.4-0.5c-0.5,0-1,0.2-1.4,0.5c-0.4,0.3-0.7,0.8-0.8,1.3H699.4z"/>
		<path class="st26" d="M621.5,168h-0.8v-7.7h2.5c0.8,0,1.4,0.2,1.9,0.7c0.5,0.4,0.8,1,0.7,1.7c0,0.6-0.2,1.1-0.7,1.6
			s-1,0.6-1.7,0.6h-1.9V168z M623.2,164.2c0.5,0,0.9-0.2,1.2-0.5c0.4-0.3,0.5-0.7,0.5-1.2c0-0.4-0.2-0.8-0.6-1.1
			c-0.3-0.3-0.8-0.4-1.2-0.4h-1.7v3.2H623.2z"/>
		<path class="st26" d="M627,168h-0.8v-5.7h0.7v0.8c0.2-0.3,0.4-0.5,0.7-0.7c0.3-0.2,0.6-0.2,0.9-0.2v0.8c-0.4,0-0.6,0.1-0.9,0.3
			s-0.4,0.3-0.4,0.5c-0.1,0.2-0.2,0.5-0.2,0.9V168z"/>
		<path class="st26" d="M634,167.3c-0.6,0.6-1.3,0.9-2.1,0.8c-0.8,0-1.5-0.3-2-0.9c-0.5-0.6-0.8-1.3-0.8-2.1c0-0.8,0.3-1.5,0.9-2.1
			c0.6-0.6,1.3-0.9,2.1-0.9c0.8,0,1.5,0.3,2,0.9c0.5,0.6,0.8,1.3,0.8,2.1C634.9,166,634.6,166.7,634,167.3z M631.9,167.4
			c0.6,0,1.2-0.2,1.6-0.6c0.5-0.5,0.7-1,0.7-1.6c0-0.6-0.2-1.1-0.7-1.5c-0.4-0.4-0.9-0.6-1.5-0.6c-0.6,0-1.1,0.2-1.5,0.6
			c-0.4,0.4-0.6,0.9-0.6,1.5c0,0.6,0.2,1.1,0.6,1.6C630.8,167.1,631.3,167.4,631.9,167.4z"/>
		<path class="st26" d="M640.6,167.3c-0.6,0.6-1.3,0.9-2.1,0.8c-0.8,0-1.5-0.3-2-0.9c-0.5-0.6-0.8-1.3-0.8-2.1
			c0-0.8,0.3-1.5,0.9-2.1c0.6-0.6,1.3-0.9,2.1-0.9c0.8,0,1.5,0.3,2,0.9c0.5,0.6,0.8,1.3,0.8,2.1C641.5,166,641.2,166.7,640.6,167.3z
			 M638.5,167.4c0.6,0,1.2-0.2,1.6-0.6c0.5-0.5,0.7-1,0.7-1.6c0-0.6-0.2-1.1-0.7-1.5c-0.4-0.4-0.9-0.6-1.5-0.6
			c-0.6,0-1.1,0.2-1.5,0.6c-0.4,0.4-0.6,0.9-0.6,1.5c0,0.6,0.2,1.1,0.6,1.6C637.4,167.1,637.9,167.4,638.5,167.4z"/>
		<path class="st26" d="M643.1,168h-0.8v-5.8c0-1.2,0.8-1.9,2-1.9h0.2v0.7l-0.2,0c-0.4,0-0.7,0.1-0.8,0.3c-0.2,0.3-0.4,0.5-0.4,0.8
			v0.2h1.4v0.7h-1.4V168z"/>
		<path class="st26" d="M655.1,167.3c-0.6,0.6-1.3,0.9-2.1,0.8c-0.8,0-1.5-0.3-2-0.9c-0.5-0.6-0.8-1.3-0.8-2.1
			c0-0.8,0.3-1.5,0.9-2.1c0.6-0.6,1.3-0.9,2.1-0.9c0.8,0,1.5,0.3,2,0.9c0.5,0.6,0.8,1.3,0.8,2.1C656,166,655.7,166.7,655.1,167.3z
			 M653,167.4c0.6,0,1.2-0.2,1.6-0.6c0.5-0.5,0.7-1,0.7-1.6c0-0.6-0.2-1.1-0.7-1.5c-0.4-0.4-0.9-0.6-1.5-0.6c-0.6,0-1.1,0.2-1.5,0.6
			c-0.4,0.4-0.6,0.9-0.6,1.5c0,0.6,0.2,1.1,0.6,1.6C651.9,167.1,652.4,167.4,653,167.4z"/>
		<path class="st26" d="M657.5,168h-0.8v-5.8c0-1.2,0.8-1.9,2-1.9h0.2v0.7l-0.2,0c-0.4,0-0.7,0.1-0.8,0.3c-0.2,0.3-0.4,0.5-0.4,0.8
			v0.2h1.4v0.7h-1.4V168z"/>
		<path class="st26" d="M667.1,168h-0.8v-7h-1.7v-0.7h4.3v0.7h-1.7V168z"/>
		<path class="st26" d="M674.3,167.3c-0.6,0.6-1.3,0.9-2.1,0.8c-0.8,0-1.5-0.3-2-0.9c-0.5-0.6-0.8-1.3-0.8-2.1
			c0-0.8,0.3-1.5,0.9-2.1c0.6-0.6,1.3-0.9,2.1-0.9c0.8,0,1.5,0.3,2,0.9c0.5,0.6,0.8,1.3,0.8,2.1C675.2,166,674.9,166.7,674.3,167.3z
			 M672.2,167.4c0.6,0,1.2-0.2,1.6-0.6c0.5-0.5,0.7-1,0.7-1.6c0-0.6-0.2-1.1-0.7-1.5c-0.4-0.4-0.9-0.6-1.5-0.6
			c-0.6,0-1.1,0.2-1.5,0.6c-0.4,0.4-0.6,0.9-0.6,1.5c0,0.6,0.2,1.1,0.6,1.6C671.2,167.1,671.6,167.4,672.2,167.4z"/>
		<path class="st26" d="M680.6,168h-1l-1.8-2.2l-0.9,1.1v1.1H676v-7.7h0.8v5.4l2.6-3.4h1l-2.2,2.9L680.6,168z"/>
		<path class="st26" d="M686.9,166.1c-0.2,0.6-0.6,1.1-1.1,1.5c-0.5,0.4-1.1,0.5-1.7,0.5c-0.8,0-1.5-0.3-2.1-0.8
			c-0.6-0.6-0.9-1.3-0.9-2.1c0-0.8,0.3-1.6,0.9-2.2c0.6-0.6,1.4-0.9,2.2-0.9c0.8,0.1,1.4,0.4,2,0.9c0.5,0.6,0.8,1.2,0.8,1.9v0.4
			h-5.1c0.1,0.6,0.3,1,0.7,1.4c0.4,0.4,0.9,0.6,1.5,0.5c0.9,0,1.5-0.4,1.9-1.2H686.9z M686.3,164.7c-0.1-0.5-0.4-1-0.8-1.3
			c-0.4-0.3-0.9-0.5-1.4-0.5c-0.5,0-1,0.2-1.4,0.5c-0.4,0.3-0.7,0.8-0.8,1.3H686.3z"/>
		<path class="st26" d="M692.7,168H692v-3.3c0-0.5-0.2-0.9-0.5-1.2c-0.3-0.4-0.7-0.5-1.2-0.5s-0.9,0.2-1.2,0.5
			c-0.3,0.3-0.5,0.8-0.5,1.2v3.3h-0.8v-3.2c0-0.7,0.2-1.3,0.7-1.8c0.5-0.5,1.1-0.7,1.8-0.7c0.7,0,1.3,0.2,1.8,0.7
			c0.5,0.5,0.7,1.1,0.7,1.8V168z"/>
		<path class="st26" d="M706.4,168h-0.8l-1.1-2.6h-3.6l-1.1,2.6h-1l3.4-7.7h0.9L706.4,168z M704.1,164.7l-1.5-3.5l-1.5,3.5H704.1z"
			/>
		<path class="st26" d="M707.7,168h-0.8v-7.7h2.5c0.8,0,1.4,0.2,1.9,0.7c0.5,0.4,0.8,1,0.7,1.7c0,0.6-0.2,1.1-0.7,1.6
			s-1,0.6-1.7,0.6h-1.9V168z M709.4,164.2c0.5,0,0.9-0.2,1.2-0.5c0.4-0.3,0.5-0.7,0.5-1.2c0-0.4-0.2-0.8-0.6-1.1
			c-0.3-0.3-0.8-0.4-1.2-0.4h-1.7v3.2H709.4z"/>
		<path class="st26" d="M713.2,168h-0.8v-7.7h0.8V168z"/>
	</g>
	<g>
		<path class="st0" d="M709.3,48.7c-1.4,0-2.1-0.6-2.1-1.8v-6h0.8v2h1.3v0.7h-1.3v3.2c0,0.8,0.4,1.3,1.3,1.3V48.7z"/>
		<path class="st0" d="M710.7,48.6h-0.8v-5.7h0.7v0.8c0.2-0.3,0.4-0.5,0.7-0.7c0.3-0.2,0.6-0.2,0.9-0.2v0.8c-0.3,0-0.6,0.1-0.9,0.3
			c-0.2,0.2-0.4,0.3-0.4,0.5c-0.1,0.2-0.2,0.5-0.2,0.9V48.6z"/>
		<path class="st0" d="M713.5,42.2h-0.8v-1.3h0.8V42.2z M713.5,48.6h-0.8v-5.7h0.8V48.6z"/>
		<path class="st0" d="M720.2,48.3c0,0.7-0.3,1.3-0.9,1.8c-0.6,0.5-1.3,0.7-2,0.7c-0.7,0-1.3-0.2-1.8-0.6c-0.5-0.4-0.8-0.8-0.9-1.4
			h0.7c0.1,0.4,0.4,0.7,0.8,1c0.4,0.3,0.8,0.4,1.3,0.4c0.6,0,1-0.2,1.4-0.6c0.4-0.4,0.6-0.8,0.6-1.4v-0.5c-0.6,0.6-1.3,1-2.1,1
			c-0.8,0-1.5-0.3-2.1-0.8c-0.6-0.6-0.9-1.3-0.9-2.1c0-0.8,0.3-1.5,0.8-2.1s1.2-0.9,2-0.9c0.8,0,1.5,0.3,2.1,0.9
			c0.6,0.6,0.9,1.3,0.9,2.1V48.3z M718.8,47.3c0.4-0.4,0.6-0.9,0.6-1.5c0-0.6-0.2-1.2-0.6-1.6c-0.4-0.5-1-0.7-1.6-0.7
			c-0.6,0-1.1,0.3-1.5,0.7c-0.4,0.5-0.6,1-0.6,1.6c0,0.6,0.2,1.1,0.7,1.5s0.9,0.6,1.5,0.6C717.9,48,718.4,47.7,718.8,47.3z"/>
		<path class="st0" d="M726.9,48.3c0,0.7-0.3,1.3-0.9,1.8c-0.6,0.5-1.3,0.7-2,0.7c-0.7,0-1.3-0.2-1.8-0.6c-0.5-0.4-0.8-0.8-0.9-1.4
			h0.7c0.1,0.4,0.4,0.7,0.8,1c0.4,0.3,0.8,0.4,1.3,0.4c0.6,0,1-0.2,1.4-0.6c0.4-0.4,0.6-0.8,0.6-1.4v-0.5c-0.6,0.6-1.3,1-2.1,1
			c-0.8,0-1.5-0.3-2.1-0.8c-0.6-0.6-0.9-1.3-0.9-2.1c0-0.8,0.3-1.5,0.8-2.1s1.2-0.9,2-0.9c0.8,0,1.5,0.3,2.1,0.9
			c0.6,0.6,0.9,1.3,0.9,2.1V48.3z M725.5,47.3c0.4-0.4,0.6-0.9,0.6-1.5c0-0.6-0.2-1.2-0.6-1.6c-0.4-0.5-1-0.7-1.6-0.7
			c-0.6,0-1.1,0.3-1.5,0.7c-0.4,0.5-0.6,1-0.6,1.6c0,0.6,0.2,1.1,0.7,1.5s0.9,0.6,1.5,0.6C724.6,48,725,47.7,725.5,47.3z"/>
		<path class="st0" d="M733.4,46.7c-0.2,0.6-0.6,1.1-1.1,1.5c-0.5,0.4-1.1,0.5-1.7,0.5c-0.8,0-1.5-0.3-2.1-0.8
			c-0.6-0.6-0.9-1.3-0.9-2.1c0-0.8,0.3-1.6,0.9-2.2c0.6-0.6,1.4-0.9,2.2-0.9c0.8,0.1,1.4,0.4,2,0.9c0.5,0.6,0.8,1.2,0.8,1.9V46h-5.1
			c0.1,0.6,0.3,1,0.7,1.4c0.4,0.4,0.9,0.6,1.5,0.5c0.9,0,1.5-0.4,1.9-1.2H733.4z M732.8,45.3c-0.1-0.5-0.4-1-0.8-1.3
			c-0.4-0.3-0.9-0.5-1.4-0.5c-0.5,0-1,0.2-1.4,0.5c-0.4,0.3-0.7,0.8-0.8,1.3H732.8z"/>
		<path class="st0" d="M735,48.6h-0.8v-5.7h0.7v0.8c0.2-0.3,0.4-0.5,0.7-0.7c0.3-0.2,0.6-0.2,0.9-0.2v0.8c-0.4,0-0.6,0.1-0.9,0.3
			s-0.4,0.3-0.4,0.5c-0.1,0.2-0.2,0.5-0.2,0.9V48.6z"/>
		<path class="st0" d="M750.3,48.6h-0.8v-3.5c0-0.4-0.1-0.8-0.4-1.1c-0.2-0.3-0.6-0.5-1-0.5c-0.4,0-0.8,0.1-1.1,0.4
			c-0.3,0.3-0.5,0.6-0.5,1v3.7h-0.8v-3.7c0-0.4-0.1-0.8-0.5-1c-0.3-0.3-0.7-0.4-1.1-0.4c-0.4,0-0.7,0.2-1,0.5
			c-0.2,0.3-0.4,0.7-0.4,1.1v3.5h-0.8v-3.4c0-0.7,0.2-1.3,0.6-1.7c0.4-0.4,0.9-0.6,1.5-0.7c0.8-0.1,1.5,0.3,2,1.1
			c0.5-0.8,1.1-1.1,2-1.1c0.6,0.1,1.1,0.3,1.5,0.7c0.4,0.4,0.6,1,0.6,1.7V48.6z"/>
		<path class="st0" d="M751.8,42.2h-0.8v-1.3h0.8V42.2z M751.8,48.6h-0.8v-5.7h0.8V48.6z"/>
		<path class="st0" d="M757.7,48.6h-0.8v-3.3c0-0.5-0.2-0.9-0.5-1.2c-0.3-0.4-0.7-0.5-1.2-0.5s-0.9,0.2-1.2,0.5
			c-0.3,0.3-0.5,0.8-0.5,1.2v3.3h-0.8v-3.2c0-0.7,0.2-1.3,0.7-1.8c0.5-0.5,1.1-0.7,1.8-0.7c0.7,0,1.3,0.2,1.8,0.7
			c0.5,0.5,0.7,1.1,0.7,1.8V48.6z"/>
		<path class="st0" d="M760.6,48.7c-1.4,0-2.1-0.6-2.1-1.8v-6h0.8v2h1.3v0.7h-1.3v3.2c0,0.8,0.4,1.3,1.3,1.3V48.7z"/>
		<path class="st0" d="M716.1,62.6h-0.7v-4.8c0,0,0,0,0,0c0-0.8,0.3-1.5,0.9-2.1c0.6-0.6,1.3-0.9,2.1-0.9c0.8,0,1.5,0.3,2,0.9
			c0.5,0.6,0.8,1.3,0.8,2.1c0,0.8-0.3,1.5-0.9,2.1c-0.6,0.6-1.3,0.9-2.1,0.8c-0.8,0-1.5-0.4-2.1-1V62.6z M718.4,55.5
			c-0.6,0-1.2,0.2-1.6,0.6c-0.4,0.5-0.6,1-0.6,1.6c0,0.6,0.2,1.1,0.6,1.5c0.4,0.4,0.9,0.6,1.5,0.6c0.6,0,1.1-0.2,1.5-0.6
			c0.4-0.4,0.7-0.9,0.7-1.5c0-0.6-0.2-1.1-0.6-1.6C719.5,55.8,719,55.6,718.4,55.5z"/>
		<path class="st0" d="M722.7,60.6h-0.8v-5.7h0.7v0.8c0.2-0.3,0.4-0.5,0.7-0.7c0.3-0.2,0.6-0.2,0.9-0.2v0.8c-0.4,0-0.6,0.1-0.9,0.3
			s-0.4,0.3-0.4,0.5c-0.1,0.2-0.2,0.5-0.2,0.9V60.6z"/>
		<path class="st0" d="M729.8,59.9c-0.6,0.6-1.3,0.9-2.1,0.8c-0.8,0-1.5-0.3-2-0.9c-0.5-0.6-0.8-1.3-0.8-2.1c0-0.8,0.3-1.5,0.9-2.1
			c0.6-0.6,1.3-0.9,2.1-0.9c0.8,0,1.5,0.3,2,0.9c0.5,0.6,0.8,1.3,0.8,2.1C730.7,58.6,730.4,59.3,729.8,59.9z M727.7,60
			c0.6,0,1.2-0.2,1.6-0.6c0.5-0.5,0.7-1,0.7-1.6c0-0.6-0.2-1.1-0.7-1.5c-0.4-0.4-0.9-0.6-1.5-0.6c-0.6,0-1.1,0.2-1.5,0.6
			c-0.4,0.4-0.6,0.9-0.6,1.5c0,0.6,0.2,1.1,0.6,1.6C726.6,59.7,727.1,60,727.7,60z"/>
		<path class="st0" d="M737.3,59.1c-0.6,1.1-1.5,1.6-2.8,1.6c-0.8,0-1.5-0.3-2.1-0.9c-0.6-0.6-0.9-1.3-0.9-2.1
			c0-0.8,0.3-1.5,0.9-2.1c0.6-0.6,1.3-0.9,2.2-0.9c0.6,0,1.2,0.2,1.7,0.5c0.5,0.3,0.8,0.7,1.1,1.2l0.1,0.2h-0.9
			c-0.4-0.7-1.1-1.1-2-1.1c-0.6,0-1.1,0.2-1.6,0.6c-0.5,0.5-0.7,1-0.7,1.6c0,0.6,0.2,1.1,0.7,1.6c0.5,0.4,1,0.7,1.6,0.7
			c0.9,0,1.5-0.4,2-1.1h0.9L737.3,59.1z"/>
		<path class="st0" d="M743.5,58.7c-0.2,0.6-0.6,1.1-1.1,1.5c-0.5,0.4-1.1,0.5-1.7,0.5c-0.8,0-1.5-0.3-2.1-0.8
			c-0.6-0.6-0.9-1.3-0.9-2.1c0-0.8,0.3-1.6,0.9-2.2c0.6-0.6,1.4-0.9,2.2-0.9c0.8,0.1,1.4,0.4,2,0.9c0.5,0.6,0.8,1.2,0.8,1.9V58h-5.1
			c0.1,0.6,0.3,1,0.7,1.4c0.4,0.4,0.9,0.6,1.5,0.5c0.9,0,1.5-0.4,1.9-1.2H743.5z M742.9,57.3c-0.1-0.5-0.4-1-0.8-1.3
			c-0.4-0.3-0.9-0.5-1.4-0.5c-0.5,0-1,0.2-1.4,0.5c-0.4,0.3-0.7,0.8-0.8,1.3H742.9z"/>
		<path class="st0" d="M745.1,59.1c0,0.2,0.1,0.4,0.3,0.6s0.4,0.3,0.7,0.3c0.3,0,0.6-0.1,0.8-0.3c0.2-0.2,0.2-0.4,0.3-0.7
			c0-0.5-0.3-0.8-0.8-1l-0.7-0.2c-0.7-0.2-1.1-0.7-1.1-1.4c0-0.4,0.1-0.8,0.4-1.1c0.3-0.3,0.7-0.5,1.1-0.5c0.4,0,0.8,0.1,1.1,0.4
			c0.3,0.3,0.5,0.6,0.5,1l0,0.2H747v-0.1c0-0.4-0.4-0.7-0.8-0.7c-0.4,0-0.8,0.3-0.8,0.8c0,0.4,0.2,0.7,0.7,0.9l0.7,0.2
			c0.8,0.3,1.2,0.8,1.2,1.5c0,0.5-0.1,1-0.5,1.3c-0.4,0.4-0.9,0.5-1.4,0.5c-0.5,0-0.9-0.2-1.2-0.6c-0.3-0.3-0.5-0.8-0.5-1.3h0.8
			V59.1z"/>
		<path class="st0" d="M749.5,59.1c0,0.2,0.1,0.4,0.3,0.6s0.4,0.3,0.7,0.3c0.3,0,0.6-0.1,0.8-0.3c0.2-0.2,0.2-0.4,0.3-0.7
			c0-0.5-0.3-0.8-0.8-1l-0.7-0.2c-0.7-0.2-1.1-0.7-1.1-1.4c0-0.4,0.1-0.8,0.4-1.1c0.3-0.3,0.7-0.5,1.1-0.5c0.4,0,0.8,0.1,1.1,0.4
			c0.3,0.3,0.5,0.6,0.5,1l0,0.2h-0.8v-0.1c0-0.4-0.4-0.7-0.8-0.7c-0.4,0-0.8,0.3-0.8,0.8c0,0.4,0.2,0.7,0.7,0.9l0.7,0.2
			c0.8,0.3,1.2,0.8,1.2,1.5c0,0.5-0.1,1-0.5,1.3c-0.4,0.4-0.9,0.5-1.4,0.5c-0.5,0-0.9-0.2-1.2-0.6c-0.3-0.3-0.5-0.8-0.5-1.3h0.8
			V59.1z"/>
	</g>
	<g id="XMLID_594_">
		<g id="XMLID_607_">
			<path id="XMLID_1189_" class="st25" d="M316.7,33.5h48.6c5.4,0,9.9,4,9.9,8.8v25.7c0,4.9-4.4,8.8-9.9,8.8H299
				c-5.4,0-9.9-4-9.9-8.8V45c0-6.3,5.8-11.5,12.8-11.5"/>
			<line id="XMLID_1188_" class="st25" x1="307.5" y1="33.5" x2="311.2" y2="33.5"/>
		</g>
		<path id="XMLID_596_" class="st3" d="M362.7,73.4h-61.2c-4.4,0-8-3.6-8-8V45.1c0-4.4,3.6-8,8-8h61.2c4.4,0,8,3.6,8,8v20.3
			C370.8,69.8,367.1,73.4,362.7,73.4z"/>
	</g>
	<g>
		<path class="st0" d="M301.3,51c0,0.2,0.1,0.4,0.3,0.6s0.4,0.3,0.7,0.3c0.3,0,0.6-0.1,0.8-0.3c0.2-0.2,0.2-0.4,0.3-0.7
			c0-0.5-0.3-0.8-0.8-1l-0.7-0.2c-0.7-0.2-1.1-0.7-1.1-1.4c0-0.4,0.1-0.8,0.4-1.1c0.3-0.3,0.7-0.5,1.1-0.5c0.4,0,0.8,0.1,1.1,0.4
			c0.3,0.3,0.5,0.6,0.5,1l0,0.2h-0.8V48c0-0.4-0.4-0.7-0.8-0.7c-0.4,0-0.8,0.3-0.8,0.8c0,0.4,0.2,0.7,0.7,0.9l0.7,0.2
			c0.8,0.3,1.2,0.8,1.2,1.5c0,0.5-0.1,1-0.5,1.3c-0.4,0.4-0.9,0.5-1.4,0.5c-0.5,0-0.9-0.2-1.2-0.6c-0.3-0.3-0.5-0.8-0.5-1.3h0.8V51z
			"/>
		<path class="st0" d="M310.6,50.6c-0.2,0.6-0.6,1.1-1.1,1.5c-0.5,0.4-1.1,0.5-1.7,0.5c-0.8,0-1.5-0.3-2.1-0.8
			c-0.6-0.6-0.9-1.3-0.9-2.1c0-0.8,0.3-1.6,0.9-2.2c0.6-0.6,1.4-0.9,2.2-0.9c0.8,0,1.4,0.4,2,0.9c0.5,0.6,0.8,1.2,0.8,1.9v0.4h-5.1
			c0.1,0.6,0.3,1,0.7,1.4s0.9,0.6,1.5,0.5c0.9,0,1.5-0.4,1.9-1.2H310.6z M310,49.2c-0.1-0.5-0.4-1-0.8-1.3s-0.9-0.5-1.4-0.5
			s-1,0.2-1.4,0.5c-0.4,0.3-0.7,0.8-0.8,1.3H310z"/>
		<path class="st0" d="M316.5,52.5h-0.8v-3.3c0-0.5-0.2-0.9-0.5-1.2c-0.3-0.3-0.7-0.5-1.2-0.5s-0.9,0.2-1.2,0.5s-0.5,0.8-0.5,1.2
			v3.3h-0.8v-3.2c0-0.7,0.2-1.3,0.7-1.8c0.5-0.5,1.1-0.7,1.8-0.7c0.7,0,1.3,0.2,1.8,0.7s0.7,1.1,0.7,1.8V52.5z"/>
		<path class="st0" d="M323.2,49.6c0,0.8-0.3,1.5-0.9,2.1c-0.6,0.6-1.3,0.9-2.1,0.8c-0.8,0-1.5-0.3-2-0.9s-0.8-1.3-0.8-2.1
			c0-0.8,0.3-1.5,0.9-2.1c0.6-0.6,1.3-0.9,2.1-0.9c0.8,0,1.5,0.4,2.1,1v-2.9h0.8V49.6z M320.2,51.9c0.6,0,1.2-0.2,1.6-0.6
			c0.4-0.5,0.7-1,0.6-1.6c0-0.6-0.2-1.1-0.6-1.5c-0.4-0.4-0.9-0.6-1.5-0.6c-0.6,0-1.1,0.2-1.5,0.6s-0.6,0.9-0.7,1.5
			c0,0.6,0.2,1.1,0.6,1.6C319.1,51.6,319.6,51.8,320.2,51.9z"/>
		<path class="st0" d="M334.9,50.9c-0.6,1.1-1.5,1.6-2.8,1.6c-0.8,0-1.5-0.3-2.1-0.9s-0.9-1.3-0.9-2.1c0-0.8,0.3-1.5,0.9-2.1
			c0.6-0.6,1.3-0.9,2.2-0.9c0.6,0,1.2,0.1,1.7,0.5c0.5,0.3,0.8,0.7,1.1,1.2l0.1,0.2h-0.9c-0.4-0.7-1.1-1.1-2-1.1
			c-0.6,0-1.1,0.2-1.6,0.6c-0.5,0.4-0.7,1-0.7,1.6c0,0.6,0.2,1.1,0.7,1.6c0.5,0.4,1,0.7,1.6,0.6c0.9,0,1.5-0.4,2-1.1h0.9L334.9,50.9
			z"/>
		<path class="st0" d="M340.3,51.7c-0.6,0.6-1.3,0.9-2.1,0.8c-0.8,0-1.5-0.3-2-0.9c-0.5-0.6-0.8-1.3-0.8-2.1c0-0.8,0.3-1.5,0.9-2.1
			c0.6-0.6,1.3-0.9,2.1-0.9c0.8,0,1.5,0.3,2,0.9c0.5,0.6,0.8,1.3,0.8,2.1C341.2,50.4,340.9,51.1,340.3,51.7z M338.2,51.8
			c0.6,0,1.2-0.2,1.6-0.6c0.5-0.5,0.7-1,0.7-1.6c0-0.6-0.2-1.1-0.7-1.5c-0.4-0.4-0.9-0.6-1.5-0.6c-0.6,0-1.1,0.2-1.5,0.6
			s-0.6,0.9-0.6,1.5c0,0.6,0.2,1.1,0.6,1.6C337.1,51.6,337.6,51.8,338.2,51.8z"/>
		<path class="st0" d="M342.7,46.1H342v-1.3h0.8V46.1z M342.7,52.5H342v-5.7h0.8V52.5z"/>
		<path class="st0" d="M348.6,52.5h-0.8v-3.3c0-0.5-0.2-0.9-0.5-1.2c-0.3-0.3-0.7-0.5-1.2-0.5s-0.9,0.2-1.2,0.5s-0.5,0.8-0.5,1.2
			v3.3h-0.8v-3.2c0-0.7,0.2-1.3,0.7-1.8c0.5-0.5,1.1-0.7,1.8-0.7c0.7,0,1.3,0.2,1.8,0.7s0.7,1.1,0.7,1.8V52.5z"/>
		<path class="st0" d="M356.5,52.6c-1.4,0-2.1-0.6-2.1-1.8v-6h0.8v2h1.3v0.7h-1.3v3.2c0,0.8,0.4,1.3,1.3,1.3V52.6z"/>
		<path class="st0" d="M362.1,51.7c-0.6,0.6-1.3,0.9-2.1,0.8c-0.8,0-1.5-0.3-2-0.9c-0.5-0.6-0.8-1.3-0.8-2.1c0-0.8,0.3-1.5,0.9-2.1
			c0.6-0.6,1.3-0.9,2.1-0.9c0.8,0,1.5,0.3,2,0.9c0.5,0.6,0.8,1.3,0.8,2.1C363,50.4,362.7,51.1,362.1,51.7z M360,51.8
			c0.6,0,1.2-0.2,1.6-0.6c0.5-0.5,0.7-1,0.7-1.6c0-0.6-0.2-1.1-0.7-1.5c-0.4-0.4-0.9-0.6-1.5-0.6c-0.6,0-1.1,0.2-1.5,0.6
			s-0.6,0.9-0.6,1.5c0,0.6,0.2,1.1,0.6,1.6C358.9,51.6,359.4,51.8,360,51.8z"/>
		<path class="st0" d="M300.5,58.1h-0.8v-1.3h0.8V58.1z M300.5,64.5h-0.8v-5.7h0.8V64.5z"/>
		<path class="st0" d="M302.1,63c0,0.2,0.1,0.4,0.3,0.6s0.4,0.3,0.7,0.3c0.3,0,0.6-0.1,0.8-0.3c0.2-0.2,0.2-0.4,0.3-0.7
			c0-0.5-0.3-0.8-0.8-1l-0.7-0.2c-0.7-0.2-1.1-0.7-1.1-1.4c0-0.4,0.1-0.8,0.4-1.1c0.3-0.3,0.7-0.5,1.1-0.5c0.4,0,0.8,0.1,1.1,0.4
			c0.3,0.3,0.5,0.6,0.5,1l0,0.2H304V60c0-0.4-0.4-0.7-0.8-0.7c-0.4,0-0.8,0.3-0.8,0.8c0,0.4,0.2,0.7,0.7,0.9l0.7,0.2
			c0.8,0.3,1.2,0.8,1.2,1.5c0,0.5-0.1,1-0.5,1.3c-0.4,0.4-0.9,0.5-1.4,0.5c-0.5,0-0.9-0.2-1.2-0.6c-0.3-0.3-0.5-0.8-0.5-1.3h0.8V63z
			"/>
		<path class="st0" d="M306.5,63c0,0.2,0.1,0.4,0.3,0.6s0.4,0.3,0.7,0.3c0.3,0,0.6-0.1,0.8-0.3c0.2-0.2,0.2-0.4,0.3-0.7
			c0-0.5-0.3-0.8-0.8-1l-0.7-0.2c-0.7-0.2-1.1-0.7-1.1-1.4c0-0.4,0.1-0.8,0.4-1.1c0.3-0.3,0.7-0.5,1.1-0.5c0.4,0,0.8,0.1,1.1,0.4
			c0.3,0.3,0.5,0.6,0.5,1l0,0.2h-0.8V60c0-0.4-0.4-0.7-0.8-0.7c-0.4,0-0.8,0.3-0.8,0.8c0,0.4,0.2,0.7,0.7,0.9l0.7,0.2
			c0.8,0.3,1.2,0.8,1.2,1.5c0,0.5-0.1,1-0.5,1.3c-0.4,0.4-0.9,0.5-1.4,0.5c-0.5,0-0.9-0.2-1.2-0.6c-0.3-0.3-0.5-0.8-0.5-1.3h0.8V63z
			"/>
		<path class="st0" d="M315.1,62c0,0.7-0.2,1.4-0.7,1.8c-0.5,0.5-1.1,0.7-1.8,0.7s-1.3-0.2-1.8-0.7c-0.5-0.5-0.7-1.1-0.7-1.8v-3.2
			h0.8v3.3c0,0.5,0.2,0.9,0.5,1.2c0.3,0.3,0.8,0.5,1.2,0.5s0.9-0.2,1.2-0.5c0.3-0.3,0.5-0.8,0.5-1.2v-3.3h0.8V62z"/>
		<path class="st0" d="M321.7,62.6c-0.2,0.6-0.6,1.1-1.1,1.5c-0.5,0.4-1.1,0.5-1.7,0.5c-0.8,0-1.5-0.3-2.1-0.8
			c-0.6-0.6-0.9-1.3-0.9-2.1c0-0.8,0.3-1.6,0.9-2.2c0.6-0.6,1.4-0.9,2.2-0.9c0.8,0,1.4,0.4,2,0.9c0.5,0.6,0.8,1.2,0.8,1.9v0.4h-5.1
			c0.1,0.6,0.3,1,0.7,1.4s0.9,0.6,1.5,0.5c0.9,0,1.5-0.4,1.9-1.2H321.7z M321.1,61.2c-0.1-0.5-0.4-1-0.8-1.3s-0.9-0.5-1.4-0.5
			s-1,0.2-1.4,0.5c-0.4,0.3-0.7,0.8-0.8,1.3H321.1z"/>
		<path class="st0" d="M323.2,64.5h-0.8v-5.7h0.7v0.8c0.2-0.3,0.4-0.5,0.7-0.7c0.3-0.1,0.6-0.2,0.9-0.2v0.8c-0.3,0-0.6,0.1-0.9,0.3
			c-0.2,0.2-0.4,0.3-0.4,0.5c-0.1,0.2-0.2,0.5-0.2,0.9V64.5z"/>
		<path class="st0" d="M326,59.1h-0.7v-2.3h0.7V59.1z"/>
		<path class="st0" d="M327.6,63c0,0.2,0.1,0.4,0.3,0.6s0.4,0.3,0.7,0.3c0.3,0,0.6-0.1,0.8-0.3c0.2-0.2,0.2-0.4,0.3-0.7
			c0-0.5-0.3-0.8-0.8-1l-0.7-0.2c-0.7-0.2-1.1-0.7-1.1-1.4c0-0.4,0.1-0.8,0.4-1.1c0.3-0.3,0.7-0.5,1.1-0.5c0.4,0,0.8,0.1,1.1,0.4
			c0.3,0.3,0.5,0.6,0.5,1l0,0.2h-0.8V60c0-0.4-0.4-0.7-0.8-0.7c-0.4,0-0.8,0.3-0.8,0.8c0,0.4,0.2,0.7,0.7,0.9l0.7,0.2
			c0.8,0.3,1.2,0.8,1.2,1.5c0,0.5-0.1,1-0.5,1.3c-0.4,0.4-0.9,0.5-1.4,0.5c-0.5,0-0.9-0.2-1.2-0.6c-0.3-0.3-0.5-0.8-0.5-1.3h0.8V63z
			"/>
		<path class="st0" d="M342.5,64.5h-0.9l-1.2-3.8l-1.2,3.8h-0.9l-2.2-5.7h0.8l1.8,4.7l1.3-4.1h0.7l1.3,4l1.8-4.7h0.8L342.5,64.5z"/>
		<path class="st0" d="M351.2,64.5h-0.7v-0.9c-0.6,0.7-1.4,1-2.3,1c-0.8,0-1.5-0.3-2-0.9c-0.5-0.6-0.8-1.3-0.8-2.1
			c0-0.8,0.3-1.5,0.9-2.1c0.6-0.6,1.3-0.9,2.1-0.8c0.8,0,1.5,0.3,2,0.9c0.6,0.6,0.8,1.3,0.8,2.1v0V64.5z M346.1,61.5
			c0,0.6,0.2,1.1,0.6,1.6c0.4,0.5,0.9,0.7,1.5,0.7c0.6,0,1.2-0.2,1.6-0.6c0.5-0.5,0.7-1,0.6-1.6c0-0.6-0.2-1.1-0.6-1.5
			c-0.4-0.4-0.9-0.6-1.5-0.6c-0.6,0-1.1,0.2-1.5,0.6S346.1,60.9,346.1,61.5z"/>
		<path class="st0" d="M352.8,64.5H352v-7.7h0.8V64.5z"/>
		<path class="st0" d="M354.4,64.5h-0.8v-7.7h0.8V64.5z"/>
		<path class="st0" d="M361,62.6c-0.2,0.6-0.6,1.1-1.1,1.5c-0.5,0.4-1.1,0.5-1.7,0.5c-0.8,0-1.5-0.3-2.1-0.8
			c-0.6-0.6-0.9-1.3-0.9-2.1c0-0.8,0.3-1.6,0.9-2.2c0.6-0.6,1.4-0.9,2.2-0.9c0.8,0,1.4,0.4,2,0.9c0.5,0.6,0.8,1.2,0.8,1.9v0.4H356
			c0.1,0.6,0.3,1,0.7,1.4s0.9,0.6,1.5,0.5c0.9,0,1.5-0.4,1.9-1.2H361z M360.4,61.2c-0.1-0.5-0.4-1-0.8-1.3s-0.9-0.5-1.4-0.5
			s-1,0.2-1.4,0.5c-0.4,0.3-0.7,0.8-0.8,1.3H360.4z"/>
		<path class="st0" d="M363.9,64.6c-1.4,0-2.1-0.6-2.1-1.8v-6h0.8v2h1.3v0.7h-1.3v3.2c0,0.8,0.4,1.3,1.3,1.3V64.6z"/>
	</g>
	<g>
		<path class="st26" d="M470.6-22.2c0,0.2,0.1,0.4,0.3,0.6s0.4,0.3,0.7,0.3c0.3,0,0.6-0.1,0.8-0.3c0.2-0.2,0.2-0.4,0.3-0.7
			c0-0.5-0.3-0.8-0.8-1l-0.7-0.2c-0.7-0.2-1.1-0.7-1.1-1.4c0-0.4,0.1-0.8,0.4-1.1c0.3-0.3,0.7-0.5,1.1-0.5c0.4,0,0.8,0.1,1.1,0.4
			c0.3,0.3,0.5,0.6,0.5,1l0,0.2h-0.8v-0.1c0-0.4-0.4-0.7-0.8-0.7c-0.4,0-0.8,0.3-0.8,0.8c0,0.4,0.2,0.7,0.7,0.9l0.7,0.2
			c0.8,0.3,1.2,0.8,1.2,1.5c0,0.5-0.1,1-0.5,1.3c-0.4,0.4-0.9,0.5-1.4,0.5c-0.5,0-0.9-0.2-1.2-0.6c-0.3-0.3-0.5-0.8-0.5-1.3h0.8
			V-22.2z"/>
		<path class="st26" d="M479.9-22.6c-0.2,0.6-0.6,1.1-1.1,1.5s-1.1,0.5-1.7,0.5c-0.8,0-1.5-0.3-2.1-0.8c-0.6-0.6-0.9-1.3-0.9-2.1
			c0-0.8,0.3-1.6,0.9-2.2c0.6-0.6,1.4-0.9,2.2-0.9c0.8,0.1,1.4,0.4,2,0.9c0.5,0.6,0.8,1.2,0.8,1.9v0.4h-5.1c0.1,0.6,0.3,1,0.7,1.4
			c0.4,0.4,0.9,0.6,1.5,0.5c0.9,0,1.5-0.4,1.9-1.2H479.9z M479.3-24c-0.1-0.5-0.4-1-0.8-1.3c-0.4-0.3-0.9-0.5-1.4-0.5
			c-0.5,0-1,0.2-1.4,0.5c-0.4,0.3-0.7,0.8-0.8,1.3H479.3z"/>
		<path class="st26" d="M485.8-20.7H485V-24c0-0.5-0.2-0.9-0.5-1.2c-0.3-0.4-0.7-0.5-1.2-0.5s-0.9,0.2-1.2,0.5
			c-0.3,0.3-0.5,0.8-0.5,1.2v3.3h-0.8v-3.2c0-0.7,0.2-1.3,0.7-1.8c0.5-0.5,1.1-0.7,1.8-0.7c0.7,0,1.3,0.2,1.8,0.7
			c0.5,0.5,0.7,1.1,0.7,1.8V-20.7z"/>
		<path class="st26" d="M492.5-23.5c0,0.8-0.3,1.5-0.9,2.1c-0.6,0.6-1.3,0.9-2.1,0.8c-0.8,0-1.5-0.3-2-0.9c-0.5-0.6-0.8-1.3-0.8-2.1
			c0-0.8,0.3-1.5,0.9-2.1c0.6-0.6,1.3-0.9,2.1-0.9c0.8,0,1.5,0.4,2.1,1v-2.9h0.8V-23.5z M489.5-21.3c0.6,0,1.2-0.2,1.6-0.6
			c0.4-0.5,0.7-1,0.6-1.6c0-0.6-0.2-1.1-0.6-1.5c-0.4-0.4-0.9-0.6-1.5-0.6c-0.6,0-1.1,0.2-1.5,0.6s-0.6,0.9-0.7,1.5
			c0,0.6,0.2,1.1,0.6,1.6C488.5-21.5,488.9-21.3,489.5-21.3z"/>
		<path class="st26" d="M504.2-21c0,0.7-0.3,1.3-0.9,1.8c-0.6,0.5-1.3,0.7-2,0.7c-0.7,0-1.3-0.2-1.8-0.6c-0.5-0.4-0.8-0.8-0.9-1.4
			h0.7c0.1,0.4,0.4,0.7,0.8,1c0.4,0.3,0.8,0.4,1.3,0.4c0.6,0,1-0.2,1.4-0.6c0.4-0.4,0.6-0.8,0.6-1.4v-0.5c-0.6,0.6-1.3,1-2.1,1
			c-0.8,0-1.5-0.3-2.1-0.8c-0.6-0.6-0.9-1.3-0.9-2.1c0-0.8,0.3-1.5,0.8-2.1c0.5-0.6,1.2-0.9,2-0.9c0.8,0,1.5,0.3,2.1,0.9
			c0.6,0.6,0.9,1.3,0.9,2.1V-21z M502.8-22c0.4-0.4,0.6-0.9,0.6-1.5c0-0.6-0.2-1.2-0.6-1.6c-0.4-0.5-1-0.7-1.6-0.7
			c-0.6,0-1.1,0.3-1.5,0.7c-0.4,0.4-0.6,1-0.6,1.6c0,0.6,0.2,1.1,0.7,1.5s0.9,0.6,1.5,0.6C501.9-21.4,502.4-21.6,502.8-22z"/>
		<path class="st26" d="M510-21.4c-0.6,0.6-1.3,0.9-2.1,0.8c-0.8,0-1.5-0.3-2-0.9s-0.8-1.3-0.8-2.1c0-0.8,0.3-1.5,0.9-2.1
			c0.6-0.6,1.3-0.9,2.1-0.9c0.8,0,1.5,0.3,2,0.9c0.5,0.6,0.8,1.3,0.8,2.1C510.9-22.7,510.6-22,510-21.4z M507.9-21.3
			c0.6,0,1.2-0.2,1.6-0.6c0.5-0.5,0.7-1,0.7-1.6c0-0.6-0.2-1.1-0.7-1.5c-0.4-0.4-0.9-0.6-1.5-0.6c-0.6,0-1.1,0.2-1.5,0.6
			c-0.4,0.4-0.6,0.9-0.6,1.5c0,0.6,0.2,1.1,0.6,1.6C506.8-21.6,507.3-21.3,507.9-21.3z"/>
		<path class="st26" d="M512.4-20.7h-0.8v-7.7h0.8V-20.7z"/>
		<path class="st26" d="M519.2-23.5c0,0.8-0.3,1.5-0.9,2.1c-0.6,0.6-1.3,0.9-2.1,0.8c-0.8,0-1.5-0.3-2-0.9c-0.5-0.6-0.8-1.3-0.8-2.1
			c0-0.8,0.3-1.5,0.9-2.1c0.6-0.6,1.3-0.9,2.1-0.9c0.8,0,1.5,0.4,2.1,1v-2.9h0.8V-23.5z M516.2-21.3c0.6,0,1.2-0.2,1.6-0.6
			c0.4-0.5,0.7-1,0.6-1.6c0-0.6-0.2-1.1-0.6-1.5c-0.4-0.4-0.9-0.6-1.5-0.6c-0.6,0-1.1,0.2-1.5,0.6s-0.6,0.9-0.7,1.5
			c0,0.6,0.2,1.1,0.6,1.6C515.1-21.5,515.6-21.3,516.2-21.3z"/>
		<path class="st26" d="M527.1-20.6c-1.4,0-2.1-0.6-2.1-1.8v-6h0.8v2h1.3v0.7h-1.3v3.2c0,0.8,0.4,1.3,1.3,1.3V-20.6z"/>
		<path class="st26" d="M532.8-21.4c-0.6,0.6-1.3,0.9-2.1,0.8c-0.8,0-1.5-0.3-2-0.9s-0.8-1.3-0.8-2.1c0-0.8,0.3-1.5,0.9-2.1
			c0.6-0.6,1.3-0.9,2.1-0.9c0.8,0,1.5,0.3,2,0.9c0.5,0.6,0.8,1.3,0.8,2.1C533.7-22.7,533.4-22,532.8-21.4z M530.6-21.3
			c0.6,0,1.2-0.2,1.6-0.6c0.5-0.5,0.7-1,0.7-1.6c0-0.6-0.2-1.1-0.7-1.5c-0.4-0.4-0.9-0.6-1.5-0.6c-0.6,0-1.1,0.2-1.5,0.6
			c-0.4,0.4-0.6,0.9-0.6,1.5c0,0.6,0.2,1.1,0.6,1.6C529.6-21.6,530.1-21.3,530.6-21.3z"/>
		<path class="st26" d="M542.6-20.7h-0.8l-2.3-5.7h0.8l1.9,4.7l1.9-4.7h0.8L542.6-20.7z"/>
		<path class="st26" d="M551.4-20.7h-0.7v-0.9c-0.6,0.7-1.4,1-2.3,1c-0.8,0-1.5-0.3-2-0.9c-0.5-0.6-0.8-1.3-0.8-2.1
			c0-0.8,0.3-1.5,0.9-2.1c0.6-0.6,1.3-0.9,2.1-0.8c0.8,0,1.5,0.3,2,0.9c0.6,0.6,0.8,1.3,0.8,2.1v0V-20.7z M546.3-23.6
			c0,0.6,0.2,1.1,0.6,1.6c0.4,0.4,0.9,0.7,1.5,0.7c0.6,0,1.2-0.2,1.6-0.6c0.5-0.5,0.7-1,0.6-1.6c0-0.6-0.2-1.1-0.6-1.5
			c-0.4-0.4-0.9-0.6-1.5-0.6c-0.6,0-1.1,0.2-1.5,0.6S546.3-24.2,546.3-23.6z"/>
		<path class="st26" d="M557.3-23.1c0,0.7-0.2,1.4-0.7,1.8c-0.5,0.5-1.1,0.7-1.8,0.7s-1.3-0.2-1.8-0.7c-0.5-0.5-0.7-1.1-0.7-1.8
			v-3.2h0.8v3.3c0,0.5,0.2,0.9,0.5,1.2c0.3,0.3,0.8,0.5,1.2,0.5s0.9-0.2,1.2-0.5c0.3-0.4,0.5-0.8,0.5-1.2v-3.3h0.8V-23.1z"/>
		<path class="st26" d="M558.9-20.7h-0.8v-7.7h0.8V-20.7z"/>
		<path class="st26" d="M561.8-20.6c-1.4,0-2.1-0.6-2.1-1.8v-6h0.8v2h1.3v0.7h-1.3v3.2c0,0.8,0.4,1.3,1.3,1.3V-20.6z"/>
		<path class="st26" d="M568.2-18.7h-0.7v-4.8c0,0,0,0,0,0c0-0.8,0.3-1.5,0.9-2.1c0.6-0.6,1.3-0.9,2.1-0.9c0.8,0,1.5,0.3,2,0.9
			s0.8,1.3,0.8,2.1c0,0.8-0.3,1.5-0.9,2.1c-0.6,0.6-1.3,0.9-2.1,0.8c-0.8,0-1.5-0.4-2.1-1V-18.7z M570.5-25.8
			c-0.6,0-1.2,0.2-1.6,0.6c-0.4,0.5-0.6,1-0.6,1.6c0,0.6,0.2,1.1,0.6,1.5c0.4,0.4,0.9,0.6,1.5,0.6c0.6,0,1.1-0.2,1.5-0.6
			c0.4-0.4,0.7-0.9,0.7-1.5c0-0.6-0.2-1.1-0.6-1.6C571.6-25.5,571.1-25.8,570.5-25.8z"/>
		<path class="st26" d="M579.9-20.7h-0.7v-0.9c-0.6,0.7-1.4,1-2.3,1c-0.8,0-1.5-0.3-2-0.9c-0.5-0.6-0.8-1.3-0.8-2.1
			c0-0.8,0.3-1.5,0.9-2.1c0.6-0.6,1.3-0.9,2.1-0.8c0.8,0,1.5,0.3,2,0.9c0.6,0.6,0.8,1.3,0.8,2.1v0V-20.7z M574.9-23.6
			c0,0.6,0.2,1.1,0.6,1.6c0.4,0.4,0.9,0.7,1.5,0.7c0.6,0,1.2-0.2,1.6-0.6c0.5-0.5,0.7-1,0.6-1.6c0-0.6-0.2-1.1-0.6-1.5
			c-0.4-0.4-0.9-0.6-1.5-0.6c-0.6,0-1.1,0.2-1.5,0.6S574.9-24.2,574.9-23.6z"/>
		<path class="st26" d="M581.5-20.7h-0.8v-5.7h0.7v0.8c0.2-0.3,0.4-0.5,0.7-0.7c0.3-0.1,0.6-0.2,0.9-0.2v0.8c-0.4,0-0.6,0.1-0.9,0.3
			s-0.4,0.3-0.4,0.5c-0.1,0.2-0.2,0.5-0.2,0.9V-20.7z"/>
		<path class="st26" d="M585.7-20.6c-1.4,0-2.1-0.6-2.1-1.8v-6h0.8v2h1.3v0.7h-1.3v3.2c0,0.8,0.4,1.3,1.3,1.3V-20.6z"/>
		<path class="st26" d="M591.4-20.7h-0.8V-24c0-0.5-0.2-0.9-0.5-1.2c-0.3-0.4-0.7-0.5-1.2-0.5s-0.9,0.2-1.2,0.5
			c-0.3,0.3-0.5,0.8-0.5,1.2v3.3h-0.8v-3.2c0-0.7,0.2-1.3,0.7-1.8c0.5-0.5,1.1-0.7,1.8-0.7c0.7,0,1.3,0.2,1.8,0.7
			c0.5,0.5,0.7,1.1,0.7,1.8V-20.7z"/>
		<path class="st26" d="M597.9-22.6c-0.2,0.6-0.6,1.1-1.1,1.5s-1.1,0.5-1.7,0.5c-0.8,0-1.5-0.3-2.1-0.8c-0.6-0.6-0.9-1.3-0.9-2.1
			c0-0.8,0.3-1.6,0.9-2.2c0.6-0.6,1.4-0.9,2.2-0.9c0.8,0.1,1.4,0.4,2,0.9c0.5,0.6,0.8,1.2,0.8,1.9v0.4h-5.1c0.1,0.6,0.3,1,0.7,1.4
			c0.4,0.4,0.9,0.6,1.5,0.5c0.9,0,1.5-0.4,1.9-1.2H597.9z M597.3-24c-0.1-0.5-0.4-1-0.8-1.3c-0.4-0.3-0.9-0.5-1.4-0.5
			c-0.5,0-1,0.2-1.4,0.5c-0.4,0.3-0.7,0.8-0.8,1.3H597.3z"/>
		<path class="st26" d="M599.5-20.7h-0.8v-5.7h0.7v0.8c0.2-0.3,0.4-0.5,0.7-0.7c0.3-0.1,0.6-0.2,0.9-0.2v0.8c-0.3,0-0.6,0.1-0.9,0.3
			c-0.2,0.2-0.4,0.3-0.4,0.5c-0.1,0.2-0.2,0.5-0.2,0.9V-20.7z"/>
	</g>
	<g>
		<g id="XMLID_1325_">
			<path id="XMLID_1666_" class="st28" d="M530.9-44c0.2,0,2.3-6,2.3-6l9.3,0l2.4,6L530.9-44z M550.4-44c0.2,0,2.3-6,2.3-6l9.3,0
				l2.4,6L550.4-44z M550.4-44"/>
			<path id="XMLID_1665_" class="st0" d="M525.6-42.8l-19.5,0c-0.4,0-0.8-0.2-1-0.6c-0.3-0.4-0.3-0.8-0.1-1.1l4.3-9.8
				c0.2-0.4,0.6-0.8,1.1-0.8l10.8,0c0.5,0,0.9,0.3,1.1,0.8l4.3,9.8c0.2,0.4,0.1,0.8-0.1,1.1C526.5-43,526.1-42.8,525.6-42.8
				L525.6-42.8z M508.1-45.2l15.7,0l-3.3-7.3l-9.3,0L508.1-45.2z M508.1-45.2"/>
			<path id="XMLID_1664_" class="st0" d="M545.2-42.8l-19.5,0c-0.4,0-0.8-0.2-1-0.6c-0.3-0.4-0.3-0.8-0.1-1.1l4.3-9.8
				c0.2-0.4,0.6-0.8,1.1-0.8l10.8,0c0.5,0,0.9,0.3,1.1,0.8l4.3,9.8c0.2,0.4,0.1,0.8-0.1,1.1C545.9-43,545.5-42.8,545.2-42.8
				L545.2-42.8z M527.5-45.2l15.7,0l-3.2-7.3l-9.3,0L527.5-45.2z M527.5-45.2"/>
			<path id="XMLID_1663_" class="st0" d="M535.5-52.5l-19.5,0c-0.4,0-0.8-0.2-1-0.6c-0.3-0.4-0.3-0.8-0.1-1.1l4.3-9.8
				c0.2-0.4,0.6-0.8,1.1-0.8l10.8,0c0.5,0,0.9,0.3,1.1,0.8l4.3,9.8c0.2,0.4,0.1,0.8-0.1,1.1C536.3-52.7,535.9-52.5,535.5-52.5
				L535.5-52.5z M517.9-55l15.7,0l-3.3-7.3l-9.3,0L517.9-55z M517.9-55"/>
			<path id="XMLID_1662_" class="st0" d="M555-52.5l-19.5,0c-0.4,0-0.8-0.2-1-0.6c-0.3-0.4-0.3-0.8-0.1-1.1l4.3-9.8
				c0.2-0.4,0.6-0.8,1.1-0.8h10.8c0.5,0,0.9,0.3,1.1,0.8l4.3,9.8c0.2,0.4,0.1,0.8-0.1,1.1C555.8-52.7,555.4-52.5,555-52.5L555-52.5z
				 M537.3-55l15.7,0l-3.3-7.3l-9.3,0L537.3-55z M537.3-55"/>
			<g id="XMLID_1659_">
				<path id="XMLID_1661_" class="st0" d="M545-62.3l-19.5,0c-0.4,0-0.8-0.2-1-0.6c-0.3-0.4-0.3-0.8-0.1-1.1l4.3-9.8
					c0.2-0.4,0.6-0.8,1.1-0.8l10.8,0c0.5,0,0.9,0.3,1.1,0.8l4.3,9.8c0.2,0.4,0.1,0.8-0.1,1.1C545.8-62.5,545.5-62.3,545-62.3
					L545-62.3z M527.5-64.7l15.7,0l-3.3-7.3h-9.3L527.5-64.7z M564.4-42.8l-19.5,0c-0.4,0-0.8-0.2-1-0.6c-0.3-0.4-0.3-0.8-0.1-1.1
					l4.3-9.8c0.2-0.4,0.6-0.8,1.1-0.8l10.8,0c0.5,0,0.9,0.3,1.1,0.8l4.3,9.8c0.2,0.4,0.1,0.8-0.1,1.1
					C565.1-43,564.7-42.8,564.4-42.8L564.4-42.8z M546.7-45.2l15.7,0l-3.3-7.3l-9.3,0L546.7-45.2z M546.7-45.2"/>
				<path id="XMLID_1660_" class="st0" d="M566.9-42.8l-63,0c-0.7,0-1.2-0.6-1.2-1.2c0-0.7,0.6-1.2,1.2-1.2l63,0
					c0.7,0,1.2,0.6,1.2,1.2C568.1-43.3,567.6-42.8,566.9-42.8L566.9-42.8z M566.9-42.8"/>
			</g>
		</g>
		<g>
			<path id="XMLID_3_" class="st28" d="M586.1-44c0.2,0,2.3-6,2.3-6l9.3,0l2.4,6L586.1-44z"/>
			<path class="st0" d="M600.9-44.5l-4.3-9.8c-0.2-0.4-0.6-0.8-1.1-0.8h-10.8c-0.5,0-0.9,0.3-1.1,0.8l-4.3,9.8
				c-0.2,0.4-0.2,0.8,0.1,1.1c0.2,0.4,0.6,0.6,1,0.6h19.5c0.4,0,0.8-0.2,1.2-0.6C601.1-43.7,601.1-44.1,600.9-44.5z M582.1-45.2
				l3.2-7.3h9.3l3.3,7.3H582.1z"/>
		</g>
		<g>
			<path id="XMLID_1_" class="st28" d="M476.8-44c0.2,0,2.3-6,2.3-6l9.3,0l2.4,6L476.8-44z"/>
			<path class="st0" d="M491.7-44.5l-4.3-9.8c-0.2-0.4-0.6-0.8-1.1-0.8h-10.8c-0.5,0-0.9,0.3-1.1,0.8l-4.3,9.8
				c-0.2,0.4-0.2,0.8,0.1,1.1c0.2,0.4,0.6,0.6,1,0.6h19.5c0.4,0,0.8-0.2,1.2-0.6C491.8-43.7,491.9-44.1,491.7-44.5z M472.9-45.2
				l3.2-7.3h9.3l3.3,7.3H472.9z"/>
		</g>
	</g>
</g>
</svg>
