<?xml version="1.0" encoding="utf-8"?>
<!-- Generator: Adobe Illustrator 19.0.0, SVG Export Plug-In . SVG Version: 6.00 Build 0)  -->
<svg version="1.1" id="图层_1" xmlns="http://www.w3.org/2000/svg" xmlns:xlink="http://www.w3.org/1999/xlink" x="0px" y="0px"
	 viewBox="-57 498 635 340" style="enable-background:new -57 498 635 340;" xml:space="preserve">
<style type="text/css">
	.st0{fill:none;stroke:#377DFF;stroke-width:2;stroke-linecap:round;stroke-linejoin:round;stroke-miterlimit:10;}
	.st1{clip-path:url(#SVGID_2_);fill:#F4F4F4;}
	.st2{fill:#73A4FF;}
	.st3{fill:#E1ECFF;}
	.st4{fill:#377DFF;}
	.st5{fill:#A3D9FF;stroke:#377DFF;stroke-width:2;stroke-linecap:round;stroke-linejoin:round;stroke-miterlimit:10;}
	.st6{clip-path:url(#SVGID_4_);fill:#F4F4F4;}
	.st7{clip-path:url(#SVGID_6_);fill:#F4F4F4;}
	.st8{clip-path:url(#SVGID_8_);fill:#F4F4F4;}
	.st9{clip-path:url(#SVGID_10_);fill:#F4F4F4;}
	.st10{fill:none;stroke:#377DFF;stroke-linecap:round;stroke-linejoin:round;stroke-miterlimit:10;}
	.st11{fill:#CDDFFF;}
	.st12{fill:none;stroke:#000000;stroke-linecap:round;stroke-linejoin:round;stroke-miterlimit:10;}
	.st13{fill:none;stroke:#377DFF;stroke-miterlimit:10;}
	.st14{fill:none;stroke:#377DFF;stroke-width:3;stroke-linecap:round;stroke-linejoin:round;stroke-miterlimit:10;}
	.st15{fill:#CDDFFF;stroke:#377DFF;stroke-width:2;stroke-miterlimit:10;}
	.st16{fill:#A3D9FF;stroke:#377DFF;stroke-width:3;stroke-linecap:round;stroke-linejoin:round;stroke-miterlimit:10;}
	.st17{enable-background:new    ;}
	.st18{fill:#5D5D5D;}
	.st19{fill:#73A4FF;stroke:#377DFF;stroke-width:3;stroke-linecap:round;stroke-linejoin:round;stroke-miterlimit:10;}
	.st20{fill:#FFFFFF;stroke:#377DFF;stroke-width:2;stroke-linecap:round;stroke-linejoin:round;stroke-miterlimit:10;}
</style>
<g>
	<g id="XMLID_645_">
		<line id="XMLID_650_" class="st0" x1="-55.4" y1="721.5" x2="-55.4" y2="707.7"/>
		<line id="XMLID_649_" class="st0" x1="-55.4" y1="738.3" x2="-55.4" y2="731.5"/>
		<path id="XMLID_648_" class="st0" d="M576.4,792.2v28.4c0,5.9-6.4,10.7-14.2,10.7H-41.2c-7.8,0-14.2-4.8-14.2-10.7V753"/>
		<line id="XMLID_647_" class="st0" x1="576.4" y1="760.2" x2="576.4" y2="783.2"/>
		<path id="XMLID_646_" class="st0" d="M-55.4,696.8V673c0-5.9,6.4-10.7,14.2-10.7h603.3c7.8,0,14.2,4.8,14.2,10.7v78.9"/>
	</g>
	<g id="XMLID_613_">
		<g id="XMLID_640_">
			<g>
				<defs>
					<rect id="SVGID_1_" x="65.6" y="535.8" width="53.4" height="49.4"/>
				</defs>
				<clipPath id="SVGID_2_">
					<use xlink:href="#SVGID_1_"  style="overflow:visible;"/>
				</clipPath>
				<path id="XMLID_642_" class="st1" d="M118,585.2H66.5c-0.5,0-0.9-0.4-0.9-0.9s0.4-0.9,0.9-0.9H118c0.5,0,0.9,0.4,0.9,0.9
					S118.5,585.2,118,585.2L118,585.2z"/>
			</g>
		</g>
		<path id="XMLID_637_" class="st2" d="M110.6,583H97.3c-0.4,0-0.7-0.3-0.7-0.7V559c0-0.3,0.3-0.6,0.6-0.6h8.6
			c3.1,0,5.6,2.5,5.6,5.6v18.4C111.4,582.7,111,583,110.6,583L110.6,583z"/>
		<path id="XMLID_634_" class="st3" d="M98.1,582.2H65.9c-0.2,0-0.3-0.2-0.3-0.3v-40.6c0-3.1,2.5-5.6,5.6-5.6h21.7
			c3.1,0,5.6,2.5,5.6,5.6V582C98.4,582.2,98.3,582.2,98.1,582.2L98.1,582.2z"/>
		<path id="XMLID_631_" class="st4" d="M101.9,583.7H70.1c-0.4,0-0.8-0.4-0.8-0.8v-28.1c0-0.4,0.3-0.7,0.7-0.7
			c0.4,0,0.7,0.3,0.7,0.7v27.6h30.8v-41c0-1.9-1.6-3.5-3.5-3.5H74.2c-1.9,0-3.5,1.6-3.5,3.5v1.5c0,0.4-0.3,0.7-0.7,0.7
			c-0.4,0-0.7-0.3-0.7-0.7v-1.5c0-2.7,2.2-4.8,4.8-4.8H98c2.7,0,4.8,2.2,4.8,4.8v41.4C102.8,583.2,102.4,583.7,101.9,583.7
			L101.9,583.7z"/>
		<path id="XMLID_628_" class="st5" d="M90,582.8h-8.1c-0.1,0-0.2-0.1-0.2-0.2v-10c0-1.1,0.9-2.1,2.1-2.1h4.6c1.1,0,2.1,0.9,2.1,2.1
			v9.8C90.5,582.5,90.3,582.8,90,582.8L90,582.8z"/>
		<path id="XMLID_624_" class="st4" d="M70,550c-0.4,0-0.7-0.3-0.7-0.7v-4c0-0.4,0.3-0.7,0.7-0.7c0.4,0,0.7,0.3,0.7,0.7v4
			C70.7,549.8,70.4,550,70,550L70,550z M118,583.7H66.5c-0.4,0-0.7-0.3-0.7-0.7c0-0.4,0.3-0.7,0.7-0.7H118c0.4,0,0.7,0.3,0.7,0.7
			C118.7,583.3,118.4,583.7,118,583.7L118,583.7z"/>
		<path id="XMLID_620_" class="st4" d="M116,583.7h-13.8c-0.4,0-0.7-0.3-0.7-0.7v-24.1c0-0.6,0.5-1.2,1.2-1.2h8.3
			c2.8,0,5.1,2.3,5.1,5.1v20.9H116z M102.8,582.2h11.9v-19.6c0-2.1-1.7-3.7-3.7-3.7h-8.1L102.8,582.2L102.8,582.2z"/>
		<path id="XMLID_614_" class="st2" d="M81.6,551.8h-2.9c-1.1,0-2.1-0.9-2.1-2.1v-4.2c0-1.1,0.9-2.1,2.1-2.1h2.9
			c1.1,0,2.1,0.9,2.1,2.1v4.2C83.6,551,82.7,551.8,81.6,551.8L81.6,551.8z M93.5,551.8h-2.9c-1.1,0-2.1-0.9-2.1-2.1v-4.2
			c0-1.1,0.9-2.1,2.1-2.1h2.9c1.1,0,2.1,0.9,2.1,2.1v4.2C95.5,551,94.6,551.8,93.5,551.8L93.5,551.8z M81.6,563h-2.9
			c-1.1,0-2.1-0.9-2.1-2.1v-4.2c0-1.1,0.9-2.1,2.1-2.1h2.9c1.1,0,2.1,0.9,2.1,2.1v4.2C83.6,562,82.7,563,81.6,563L81.6,563z
			 M93.5,563h-2.9c-1.1,0-2.1-0.9-2.1-2.1v-4.2c0-1.1,0.9-2.1,2.1-2.1h2.9c1.1,0,2.1,0.9,2.1,2.1v4.2C95.5,562,94.6,563,93.5,563
			L93.5,563z"/>
	</g>
	<g id="XMLID_581_">
		<g id="XMLID_608_">
			<g>
				<defs>
					<rect id="SVGID_3_" x="152.1" y="535.8" width="53.4" height="49.4"/>
				</defs>
				<clipPath id="SVGID_4_">
					<use xlink:href="#SVGID_3_"  style="overflow:visible;"/>
				</clipPath>
				<path id="XMLID_610_" class="st6" d="M204.5,585.2H153c-0.5,0-0.9-0.4-0.9-0.9s0.4-0.9,0.9-0.9h51.5c0.5,0,0.9,0.4,0.9,0.9
					S205,585.2,204.5,585.2L204.5,585.2z"/>
			</g>
		</g>
		<path id="XMLID_605_" class="st2" d="M197.1,583h-13.3c-0.4,0-0.7-0.3-0.7-0.7V559c0-0.3,0.3-0.6,0.6-0.6h8.6
			c3.1,0,5.6,2.5,5.6,5.6v18.4C197.8,582.7,197.5,583,197.1,583L197.1,583z"/>
		<path id="XMLID_602_" class="st3" d="M184.6,582.2h-32.2c-0.2,0-0.3-0.2-0.3-0.3v-40.6c0-3.1,2.5-5.6,5.6-5.6h21.7
			c3.1,0,5.6,2.5,5.6,5.6V582C184.9,582.2,184.7,582.2,184.6,582.2L184.6,582.2z"/>
		<path id="XMLID_599_" class="st4" d="M188.4,583.7h-31.8c-0.4,0-0.8-0.4-0.8-0.8v-28.1c0-0.4,0.3-0.7,0.7-0.7
			c0.4,0,0.7,0.3,0.7,0.7v27.6H188v-41c0-1.9-1.6-3.5-3.5-3.5h-23.8c-1.9,0-3.5,1.6-3.5,3.5v1.5c0,0.4-0.3,0.7-0.7,0.7
			c-0.4,0-0.7-0.3-0.7-0.7v-1.5c0-2.7,2.2-4.8,4.8-4.8h23.8c2.7,0,4.8,2.2,4.8,4.8v41.4C189.3,583.2,188.9,583.7,188.4,583.7
			L188.4,583.7z"/>
		<path id="XMLID_596_" class="st5" d="M176.5,582.8h-8.1c-0.1,0-0.2-0.1-0.2-0.2v-10c0-1.1,0.9-2.1,2.1-2.1h4.6
			c1.1,0,2.1,0.9,2.1,2.1v9.8C176.9,582.5,176.7,582.8,176.5,582.8L176.5,582.8z"/>
		<path id="XMLID_592_" class="st4" d="M156.5,550c-0.4,0-0.7-0.3-0.7-0.7v-4c0-0.4,0.3-0.7,0.7-0.7c0.4,0,0.7,0.3,0.7,0.7v4
			C157.1,549.8,156.8,550,156.5,550L156.5,550z M204.5,583.7H153c-0.4,0-0.7-0.3-0.7-0.7c0-0.4,0.3-0.7,0.7-0.7h51.5
			c0.4,0,0.7,0.3,0.7,0.7C205.1,583.3,204.8,583.7,204.5,583.7L204.5,583.7z"/>
		<path id="XMLID_588_" class="st4" d="M202.5,583.7h-13.8c-0.4,0-0.7-0.3-0.7-0.7v-24.1c0-0.6,0.5-1.2,1.2-1.2h8.3
			c2.8,0,5.1,2.3,5.1,5.1L202.5,583.7L202.5,583.7z M189.3,582.2h11.9v-19.6c0-2.1-1.7-3.7-3.7-3.7h-8.1v23.3H189.3z"/>
		<path id="XMLID_582_" class="st2" d="M168,551.8h-2.9c-1.1,0-2.1-0.9-2.1-2.1v-4.2c0-1.1,0.9-2.1,2.1-2.1h2.9
			c1.1,0,2.1,0.9,2.1,2.1v4.2C170.1,551,169.2,551.8,168,551.8L168,551.8z M179.9,551.8H177c-1.1,0-2.1-0.9-2.1-2.1v-4.2
			c0-1.1,0.9-2.1,2.1-2.1h2.9c1.1,0,2.1,0.9,2.1,2.1v4.2C182,551,181.1,551.8,179.9,551.8L179.9,551.8z M168,563h-2.9
			c-1.1,0-2.1-0.9-2.1-2.1v-4.2c0-1.1,0.9-2.1,2.1-2.1h2.9c1.1,0,2.1,0.9,2.1,2.1v4.2C170.1,562,169.2,563,168,563L168,563z
			 M179.9,563H177c-1.1,0-2.1-0.9-2.1-2.1v-4.2c0-1.1,0.9-2.1,2.1-2.1h2.9c1.1,0,2.1,0.9,2.1,2.1v4.2C182,562,181.1,563,179.9,563
			L179.9,563z"/>
	</g>
	<g id="XMLID_549_">
		<g id="XMLID_576_">
			<g>
				<defs>
					<rect id="SVGID_5_" x="238.5" y="535.8" width="53.4" height="49.4"/>
				</defs>
				<clipPath id="SVGID_6_">
					<use xlink:href="#SVGID_5_"  style="overflow:visible;"/>
				</clipPath>
				<path id="XMLID_578_" class="st7" d="M290.9,585.2h-51.5c-0.5,0-0.9-0.4-0.9-0.9s0.4-0.9,0.9-0.9h51.5c0.5,0,0.9,0.4,0.9,0.9
					C291.8,584.8,291.4,585.2,290.9,585.2L290.9,585.2z"/>
			</g>
		</g>
		<path id="XMLID_573_" class="st2" d="M283.6,583h-13.3c-0.4,0-0.7-0.3-0.7-0.7V559c0-0.3,0.3-0.6,0.6-0.6h8.6
			c3.1,0,5.6,2.5,5.6,5.6v18.4C284.3,582.7,284,583,283.6,583L283.6,583z"/>
		<path id="XMLID_570_" class="st3" d="M271,582.2h-32.2c-0.2,0-0.3-0.2-0.3-0.3v-40.6c0-3.1,2.5-5.6,5.6-5.6h21.7
			c3.1,0,5.6,2.5,5.6,5.6V582C271.3,582.2,271.2,582.2,271,582.2L271,582.2z"/>
		<path id="XMLID_567_" class="st4" d="M274.9,583.7h-31.8c-0.4,0-0.8-0.4-0.8-0.8v-28.1c0-0.4,0.3-0.7,0.7-0.7s0.7,0.3,0.7,0.7
			v27.6h30.8v-41c0-1.9-1.6-3.5-3.5-3.5h-23.8c-1.9,0-3.5,1.6-3.5,3.5v1.5c0,0.4-0.3,0.7-0.7,0.7s-0.7-0.3-0.7-0.7v-1.5
			c0-2.7,2.2-4.8,4.8-4.8h23.8c2.7,0,4.8,2.2,4.8,4.8v41.4C275.7,583.2,275.4,583.7,274.9,583.7L274.9,583.7z"/>
		<path id="XMLID_564_" class="st5" d="M262.9,582.8h-8.1c-0.1,0-0.2-0.1-0.2-0.2v-10c0-1.1,0.9-2.1,2.1-2.1h4.6
			c1.1,0,2.1,0.9,2.1,2.1v9.8C263.4,582.5,263.2,582.8,262.9,582.8L262.9,582.8z"/>
		<path id="XMLID_560_" class="st4" d="M242.9,550c-0.4,0-0.7-0.3-0.7-0.7v-4c0-0.4,0.3-0.7,0.7-0.7s0.7,0.3,0.7,0.7v4
			C243.6,549.8,243.3,550,242.9,550L242.9,550z M290.9,583.7h-51.5c-0.4,0-0.7-0.3-0.7-0.7c0-0.4,0.3-0.7,0.7-0.7h51.5
			c0.4,0,0.7,0.3,0.7,0.7C291.6,583.3,291.3,583.7,290.9,583.7L290.9,583.7z"/>
		<path id="XMLID_556_" class="st4" d="M289,583.7h-13.8c-0.4,0-0.7-0.3-0.7-0.7v-24.1c0-0.6,0.5-1.2,1.2-1.2h8.3
			c2.8,0,5.1,2.3,5.1,5.1L289,583.7L289,583.7z M275.7,582.2h11.9v-19.6c0-2.1-1.7-3.7-3.7-3.7h-8.1v23.3H275.7z"/>
		<path id="XMLID_550_" class="st2" d="M254.5,551.8h-2.9c-1.1,0-2.1-0.9-2.1-2.1v-4.2c0-1.1,0.9-2.1,2.1-2.1h2.9
			c1.1,0,2.1,0.9,2.1,2.1v4.2C256.6,551,255.6,551.8,254.5,551.8L254.5,551.8z M266.4,551.8h-2.9c-1.1,0-2.1-0.9-2.1-2.1v-4.2
			c0-1.1,0.9-2.1,2.1-2.1h2.9c1.1,0,2.1,0.9,2.1,2.1v4.2C268.5,551,267.5,551.8,266.4,551.8L266.4,551.8z M254.5,563h-2.9
			c-1.1,0-2.1-0.9-2.1-2.1v-4.2c0-1.1,0.9-2.1,2.1-2.1h2.9c1.1,0,2.1,0.9,2.1,2.1v4.2C256.6,562,255.6,563,254.5,563L254.5,563z
			 M266.4,563h-2.9c-1.1,0-2.1-0.9-2.1-2.1v-4.2c0-1.1,0.9-2.1,2.1-2.1h2.9c1.1,0,2.1,0.9,2.1,2.1v4.2
			C268.5,562,267.5,563,266.4,563L266.4,563z"/>
	</g>
	<g id="XMLID_517_">
		<g id="XMLID_544_">
			<g>
				<defs>
					<rect id="SVGID_7_" x="325" y="535.8" width="53.4" height="49.4"/>
				</defs>
				<clipPath id="SVGID_8_">
					<use xlink:href="#SVGID_7_"  style="overflow:visible;"/>
				</clipPath>
				<path id="XMLID_546_" class="st8" d="M377.4,585.2h-51.5c-0.5,0-0.9-0.4-0.9-0.9s0.4-0.9,0.9-0.9h51.5c0.5,0,0.9,0.4,0.9,0.9
					C378.3,584.8,377.9,585.2,377.4,585.2L377.4,585.2z"/>
			</g>
		</g>
		<path id="XMLID_541_" class="st2" d="M370.1,583h-13.3c-0.4,0-0.7-0.3-0.7-0.7V559c0-0.3,0.3-0.6,0.6-0.6h8.6
			c3.1,0,5.6,2.5,5.6,5.6v18.4C370.8,582.7,370.4,583,370.1,583L370.1,583z"/>
		<path id="XMLID_538_" class="st3" d="M357.5,582.2h-32.2c-0.2,0-0.3-0.2-0.3-0.3v-40.6c0-3.1,2.5-5.6,5.6-5.6h21.7
			c3.1,0,5.6,2.5,5.6,5.6V582C357.8,582.2,357.7,582.2,357.5,582.2L357.5,582.2z"/>
		<path id="XMLID_535_" class="st4" d="M361.3,583.7h-31.8c-0.4,0-0.8-0.4-0.8-0.8v-28.1c0-0.4,0.3-0.7,0.7-0.7s0.7,0.3,0.7,0.7
			v27.6h30.8v-41c0-1.9-1.6-3.5-3.5-3.5h-23.8c-1.9,0-3.5,1.6-3.5,3.5v1.5c0,0.4-0.3,0.7-0.7,0.7s-0.7-0.3-0.7-0.7v-1.5
			c0-2.7,2.2-4.8,4.8-4.8h23.8c2.7,0,4.8,2.2,4.8,4.8v41.4C362.2,583.2,361.8,583.7,361.3,583.7L361.3,583.7z"/>
		<path id="XMLID_532_" class="st5" d="M349.4,582.8h-8.1c-0.1,0-0.2-0.1-0.2-0.2v-10c0-1.1,0.9-2.1,2.1-2.1h4.6
			c1.1,0,2.1,0.9,2.1,2.1v9.8C349.9,582.5,349.7,582.8,349.4,582.8L349.4,582.8z"/>
		<path id="XMLID_528_" class="st4" d="M329.4,550c-0.4,0-0.7-0.3-0.7-0.7v-4c0-0.4,0.3-0.7,0.7-0.7s0.7,0.3,0.7,0.7v4
			C330.1,549.8,329.8,550,329.4,550L329.4,550z M377.4,583.7h-51.5c-0.4,0-0.7-0.3-0.7-0.7c0-0.4,0.3-0.7,0.7-0.7h51.5
			c0.4,0,0.7,0.3,0.7,0.7C378.1,583.3,377.8,583.7,377.4,583.7L377.4,583.7z"/>
		<path id="XMLID_524_" class="st4" d="M375.4,583.7h-13.8c-0.4,0-0.7-0.3-0.7-0.7v-24.1c0-0.6,0.5-1.2,1.2-1.2h8.3
			c2.8,0,5.1,2.3,5.1,5.1L375.4,583.7L375.4,583.7z M362.2,582.2h11.9v-19.6c0-2.1-1.7-3.7-3.7-3.7h-8.1v23.3H362.2z"/>
		<path id="XMLID_518_" class="st2" d="M341,551.8h-2.9c-1.1,0-2.1-0.9-2.1-2.1v-4.2c0-1.1,0.9-2.1,2.1-2.1h2.9
			c1.1,0,2.1,0.9,2.1,2.1v4.2C343.1,551,342.1,551.8,341,551.8L341,551.8z M352.9,551.8H350c-1.1,0-2.1-0.9-2.1-2.1v-4.2
			c0-1.1,0.9-2.1,2.1-2.1h2.9c1.1,0,2.1,0.9,2.1,2.1v4.2C354.9,551,354,551.8,352.9,551.8L352.9,551.8z M341,563h-2.9
			c-1.1,0-2.1-0.9-2.1-2.1v-4.2c0-1.1,0.9-2.1,2.1-2.1h2.9c1.1,0,2.1,0.9,2.1,2.1v4.2C343.1,562,342.1,563,341,563L341,563z
			 M352.9,563H350c-1.1,0-2.1-0.9-2.1-2.1v-4.2c0-1.1,0.9-2.1,2.1-2.1h2.9c1.1,0,2.1,0.9,2.1,2.1v4.2C354.9,562,354,563,352.9,563
			L352.9,563z"/>
	</g>
	<g id="XMLID_485_">
		<g id="XMLID_512_">
			<g>
				<defs>
					<rect id="SVGID_9_" x="411.5" y="535.8" width="53.4" height="49.4"/>
				</defs>
				<clipPath id="SVGID_10_">
					<use xlink:href="#SVGID_9_"  style="overflow:visible;"/>
				</clipPath>
				<path id="XMLID_514_" class="st9" d="M463.9,585.2h-51.5c-0.5,0-0.9-0.4-0.9-0.9s0.4-0.9,0.9-0.9h51.5c0.5,0,0.9,0.4,0.9,0.9
					C464.8,584.8,464.4,585.2,463.9,585.2L463.9,585.2z"/>
			</g>
		</g>
		<path id="XMLID_509_" class="st2" d="M456.5,583h-13.3c-0.4,0-0.7-0.3-0.7-0.7V559c0-0.3,0.3-0.6,0.6-0.6h8.6
			c3.1,0,5.6,2.5,5.6,5.6v18.4C457.2,582.7,456.9,583,456.5,583L456.5,583z"/>
		<path id="XMLID_506_" class="st3" d="M444,582.2h-32.2c-0.2,0-0.3-0.2-0.3-0.3v-40.6c0-3.1,2.5-5.6,5.6-5.6h21.7
			c3.1,0,5.6,2.5,5.6,5.6V582C444.3,582.2,444.1,582.2,444,582.2L444,582.2z"/>
		<path id="XMLID_503_" class="st4" d="M447.8,583.7H416c-0.4,0-0.8-0.4-0.8-0.8v-28.1c0-0.4,0.3-0.7,0.7-0.7s0.7,0.3,0.7,0.7v27.6
			h30.8v-41c0-1.9-1.6-3.5-3.5-3.5H420c-1.9,0-3.5,1.6-3.5,3.5v1.5c0,0.4-0.3,0.7-0.7,0.7s-0.7-0.3-0.7-0.7v-1.5
			c0-2.7,2.2-4.8,4.8-4.8h23.8c2.7,0,4.8,2.2,4.8,4.8v41.4C448.7,583.2,448.3,583.7,447.8,583.7L447.8,583.7z"/>
		<path id="XMLID_500_" class="st5" d="M435.9,582.8h-8.1c-0.1,0-0.2-0.1-0.2-0.2v-10c0-1.1,0.9-2.1,2.1-2.1h4.6
			c1.1,0,2.1,0.9,2.1,2.1v9.8C436.3,582.5,436.1,582.8,435.9,582.8L435.9,582.8z"/>
		<path id="XMLID_496_" class="st4" d="M415.9,550c-0.4,0-0.7-0.3-0.7-0.7v-4c0-0.4,0.3-0.7,0.7-0.7s0.7,0.3,0.7,0.7v4
			C416.5,549.8,416.2,550,415.9,550L415.9,550z M463.9,583.7h-51.5c-0.4,0-0.7-0.3-0.7-0.7c0-0.4,0.3-0.7,0.7-0.7h51.5
			c0.4,0,0.7,0.3,0.7,0.7C464.5,583.3,464.3,583.7,463.9,583.7L463.9,583.7z"/>
		<path id="XMLID_492_" class="st4" d="M461.9,583.7h-13.8c-0.4,0-0.7-0.3-0.7-0.7v-24.1c0-0.6,0.5-1.2,1.2-1.2h8.3
			c2.8,0,5.1,2.3,5.1,5.1L461.9,583.7L461.9,583.7z M448.7,582.2h11.9v-19.6c0-2.1-1.7-3.7-3.7-3.7h-8.1v23.3H448.7z"/>
		<path id="XMLID_486_" class="st2" d="M427.4,551.8h-2.9c-1.1,0-2.1-0.9-2.1-2.1v-4.2c0-1.1,0.9-2.1,2.1-2.1h2.9
			c1.1,0,2.1,0.9,2.1,2.1v4.2C429.5,551,428.6,551.8,427.4,551.8L427.4,551.8z M439.3,551.8h-2.9c-1.1,0-2.1-0.9-2.1-2.1v-4.2
			c0-1.1,0.9-2.1,2.1-2.1h2.9c1.1,0,2.1,0.9,2.1,2.1v4.2C441.4,551,440.5,551.8,439.3,551.8L439.3,551.8z M427.4,563h-2.9
			c-1.1,0-2.1-0.9-2.1-2.1v-4.2c0-1.1,0.9-2.1,2.1-2.1h2.9c1.1,0,2.1,0.9,2.1,2.1v4.2C429.5,562,428.6,563,427.4,563L427.4,563z
			 M439.3,563h-2.9c-1.1,0-2.1-0.9-2.1-2.1v-4.2c0-1.1,0.9-2.1,2.1-2.1h2.9c1.1,0,2.1,0.9,2.1,2.1v4.2
			C441.4,562,440.5,563,439.3,563L439.3,563z"/>
	</g>
	<path id="XMLID_484_" class="st10" d="M69.7,524.5c5.5,0,10,4.5,10,10"/>
	<path id="XMLID_483_" class="st10" d="M102,524.5c-5.5,0-10,4.5-10,10"/>
	<line id="XMLID_482_" class="st10" x1="85.5" y1="522" x2="85.5" y2="535"/>
	<g id="XMLID_474_">
		<path id="XMLID_481_" class="st2" d="M59.2,522c-3.4,0-6.2,2.5-6.7,5.7c-0.1,0.6,0.4,1.1,1,1.1H65c0.6,0,1.1-0.5,1-1.1
			C65.4,524.5,62.6,522,59.2,522z"/>
		<path id="XMLID_480_" class="st11" d="M57.1,515c-0.2,0-0.4,0-0.6,0.1c1.6,0.3,2.9,1.7,2.9,3.4s-1.2,3.1-2.9,3.4
			c0.2,0,0.4,0.1,0.6,0.1c1.9,0,3.5-1.5,3.5-3.5C60.6,516.7,59.1,515,57.1,515z"/>
		<circle id="XMLID_479_" class="st10" cx="57.6" cy="518.5" r="3.5"/>
		<path id="XMLID_478_" class="st12" d="M57.6,522"/>
		<path id="XMLID_477_" class="st10" d="M56.5,528.8h6.8c0.6,0,1.1-0.5,1-1.1c-0.3-1.8-1.3-3.3-2.7-4.4"/>
		<line id="XMLID_476_" class="st10" x1="54.8" y1="528.8" x2="55.2" y2="528.8"/>
		<path id="XMLID_475_" class="st10" d="M57.6,522c-3.4,0-6.2,2.5-6.7,5.7c-0.1,0.6,0.4,1.1,1,1.1h1.5"/>
	</g>
	<g id="XMLID_466_">
		<path id="XMLID_473_" class="st2" d="M112.7,522c-3.4,0-6.2,2.5-6.7,5.7c-0.1,0.6,0.4,1.1,1,1.1h11.5c0.6,0,1.1-0.5,1-1.1
			C118.9,524.5,116.1,522,112.7,522z"/>
		<path id="XMLID_472_" class="st11" d="M110.7,515c-0.2,0-0.4,0-0.6,0.1c1.6,0.3,2.9,1.7,2.9,3.4s-1.2,3.1-2.9,3.4
			c0.2,0,0.4,0.1,0.6,0.1c1.9,0,3.5-1.5,3.5-3.5C114.1,516.7,112.6,515,110.7,515z"/>
		<circle id="XMLID_471_" class="st10" cx="111.1" cy="518.5" r="3.5"/>
		<path id="XMLID_470_" class="st12" d="M111.1,522"/>
		<path id="XMLID_469_" class="st10" d="M110.1,528.8h6.8c0.6,0,1.1-0.5,1-1.1c-0.3-1.8-1.3-3.3-2.7-4.4"/>
		<line id="XMLID_468_" class="st10" x1="108.4" y1="528.8" x2="108.7" y2="528.8"/>
		<path id="XMLID_467_" class="st10" d="M111.1,522c-3.4,0-6.2,2.5-6.7,5.7c-0.1,0.6,0.4,1.1,1,1.1h1.5"/>
	</g>
	<g id="XMLID_458_">
		<path id="XMLID_465_" class="st2" d="M86.4,511.8c-3.4,0-6.2,2.5-6.7,5.7c-0.1,0.6,0.4,1.1,1,1.1h11.5c0.6,0,1.1-0.5,1-1.1
			C92.6,514.2,89.8,511.8,86.4,511.8z"/>
		<path id="XMLID_464_" class="st11" d="M84.4,504.9c-0.2,0-0.4,0-0.6,0.1c1.6,0.3,2.9,1.7,2.9,3.4c0,1.7-1.2,3.1-2.9,3.4
			c0.2,0,0.4,0.1,0.6,0.1c1.9,0,3.5-1.5,3.5-3.5C87.8,506.4,86.3,504.9,84.4,504.9z"/>
		<circle id="XMLID_463_" class="st10" cx="84.8" cy="508.2" r="3.5"/>
		<path id="XMLID_462_" class="st12" d="M84.8,511.8"/>
		<path id="XMLID_461_" class="st10" d="M83.8,518.5h6.8c0.6,0,1.1-0.5,1-1.1c-0.3-1.8-1.3-3.3-2.7-4.4"/>
		<line id="XMLID_460_" class="st10" x1="82.1" y1="518.5" x2="82.4" y2="518.5"/>
		<path id="XMLID_459_" class="st10" d="M84.8,511.8c-3.4,0-6.2,2.5-6.7,5.7c-0.1,0.6,0.4,1.1,1,1.1h1.5"/>
	</g>
	<path id="XMLID_457_" class="st10" d="M157.2,524.5c5.5,0,10,4.5,10,10"/>
	<path id="XMLID_456_" class="st10" d="M189.5,524.5c-5.5,0-10,4.5-10,10"/>
	<line id="XMLID_455_" class="st10" x1="173.5" y1="522" x2="173.5" y2="535"/>
	<g id="XMLID_447_">
		<path id="XMLID_454_" class="st2" d="M146.7,522c-3.4,0-6.2,2.5-6.7,5.7c-0.1,0.6,0.4,1.1,1,1.1h11.5c0.6,0,1.1-0.5,1-1.1
			C152.9,524.5,150.1,522,146.7,522z"/>
		<path id="XMLID_453_" class="st11" d="M144.6,515c-0.2,0-0.4,0-0.6,0.1c1.6,0.3,2.9,1.7,2.9,3.4s-1.2,3.1-2.9,3.4
			c0.2,0,0.4,0.1,0.6,0.1c1.9,0,3.5-1.5,3.5-3.5C148.1,516.7,146.5,515,144.6,515z"/>
		<circle id="XMLID_452_" class="st10" cx="145.1" cy="518.5" r="3.5"/>
		<path id="XMLID_451_" class="st12" d="M145.1,522"/>
		<path id="XMLID_450_" class="st10" d="M144,528.8h6.8c0.6,0,1.1-0.5,1-1.1c-0.3-1.8-1.3-3.3-2.7-4.4"/>
		<line id="XMLID_449_" class="st10" x1="142.3" y1="528.8" x2="142.7" y2="528.8"/>
		<path id="XMLID_448_" class="st10" d="M145.1,522c-3.4,0-6.2,2.5-6.7,5.7c-0.1,0.6,0.4,1.1,1,1.1h1.5"/>
	</g>
	<g id="XMLID_439_">
		<path id="XMLID_446_" class="st2" d="M200.2,522c-3.4,0-6.2,2.5-6.7,5.7c-0.1,0.6,0.4,1.1,1,1.1H206c0.6,0,1.1-0.5,1-1.1
			C206.4,524.5,203.6,522,200.2,522z"/>
		<path id="XMLID_445_" class="st11" d="M198.2,515c-0.2,0-0.4,0-0.6,0.1c1.6,0.3,2.9,1.7,2.9,3.4s-1.2,3.1-2.9,3.4
			c0.2,0,0.4,0.1,0.6,0.1c1.9,0,3.5-1.5,3.5-3.5C201.6,516.7,200.1,515,198.2,515z"/>
		<circle id="XMLID_444_" class="st10" cx="198.6" cy="518.5" r="3.5"/>
		<path id="XMLID_443_" class="st12" d="M198.6,522"/>
		<path id="XMLID_442_" class="st10" d="M197.6,528.8h6.8c0.6,0,1.1-0.5,1-1.1c-0.3-1.8-1.3-3.3-2.7-4.4"/>
		<line id="XMLID_441_" class="st10" x1="195.9" y1="528.8" x2="196.2" y2="528.8"/>
		<path id="XMLID_440_" class="st10" d="M198.6,522c-3.4,0-6.2,2.5-6.7,5.7c-0.1,0.6,0.4,1.1,1,1.1h1.5"/>
	</g>
	<g id="XMLID_431_">
		<path id="XMLID_438_" class="st2" d="M173.9,511.8c-3.4,0-6.2,2.5-6.7,5.7c-0.1,0.6,0.4,1.1,1,1.1h11.5c0.6,0,1.1-0.5,1-1.1
			C180.1,514.2,177.3,511.8,173.9,511.8z"/>
		<path id="XMLID_437_" class="st11" d="M171.9,504.9c-0.2,0-0.4,0-0.6,0.1c1.6,0.3,2.9,1.7,2.9,3.4c0,1.7-1.2,3.1-2.9,3.4
			c0.2,0,0.4,0.1,0.6,0.1c1.9,0,3.5-1.5,3.5-3.5C175.3,506.4,173.8,504.9,171.9,504.9z"/>
		<circle id="XMLID_436_" class="st10" cx="172.3" cy="508.2" r="3.5"/>
		<path id="XMLID_435_" class="st12" d="M172.3,511.8"/>
		<path id="XMLID_434_" class="st10" d="M171.3,518.5h6.8c0.6,0,1.1-0.5,1-1.1c-0.3-1.8-1.3-3.3-2.7-4.4"/>
		<line id="XMLID_433_" class="st10" x1="169.6" y1="518.5" x2="169.9" y2="518.5"/>
		<path id="XMLID_432_" class="st10" d="M172.3,511.8c-3.4,0-6.2,2.5-6.7,5.7c-0.1,0.6,0.4,1.1,1,1.1h1.5"/>
	</g>
	<path id="XMLID_430_" class="st10" d="M243.7,524.5c5.5,0,10,4.5,10,10"/>
	<path id="XMLID_429_" class="st10" d="M276,524.5c-5.5,0-10,4.5-10,10"/>
	<line id="XMLID_428_" class="st10" x1="259.5" y1="522" x2="259.5" y2="535"/>
	<g id="XMLID_420_">
		<path id="XMLID_427_" class="st2" d="M233.2,522c-3.4,0-6.2,2.5-6.7,5.7c-0.1,0.6,0.4,1.1,1,1.1H239c0.6,0,1.1-0.5,1-1.1
			C239.4,524.5,236.6,522,233.2,522z"/>
		<path id="XMLID_426_" class="st11" d="M231.1,515c-0.2,0-0.4,0-0.6,0.1c1.6,0.3,2.9,1.7,2.9,3.4s-1.2,3.1-2.9,3.4
			c0.2,0,0.4,0.1,0.6,0.1c1.9,0,3.5-1.5,3.5-3.5C234.6,516.7,233,515,231.1,515z"/>
		<circle id="XMLID_425_" class="st10" cx="231.5" cy="518.5" r="3.5"/>
		<path id="XMLID_424_" class="st12" d="M231.6,522"/>
		<path id="XMLID_423_" class="st10" d="M230.5,528.8h6.8c0.6,0,1.1-0.5,1-1.1c-0.3-1.8-1.3-3.3-2.7-4.4"/>
		<line id="XMLID_422_" class="st10" x1="228.8" y1="528.8" x2="229.2" y2="528.8"/>
		<path id="XMLID_421_" class="st10" d="M231.6,522c-3.4,0-6.2,2.5-6.7,5.7c-0.1,0.6,0.4,1.1,1,1.1h1.5"/>
	</g>
	<g id="XMLID_412_">
		<path id="XMLID_419_" class="st2" d="M286.7,522c-3.4,0-6.2,2.5-6.7,5.7c-0.1,0.6,0.4,1.1,1,1.1h11.5c0.6,0,1.1-0.5,1-1.1
			C292.9,524.5,290.1,522,286.7,522z"/>
		<path id="XMLID_418_" class="st11" d="M284.6,515c-0.2,0-0.4,0-0.6,0.1c1.6,0.3,2.9,1.7,2.9,3.4s-1.2,3.1-2.9,3.4
			c0.2,0,0.4,0.1,0.6,0.1c1.9,0,3.5-1.5,3.5-3.5C288.1,516.7,286.5,515,284.6,515z"/>
		<circle id="XMLID_417_" class="st10" cx="285.1" cy="518.5" r="3.5"/>
		<path id="XMLID_416_" class="st12" d="M285.1,522"/>
		<path id="XMLID_415_" class="st10" d="M284,528.8h6.8c0.6,0,1.1-0.5,1-1.1c-0.3-1.8-1.3-3.3-2.7-4.4"/>
		<line id="XMLID_414_" class="st10" x1="282.3" y1="528.8" x2="282.7" y2="528.8"/>
		<path id="XMLID_413_" class="st10" d="M285.1,522c-3.4,0-6.2,2.5-6.7,5.7c-0.1,0.6,0.4,1.1,1,1.1h1.5"/>
	</g>
	<g id="XMLID_404_">
		<path id="XMLID_411_" class="st2" d="M260.4,511.8c-3.4,0-6.2,2.5-6.7,5.7c-0.1,0.6,0.4,1.1,1,1.1h11.5c0.6,0,1.1-0.5,1-1.1
			C266.6,514.2,263.8,511.8,260.4,511.8z"/>
		<path id="XMLID_410_" class="st11" d="M258.3,504.9c-0.2,0-0.4,0-0.6,0.1c1.6,0.3,2.9,1.7,2.9,3.4s-1.2,3.1-2.9,3.4
			c0.2,0,0.4,0.1,0.6,0.1c1.9,0,3.5-1.5,3.5-3.5S260.2,504.9,258.3,504.9z"/>
		<circle id="XMLID_409_" class="st10" cx="258.8" cy="508.2" r="3.5"/>
		<path id="XMLID_408_" class="st12" d="M258.8,511.8"/>
		<path id="XMLID_407_" class="st10" d="M257.7,518.5h6.8c0.6,0,1.1-0.5,1-1.1c-0.3-1.8-1.3-3.3-2.7-4.4"/>
		<line id="XMLID_406_" class="st10" x1="256" y1="518.5" x2="256.4" y2="518.5"/>
		<path id="XMLID_405_" class="st10" d="M258.8,511.8c-3.4,0-6.2,2.5-6.7,5.7c-0.1,0.6,0.4,1.1,1,1.1h1.5"/>
	</g>
	<path id="XMLID_403_" class="st10" d="M330.2,524.5c5.5,0,10,4.5,10,10"/>
	<path id="XMLID_402_" class="st10" d="M362.5,524.5c-5.5,0-10,4.5-10,10"/>
	<line id="XMLID_401_" class="st10" x1="346.5" y1="522" x2="346.5" y2="535"/>
	<g id="XMLID_393_">
		<path id="XMLID_400_" class="st2" d="M319.7,522c-3.4,0-6.2,2.5-6.7,5.7c-0.1,0.6,0.4,1.1,1,1.1h11.5c0.6,0,1.1-0.5,1-1.1
			C325.8,524.5,323,522,319.7,522z"/>
		<path id="XMLID_399_" class="st11" d="M317.6,515c-0.2,0-0.4,0-0.6,0.1c1.6,0.3,2.9,1.7,2.9,3.4s-1.2,3.1-2.9,3.4
			c0.2,0,0.4,0.1,0.6,0.1c1.9,0,3.5-1.5,3.5-3.5C321.1,516.7,319.5,515,317.6,515z"/>
		<circle id="XMLID_398_" class="st10" cx="318" cy="518.5" r="3.5"/>
		<path id="XMLID_397_" class="st12" d="M318.1,522"/>
		<path id="XMLID_396_" class="st10" d="M317,528.8h6.8c0.6,0,1.1-0.5,1-1.1c-0.3-1.8-1.3-3.3-2.7-4.4"/>
		<line id="XMLID_395_" class="st10" x1="315.3" y1="528.8" x2="315.7" y2="528.8"/>
		<path id="XMLID_394_" class="st10" d="M318.1,522c-3.4,0-6.2,2.5-6.7,5.7c-0.1,0.6,0.4,1.1,1,1.1h1.5"/>
	</g>
	<g id="XMLID_385_">
		<path id="XMLID_392_" class="st2" d="M373.2,522c-3.4,0-6.2,2.5-6.7,5.7c-0.1,0.6,0.4,1.1,1,1.1H379c0.6,0,1.1-0.5,1-1.1
			C379.4,524.5,376.6,522,373.2,522z"/>
		<path id="XMLID_391_" class="st11" d="M371.1,515c-0.2,0-0.4,0-0.6,0.1c1.6,0.3,2.9,1.7,2.9,3.4s-1.2,3.1-2.9,3.4
			c0.2,0,0.4,0.1,0.6,0.1c1.9,0,3.5-1.5,3.5-3.5C374.6,516.7,373,515,371.1,515z"/>
		<circle id="XMLID_390_" class="st10" cx="371.5" cy="518.5" r="3.5"/>
		<path id="XMLID_389_" class="st12" d="M371.6,522"/>
		<path id="XMLID_388_" class="st10" d="M370.5,528.8h6.8c0.6,0,1.1-0.5,1-1.1c-0.3-1.8-1.3-3.3-2.7-4.4"/>
		<line id="XMLID_387_" class="st10" x1="368.8" y1="528.8" x2="369.2" y2="528.8"/>
		<path id="XMLID_386_" class="st10" d="M371.6,522c-3.4,0-6.2,2.5-6.7,5.7c-0.1,0.6,0.4,1.1,1,1.1h1.5"/>
	</g>
	<g id="XMLID_377_">
		<path id="XMLID_384_" class="st2" d="M346.9,511.8c-3.4,0-6.2,2.5-6.7,5.7c-0.1,0.6,0.4,1.1,1,1.1h11.5c0.6,0,1.1-0.5,1-1.1
			C353.1,514.2,350.3,511.8,346.9,511.8z"/>
		<path id="XMLID_383_" class="st11" d="M344.8,504.9c-0.2,0-0.4,0-0.6,0.1c1.6,0.3,2.9,1.7,2.9,3.4s-1.2,3.1-2.9,3.4
			c0.2,0,0.4,0.1,0.6,0.1c1.9,0,3.5-1.5,3.5-3.5S346.7,504.9,344.8,504.9z"/>
		<circle id="XMLID_382_" class="st10" cx="345.2" cy="508.2" r="3.5"/>
		<path id="XMLID_381_" class="st12" d="M345.3,511.8"/>
		<path id="XMLID_380_" class="st10" d="M344.2,518.5h6.8c0.6,0,1.1-0.5,1-1.1c-0.3-1.8-1.3-3.3-2.7-4.4"/>
		<line id="XMLID_379_" class="st10" x1="342.5" y1="518.5" x2="342.9" y2="518.5"/>
		<path id="XMLID_378_" class="st10" d="M345.3,511.8c-3.4,0-6.2,2.5-6.7,5.7c-0.1,0.6,0.4,1.1,1,1.1h1.5"/>
	</g>
	<path id="XMLID_376_" class="st10" d="M416.7,524.5c5.5,0,10,4.5,10,10"/>
	<path id="XMLID_375_" class="st10" d="M449,524.5c-5.5,0-10,4.5-10,10"/>
	<line id="XMLID_374_" class="st10" x1="432.5" y1="522" x2="432.5" y2="535"/>
	<g id="XMLID_366_">
		<path id="XMLID_373_" class="st2" d="M406.2,522c-3.4,0-6.2,2.5-6.7,5.7c-0.1,0.6,0.4,1.1,1,1.1H412c0.6,0,1.1-0.5,1-1.1
			C412.3,524.5,409.5,522,406.2,522z"/>
		<path id="XMLID_372_" class="st11" d="M404.1,515c-0.2,0-0.4,0-0.6,0.1c1.6,0.3,2.9,1.7,2.9,3.4s-1.2,3.1-2.9,3.4
			c0.2,0,0.4,0.1,0.6,0.1c1.9,0,3.5-1.5,3.5-3.5C407.5,516.7,406,515,404.1,515z"/>
		<circle id="XMLID_371_" class="st10" cx="404.5" cy="518.5" r="3.5"/>
		<path id="XMLID_370_" class="st12" d="M404.5,522"/>
		<path id="XMLID_369_" class="st10" d="M403.5,528.8h6.8c0.6,0,1.1-0.5,1-1.1c-0.3-1.8-1.3-3.3-2.7-4.4"/>
		<line id="XMLID_368_" class="st10" x1="401.8" y1="528.8" x2="402.1" y2="528.8"/>
		<path id="XMLID_367_" class="st10" d="M404.5,522c-3.4,0-6.2,2.5-6.7,5.7c-0.1,0.6,0.4,1.1,1,1.1h1.5"/>
	</g>
	<g id="XMLID_358_">
		<path id="XMLID_365_" class="st2" d="M459.7,522c-3.4,0-6.2,2.5-6.7,5.7c-0.1,0.6,0.4,1.1,1,1.1h11.5c0.6,0,1.1-0.5,1-1.1
			C465.8,524.5,463,522,459.7,522z"/>
		<path id="XMLID_364_" class="st11" d="M457.6,515c-0.2,0-0.4,0-0.6,0.1c1.6,0.3,2.9,1.7,2.9,3.4s-1.2,3.1-2.9,3.4
			c0.2,0,0.4,0.1,0.6,0.1c1.9,0,3.5-1.5,3.5-3.5C461.1,516.7,459.5,515,457.6,515z"/>
		<circle id="XMLID_363_" class="st10" cx="458" cy="518.5" r="3.5"/>
		<path id="XMLID_362_" class="st12" d="M458.1,522"/>
		<path id="XMLID_361_" class="st10" d="M457,528.8h6.8c0.6,0,1.1-0.5,1-1.1c-0.3-1.8-1.3-3.3-2.7-4.4"/>
		<line id="XMLID_360_" class="st10" x1="455.3" y1="528.8" x2="455.7" y2="528.8"/>
		<path id="XMLID_359_" class="st10" d="M458.1,522c-3.4,0-6.2,2.5-6.7,5.7c-0.1,0.6,0.4,1.1,1,1.1h1.5"/>
	</g>
	<g id="XMLID_350_">
		<path id="XMLID_357_" class="st2" d="M433.4,511.8c-3.4,0-6.2,2.5-6.7,5.7c-0.1,0.6,0.4,1.1,1,1.1h11.5c0.6,0,1.1-0.5,1-1.1
			C439.5,514.2,436.7,511.8,433.4,511.8z"/>
		<path id="XMLID_356_" class="st11" d="M431.3,504.9c-0.2,0-0.4,0-0.6,0.1c1.6,0.3,2.9,1.7,2.9,3.4c0,1.7-1.2,3.1-2.9,3.4
			c0.2,0,0.4,0.1,0.6,0.1c1.9,0,3.5-1.5,3.5-3.5S433.2,504.9,431.3,504.9z"/>
		<circle id="XMLID_355_" class="st10" cx="431.7" cy="508.2" r="3.5"/>
		<path id="XMLID_354_" class="st12" d="M431.8,511.8"/>
		<path id="XMLID_353_" class="st10" d="M430.7,518.5h6.8c0.6,0,1.1-0.5,1-1.1c-0.3-1.8-1.3-3.3-2.7-4.4"/>
		<line id="XMLID_352_" class="st10" x1="429" y1="518.5" x2="429.4" y2="518.5"/>
		<path id="XMLID_351_" class="st10" d="M431.8,511.8c-3.4,0-6.2,2.5-6.7,5.7c-0.1,0.6,0.4,1.1,1,1.1h1.5"/>
	</g>
	<g id="XMLID_345_">
		<line id="XMLID_349_" class="st10" x1="92.3" y1="593.5" x2="92.3" y2="661.3"/>
		<g id="XMLID_346_">
			<circle id="XMLID_348_" class="st11" cx="92.3" cy="590.5" r="1.6"/>
			<circle id="XMLID_347_" class="st13" cx="92.3" cy="590.5" r="3"/>
		</g>
	</g>
	<g id="XMLID_340_">
		<line id="XMLID_344_" class="st10" x1="178.7" y1="593.5" x2="178.7" y2="661.3"/>
		<g id="XMLID_341_">
			<circle id="XMLID_343_" class="st11" cx="178.7" cy="590.5" r="1.6"/>
			<circle id="XMLID_342_" class="st13" cx="178.7" cy="590.5" r="3"/>
		</g>
	</g>
	<g id="XMLID_335_">
		<line id="XMLID_339_" class="st10" x1="265.2" y1="593.5" x2="265.2" y2="661.3"/>
		<g id="XMLID_336_">
			<circle id="XMLID_338_" class="st11" cx="265.2" cy="590.5" r="1.6"/>
			<circle id="XMLID_337_" class="st13" cx="265.2" cy="590.5" r="3"/>
		</g>
	</g>
	<g id="XMLID_330_">
		<line id="XMLID_334_" class="st10" x1="351.7" y1="593.5" x2="351.7" y2="661.3"/>
		<g id="XMLID_331_">
			<circle id="XMLID_333_" class="st11" cx="351.7" cy="590.5" r="1.6"/>
			<circle id="XMLID_332_" class="st13" cx="351.7" cy="590.5" r="3"/>
		</g>
	</g>
	<g id="XMLID_325_">
		<line id="XMLID_329_" class="st10" x1="438.1" y1="593.5" x2="438.1" y2="661.3"/>
		<g id="XMLID_326_">
			<circle id="XMLID_328_" class="st11" cx="438.1" cy="590.5" r="1.6"/>
			<circle id="XMLID_327_" class="st13" cx="438.1" cy="590.5" r="3"/>
		</g>
	</g>
	<g id="XMLID_213_">
		<g id="XMLID_311_">
			<path id="XMLID_324_" class="st11" d="M109.6,742.8v-55.1c0-3.1,4-5.7,9-5.7h-2.2c-6.2,0-11.3,3.2-11.3,7.2v52.1
				c0,4,5.1,7.2,11.3,7.2h2.2C113.6,748.5,109.6,746,109.6,742.8z"/>
			<g id="XMLID_321_">
				<path id="XMLID_323_" class="st2" d="M149.6,741.7c-8.2,0-14.9-6.7-14.9-14.9c0-1.7,0.3-3.4,0.8-4.9c-2.2,2.7-3.5,6.2-3.5,10
					c0,8.8,7.1,15.9,15.9,15.9s15.9-7.1,15.9-15.9c0-0.1,0-0.2,0-0.4C161.7,737.5,156.2,741.7,149.6,741.7z"/>
				<path id="XMLID_322_" class="st11" d="M149.6,741.7c6.6,0,12.2-4.3,14.1-10.2c-0.2-8.6-7.2-15.5-15.9-15.5
					c-5,0-9.4,2.3-12.3,5.9c-0.5,1.5-0.8,3.2-0.8,4.9C134.7,735,141.3,741.7,149.6,741.7z"/>
			</g>
			<path id="XMLID_320_" class="st14" d="M130,746.5h-18.6c-3.3,0-5.9-2.4-5.9-5.7v-52c0-3.3,2.6-6.3,5.9-6.3h7.6"/>
			<path id="XMLID_319_" class="st14" d="M132,682.5h17.2c3.3,0,6.3,2.9,6.3,6.3V703"/>
			<line id="XMLID_318_" class="st14" x1="125" y1="682.5" x2="127" y2="682.5"/>
			<line id="XMLID_317_" class="st14" x1="115" y1="698.5" x2="139" y2="698.5"/>
			<line id="XMLID_316_" class="st14" x1="115" y1="713.5" x2="132" y2="713.5"/>
			<line id="XMLID_315_" class="st14" x1="115" y1="727.5" x2="126" y2="727.5"/>
			<line id="XMLID_314_" class="st14" x1="160.4" y1="737.5" x2="167.2" y2="744.2"/>
			<path id="XMLID_313_" class="st14" d="M162.6,719c1.4,2.3,2.2,5,2.2,7.8c0,8.2-6.7,14.9-14.9,14.9c-8.2,0-14.9-6.7-14.9-14.9
				s6.7-14.9,14.9-14.9"/>
			<path id="XMLID_312_" class="st14" d="M154.9,712.8c1.7,0.6,3.2,1.4,4.5,2.5"/>
		</g>
		<g id="XMLID_302_">
			<circle id="XMLID_310_" class="st11" cx="515.4" cy="720.5" r="28.4"/>
			<path id="XMLID_309_" class="st14" d="M479.7,720.5c0-12.2,7.7-22.6,18.4-26.6"/>
			<path id="XMLID_308_" class="st14" d="M515.4,748c-2.3,0.6-4.8,0.9-7.3,0.9c-5.5,0-10.7-1.6-15.1-4.3"/>
			<path id="XMLID_307_" class="st14" d="M515.4,748"/>
			<path id="XMLID_306_" class="st14" d="M525.1,697.5c7,5.2,11.5,13.5,11.5,22.8c0,2.8-0.4,5.5-1.1,8"/>
			<circle id="XMLID_305_" class="st14" cx="508.2" cy="692" r="10.2"/>
			<circle id="XMLID_304_" class="st14" cx="485.4" cy="738" r="10.2"/>
			<circle id="XMLID_303_" class="st14" cx="530.7" cy="738" r="10.2"/>
		</g>
		<g id="XMLID_275_">
			<circle id="XMLID_301_" class="st11" cx="260.2" cy="688.7" r="7.5"/>
			<polygon id="XMLID_300_" class="st11" points="229.2,717.2 235.3,703.8 241.4,717.2 			"/>
			<polygon id="XMLID_299_" class="st11" points="279.9,717.2 286,703.8 292.1,717.2 			"/>
			<path id="XMLID_298_" class="st2" d="M238.4,735.7c6.2,0,11.2-4,11.2-10.2h-22.4C227.2,731.7,232.2,735.7,238.4,735.7z"/>
			<line id="XMLID_297_" class="st14" x1="279.3" y1="749.5" x2="290.1" y2="749.5"/>
			<line id="XMLID_296_" class="st14" x1="230.3" y1="749.5" x2="273.9" y2="749.5"/>
			<line id="XMLID_295_" class="st14" x1="235.6" y1="700.3" x2="284.8" y2="700.3"/>
			<line id="XMLID_294_" class="st14" x1="260.2" y1="713.2" x2="260.2" y2="693"/>
			<line id="XMLID_293_" class="st14" x1="260.2" y1="721.8" x2="260.2" y2="717.2"/>
			<line id="XMLID_292_" class="st14" x1="260.2" y1="748.8" x2="260.2" y2="725.5"/>
			<circle id="XMLID_291_" class="st4" cx="260.2" cy="692.8" r="4.1"/>
			<g id="XMLID_284_">
				<g>
					<path class="st4" d="M238.4,708l8.2,18c-0.3,4.2-3.9,7.6-8.2,7.6c-2.2,0-4.3-0.9-5.8-2.4c-1.4-1.4-2.2-3.2-2.4-5.2L238.4,708
						 M238.4,700.8l-11.2,24.6l0,0c0,6.2,5,11.2,11.2,11.2s11.2-5,11.2-11.2l0,0L238.4,700.8L238.4,700.8z M249.6,725.5L249.6,725.5
						L249.6,725.5z"/>
				</g>
			</g>
			<path id="XMLID_283_" class="st2" d="M282.6,735.7c6.2,0,11.2-4,11.2-10.2h-22.4C271.4,731.7,276.4,735.7,282.6,735.7z"/>
			<g id="XMLID_276_">
				<g>
					<path class="st4" d="M282.6,708l8.2,18c-0.3,4.2-3.9,7.6-8.2,7.6c-2.2,0-4.3-0.9-5.8-2.4c-1.4-1.4-2.2-3.2-2.4-5.2L282.6,708
						 M282.6,700.8l-11.2,24.6l0,0c0,6.2,5,11.2,11.2,11.2s11.2-5,11.2-11.2l0,0L282.6,700.8L282.6,700.8z M293.8,725.5L293.8,725.5
						L293.8,725.5z"/>
				</g>
			</g>
		</g>
		<g id="XMLID_251_">
			<g id="XMLID_252_">
				<path id="XMLID_269_" class="st3" d="M13.5,682c-1.4-1.2-3.5-1.2-4.9,0l-17.4,14.2h5.2l17.2-14L13.5,682z"/>
				<path id="XMLID_268_" class="st2" d="M-9.1,701.2c-3.1,0-5.5,2.5-5.5,5.5v1.6c0,1.1,0.4,2.2,1,3.1c0.5,0.2,1.1,0.3,1.7,0.3h47.8
					c3.1,0,5.5-2.5,5.5-5.5v-1.6c0-1.1-0.4-2.2-1-3.1c-0.5-0.2-1.1-0.3-1.7-0.3H-9.1z"/>
				<path id="XMLID_267_" class="st14" d="M11.1,696.3H35c3.1,0,5.5,2.5,5.5,5.5v3.6c0,3.1-2.5,5.5-5.5,5.5h-47.8
					c-3.1,0-5.5-2.5-5.5-5.5v-3.6c0-3.1,2.5-5.5,5.5-5.5H3.4"/>
				<line id="XMLID_266_" class="st14" x1="7" y1="696.3" x2="7.6" y2="696.3"/>
				<path id="XMLID_265_" class="st15" d="M4.2,742.8v-12.5c0-3.1,2.5-5.5,5.5-5.5h3.6c3.1,0,5.5,2.5,5.5,5.5v12.5"/>
				<path id="XMLID_264_" class="st14" d="M42.8,749.5H-20c-1.6,0-2.8-1.3-2.8-2.8v-0.5c0-1.6,1.3-2.8,2.8-2.8h62.8
					c1.6,0,2.8,1.3,2.8,2.8v0.5C45.7,748.2,44.4,749.5,42.8,749.5z"/>
				<path id="XMLID_263_" class="st16" d="M36,743.3h-49.9c-1,0-1.7-0.8-1.7-1.7v-2c0-1,0.8-1.7,1.7-1.7H36c1,0,1.7,0.8,1.7,1.7v2
					C37.8,742.5,37,743.3,36,743.3z"/>
				<path id="XMLID_262_" class="st14" d="M-8.8,696.2L8.6,682c1.4-1.2,3.5-1.2,4.9,0l17.4,14.2"/>
				<g id="XMLID_258_">
					<line id="XMLID_261_" class="st14" x1="-12.8" y1="711" x2="-12.8" y2="737.3"/>
					<line id="XMLID_260_" class="st14" x1="-6" y1="721.8" x2="-6" y2="737.3"/>
					<line id="XMLID_259_" class="st14" x1="-6" y1="715" x2="-6" y2="717.5"/>
				</g>
				<g id="XMLID_253_">
					<line id="XMLID_257_" class="st14" x1="29.1" y1="721.8" x2="29.1" y2="737.3"/>
					<line id="XMLID_256_" class="st14" x1="29.1" y1="715.3" x2="29.1" y2="716.7"/>
					<line id="XMLID_255_" class="st14" x1="35.6" y1="711.5" x2="35.6" y2="725.5"/>
					<line id="XMLID_254_" class="st14" x1="35.6" y1="731" x2="35.6" y2="735.8"/>
				</g>
			</g>
		</g>
		<g class="st17">
			<path class="st18" d="M-8.5,765c0,0.5,0.2,0.9,0.5,1.2c0.3,0.3,0.7,0.5,1.2,0.5c0.5,0,0.9-0.2,1.2-0.5c0.3-0.3,0.5-0.8,0.5-1.2
				c0-0.8-0.5-1.4-1.6-1.7l-0.9-0.3c-1-0.3-1.5-1.1-1.5-2.1c0-0.6,0.2-1.2,0.7-1.6c0.5-0.4,1-0.7,1.7-0.7c0.6,0,1.2,0.2,1.6,0.7
				s0.7,1,0.7,1.6h-0.9c0-0.4-0.1-0.8-0.4-1c-0.3-0.3-0.6-0.4-1-0.5c-0.4,0-0.8,0.1-1.1,0.4c-0.3,0.3-0.5,0.6-0.4,1.1
				c0,0.7,0.3,1.1,1,1.3l1,0.3c1.3,0.4,2,1.2,2,2.4c0,0.7-0.2,1.3-0.7,1.8c-0.5,0.5-1.1,0.7-1.8,0.7s-1.3-0.2-1.8-0.7
				c-0.5-0.5-0.7-1.1-0.8-1.8H-8.5z"/>
			<path class="st18" d="M-1.2,767.6c-1.6,0-2.3-0.7-2.3-2v-6.8h0.9v2.2h1.5v0.8h-1.5v3.6c0,1,0.5,1.4,1.5,1.4V767.6z"/>
			<path class="st18" d="M5.1,766.7c-0.7,0.7-1.5,1-2.4,1c-0.9,0-1.6-0.4-2.3-1c-0.6-0.6-0.9-1.4-0.9-2.3c0-0.9,0.3-1.7,1-2.4
				c0.7-0.7,1.5-1,2.4-1c0.9,0,1.6,0.4,2.3,1c0.6,0.6,0.9,1.4,0.9,2.3C6.1,765.2,5.7,766,5.1,766.7z M2.7,766.8
				c0.7,0,1.3-0.2,1.8-0.7c0.5-0.5,0.7-1.1,0.7-1.8c0-0.7-0.3-1.2-0.7-1.7c-0.5-0.5-1-0.7-1.7-0.7c-0.7,0-1.3,0.2-1.7,0.7
				c-0.5,0.5-0.7,1.1-0.7,1.7c0,0.7,0.2,1.3,0.7,1.8C1.5,766.5,2,766.8,2.7,766.8z"/>
			<path class="st18" d="M7.8,767.5H6.9v-6.4h0.8v0.9c0.2-0.3,0.4-0.6,0.8-0.8c0.3-0.2,0.6-0.2,1-0.2v0.9c-0.4,0-0.7,0.1-1,0.3
				s-0.4,0.4-0.5,0.5c-0.1,0.2-0.2,0.6-0.2,1V767.5z"/>
			<path class="st18" d="M16.6,767.5h-0.8v-1c-0.7,0.8-1.5,1.2-2.6,1.1c-0.9,0-1.6-0.4-2.2-1s-0.9-1.4-0.9-2.3c0-0.9,0.3-1.7,1-2.4
				c0.7-0.7,1.5-1,2.4-1c0.9,0,1.7,0.4,2.3,1c0.6,0.6,0.9,1.4,0.9,2.3v0V767.5z M11,764.2c0,0.7,0.2,1.3,0.7,1.8
				c0.5,0.5,1,0.8,1.7,0.8c0.7,0,1.3-0.2,1.8-0.7c0.5-0.5,0.7-1.1,0.7-1.8c0-0.7-0.3-1.2-0.7-1.7c-0.5-0.5-1-0.7-1.7-0.7
				c-0.7,0-1.3,0.2-1.7,0.7C11.2,763,11,763.5,11,764.2z"/>
			<path class="st18" d="M24.1,767.2c0,0.8-0.3,1.5-1,2c-0.7,0.5-1.4,0.8-2.3,0.8c-0.8,0-1.4-0.3-2-0.7c-0.5-0.4-0.9-1-1.1-1.6h0.8
				c0.1,0.4,0.4,0.8,0.9,1.1c0.4,0.3,0.9,0.5,1.4,0.5c0.6,0,1.2-0.2,1.6-0.7c0.5-0.4,0.7-0.9,0.7-1.5v-0.6c-0.6,0.7-1.4,1.1-2.3,1.1
				c-0.9,0-1.7-0.3-2.4-1c-0.7-0.7-1-1.5-1-2.4c0-0.9,0.3-1.7,0.9-2.3c0.6-0.6,1.4-1,2.3-1c0.9,0,1.7,0.3,2.4,1c0.7,0.7,1,1.5,1,2.4
				V767.2z M22.5,766c0.5-0.5,0.7-1.1,0.7-1.7c0-0.7-0.2-1.3-0.7-1.8c-0.5-0.5-1.1-0.8-1.8-0.7c-0.7,0-1.2,0.3-1.7,0.8
				c-0.5,0.5-0.7,1.1-0.7,1.8c0,0.7,0.3,1.3,0.7,1.7c0.5,0.5,1.1,0.7,1.7,0.7C21.5,766.7,22.1,766.5,22.5,766z"/>
			<path class="st18" d="M31.4,765.4c-0.2,0.7-0.6,1.2-1.2,1.6c-0.6,0.4-1.2,0.6-1.9,0.6c-0.9,0-1.6-0.3-2.3-1c-0.7-0.7-1-1.4-1-2.3
				c0-1,0.3-1.8,1-2.5c0.7-0.7,1.5-1,2.5-1c0.9,0.1,1.6,0.4,2.2,1.1c0.6,0.6,0.9,1.4,0.9,2.1v0.5h-5.7c0.1,0.6,0.3,1.2,0.8,1.6
				c0.5,0.4,1,0.6,1.7,0.6c1,0,1.7-0.5,2.2-1.4H31.4z M30.8,763.8c-0.1-0.6-0.4-1.1-0.8-1.4c-0.4-0.4-1-0.6-1.6-0.6
				c-0.6,0-1.2,0.2-1.6,0.5c-0.5,0.4-0.7,0.9-0.9,1.5H30.8z"/>
		</g>
		<g class="st17">
			<path class="st18" d="M-21.2,780.9H-22v-8.6h0.9V780.9z"/>
			<path class="st18" d="M-14.6,780.9h-0.9v-3.7c0-0.5-0.2-1-0.6-1.4s-0.8-0.6-1.4-0.6c-0.5,0-1,0.2-1.4,0.6s-0.6,0.9-0.6,1.4v3.7
				h-0.9v-3.6c0-0.8,0.3-1.5,0.8-2.1c0.5-0.5,1.2-0.8,2-0.8c0.8,0,1.5,0.3,2,0.8c0.5,0.5,0.8,1.2,0.8,2.1V780.9z"/>
			<path class="st18" d="M-12.8,780.9h-0.9v-6.5c0-1.4,0.9-2.1,2.2-2.1h0.2v0.8l-0.2,0c-0.4,0-0.8,0.1-1,0.3
				c-0.3,0.3-0.4,0.6-0.4,0.9v0.3h1.6v0.8h-1.6V780.9z"/>
			<path class="st18" d="M-9.7,780.9h-0.9v-6.4h0.8v0.9c0.2-0.3,0.4-0.6,0.8-0.8c0.3-0.2,0.6-0.2,1-0.2v0.9c-0.4,0-0.7,0.1-1,0.3
				s-0.4,0.4-0.5,0.5c-0.1,0.2-0.2,0.6-0.2,1V780.9z"/>
			<path class="st18" d="M-0.8,780.9h-0.8v-1c-0.7,0.8-1.5,1.2-2.6,1.1c-0.9,0-1.6-0.4-2.2-1s-0.9-1.4-0.9-2.3c0-0.9,0.3-1.7,1-2.4
				c0.7-0.7,1.5-1,2.4-1c0.9,0,1.7,0.4,2.3,1c0.6,0.6,0.9,1.4,0.9,2.3v0V780.9z M-6.5,777.6c0,0.7,0.2,1.3,0.7,1.8
				c0.5,0.5,1,0.8,1.7,0.8c0.7,0,1.3-0.2,1.8-0.7c0.5-0.5,0.7-1.1,0.7-1.8c0-0.7-0.3-1.2-0.7-1.7c-0.5-0.5-1-0.7-1.7-0.7
				c-0.7,0-1.3,0.2-1.7,0.7C-6.3,776.4-6.5,776.9-6.5,777.6z"/>
			<path class="st18" d="M1,779.2c0,0.2,0.1,0.4,0.4,0.7c0.2,0.2,0.5,0.3,0.8,0.3c0.4,0,0.6-0.1,0.9-0.3c0.2-0.2,0.3-0.4,0.3-0.8
				c0-0.5-0.3-0.9-0.9-1.1l-0.7-0.2c-0.8-0.2-1.2-0.8-1.2-1.6c0-0.5,0.1-0.9,0.5-1.3c0.4-0.3,0.8-0.5,1.3-0.6c0.4,0,0.8,0.1,1.2,0.4
				c0.4,0.3,0.6,0.7,0.6,1.1l0,0.2H3v-0.1c0-0.4-0.4-0.7-0.9-0.7c-0.5,0-0.9,0.4-0.9,0.9c0,0.5,0.2,0.8,0.8,1l0.7,0.2
				c0.8,0.3,1.3,0.9,1.4,1.7c0,0.6-0.2,1.1-0.6,1.5c-0.4,0.4-1,0.6-1.5,0.6c-0.5,0-1-0.3-1.4-0.6c-0.4-0.4-0.5-0.9-0.5-1.4H1V779.2z
				"/>
			<path class="st18" d="M7.3,781c-1.6,0-2.3-0.7-2.3-2v-6.8h0.9v2.2h1.5v0.8H5.8v3.6c0,1,0.5,1.4,1.5,1.4V781z"/>
			<path class="st18" d="M8.9,780.9H8v-6.4h0.8v0.9c0.2-0.3,0.4-0.6,0.8-0.8c0.3-0.2,0.6-0.2,1-0.2v0.9c-0.4,0-0.7,0.1-1,0.3
				s-0.4,0.4-0.5,0.5c-0.1,0.2-0.2,0.6-0.2,1V780.9z"/>
			<path class="st18" d="M16.8,778.1c0,0.8-0.3,1.5-0.8,2.1c-0.5,0.5-1.2,0.8-2,0.8c-0.8,0-1.5-0.3-2-0.8c-0.5-0.5-0.8-1.2-0.8-2.1
				v-3.6h0.9v3.7c0,0.5,0.2,1,0.6,1.4c0.4,0.4,0.9,0.6,1.4,0.6c0.5,0,1-0.2,1.4-0.6c0.4-0.4,0.6-0.9,0.6-1.4v-3.7h0.9V778.1z"/>
			<path class="st18" d="M24.3,779.2c-0.7,1.2-1.7,1.8-3.1,1.8c-0.9,0-1.7-0.3-2.4-1c-0.7-0.6-1-1.4-1-2.3c0-0.9,0.3-1.7,1-2.4
				c0.7-0.7,1.5-1,2.4-1c0.7,0,1.3,0.2,1.9,0.5c0.5,0.3,1,0.8,1.2,1.3l0.1,0.3h-1c-0.5-0.8-1.2-1.2-2.2-1.3c-0.7,0-1.2,0.2-1.8,0.7
				c-0.5,0.5-0.8,1.1-0.8,1.8s0.3,1.3,0.8,1.8c0.5,0.5,1.1,0.7,1.8,0.7c1,0,1.7-0.4,2.2-1.2h1L24.3,779.2z"/>
			<path class="st18" d="M27.2,781c-1.6,0-2.3-0.7-2.3-2v-6.8h0.9v2.2h1.5v0.8h-1.5v3.6c0,1,0.5,1.4,1.5,1.4V781z"/>
			<path class="st18" d="M33.6,778.1c0,0.8-0.3,1.5-0.8,2.1c-0.5,0.5-1.2,0.8-2,0.8c-0.8,0-1.5-0.3-2-0.8c-0.5-0.5-0.8-1.2-0.8-2.1
				v-3.6h0.9v3.7c0,0.5,0.2,1,0.6,1.4c0.4,0.4,0.9,0.6,1.4,0.6c0.5,0,1-0.2,1.4-0.6c0.4-0.4,0.6-0.9,0.6-1.4v-3.7h0.9V778.1z"/>
			<path class="st18" d="M35.4,780.9h-0.9v-6.4h0.8v0.9c0.2-0.3,0.4-0.6,0.8-0.8c0.3-0.2,0.6-0.2,1-0.2v0.9c-0.4,0-0.7,0.1-1,0.3
				s-0.4,0.4-0.5,0.5c-0.1,0.2-0.2,0.6-0.2,1V780.9z"/>
			<path class="st18" d="M44.1,778.8c-0.2,0.7-0.6,1.2-1.2,1.6c-0.6,0.4-1.2,0.6-1.9,0.6c-0.9,0-1.6-0.3-2.3-1c-0.7-0.7-1-1.4-1-2.3
				c0-1,0.3-1.8,1-2.5c0.7-0.7,1.5-1,2.5-1c0.9,0.1,1.6,0.4,2.2,1.1c0.6,0.6,0.9,1.4,0.9,2.1v0.5h-5.7c0.1,0.6,0.3,1.2,0.8,1.6
				c0.5,0.4,1,0.6,1.7,0.6c1,0,1.7-0.5,2.2-1.4H44.1z M43.5,777.2c-0.1-0.6-0.4-1.1-0.8-1.4c-0.4-0.4-1-0.6-1.6-0.6
				c-0.6,0-1.2,0.2-1.6,0.5c-0.5,0.4-0.7,0.9-0.9,1.5H43.5z"/>
		</g>
		<g class="st17">
			<path class="st18" d="M130.6,767.5h-1l-1.2-2.9h-4l-1.2,2.9h-1.1l3.8-8.6h1L130.6,767.5z M128.1,763.8l-1.6-3.9l-1.7,3.9H128.1z"
				/>
			<path class="st18" d="M136.8,764.7c0,0.8-0.3,1.5-0.8,2.1c-0.5,0.5-1.2,0.8-2,0.8c-0.8,0-1.5-0.3-2-0.8c-0.5-0.5-0.8-1.2-0.8-2.1
				v-3.6h0.9v3.7c0,0.5,0.2,1,0.6,1.4c0.4,0.4,0.9,0.6,1.4,0.6c0.5,0,1-0.2,1.4-0.6c0.4-0.4,0.6-0.9,0.6-1.4v-3.7h0.9V764.7z"/>
			<path class="st18" d="M144.4,764.3c0,0.9-0.3,1.7-1,2.4c-0.7,0.7-1.5,1-2.4,1c-0.9,0-1.6-0.4-2.3-1s-0.9-1.4-0.9-2.3
				c0-0.9,0.3-1.7,1-2.4c0.7-0.7,1.5-1,2.4-1c0.9,0,1.7,0.4,2.3,1.1v-3.2h0.8V764.3z M141.1,766.8c0.7,0,1.3-0.2,1.8-0.7
				c0.5-0.5,0.7-1.1,0.7-1.8c0-0.7-0.3-1.2-0.7-1.7c-0.5-0.5-1-0.7-1.7-0.7c-0.7,0-1.3,0.2-1.7,0.7c-0.5,0.5-0.7,1.1-0.7,1.7
				c0,0.7,0.2,1.3,0.7,1.8S140.4,766.8,141.1,766.8z"/>
			<path class="st18" d="M146.2,760.3h-0.8v-1.5h0.8V760.3z M146.2,767.5h-0.8v-6.4h0.8V767.5z"/>
			<path class="st18" d="M149.5,767.6c-1.6,0-2.3-0.7-2.3-2v-6.8h0.9v2.2h1.5v0.8H148v3.6c0,1,0.5,1.4,1.5,1.4V767.6z"/>
		</g>
		<g class="st17">
			<path class="st18" d="M103.3,780.9h-0.9v-8.6h0.9V780.9z"/>
			<path class="st18" d="M109.9,780.9H109v-3.7c0-0.5-0.2-1-0.6-1.4s-0.8-0.6-1.4-0.6c-0.5,0-1,0.2-1.4,0.6s-0.6,0.9-0.6,1.4v3.7
				h-0.9v-3.6c0-0.8,0.3-1.5,0.8-2.1c0.5-0.5,1.2-0.8,2-0.8c0.8,0,1.5,0.3,2,0.8c0.5,0.5,0.8,1.2,0.8,2.1V780.9z"/>
			<path class="st18" d="M111.7,780.9h-0.9v-6.5c0-1.4,0.9-2.1,2.2-2.1h0.2v0.8l-0.2,0c-0.4,0-0.8,0.1-1,0.3
				c-0.3,0.3-0.4,0.6-0.4,0.9v0.3h1.6v0.8h-1.6V780.9z"/>
			<path class="st18" d="M114.8,780.9h-0.9v-6.4h0.8v0.9c0.2-0.3,0.4-0.6,0.8-0.8c0.3-0.2,0.6-0.2,1-0.2v0.9c-0.4,0-0.7,0.1-1,0.3
				s-0.4,0.4-0.5,0.5c-0.1,0.2-0.2,0.6-0.2,1V780.9z"/>
			<path class="st18" d="M123.7,780.9h-0.8v-1c-0.7,0.8-1.5,1.2-2.6,1.1c-0.9,0-1.6-0.4-2.2-1s-0.9-1.4-0.9-2.3c0-0.9,0.3-1.7,1-2.4
				c0.7-0.7,1.5-1,2.4-1c0.9,0,1.7,0.4,2.3,1c0.6,0.6,0.9,1.4,0.9,2.3v0V780.9z M118,777.6c0,0.7,0.2,1.3,0.7,1.8
				c0.5,0.5,1,0.8,1.7,0.8c0.7,0,1.3-0.2,1.8-0.7c0.5-0.5,0.7-1.1,0.7-1.8c0-0.7-0.3-1.2-0.7-1.7c-0.5-0.5-1-0.7-1.7-0.7
				c-0.7,0-1.3,0.2-1.7,0.7C118.2,776.4,118,776.9,118,777.6z"/>
			<path class="st18" d="M125.5,779.2c0,0.2,0.1,0.4,0.4,0.7c0.2,0.2,0.5,0.3,0.8,0.3c0.4,0,0.6-0.1,0.9-0.3
				c0.2-0.2,0.3-0.4,0.3-0.8c0-0.5-0.3-0.9-0.9-1.1l-0.7-0.2c-0.8-0.2-1.2-0.8-1.2-1.6c0-0.5,0.1-0.9,0.5-1.3
				c0.4-0.3,0.8-0.5,1.3-0.6c0.4,0,0.8,0.1,1.2,0.4c0.4,0.3,0.6,0.7,0.6,1.1l0,0.2h-0.9v-0.1c0-0.4-0.4-0.7-0.9-0.7
				c-0.5,0-0.9,0.4-0.9,0.9c0,0.5,0.2,0.8,0.8,1l0.7,0.2c0.8,0.3,1.3,0.9,1.4,1.7c0,0.6-0.2,1.1-0.6,1.5c-0.4,0.4-1,0.6-1.5,0.6
				c-0.5,0-1-0.3-1.4-0.6c-0.4-0.4-0.5-0.9-0.5-1.4h0.9V779.2z"/>
			<path class="st18" d="M131.8,781c-1.6,0-2.3-0.7-2.3-2v-6.8h0.9v2.2h1.5v0.8h-1.5v3.6c0,1,0.5,1.4,1.5,1.4V781z"/>
			<path class="st18" d="M133.3,780.9h-0.9v-6.4h0.8v0.9c0.2-0.3,0.4-0.6,0.8-0.8c0.3-0.2,0.6-0.2,1-0.2v0.9c-0.4,0-0.7,0.1-1,0.3
				s-0.4,0.4-0.5,0.5c-0.1,0.2-0.2,0.6-0.2,1V780.9z"/>
			<path class="st18" d="M141.3,778.1c0,0.8-0.3,1.5-0.8,2.1c-0.5,0.5-1.2,0.8-2,0.8c-0.8,0-1.5-0.3-2-0.8c-0.5-0.5-0.8-1.2-0.8-2.1
				v-3.6h0.9v3.7c0,0.5,0.2,1,0.6,1.4c0.4,0.4,0.9,0.6,1.4,0.6c0.5,0,1-0.2,1.4-0.6c0.4-0.4,0.6-0.9,0.6-1.4v-3.7h0.9V778.1z"/>
			<path class="st18" d="M148.8,779.2c-0.7,1.2-1.7,1.8-3.1,1.8c-0.9,0-1.7-0.3-2.4-1c-0.7-0.6-1-1.4-1-2.3c0-0.9,0.3-1.7,1-2.4
				c0.7-0.7,1.5-1,2.4-1c0.7,0,1.3,0.2,1.9,0.5c0.5,0.3,1,0.8,1.2,1.3l0.1,0.3h-1c-0.5-0.8-1.2-1.2-2.2-1.3c-0.7,0-1.2,0.2-1.8,0.7
				c-0.5,0.5-0.8,1.1-0.8,1.8s0.3,1.3,0.8,1.8c0.5,0.5,1.1,0.7,1.8,0.7c1,0,1.7-0.4,2.2-1.2h1L148.8,779.2z"/>
			<path class="st18" d="M151.7,781c-1.6,0-2.3-0.7-2.3-2v-6.8h0.9v2.2h1.5v0.8h-1.5v3.6c0,1,0.5,1.4,1.5,1.4V781z"/>
			<path class="st18" d="M158.1,778.1c0,0.8-0.3,1.5-0.8,2.1c-0.5,0.5-1.2,0.8-2,0.8c-0.8,0-1.5-0.3-2-0.8c-0.5-0.5-0.8-1.2-0.8-2.1
				v-3.6h0.9v3.7c0,0.5,0.2,1,0.6,1.4c0.4,0.4,0.9,0.6,1.4,0.6c0.5,0,1-0.2,1.4-0.6c0.4-0.4,0.6-0.9,0.6-1.4v-3.7h0.9V778.1z"/>
			<path class="st18" d="M159.8,780.9h-0.9v-6.4h0.8v0.9c0.2-0.3,0.4-0.6,0.8-0.8c0.3-0.2,0.6-0.2,1-0.2v0.9c-0.4,0-0.7,0.1-1,0.3
				s-0.4,0.4-0.5,0.5c-0.1,0.2-0.2,0.6-0.2,1V780.9z"/>
			<path class="st18" d="M168.6,778.8c-0.2,0.7-0.6,1.2-1.2,1.6c-0.6,0.4-1.2,0.6-1.9,0.6c-0.9,0-1.6-0.3-2.3-1
				c-0.7-0.7-1-1.4-1-2.3c0-1,0.3-1.8,1-2.5c0.7-0.7,1.5-1,2.5-1c0.9,0.1,1.6,0.4,2.2,1.1c0.6,0.6,0.9,1.4,0.9,2.1v0.5H163
				c0.1,0.6,0.3,1.2,0.8,1.6c0.5,0.4,1,0.6,1.7,0.6c1,0,1.7-0.5,2.2-1.4H168.6z M167.9,777.2c-0.1-0.6-0.4-1.1-0.8-1.4
				c-0.4-0.4-1-0.6-1.6-0.6c-0.6,0-1.2,0.2-1.6,0.5c-0.5,0.4-0.7,0.9-0.9,1.5H167.9z"/>
		</g>
		<g class="st17">
			<path class="st18" d="M250.7,767.5h-2.5c-1.3,0-2.2-0.7-2.2-2.1v-6.5h0.9v6.6c0,0.3,0.1,0.6,0.4,0.9c0.2,0.2,0.5,0.3,1,0.3h2.5
				V767.5z"/>
			<path class="st18" d="M257.4,765.4c-0.2,0.7-0.6,1.2-1.2,1.6c-0.6,0.4-1.2,0.6-1.9,0.6c-0.9,0-1.6-0.3-2.3-1
				c-0.7-0.7-1-1.4-1-2.3c0-1,0.3-1.8,1-2.5c0.7-0.7,1.5-1,2.5-1c0.9,0.1,1.6,0.4,2.2,1.1c0.6,0.6,0.9,1.4,0.9,2.1v0.5h-5.7
				c0.1,0.6,0.3,1.2,0.8,1.6c0.5,0.4,1,0.6,1.7,0.6c1,0,1.7-0.5,2.2-1.4H257.4z M256.7,763.8c-0.1-0.6-0.4-1.1-0.8-1.4
				c-0.4-0.4-1-0.6-1.6-0.6c-0.6,0-1.2,0.2-1.6,0.5c-0.5,0.4-0.7,0.9-0.9,1.5H256.7z"/>
			<path class="st18" d="M264.9,767.2c0,0.8-0.3,1.5-1,2c-0.7,0.5-1.4,0.8-2.3,0.8c-0.8,0-1.4-0.3-2-0.7c-0.5-0.4-0.9-1-1.1-1.6h0.8
				c0.1,0.4,0.4,0.8,0.8,1.1c0.4,0.3,0.9,0.5,1.4,0.5c0.6,0,1.2-0.2,1.6-0.7c0.5-0.4,0.7-0.9,0.7-1.5v-0.6c-0.6,0.7-1.4,1.1-2.3,1.1
				c-0.9,0-1.7-0.3-2.4-1c-0.7-0.7-1-1.5-1-2.4c0-0.9,0.3-1.7,0.9-2.3c0.6-0.6,1.4-1,2.3-1c0.9,0,1.7,0.3,2.4,1c0.7,0.7,1,1.5,1,2.4
				V767.2z M263.3,766c0.5-0.5,0.7-1.1,0.7-1.7c0-0.7-0.2-1.3-0.7-1.8c-0.5-0.5-1.1-0.8-1.8-0.7c-0.7,0-1.2,0.3-1.7,0.8
				c-0.5,0.5-0.7,1.1-0.7,1.8c0,0.7,0.3,1.3,0.7,1.7c0.5,0.5,1.1,0.7,1.7,0.7C262.3,766.7,262.8,766.5,263.3,766z"/>
			<path class="st18" d="M272.3,767.5h-0.8v-1c-0.7,0.8-1.5,1.2-2.5,1.1c-0.9,0-1.6-0.4-2.2-1s-0.9-1.4-0.9-2.3c0-0.9,0.3-1.7,1-2.4
				c0.7-0.7,1.5-1,2.4-1c0.9,0,1.7,0.4,2.3,1c0.6,0.6,0.9,1.4,0.9,2.3v0V767.5z M266.6,764.2c0,0.7,0.2,1.3,0.7,1.8
				c0.5,0.5,1,0.8,1.7,0.8c0.7,0,1.3-0.2,1.8-0.7c0.5-0.5,0.7-1.1,0.7-1.8c0-0.7-0.3-1.2-0.7-1.7c-0.5-0.5-1-0.7-1.7-0.7
				c-0.7,0-1.3,0.2-1.7,0.7C266.9,763,266.6,763.5,266.6,764.2z"/>
			<path class="st18" d="M274.1,767.5h-0.9v-8.6h0.9V767.5z"/>
		</g>
		<g class="st17">
			<path class="st18" d="M231.5,780.9h-0.9v-6.5c0-1.4,0.9-2.1,2.2-2.1h2.5v0.8h-2.5c-0.4,0-0.8,0.1-0.9,0.3
				c-0.3,0.3-0.4,0.6-0.4,0.9v1.9h2.9v0.8h-2.9V780.9z"/>
			<path class="st18" d="M236.5,780.9h-0.9v-6.4h0.8v0.9c0.2-0.3,0.4-0.6,0.8-0.8c0.3-0.2,0.6-0.2,1-0.2v0.9c-0.4,0-0.7,0.1-1,0.3
				s-0.4,0.4-0.5,0.5c-0.1,0.2-0.2,0.6-0.2,1V780.9z"/>
			<path class="st18" d="M245.4,780.9h-0.8v-1c-0.7,0.8-1.5,1.2-2.6,1.1c-0.9,0-1.6-0.4-2.2-1s-0.9-1.4-0.9-2.3c0-0.9,0.3-1.7,1-2.4
				c0.7-0.7,1.5-1,2.4-1c0.9,0,1.7,0.4,2.3,1c0.6,0.6,0.9,1.4,0.9,2.3v0V780.9z M239.7,777.6c0,0.7,0.2,1.3,0.7,1.8
				c0.5,0.5,1,0.8,1.7,0.8c0.7,0,1.3-0.2,1.8-0.7c0.5-0.5,0.7-1.1,0.7-1.8c0-0.7-0.3-1.2-0.7-1.7c-0.5-0.5-1-0.7-1.7-0.7
				c-0.7,0-1.3,0.2-1.7,0.7C240,776.4,239.7,776.9,239.7,777.6z"/>
			<path class="st18" d="M255.5,780.9h-0.9V777c0-0.5-0.1-0.9-0.4-1.3s-0.7-0.5-1.1-0.5c-0.5,0-0.9,0.2-1.2,0.5
				c-0.3,0.3-0.5,0.7-0.5,1.1v4.1h-0.9v-4.1c0-0.5-0.2-0.8-0.5-1.1c-0.3-0.3-0.7-0.5-1.2-0.5c-0.5,0-0.8,0.2-1.1,0.5
				s-0.4,0.8-0.4,1.3v3.9h-0.9v-3.8c0-0.8,0.2-1.4,0.7-1.9c0.4-0.5,1-0.7,1.7-0.8c0.9-0.1,1.7,0.3,2.2,1.2c0.5-0.9,1.3-1.3,2.2-1.2
				c0.7,0.1,1.3,0.3,1.7,0.8c0.5,0.5,0.7,1.1,0.7,1.9V780.9z"/>
			<path class="st18" d="M262.8,778.8c-0.2,0.7-0.6,1.2-1.2,1.6c-0.6,0.4-1.2,0.6-1.9,0.6c-0.9,0-1.6-0.3-2.3-1
				c-0.7-0.7-1-1.4-1-2.3c0-1,0.3-1.8,1-2.5c0.7-0.7,1.5-1,2.5-1c0.9,0.1,1.6,0.4,2.2,1.1c0.6,0.6,0.9,1.4,0.9,2.1v0.5h-5.7
				c0.1,0.6,0.3,1.2,0.8,1.6c0.5,0.4,1,0.6,1.7,0.6c1,0,1.7-0.5,2.2-1.4H262.8z M262.2,777.2c-0.1-0.6-0.4-1.1-0.8-1.4
				c-0.4-0.4-1-0.6-1.6-0.6c-0.6,0-1.2,0.2-1.6,0.5c-0.5,0.4-0.7,0.9-0.9,1.5H262.2z"/>
			<path class="st18" d="M270.8,780.9h-1l-1.4-4.2l-1.3,4.2h-1l-2.4-6.4h0.9l2,5.3l1.5-4.5h0.7l1.5,4.5l2-5.3h0.9L270.8,780.9z"/>
			<path class="st18" d="M279.5,780.1c-0.7,0.7-1.5,1-2.4,1c-0.9,0-1.6-0.4-2.3-1c-0.6-0.6-0.9-1.4-0.9-2.3c0-0.9,0.3-1.7,1-2.4
				c0.7-0.7,1.5-1,2.4-1c0.9,0,1.6,0.4,2.3,1c0.6,0.6,0.9,1.4,0.9,2.3C280.5,778.6,280.2,779.4,279.5,780.1z M277.2,780.2
				c0.7,0,1.3-0.2,1.8-0.7c0.5-0.5,0.7-1.1,0.7-1.8c0-0.7-0.3-1.2-0.7-1.7c-0.5-0.5-1-0.7-1.7-0.7c-0.7,0-1.3,0.2-1.7,0.7
				c-0.5,0.5-0.7,1.1-0.7,1.7c0,0.7,0.2,1.3,0.7,1.8C276,779.9,276.5,780.2,277.2,780.2z"/>
			<path class="st18" d="M282.2,780.9h-0.9v-6.4h0.8v0.9c0.2-0.3,0.4-0.6,0.8-0.8c0.3-0.2,0.6-0.2,1-0.2v0.9c-0.4,0-0.7,0.1-1,0.3
				s-0.4,0.4-0.5,0.5c-0.1,0.2-0.2,0.6-0.2,1V780.9z"/>
			<path class="st18" d="M289.7,780.9h-1.1l-2.1-2.5l-1,1.3v1.2h-0.9v-8.6h0.9v6.1l3-3.8h1.1l-2.4,3.2L289.7,780.9z"/>
		</g>
		<g class="st17">
			<path class="st18" d="M371.1,765c0,0.5,0.2,0.9,0.5,1.2s0.7,0.5,1.2,0.5c0.5,0,0.9-0.2,1.2-0.5c0.3-0.3,0.5-0.8,0.5-1.2
				c0-0.8-0.5-1.4-1.6-1.7l-0.9-0.3c-1-0.3-1.5-1.1-1.5-2.1c0-0.6,0.2-1.2,0.7-1.6c0.5-0.4,1-0.7,1.7-0.7c0.6,0,1.2,0.2,1.6,0.7
				s0.7,1,0.7,1.6h-0.9c0-0.4-0.1-0.8-0.4-1c-0.3-0.3-0.6-0.4-1-0.5c-0.4,0-0.8,0.1-1.1,0.4c-0.3,0.3-0.5,0.6-0.4,1.1
				c0,0.7,0.3,1.1,1,1.3l1,0.3c1.3,0.4,2,1.2,2,2.4c0,0.7-0.2,1.3-0.8,1.8c-0.5,0.5-1.1,0.7-1.8,0.7s-1.3-0.2-1.8-0.7
				c-0.5-0.5-0.8-1.1-0.8-1.8H371.1z"/>
			<path class="st18" d="M385.2,767.5h-0.9v-3.9c0-0.5-0.1-0.9-0.4-1.3c-0.3-0.3-0.7-0.5-1.1-0.5c-0.5,0-0.9,0.2-1.2,0.5
				c-0.3,0.3-0.5,0.7-0.5,1.1v4.1h-0.9v-4.1c0-0.5-0.2-0.8-0.5-1.1c-0.3-0.3-0.7-0.5-1.2-0.5c-0.5,0-0.8,0.2-1.1,0.5
				c-0.3,0.3-0.4,0.8-0.4,1.3v3.9h-0.9v-3.8c0-0.8,0.2-1.4,0.7-1.9c0.4-0.5,1-0.7,1.7-0.8c0.9-0.1,1.7,0.3,2.2,1.2
				c0.5-0.9,1.3-1.3,2.2-1.2c0.7,0.1,1.3,0.3,1.7,0.8c0.5,0.5,0.7,1.1,0.7,1.9V767.5z"/>
			<path class="st18" d="M392.7,767.5h-0.8v-1c-0.7,0.8-1.5,1.2-2.6,1.1c-0.9,0-1.6-0.4-2.2-1s-0.9-1.4-0.9-2.3c0-0.9,0.3-1.7,1-2.4
				c0.7-0.7,1.5-1,2.4-1c0.9,0,1.7,0.4,2.3,1c0.6,0.6,0.9,1.4,0.9,2.3v0V767.5z M387,764.2c0,0.7,0.2,1.3,0.7,1.8
				c0.5,0.5,1,0.8,1.7,0.8c0.7,0,1.3-0.2,1.8-0.7c0.5-0.5,0.7-1.1,0.7-1.8c0-0.7-0.3-1.2-0.7-1.7c-0.5-0.5-1-0.7-1.7-0.7
				c-0.7,0-1.3,0.2-1.7,0.7C387.3,763,387,763.5,387,764.2z"/>
			<path class="st18" d="M394.4,767.5h-0.9v-6.4h0.8v0.9c0.2-0.3,0.4-0.6,0.8-0.8c0.3-0.2,0.6-0.2,1-0.2v0.9c-0.4,0-0.7,0.1-1,0.3
				s-0.4,0.4-0.5,0.5c-0.1,0.2-0.2,0.6-0.2,1V767.5z"/>
			<path class="st18" d="M399.1,767.6c-1.6,0-2.3-0.7-2.3-2v-6.8h0.9v2.2h1.5v0.8h-1.5v3.6c0,1,0.5,1.4,1.5,1.4V767.6z"/>
		</g>
		<g class="st17">
			<path class="st18" d="M342.5,778.7c-0.8,1.5-2.2,2.3-3.9,2.4c-1.2,0-2.3-0.4-3.1-1.3c-0.9-0.9-1.3-1.9-1.3-3.2
				c0-1.3,0.4-2.3,1.3-3.2c0.8-0.8,1.9-1.3,3.1-1.2c0.9,0,1.6,0.2,2.3,0.7c0.7,0.4,1.2,1,1.6,1.7h-1c-0.7-1-1.7-1.5-3-1.5
				c-1,0-1.8,0.3-2.5,1c-0.7,0.7-1,1.5-1.1,2.5c0,1,0.3,1.9,1,2.6c0.7,0.7,1.6,1.1,2.6,1.1c0.6,0,1.2-0.2,1.7-0.5
				c0.5-0.3,0.9-0.7,1.2-1.1H342.5z"/>
			<path class="st18" d="M348.2,780.1c-0.7,0.7-1.5,1-2.4,1c-0.9,0-1.6-0.4-2.3-1c-0.6-0.6-0.9-1.4-0.9-2.3c0-0.9,0.3-1.7,1-2.4
				c0.7-0.7,1.5-1,2.4-1c0.9,0,1.6,0.4,2.3,1c0.6,0.6,0.9,1.4,0.9,2.3C349.2,778.6,348.9,779.4,348.2,780.1z M345.9,780.2
				c0.7,0,1.3-0.2,1.8-0.7c0.5-0.5,0.7-1.1,0.7-1.8c0-0.7-0.3-1.2-0.7-1.7c-0.5-0.5-1-0.7-1.7-0.7c-0.7,0-1.3,0.2-1.7,0.7
				c-0.5,0.5-0.7,1.1-0.7,1.7c0,0.7,0.2,1.3,0.7,1.8C344.6,779.9,345.2,780.2,345.9,780.2z"/>
			<path class="st18" d="M355.7,780.9h-0.9v-3.7c0-0.5-0.2-1-0.6-1.4s-0.8-0.6-1.4-0.6c-0.5,0-1,0.2-1.4,0.6s-0.6,0.9-0.6,1.4v3.7
				h-0.9v-3.6c0-0.8,0.3-1.5,0.8-2.1c0.5-0.5,1.2-0.8,2-0.8c0.8,0,1.5,0.3,2,0.8s0.8,1.2,0.8,2.1V780.9z"/>
			<path class="st18" d="M358.9,781c-1.6,0-2.3-0.7-2.3-2v-6.8h0.9v2.2h1.5v0.8h-1.5v3.6c0,1,0.5,1.4,1.5,1.4V781z"/>
			<path class="st18" d="M360.5,780.9h-0.9v-6.4h0.8v0.9c0.2-0.3,0.4-0.6,0.8-0.8c0.3-0.2,0.6-0.2,1-0.2v0.9c-0.4,0-0.7,0.1-1,0.3
				s-0.4,0.4-0.5,0.5c-0.1,0.2-0.2,0.6-0.2,1V780.9z"/>
			<path class="st18" d="M369.4,780.9h-0.8v-1c-0.7,0.8-1.5,1.2-2.5,1.1c-0.9,0-1.6-0.4-2.2-1s-0.9-1.4-0.9-2.3c0-0.9,0.3-1.7,1-2.4
				c0.7-0.7,1.5-1,2.4-1c0.9,0,1.7,0.4,2.3,1c0.6,0.6,0.9,1.4,0.9,2.3v0V780.9z M363.7,777.6c0,0.7,0.2,1.3,0.7,1.8
				c0.5,0.5,1,0.8,1.7,0.8c0.7,0,1.3-0.2,1.8-0.7c0.5-0.5,0.7-1.1,0.7-1.8c0-0.7-0.3-1.2-0.7-1.7c-0.5-0.5-1-0.7-1.7-0.7
				c-0.7,0-1.3,0.2-1.7,0.7C363.9,776.4,363.7,776.9,363.7,777.6z"/>
			<path class="st18" d="M376.8,779.2c-0.7,1.2-1.7,1.8-3.1,1.8c-0.9,0-1.7-0.3-2.4-1c-0.7-0.6-1-1.4-1-2.3c0-0.9,0.3-1.7,1-2.4
				c0.7-0.7,1.5-1,2.4-1c0.7,0,1.3,0.2,1.9,0.5c0.5,0.3,1,0.8,1.2,1.3l0.1,0.3h-1c-0.5-0.8-1.2-1.2-2.2-1.3c-0.7,0-1.2,0.2-1.8,0.7
				c-0.5,0.5-0.8,1.1-0.8,1.8s0.3,1.3,0.8,1.8c0.5,0.5,1.1,0.7,1.8,0.7c1,0,1.7-0.4,2.2-1.2h1L376.8,779.2z"/>
			<path class="st18" d="M379.7,781c-1.6,0-2.3-0.7-2.3-2v-6.8h0.9v2.2h1.5v0.8h-1.5v3.6c0,1,0.5,1.4,1.5,1.4V781z"/>
			<path class="st18" d="M388.8,780.9H388v-7.8H386v-0.8h4.8v0.8h-2V780.9z"/>
			<path class="st18" d="M397.8,778.8c-0.2,0.7-0.6,1.2-1.2,1.6c-0.6,0.4-1.2,0.6-1.9,0.6c-0.9,0-1.6-0.3-2.3-1
				c-0.7-0.7-1-1.4-1-2.3c0-1,0.3-1.8,1-2.5c0.7-0.7,1.5-1,2.5-1c0.9,0.1,1.6,0.4,2.2,1.1c0.6,0.6,0.9,1.4,0.9,2.1v0.5h-5.7
				c0.1,0.6,0.3,1.2,0.8,1.6c0.5,0.4,1,0.6,1.7,0.6c1,0,1.7-0.5,2.2-1.4H397.8z M397.2,777.2c-0.1-0.6-0.4-1.1-0.8-1.4
				c-0.4-0.4-1-0.6-1.6-0.6c-0.6,0-1.2,0.2-1.6,0.5c-0.5,0.4-0.7,0.9-0.9,1.5H397.2z"/>
			<path class="st18" d="M407.9,780.9H407V777c0-0.5-0.1-0.9-0.4-1.3c-0.3-0.3-0.7-0.5-1.1-0.5c-0.5,0-0.9,0.2-1.2,0.5
				c-0.3,0.3-0.5,0.7-0.5,1.1v4.1h-0.9v-4.1c0-0.5-0.2-0.8-0.5-1.1c-0.3-0.3-0.7-0.5-1.2-0.5c-0.5,0-0.8,0.2-1.1,0.5
				c-0.3,0.3-0.4,0.8-0.4,1.3v3.9h-0.9v-3.8c0-0.8,0.2-1.4,0.7-1.9c0.4-0.5,1-0.7,1.7-0.8c0.9-0.1,1.7,0.3,2.2,1.2
				c0.5-0.9,1.3-1.3,2.2-1.2c0.7,0.1,1.3,0.3,1.7,0.8c0.5,0.5,0.7,1.1,0.7,1.9V780.9z"/>
			<path class="st18" d="M409.7,783.1h-0.8v-5.4c0,0,0,0,0,0c0-0.9,0.3-1.7,1-2.4c0.7-0.7,1.5-1,2.4-1c0.9,0,1.6,0.4,2.2,1
				s0.9,1.4,0.9,2.3c0,0.9-0.3,1.7-1,2.4c-0.7,0.7-1.5,1-2.4,1c-0.9,0-1.7-0.4-2.4-1.1V783.1z M412.2,775.2c-0.7,0-1.3,0.2-1.8,0.7
				c-0.5,0.5-0.7,1.1-0.7,1.8c0,0.7,0.3,1.2,0.7,1.7c0.5,0.5,1,0.7,1.7,0.7c0.7,0,1.2-0.2,1.7-0.7c0.5-0.5,0.7-1.1,0.7-1.7
				c0-0.7-0.2-1.3-0.7-1.8C413.4,775.5,412.9,775.2,412.2,775.2z"/>
			<path class="st18" d="M417.1,780.9h-0.9v-8.6h0.9V780.9z"/>
			<path class="st18" d="M424.6,780.9h-0.8v-1c-0.7,0.8-1.5,1.2-2.6,1.1c-0.9,0-1.6-0.4-2.2-1s-0.9-1.4-0.9-2.3c0-0.9,0.3-1.7,1-2.4
				c0.7-0.7,1.5-1,2.4-1c0.9,0,1.7,0.4,2.3,1c0.6,0.6,0.9,1.4,0.9,2.3v0V780.9z M418.9,777.6c0,0.7,0.2,1.3,0.7,1.8
				c0.5,0.5,1,0.8,1.7,0.8c0.7,0,1.3-0.2,1.8-0.7c0.5-0.5,0.7-1.1,0.7-1.8c0-0.7-0.3-1.2-0.7-1.7c-0.5-0.5-1-0.7-1.7-0.7
				c-0.7,0-1.3,0.2-1.7,0.7C419.2,776.4,418.9,776.9,418.9,777.6z"/>
			<path class="st18" d="M427.8,781c-1.6,0-2.3-0.7-2.3-2v-6.8h0.9v2.2h1.5v0.8h-1.5v3.6c0,1,0.5,1.4,1.5,1.4V781z"/>
			<path class="st18" d="M435,778.8c-0.2,0.7-0.6,1.2-1.2,1.6c-0.6,0.4-1.2,0.6-1.9,0.6c-0.9,0-1.6-0.3-2.3-1c-0.7-0.7-1-1.4-1-2.3
				c0-1,0.3-1.8,1-2.5c0.7-0.7,1.5-1,2.5-1c0.8,0.1,1.6,0.4,2.2,1.1c0.6,0.6,0.9,1.4,0.9,2.1v0.5h-5.7c0.1,0.6,0.3,1.2,0.8,1.6
				c0.5,0.4,1,0.6,1.7,0.6c1,0,1.7-0.5,2.2-1.4H435z M434.3,777.2c-0.1-0.6-0.4-1.1-0.8-1.4s-1-0.6-1.6-0.6c-0.6,0-1.2,0.2-1.6,0.5
				s-0.7,0.9-0.9,1.5H434.3z"/>
		</g>
		<g class="st17">
			<path class="st18" d="M478.4,767.5v-8.6h2.5c1.4,0,2.5,0.4,3.4,1.2s1.3,1.8,1.3,3.1c0,1.2-0.4,2.2-1.3,3c-0.8,0.8-1.8,1.3-3,1.3
				H478.4z M481.3,766.7c1,0,1.8-0.4,2.5-1.1c0.7-0.7,1-1.6,1-2.5c0-1-0.4-1.8-1.1-2.4c-0.7-0.6-1.6-1-2.6-1h-1.8v7H481.3z"/>
			<path class="st18" d="M492.9,767.5h-0.8v-1c-0.7,0.8-1.5,1.2-2.6,1.1c-0.9,0-1.6-0.4-2.2-1s-0.9-1.4-0.9-2.3c0-0.9,0.3-1.7,1-2.4
				c0.7-0.7,1.5-1,2.4-1c0.9,0,1.7,0.4,2.3,1c0.6,0.6,0.9,1.4,0.9,2.3v0V767.5z M487.2,764.2c0,0.7,0.2,1.3,0.7,1.8
				c0.5,0.5,1,0.8,1.7,0.8c0.7,0,1.3-0.2,1.8-0.7c0.5-0.5,0.7-1.1,0.7-1.8c0-0.7-0.3-1.2-0.7-1.7c-0.5-0.5-1-0.7-1.7-0.7
				c-0.7,0-1.3,0.2-1.7,0.7C487.5,763,487.2,763.5,487.2,764.2z"/>
			<path class="st18" d="M499.4,766.7c-0.7,0.7-1.5,1-2.4,1c-0.9,0-1.6-0.4-2.3-1c-0.6-0.6-0.9-1.4-0.9-2.3c0-0.9,0.3-1.7,1-2.4
				c0.7-0.7,1.5-1,2.4-1c0.9,0,1.6,0.4,2.3,1c0.6,0.6,0.9,1.4,0.9,2.3C500.4,765.2,500,766,499.4,766.7z M497,766.8
				c0.7,0,1.3-0.2,1.8-0.7c0.5-0.5,0.7-1.1,0.7-1.8c0-0.7-0.3-1.2-0.7-1.7c-0.5-0.5-1-0.7-1.7-0.7c-0.7,0-1.3,0.2-1.7,0.7
				c-0.5,0.5-0.7,1.1-0.7,1.7c0,0.7,0.2,1.3,0.7,1.8C495.8,766.5,496.3,766.8,497,766.8z"/>
			<path class="st18" d="M502.1,767.5h-0.8v-8.6h0.8V767.5z"/>
			<path class="st18" d="M503.9,767.5H503v-8.6h0.9V767.5z"/>
			<path class="st18" d="M511.4,767.5h-0.8v-1c-0.7,0.8-1.5,1.2-2.5,1.1c-0.9,0-1.6-0.4-2.2-1s-0.9-1.4-0.9-2.3c0-0.9,0.3-1.7,1-2.4
				c0.7-0.7,1.5-1,2.4-1c0.9,0,1.7,0.4,2.3,1c0.6,0.6,0.9,1.4,0.9,2.3v0V767.5z M505.7,764.2c0,0.7,0.2,1.3,0.7,1.8
				c0.5,0.5,1,0.8,1.7,0.8c0.7,0,1.3-0.2,1.8-0.7c0.5-0.5,0.7-1.1,0.7-1.8c0-0.7-0.3-1.2-0.7-1.7c-0.5-0.5-1-0.7-1.7-0.7
				c-0.7,0-1.3,0.2-1.7,0.7C506,763,505.7,763.5,505.7,764.2z"/>
			<path class="st18" d="M513.1,767.5h-0.9v-6.4h0.8v0.9c0.2-0.3,0.4-0.6,0.8-0.8c0.3-0.2,0.6-0.2,1-0.2v0.9c-0.4,0-0.7,0.1-1,0.3
				s-0.4,0.4-0.5,0.5c-0.1,0.2-0.2,0.6-0.2,1V767.5z"/>
			<path class="st18" d="M525.8,767.5h-2.5c-1.3,0-2.2-0.8-2.2-2.1V761c0-1.4,0.9-2.1,2.2-2.1h2.5v0.8h-2.5c-0.4,0-0.8,0.1-0.9,0.3
				c-0.3,0.3-0.4,0.6-0.4,0.9v1.9h2.9v0.8h-2.9v2c0,0.3,0.1,0.6,0.4,0.9c0.2,0.2,0.5,0.3,0.9,0.3h2.5V767.5z"/>
			<path class="st18" d="M532.7,765.8c-0.7,1.2-1.7,1.8-3.1,1.8c-0.9,0-1.7-0.3-2.4-1c-0.7-0.6-1-1.4-1-2.3c0-0.9,0.3-1.7,1-2.4
				c0.7-0.7,1.5-1,2.4-1c0.7,0,1.3,0.2,1.9,0.5c0.5,0.3,1,0.8,1.2,1.3l0.1,0.3h-1c-0.5-0.8-1.2-1.2-2.2-1.3c-0.7,0-1.2,0.2-1.8,0.7
				c-0.5,0.5-0.8,1.1-0.8,1.8s0.3,1.3,0.8,1.8c0.5,0.5,1.1,0.7,1.8,0.7c1,0,1.7-0.4,2.2-1.2h1L532.7,765.8z"/>
			<path class="st18" d="M538.8,766.7c-0.7,0.7-1.5,1-2.4,1c-0.9,0-1.6-0.4-2.3-1c-0.6-0.6-0.9-1.4-0.9-2.3c0-0.9,0.3-1.7,1-2.4
				c0.7-0.7,1.5-1,2.4-1c0.9,0,1.6,0.4,2.3,1c0.6,0.6,0.9,1.4,0.9,2.3C539.8,765.2,539.5,766,538.8,766.7z M536.5,766.8
				c0.7,0,1.3-0.2,1.8-0.7c0.5-0.5,0.7-1.1,0.7-1.8c0-0.7-0.3-1.2-0.7-1.7c-0.5-0.5-1-0.7-1.7-0.7c-0.7,0-1.3,0.2-1.7,0.7
				c-0.5,0.5-0.7,1.1-0.7,1.7c0,0.7,0.2,1.3,0.7,1.8C535.3,766.5,535.8,766.8,536.5,766.8z"/>
		</g>
		<g class="st17">
			<path class="st18" d="M473.1,780.9h-0.9v-6.5c0-1.4,0.9-2.1,2.2-2.1h0.2v0.8l-0.2,0c-0.4,0-0.8,0.1-1,0.3
				c-0.3,0.3-0.4,0.6-0.4,0.9v0.3h1.6v0.8h-1.6V780.9z"/>
			<path class="st18" d="M481,780.1c-0.7,0.7-1.5,1-2.4,1c-0.9,0-1.6-0.4-2.3-1c-0.6-0.6-0.9-1.4-0.9-2.3c0-0.9,0.3-1.7,1-2.4
				c0.7-0.7,1.5-1,2.4-1c0.9,0,1.6,0.4,2.3,1c0.6,0.6,0.9,1.4,0.9,2.3C482,778.6,481.7,779.4,481,780.1z M478.6,780.2
				c0.7,0,1.3-0.2,1.8-0.7c0.5-0.5,0.7-1.1,0.7-1.8c0-0.7-0.3-1.2-0.7-1.7c-0.5-0.5-1-0.7-1.7-0.7c-0.7,0-1.3,0.2-1.7,0.7
				c-0.5,0.5-0.7,1.1-0.7,1.7c0,0.7,0.2,1.3,0.7,1.8C477.4,779.9,478,780.2,478.6,780.2z"/>
			<path class="st18" d="M483.7,780.9h-0.9v-6.4h0.8v0.9c0.2-0.3,0.4-0.6,0.8-0.8c0.3-0.2,0.6-0.2,1-0.2v0.9c-0.4,0-0.7,0.1-1,0.3
				s-0.4,0.4-0.5,0.5c-0.1,0.2-0.2,0.6-0.2,1V780.9z"/>
			<path class="st18" d="M500,778.7c-0.8,1.5-2.2,2.3-3.9,2.4c-1.2,0-2.3-0.4-3.1-1.3c-0.9-0.9-1.3-1.9-1.3-3.2
				c0-1.3,0.4-2.3,1.3-3.2c0.9-0.8,1.9-1.3,3.1-1.2c0.9,0,1.6,0.2,2.3,0.7c0.7,0.4,1.2,1,1.6,1.7h-1c-0.7-1-1.7-1.5-3-1.5
				c-1,0-1.8,0.3-2.5,1c-0.7,0.7-1,1.5-1.1,2.5c0,1,0.3,1.9,1,2.6c0.7,0.7,1.6,1.1,2.6,1.1c0.6,0,1.2-0.2,1.7-0.5
				c0.5-0.3,0.9-0.7,1.2-1.1H500z"/>
			<path class="st18" d="M500.9,773.7h-0.8v-1.5h0.8V773.7z M500.9,780.9h-0.8v-6.4h0.8V780.9z"/>
			<path class="st18" d="M502.7,780.9h-0.9v-6.4h0.8v0.9c0.2-0.3,0.4-0.6,0.8-0.8c0.3-0.2,0.6-0.2,1-0.2v0.9c-0.4,0-0.7,0.1-1,0.3
				s-0.4,0.4-0.5,0.5c-0.1,0.2-0.2,0.6-0.2,1V780.9z"/>
			<path class="st18" d="M511.6,779.2c-0.7,1.2-1.7,1.8-3.1,1.8c-0.9,0-1.7-0.3-2.4-1s-1-1.4-1-2.3c0-0.9,0.3-1.7,1-2.4
				c0.7-0.7,1.5-1,2.4-1c0.7,0,1.3,0.2,1.9,0.5c0.5,0.3,1,0.8,1.2,1.3l0.1,0.3h-1c-0.5-0.8-1.2-1.2-2.2-1.3c-0.7,0-1.2,0.2-1.8,0.7
				c-0.5,0.5-0.8,1.1-0.8,1.8s0.3,1.3,0.8,1.8c0.5,0.5,1.1,0.7,1.8,0.7c1,0,1.7-0.4,2.2-1.2h1L511.6,779.2z"/>
			<path class="st18" d="M517.7,778.1c0,0.8-0.3,1.5-0.8,2.1c-0.5,0.5-1.2,0.8-2,0.8c-0.8,0-1.5-0.3-2-0.8c-0.5-0.5-0.8-1.2-0.8-2.1
				v-3.6h0.9v3.7c0,0.5,0.2,1,0.6,1.4c0.4,0.4,0.8,0.6,1.4,0.6c0.5,0,1-0.2,1.4-0.6c0.4-0.4,0.6-0.9,0.6-1.4v-3.7h0.9V778.1z"/>
			<path class="st18" d="M519.6,780.9h-0.8v-8.6h0.8V780.9z"/>
			<path class="st18" d="M527.1,780.9h-0.8v-1c-0.7,0.8-1.5,1.2-2.6,1.1c-0.9,0-1.6-0.4-2.2-1s-0.9-1.4-0.9-2.3c0-0.9,0.3-1.7,1-2.4
				c0.7-0.7,1.5-1,2.4-1c0.9,0,1.7,0.4,2.3,1c0.6,0.6,0.9,1.4,0.9,2.3v0V780.9z M521.4,777.6c0,0.7,0.2,1.3,0.7,1.8
				c0.5,0.5,1,0.8,1.7,0.8c0.7,0,1.3-0.2,1.8-0.7c0.5-0.5,0.7-1.1,0.7-1.8c0-0.7-0.3-1.2-0.7-1.7c-0.5-0.5-1-0.7-1.7-0.7
				c-0.7,0-1.3,0.2-1.7,0.7C521.6,776.4,521.4,776.9,521.4,777.6z"/>
			<path class="st18" d="M530.3,781c-1.6,0-2.3-0.7-2.3-2v-6.8h0.9v2.2h1.5v0.8h-1.5v3.6c0,1,0.5,1.4,1.5,1.4V781z"/>
			<path class="st18" d="M531.9,773.7H531v-1.5h0.8V773.7z M531.9,780.9H531v-6.4h0.8V780.9z"/>
			<path class="st18" d="M538.4,780.1c-0.7,0.7-1.5,1-2.4,1c-0.9,0-1.6-0.4-2.3-1c-0.6-0.6-0.9-1.4-0.9-2.3c0-0.9,0.3-1.7,1-2.4
				c0.7-0.7,1.5-1,2.4-1c0.9,0,1.6,0.4,2.3,1c0.6,0.6,0.9,1.4,0.9,2.3C539.4,778.6,539,779.4,538.4,780.1z M536,780.2
				c0.7,0,1.3-0.2,1.8-0.7c0.5-0.5,0.7-1.1,0.7-1.8c0-0.7-0.3-1.2-0.7-1.7c-0.5-0.5-1-0.7-1.7-0.7c-0.7,0-1.3,0.2-1.7,0.7
				c-0.5,0.5-0.7,1.1-0.7,1.7c0,0.7,0.2,1.3,0.7,1.8C534.8,779.9,535.3,780.2,536,780.2z"/>
			<path class="st18" d="M545.9,780.9H545v-3.7c0-0.5-0.2-1-0.6-1.4s-0.8-0.6-1.4-0.6c-0.5,0-1,0.2-1.4,0.6s-0.6,0.9-0.6,1.4v3.7
				h-0.9v-3.6c0-0.8,0.3-1.5,0.8-2.1c0.5-0.5,1.2-0.8,2-0.8c0.8,0,1.5,0.3,2,0.8s0.8,1.2,0.8,2.1V780.9z"/>
		</g>
		<g id="XMLID_215_">
			<path id="XMLID_239_" class="st11" d="M405.8,751.2h-35c-3.7,0-6.7-3-6.7-6.7v-50.3c0-3.7,3-6.7,6.7-6.7h35c3.7,0,6.7,3,6.7,6.7
				v50.4C412.5,748.2,409.5,751.2,405.8,751.2z"/>
			<g id="XMLID_218_">
				<path id="XMLID_238_" class="st14" d="M357.5,714.2V739c0,3.6,3,6.6,6.6,6.6H387l18.8-18.8v-38.3c0-3.6-3-6.6-6.6-6.6h-35.1
					c-3.6,0-6.6,3-6.6,6.6v7.6"/>
				<line id="XMLID_237_" class="st14" x1="357.5" y1="703" x2="357.5" y2="708.5"/>
				<path id="XMLID_236_" class="st19" d="M393.7,726.8h12.2l-18.8,18.8v-12.2C387.1,729.8,390.1,726.8,393.7,726.8z"/>
			</g>
			<line id="XMLID_217_" class="st14" x1="374" y1="697.5" x2="398" y2="697.5"/>
			<line id="XMLID_216_" class="st14" x1="374" y1="705.5" x2="398" y2="705.5"/>
		</g>
	</g>
	<g class="st17">
		<path class="st4" d="M43.4,812.1v-14.9h4.3c2.4,0,4.3,0.7,5.9,2.1s2.3,3.2,2.3,5.3c0,2-0.7,3.8-2.2,5.2c-1.4,1.5-3.2,2.2-5.2,2.2
			H43.4z M48.3,810.7c1.7,0,3.1-0.6,4.3-1.9c1.2-1.2,1.8-2.7,1.7-4.4c0-1.6-0.7-3-2-4.2c-1.3-1.1-2.7-1.7-4.5-1.7h-3.1v12.1H48.3z"
			/>
		<path class="st4" d="M68.5,812.1h-1.4v-1.7c-1.2,1.4-2.7,2-4.4,2c-1.5-0.1-2.8-0.6-3.9-1.8c-1.1-1.1-1.6-2.5-1.6-4
			c0-1.6,0.6-3,1.7-4.1c1.1-1.2,2.5-1.7,4.1-1.6c1.5,0.1,2.9,0.6,3.9,1.8c1.1,1.1,1.6,2.5,1.5,4v0.1V812.1z M58.6,806.5
			c0,1.2,0.3,2.2,1.1,3.1s1.8,1.3,2.9,1.4c1.2,0.1,2.2-0.4,3.1-1.3c0.9-0.9,1.3-2,1.3-3.2c0-1.2-0.4-2.1-1.2-3
			c-0.8-0.8-1.8-1.2-2.9-1.2c-1.2,0-2.2,0.4-3,1.2C59.1,804.3,58.7,805.3,58.6,806.5z"/>
		<path class="st4" d="M79.6,810.7c-1.1,1.1-2.5,1.7-4.1,1.6c-1.5,0-2.8-0.6-3.9-1.7c-1.1-1.1-1.6-2.5-1.6-4c0-1.6,0.6-3,1.7-4.1
			c1.1-1.2,2.5-1.7,4.1-1.7c1.5,0.1,2.8,0.6,3.9,1.8c1.1,1.1,1.6,2.5,1.6,4C81.4,808.2,80.8,809.5,79.6,810.7z M75.5,810.9
			c1.2,0.1,2.2-0.3,3.1-1.3c0.9-0.9,1.3-2,1.3-3.2c0-1.2-0.5-2.1-1.3-3c-0.8-0.8-1.7-1.2-2.9-1.2c-1.2,0-2.2,0.4-3,1.2
			c-0.8,0.8-1.2,1.8-1.3,3c0,1.2,0.3,2.2,1.1,3.1C73.5,810.4,74.4,810.8,75.5,810.9z"/>
		<path class="st4" d="M84.3,812.1h-1.5v-14.9h1.5V812.1z"/>
		<path class="st4" d="M87.4,812.1H86v-14.9h1.5V812.1z"/>
		<path class="st4" d="M100.4,812.1H99v-1.7c-1.2,1.4-2.7,2-4.4,2c-1.5-0.1-2.8-0.6-3.9-1.8c-1.1-1.1-1.6-2.5-1.6-4
			c0-1.6,0.6-3,1.7-4.1c1.1-1.2,2.5-1.7,4.1-1.6c1.5,0.1,2.9,0.6,3.9,1.8c1.1,1.1,1.6,2.5,1.5,4v0.1V812.1z M90.6,806.5
			c0,1.2,0.3,2.2,1.1,3.1s1.8,1.3,2.9,1.4c1.2,0.1,2.2-0.4,3.1-1.3c0.9-0.9,1.3-2,1.3-3.2c0-1.2-0.4-2.1-1.2-3
			c-0.8-0.8-1.8-1.2-2.9-1.2c-1.2,0-2.2,0.4-3,1.2C91,804.3,90.6,805.3,90.6,806.5z"/>
		<path class="st4" d="M103.4,812.1h-1.5v-11h1.4v1.6c0.3-0.6,0.8-1,1.4-1.4c0.6-0.3,1.1-0.4,1.7-0.4v1.5c-0.7,0-1.2,0.2-1.7,0.6
			c-0.4,0.3-0.7,0.7-0.9,0.9c-0.3,0.4-0.4,1-0.4,1.7V812.1z"/>
		<path class="st4" d="M131.5,808.3c-1.4,2.6-3.8,4.1-6.7,4.1c-2.1,0-3.9-0.7-5.4-2.3c-1.5-1.5-2.2-3.4-2.2-5.5c0-2.2,0.8-4,2.3-5.5
			c1.5-1.5,3.3-2.2,5.4-2.1c1.5,0,2.8,0.4,4,1.1c1.2,0.7,2.1,1.7,2.7,3h-1.7c-1.2-1.8-3-2.7-5.2-2.6c-1.6,0-3.1,0.6-4.3,1.8
			c-1.2,1.2-1.8,2.6-1.8,4.3c0,1.7,0.6,3.2,1.8,4.5c1.2,1.3,2.7,1.9,4.4,1.9c1,0,2-0.3,2.9-0.8c0.9-0.5,1.6-1.1,2.1-1.9H131.5z"/>
		<path class="st4" d="M133.2,812.1h-1.5v-11h1.4v1.6c0.3-0.6,0.8-1,1.4-1.4c0.6-0.3,1.1-0.4,1.7-0.4v1.5c-0.7,0-1.2,0.2-1.7,0.6
			c-0.4,0.3-0.7,0.7-0.9,0.9c-0.3,0.4-0.4,1-0.4,1.7V812.1z"/>
		<path class="st4" d="M141.3,815.9h-1.6l1.7-4.2l-4.2-10.7h1.6l3.5,8.7l3.7-8.7h1.5L141.3,815.9z"/>
		<path class="st4" d="M150.3,816h-1.4v-9.3c0,0,0-0.1,0-0.1c0-1.6,0.6-3,1.7-4.1c1.2-1.2,2.5-1.7,4.1-1.7c1.5,0,2.8,0.6,3.9,1.7
			c1.1,1.1,1.6,2.5,1.6,4c0,1.6-0.6,3-1.7,4.2c-1.1,1.1-2.5,1.7-4.1,1.6c-1.6-0.1-3-0.7-4.1-2V816z M154.6,802.3
			c-1.2-0.1-2.2,0.3-3.1,1.3c-0.9,0.9-1.3,2-1.2,3.2c0,1.2,0.4,2.1,1.2,3c0.8,0.8,1.8,1.2,2.9,1.2c1.2,0,2.1-0.4,3-1.2
			c0.8-0.8,1.3-1.8,1.3-3c0-1.2-0.4-2.2-1.2-3C156.7,802.8,155.8,802.3,154.6,802.3z"/>
		<path class="st4" d="M165.6,812.3c-2.7,0-4-1.1-4-3.4v-11.7h1.5v3.8h2.5v1.4h-2.5v6.2c0,1.6,0.9,2.5,2.5,2.5V812.3z"/>
		<path class="st4" d="M176.5,810.7c-1.1,1.1-2.5,1.7-4.1,1.6c-1.5,0-2.8-0.6-3.9-1.7c-1.1-1.1-1.6-2.5-1.6-4c0-1.6,0.6-3,1.7-4.1
			c1.1-1.2,2.5-1.7,4.1-1.7c1.5,0.1,2.8,0.6,3.9,1.8c1.1,1.1,1.6,2.5,1.6,4C178.2,808.2,177.6,809.5,176.5,810.7z M172.4,810.9
			c1.2,0.1,2.2-0.3,3.1-1.3c0.9-0.9,1.3-2,1.3-3.2c0-1.2-0.5-2.1-1.3-3c-0.8-0.8-1.7-1.2-2.9-1.2c-1.2,0-2.2,0.4-3,1.2
			c-0.8,0.8-1.2,1.8-1.3,3c0,1.2,0.3,2.2,1.1,3.1C170.3,810.4,171.3,810.8,172.4,810.9z"/>
		<path class="st4" d="M191,809.2c-1.2,2.1-3,3.2-5.4,3.2c-1.6,0-3-0.6-4.1-1.7c-1.2-1.1-1.7-2.5-1.8-4c0-1.6,0.5-3,1.7-4.1
			c1.2-1.1,2.6-1.7,4.2-1.8c1.2,0,2.2,0.3,3.2,0.9c0.9,0.6,1.6,1.3,2,2.2l0.2,0.5h-1.7c-0.8-1.4-2.1-2.1-3.8-2.2
			c-1.1,0-2.1,0.4-3.1,1.2c-0.9,0.9-1.4,1.9-1.4,3.1s0.4,2.2,1.3,3.1c0.9,0.9,1.9,1.3,3.1,1.3c1.7,0,3-0.7,3.8-2.1h1.7L191,809.2z"
			/>
		<path class="st4" d="M201.7,807.4c0,1.4-0.5,2.6-1.4,3.6c-0.9,0.9-2.1,1.4-3.5,1.4c-1.4,0-2.6-0.5-3.5-1.4
			c-0.9-0.9-1.4-2.1-1.4-3.6v-6.3h1.5v6.5c0,0.9,0.3,1.7,1,2.4c0.7,0.7,1.5,1,2.4,1s1.7-0.3,2.4-1c0.7-0.7,1-1.5,1-2.4v-6.5h1.5
			V807.4z"/>
		<path class="st4" d="M204.7,812.1h-1.5v-11h1.4v1.6c0.3-0.6,0.8-1,1.4-1.4c0.6-0.3,1.1-0.4,1.7-0.4v1.5c-0.7,0-1.2,0.2-1.7,0.6
			c-0.4,0.3-0.7,0.7-0.9,0.9c-0.3,0.4-0.4,1-0.4,1.7V812.1z"/>
		<path class="st4" d="M210.2,812.1h-1.5v-11h1.4v1.6c0.3-0.6,0.8-1,1.4-1.4c0.6-0.3,1.1-0.4,1.7-0.4v1.5c-0.7,0-1.2,0.2-1.7,0.6
			c-0.4,0.3-0.7,0.7-0.9,0.9c-0.3,0.4-0.4,1-0.4,1.7V812.1z"/>
		<path class="st4" d="M225.4,808.5c-0.4,1.2-1.1,2.1-2.1,2.8c-1,0.7-2.1,1-3.3,1.1c-1.5,0-2.8-0.5-4-1.6c-1.2-1.1-1.8-2.5-1.8-4
			c0-1.6,0.5-3.1,1.7-4.3c1.2-1.2,2.6-1.8,4.3-1.7c1.5,0.1,2.7,0.7,3.8,1.8c1,1.1,1.6,2.3,1.6,3.7v0.8h-9.9c0.1,1.1,0.6,2,1.4,2.7
			c0.8,0.7,1.8,1.1,2.9,1.1c1.7,0,3-0.8,3.7-2.4H225.4z M224.2,805.7c-0.2-1-0.7-1.9-1.5-2.5s-1.7-1-2.7-1c-1.1,0-2,0.3-2.8,0.9
			c-0.8,0.6-1.3,1.5-1.5,2.5H224.2z"/>
		<path class="st4" d="M236.7,812.1h-1.5v-6.4c0-0.9-0.3-1.7-1-2.4c-0.7-0.7-1.4-1-2.4-1s-1.7,0.3-2.4,1c-0.7,0.7-1,1.5-1,2.4v6.4
			h-1.5v-6.3c0-1.4,0.5-2.6,1.4-3.6c0.9-0.9,2.1-1.4,3.5-1.4c1.4,0,2.6,0.5,3.5,1.4c0.9,0.9,1.4,2.1,1.4,3.6V812.1z"/>
		<path class="st4" d="M249.5,809.2c-1.2,2.1-3,3.2-5.4,3.2c-1.6,0-3-0.6-4.1-1.7c-1.2-1.1-1.7-2.5-1.8-4c0-1.6,0.5-3,1.7-4.1
			c1.2-1.1,2.6-1.7,4.2-1.8c1.2,0,2.2,0.3,3.2,0.9c0.9,0.6,1.6,1.3,2,2.2l0.2,0.5H248c-0.8-1.4-2.1-2.1-3.8-2.2
			c-1.1,0-2.1,0.4-3.1,1.2c-0.9,0.9-1.4,1.9-1.4,3.1s0.4,2.2,1.3,3.1c0.9,0.9,1.9,1.3,3.1,1.3c1.7,0,3-0.7,3.8-2.1h1.7L249.5,809.2z
			"/>
		<path class="st4" d="M254.6,815.9H253l1.7-4.2l-4.2-10.7h1.6l3.5,8.7l3.7-8.7h1.5L254.6,815.9z"/>
		<path class="st4" d="M273.2,812.1h-1.5v-14.9h1.5V812.1z"/>
		<path class="st4" d="M276.4,809.2c0,0.4,0.2,0.8,0.6,1.2s0.9,0.6,1.3,0.6c0.6,0,1.1-0.2,1.5-0.6c0.3-0.3,0.5-0.8,0.5-1.3
			c0-0.9-0.5-1.6-1.6-1.9l-1.3-0.4c-1.4-0.4-2.1-1.4-2.1-2.8c0-0.9,0.3-1.6,0.9-2.2c0.6-0.6,1.4-0.9,2.2-1c0.8,0,1.5,0.2,2.1,0.7
			c0.7,0.5,1,1.2,1.1,1.9l0,0.3h-1.5v-0.3c0-0.8-0.8-1.3-1.6-1.3c-0.8,0-1.5,0.7-1.5,1.5c-0.1,0.8,0.4,1.4,1.4,1.7l1.3,0.4
			c1.5,0.5,2.3,1.5,2.4,2.9c0.1,1-0.3,1.9-1,2.6c-0.8,0.7-1.7,1-2.7,1c-0.9-0.1-1.7-0.4-2.3-1.1c-0.6-0.7-0.9-1.5-0.9-2.4h1.5V809.2
			z"/>
		<path class="st4" d="M284.8,809.2c0,0.4,0.2,0.8,0.6,1.2s0.9,0.6,1.3,0.6c0.6,0,1.1-0.2,1.5-0.6c0.3-0.3,0.5-0.8,0.5-1.3
			c0-0.9-0.5-1.6-1.6-1.9l-1.3-0.4c-1.4-0.4-2.1-1.4-2.1-2.8c0-0.9,0.3-1.6,0.9-2.2c0.6-0.6,1.4-0.9,2.2-1c0.8,0,1.5,0.2,2.1,0.7
			c0.7,0.5,1,1.2,1.1,1.9l0,0.3h-1.5v-0.3c0-0.8-0.8-1.3-1.6-1.3c-0.8,0-1.5,0.7-1.5,1.5c-0.1,0.8,0.4,1.4,1.4,1.7l1.3,0.4
			c1.5,0.5,2.3,1.5,2.4,2.9c0.1,1-0.3,1.9-1,2.6c-0.8,0.7-1.7,1-2.7,1c-0.9-0.1-1.7-0.4-2.3-1.1c-0.6-0.7-0.9-1.5-0.9-2.4h1.5V809.2
			z"/>
		<path class="st4" d="M301.4,807.4c0,1.4-0.5,2.6-1.4,3.6c-0.9,0.9-2.1,1.4-3.5,1.4s-2.6-0.5-3.5-1.4c-0.9-0.9-1.4-2.1-1.4-3.6
			v-6.3h1.5v6.5c0,0.9,0.3,1.7,1,2.4c0.7,0.7,1.5,1,2.4,1c0.9,0,1.7-0.3,2.4-1c0.7-0.7,1-1.5,1-2.4v-6.5h1.5V807.4z"/>
		<path class="st4" d="M314.3,812.1h-1.4v-1.7c-1.2,1.4-2.7,2-4.4,2c-1.5-0.1-2.8-0.6-3.9-1.8c-1.1-1.1-1.6-2.5-1.6-4
			c0-1.6,0.6-3,1.7-4.1c1.1-1.2,2.5-1.7,4.1-1.6c1.5,0.1,2.9,0.6,3.9,1.8c1.1,1.1,1.6,2.5,1.5,4v0.1V812.1z M304.5,806.5
			c0,1.2,0.3,2.2,1.1,3.1c0.8,0.9,1.8,1.3,2.9,1.4c1.2,0.1,2.2-0.4,3.1-1.3c0.9-0.9,1.3-2,1.3-3.2c0-1.2-0.4-2.1-1.2-3
			c-0.8-0.8-1.8-1.2-2.9-1.2c-1.2,0-2.2,0.4-3,1.2C304.9,804.3,304.5,805.3,304.5,806.5z"/>
		<path class="st4" d="M325.6,812.1h-1.5v-6.4c0-0.9-0.3-1.7-1-2.4c-0.7-0.7-1.4-1-2.4-1c-0.9,0-1.7,0.3-2.4,1c-0.7,0.7-1,1.5-1,2.4
			v6.4h-1.5v-6.3c0-1.4,0.5-2.6,1.4-3.6s2.1-1.4,3.5-1.4c1.4,0,2.6,0.5,3.5,1.4c0.9,0.9,1.4,2.1,1.4,3.6V812.1z"/>
		<path class="st4" d="M338.4,809.2c-1.2,2.1-3,3.2-5.4,3.2c-1.6,0-3-0.6-4.1-1.7c-1.2-1.1-1.7-2.5-1.8-4c0-1.6,0.5-3,1.7-4.1
			c1.2-1.1,2.6-1.7,4.2-1.8c1.2,0,2.2,0.3,3.2,0.9c0.9,0.6,1.6,1.3,2,2.2l0.2,0.5h-1.7c-0.8-1.4-2.1-2.1-3.8-2.2
			c-1.1,0-2.1,0.4-3.1,1.2c-0.9,0.9-1.4,1.9-1.4,3.1s0.4,2.2,1.3,3.1c0.9,0.9,1.9,1.3,3.1,1.3c1.7,0,3-0.7,3.8-2.1h1.7L338.4,809.2z
			"/>
		<path class="st4" d="M350.5,808.5c-0.4,1.2-1.1,2.1-2.1,2.8c-1,0.7-2.1,1-3.3,1.1c-1.5,0-2.8-0.5-4-1.6c-1.2-1.1-1.8-2.5-1.8-4
			c0-1.6,0.5-3.1,1.7-4.3c1.2-1.2,2.6-1.8,4.3-1.7c1.5,0.1,2.7,0.7,3.8,1.8c1,1.1,1.6,2.3,1.6,3.7v0.8h-9.9c0.1,1.1,0.6,2,1.4,2.7
			c0.8,0.7,1.8,1.1,2.9,1.1c1.7,0,3-0.8,3.7-2.4H350.5z M349.3,805.7c-0.2-1-0.7-1.9-1.5-2.5s-1.7-1-2.7-1s-2,0.3-2.8,0.9
			c-0.8,0.6-1.3,1.5-1.5,2.5H349.3z"/>
		<path class="st4" d="M363.2,812.1h-1.5v-14.9h1.5V812.1z"/>
		<path class="st4" d="M374.6,812.1h-1.5v-6.4c0-0.9-0.3-1.7-1-2.4c-0.7-0.7-1.4-1-2.4-1c-0.9,0-1.7,0.3-2.4,1c-0.7,0.7-1,1.5-1,2.4
			v6.4h-1.5v-6.3c0-1.4,0.5-2.6,1.4-3.6s2.1-1.4,3.5-1.4c1.4,0,2.6,0.5,3.5,1.4c0.9,0.9,1.4,2.1,1.4,3.6V812.1z"/>
		<path class="st4" d="M377.7,812.1h-1.5v-11.2c0-2.3,1.6-3.7,3.9-3.7h0.4v1.3l-0.4,0c-0.8,0-1.3,0.2-1.6,0.5
			c-0.5,0.5-0.7,1-0.7,1.5v0.5h2.8v1.4h-2.8V812.1z"/>
		<path class="st4" d="M383.1,812.1h-1.5v-11h1.4v1.6c0.3-0.6,0.8-1,1.4-1.4c0.6-0.3,1.1-0.4,1.7-0.4v1.5c-0.7,0-1.2,0.2-1.7,0.6
			c-0.4,0.3-0.7,0.7-0.9,0.9c-0.3,0.4-0.4,1-0.4,1.7V812.1z"/>
		<path class="st4" d="M398.4,812.1H397v-1.7c-1.2,1.4-2.7,2-4.4,2c-1.5-0.1-2.8-0.6-3.9-1.8c-1.1-1.1-1.6-2.5-1.6-4
			c0-1.6,0.6-3,1.7-4.1c1.1-1.2,2.5-1.7,4.1-1.6c1.5,0.1,2.9,0.6,3.9,1.8c1.1,1.1,1.6,2.5,1.5,4v0.1V812.1z M388.6,806.5
			c0,1.2,0.3,2.2,1.1,3.1c0.8,0.9,1.8,1.3,2.9,1.4c1.2,0.1,2.2-0.4,3.1-1.3c0.9-0.9,1.3-2,1.3-3.2c0-1.2-0.4-2.1-1.2-3
			c-0.8-0.8-1.8-1.2-2.9-1.2c-1.2,0-2.2,0.4-3,1.2C389,804.3,388.6,805.3,388.6,806.5z"/>
		<path class="st4" d="M401.5,809.2c0,0.4,0.2,0.8,0.6,1.2s0.9,0.6,1.3,0.6c0.6,0,1.1-0.2,1.5-0.6c0.3-0.3,0.5-0.8,0.5-1.3
			c0-0.9-0.5-1.6-1.6-1.9l-1.3-0.4c-1.4-0.4-2.1-1.4-2.1-2.8c0-0.9,0.3-1.6,0.9-2.2c0.6-0.6,1.4-0.9,2.2-1c0.8,0,1.5,0.2,2.1,0.7
			c0.7,0.5,1,1.2,1.1,1.9l0,0.3h-1.5v-0.3c0-0.8-0.8-1.3-1.6-1.3c-0.8,0-1.5,0.7-1.5,1.5c-0.1,0.8,0.4,1.4,1.4,1.7l1.3,0.4
			c1.5,0.5,2.3,1.5,2.4,2.9c0.1,1-0.3,1.9-1,2.6c-0.8,0.7-1.7,1-2.7,1c-0.9-0.1-1.7-0.4-2.3-1.1c-0.6-0.7-0.9-1.5-0.9-2.4h1.5V809.2
			z"/>
		<path class="st4" d="M412.4,812.3c-2.7,0-4-1.1-4-3.4v-11.7h1.5v3.8h2.5v1.4h-2.5v6.2c0,1.6,0.9,2.5,2.5,2.5V812.3z"/>
		<path class="st4" d="M415.1,812.1h-1.5v-11h1.4v1.6c0.3-0.6,0.8-1,1.4-1.4c0.6-0.3,1.1-0.4,1.7-0.4v1.5c-0.7,0-1.2,0.2-1.7,0.6
			c-0.4,0.3-0.7,0.7-0.9,0.9c-0.3,0.4-0.4,1-0.4,1.7V812.1z"/>
		<path class="st4" d="M428.9,807.4c0,1.4-0.5,2.6-1.4,3.6c-0.9,0.9-2.1,1.4-3.5,1.4s-2.6-0.5-3.5-1.4c-0.9-0.9-1.4-2.1-1.4-3.6
			v-6.3h1.5v6.5c0,0.9,0.3,1.7,1,2.4c0.7,0.7,1.5,1,2.4,1c0.9,0,1.7-0.3,2.4-1c0.7-0.7,1-1.5,1-2.4v-6.5h1.5V807.4z"/>
		<path class="st4" d="M441.8,809.2c-1.2,2.1-3,3.2-5.4,3.2c-1.6,0-3-0.6-4.1-1.7c-1.2-1.1-1.7-2.5-1.8-4c0-1.6,0.5-3,1.7-4.1
			c1.2-1.1,2.6-1.7,4.2-1.8c1.2,0,2.2,0.3,3.2,0.9c0.9,0.6,1.6,1.3,2,2.2l0.2,0.5h-1.7c-0.8-1.4-2.1-2.1-3.8-2.2
			c-1.1,0-2.1,0.4-3.1,1.2c-0.9,0.9-1.4,1.9-1.4,3.1s0.4,2.2,1.3,3.1c0.9,0.9,1.9,1.3,3.1,1.3c1.7,0,3-0.7,3.8-2.1h1.7L441.8,809.2z
			"/>
		<path class="st4" d="M446.8,812.3c-2.7,0-4-1.1-4-3.4v-11.7h1.5v3.8h2.5v1.4h-2.5v6.2c0,1.6,0.9,2.5,2.5,2.5V812.3z"/>
		<path class="st4" d="M457.8,807.4c0,1.4-0.5,2.6-1.4,3.6c-0.9,0.9-2.1,1.4-3.5,1.4s-2.6-0.5-3.5-1.4c-0.9-0.9-1.4-2.1-1.4-3.6
			v-6.3h1.5v6.5c0,0.9,0.3,1.7,1,2.4c0.7,0.7,1.5,1,2.4,1c0.9,0,1.7-0.3,2.4-1c0.7-0.7,1-1.5,1-2.4v-6.5h1.5V807.4z"/>
		<path class="st4" d="M460.9,812.1h-1.5v-11h1.4v1.6c0.3-0.6,0.8-1,1.4-1.4c0.6-0.3,1.1-0.4,1.7-0.4v1.5c-0.7,0-1.2,0.2-1.7,0.6
			c-0.4,0.3-0.7,0.7-0.9,0.9c-0.3,0.4-0.4,1-0.4,1.7V812.1z"/>
		<path class="st4" d="M476,808.5c-0.4,1.2-1.1,2.1-2.1,2.8c-1,0.7-2.1,1-3.3,1.1c-1.5,0-2.8-0.5-4-1.6c-1.2-1.1-1.8-2.5-1.8-4
			c0-1.6,0.5-3.1,1.7-4.3c1.2-1.2,2.6-1.8,4.3-1.7c1.5,0.1,2.7,0.7,3.8,1.8c1,1.1,1.6,2.3,1.6,3.7v0.8h-9.9c0.1,1.1,0.6,2,1.4,2.7
			c0.8,0.7,1.8,1.1,2.9,1.1c1.7,0,3-0.8,3.7-2.4H476z M474.9,805.7c-0.2-1-0.7-1.9-1.4-2.5s-1.7-1-2.7-1s-2,0.3-2.8,0.9
			c-0.8,0.6-1.3,1.5-1.5,2.5H474.9z"/>
	</g>
	<path id="XMLID_26_" class="st20" d="M442.1,643.7H78.9c-7.7,0-14-6.3-14-14v-0.5c0-7.7,6.3-14,14-14h363.2c7.7,0,14,6.3,14,14v0.5
		C456.1,637.3,449.8,643.7,442.1,643.7z"/>
	<g class="st17">
		<path class="st18" d="M95.2,630.7c-1.1,2-3,3.2-5.3,3.3c-1.7,0-3.1-0.6-4.3-1.8c-1.2-1.2-1.8-2.7-1.8-4.3c0-1.7,0.6-3.2,1.8-4.3
			c1.2-1.1,2.6-1.7,4.3-1.7c1.2,0,2.2,0.3,3.2,0.9c0.9,0.6,1.6,1.4,2.1,2.3h-1.3c-1-1.4-2.3-2.1-4.1-2.1c-1.3,0-2.4,0.5-3.4,1.4
			c-0.9,0.9-1.4,2.1-1.4,3.4c0,1.4,0.4,2.6,1.4,3.6c1,1,2.2,1.5,3.5,1.5c0.8,0,1.6-0.2,2.3-0.6c0.7-0.4,1.3-0.9,1.7-1.5H95.2z"/>
		<path class="st18" d="M96.5,633.7h-1.2V625h1.1v1.2c0.2-0.5,0.6-0.8,1.1-1.1c0.4-0.2,0.9-0.3,1.3-0.3v1.2c-0.5,0-1,0.2-1.3,0.4
			c-0.3,0.3-0.6,0.5-0.7,0.7c-0.2,0.3-0.3,0.8-0.3,1.3V633.7z"/>
		<path class="st18" d="M107.3,632.6c-0.9,0.9-2,1.3-3.2,1.3c-1.2,0-2.2-0.5-3.1-1.4c-0.8-0.9-1.3-1.9-1.3-3.2
			c0-1.3,0.5-2.4,1.4-3.3c0.9-0.9,2-1.4,3.2-1.3c1.2,0,2.2,0.5,3.1,1.4c0.8,0.9,1.3,1.9,1.3,3.2
			C108.7,630.6,108.2,631.7,107.3,632.6z M104.1,632.7c1,0,1.8-0.3,2.4-1c0.7-0.7,1-1.5,1-2.5c0-0.9-0.4-1.7-1-2.3
			c-0.6-0.7-1.4-1-2.3-1c-0.9,0-1.7,0.3-2.4,1c-0.7,0.7-1,1.4-1,2.4c0,0.9,0.3,1.7,0.9,2.4S103.2,632.7,104.1,632.7z"/>
		<path class="st18" d="M119.5,633.7h-1.4l-1.9-5.8l-1.8,5.8h-1.3l-3.3-8.7h1.2l2.7,7.2l2-6.2h1l2,6.1l2.7-7.2h1.3L119.5,633.7z"/>
		<path class="st18" d="M132.9,629.4c0,1.3-0.4,2.3-1.3,3.2c-0.9,0.9-2,1.3-3.3,1.3c-1.2,0-2.2-0.5-3.1-1.4
			c-0.8-0.9-1.3-1.9-1.3-3.2c0-1.3,0.5-2.4,1.4-3.3c0.9-0.9,2-1.4,3.2-1.3c1.3,0,2.3,0.6,3.2,1.5V622h1.1V629.4z M128.3,632.8
			c1,0,1.8-0.3,2.4-1c0.7-0.7,1-1.5,1-2.5c0-0.9-0.4-1.7-1-2.3s-1.4-1-2.3-1c-0.9,0-1.7,0.3-2.4,1s-1,1.4-1,2.4
			c0,0.9,0.3,1.7,0.9,2.4C126.6,632.4,127.4,632.8,128.3,632.8z"/>
		<path class="st18" d="M142.9,633.7h-1.2v-11.7h1.2V633.7z"/>
		<path class="st18" d="M145.4,631.4c0,0.3,0.2,0.6,0.5,0.9c0.3,0.3,0.7,0.5,1,0.5c0.5,0,0.9-0.2,1.2-0.4c0.3-0.3,0.4-0.6,0.4-1
			c0-0.7-0.4-1.3-1.3-1.5l-1-0.3c-1.1-0.3-1.6-1.1-1.7-2.2c0-0.7,0.2-1.3,0.7-1.7c0.5-0.5,1.1-0.7,1.8-0.8c0.6,0,1.1,0.2,1.6,0.6
			c0.5,0.4,0.8,0.9,0.8,1.5l0,0.3h-1.2v-0.2c0-0.6-0.6-1-1.3-1c-0.7,0-1.2,0.5-1.2,1.2c0,0.6,0.3,1.1,1.1,1.3l1,0.3
			c1.2,0.4,1.8,1.2,1.9,2.3c0.1,0.8-0.2,1.5-0.8,2c-0.6,0.6-1.3,0.8-2.1,0.8c-0.7,0-1.3-0.4-1.8-0.9c-0.5-0.5-0.7-1.2-0.7-1.9h1.2
			V631.4z"/>
		<path class="st18" d="M152.1,631.4c0,0.3,0.2,0.6,0.5,0.9c0.3,0.3,0.7,0.5,1,0.5c0.5,0,0.9-0.2,1.2-0.4c0.3-0.3,0.4-0.6,0.4-1
			c0-0.7-0.4-1.3-1.3-1.5l-1-0.3c-1.1-0.3-1.6-1.1-1.7-2.2c0-0.7,0.2-1.3,0.7-1.7c0.5-0.5,1.1-0.7,1.8-0.8c0.6,0,1.1,0.2,1.6,0.6
			c0.5,0.4,0.8,0.9,0.8,1.5l0,0.3h-1.2v-0.2c0-0.6-0.6-1-1.3-1c-0.7,0-1.2,0.5-1.2,1.2c0,0.6,0.3,1.1,1.1,1.3l1,0.3
			c1.2,0.4,1.8,1.2,1.9,2.3c0.1,0.8-0.2,1.5-0.8,2c-0.6,0.6-1.3,0.8-2.1,0.8c-0.7,0-1.3-0.4-1.8-0.9c-0.5-0.5-0.7-1.2-0.7-1.9h1.2
			V631.4z"/>
		<path class="st18" d="M165.2,629.9c0,1.1-0.4,2.1-1.1,2.8c-0.7,0.7-1.6,1.1-2.7,1.1s-2-0.4-2.8-1.1c-0.7-0.7-1.1-1.7-1.1-2.8v-5
			h1.2v5.1c0,0.7,0.3,1.4,0.8,1.9c0.5,0.5,1.2,0.8,1.9,0.8s1.3-0.3,1.9-0.8c0.5-0.5,0.8-1.2,0.8-1.9V625h1.2V629.9z"/>
		<path class="st18" d="M175.4,633.7h-1.1v-1.4c-0.9,1.1-2.1,1.6-3.5,1.6c-1.2,0-2.2-0.5-3.1-1.4c-0.8-0.9-1.3-1.9-1.3-3.2
			c0-1.3,0.5-2.4,1.4-3.3c0.9-0.9,2-1.3,3.2-1.3c1.2,0,2.3,0.5,3.1,1.4c0.9,0.9,1.3,1.9,1.2,3.1v0.1V633.7z M167.7,629.2
			c0,0.9,0.3,1.7,0.9,2.4c0.6,0.7,1.4,1,2.3,1.1c1,0,1.8-0.3,2.4-1c0.7-0.7,1-1.6,1-2.5c0-0.9-0.4-1.7-1-2.4s-1.4-1-2.3-1
			c-0.9,0-1.7,0.3-2.4,1C168,627.5,167.7,628.3,167.7,629.2z"/>
		<path class="st18" d="M184.3,633.7h-1.2v-5.1c0-0.7-0.3-1.4-0.8-1.9c-0.5-0.5-1.1-0.8-1.9-0.8s-1.4,0.3-1.9,0.8
			c-0.5,0.5-0.8,1.2-0.8,1.9v5.1h-1.2v-5c0-1.1,0.4-2.1,1.1-2.8s1.6-1.1,2.8-1.1c1.1,0,2,0.4,2.7,1.1s1.1,1.7,1.1,2.8V633.7z"/>
		<path class="st18" d="M194.5,631.4c-0.9,1.7-2.3,2.5-4.2,2.5c-1.3,0-2.3-0.5-3.3-1.3s-1.4-1.9-1.4-3.2c0-1.3,0.4-2.3,1.3-3.2
			c0.9-0.9,2-1.4,3.3-1.4c0.9,0,1.8,0.2,2.6,0.7c0.7,0.5,1.3,1.1,1.6,1.8l0.2,0.4h-1.3c-0.7-1.1-1.6-1.7-3-1.7c-0.9,0-1.7,0.3-2.4,1
			c-0.7,0.7-1.1,1.5-1.1,2.5c0,0.9,0.4,1.8,1,2.4c0.7,0.7,1.5,1,2.5,1c1.4,0,2.4-0.6,3-1.6h1.3L194.5,631.4z"/>
		<path class="st18" d="M204,630.8c-0.3,0.9-0.9,1.7-1.6,2.2c-0.8,0.5-1.6,0.8-2.6,0.8c-1.2,0-2.2-0.4-3.2-1.3
			c-0.9-0.9-1.4-2-1.4-3.2c0-1.3,0.4-2.4,1.4-3.4c1-0.9,2.1-1.4,3.4-1.3c1.2,0.1,2.2,0.5,3,1.4c0.8,0.9,1.2,1.8,1.2,2.9v0.6h-7.8
			c0.1,0.9,0.5,1.6,1.1,2.2c0.7,0.6,1.4,0.9,2.3,0.8c1.4,0,2.3-0.7,2.9-1.9H204z M203,628.7c-0.2-0.8-0.5-1.5-1.1-2
			c-0.6-0.5-1.3-0.8-2.2-0.8c-0.8,0-1.6,0.2-2.2,0.7c-0.6,0.5-1,1.2-1.2,2H203z"/>
		<path class="st18" d="M225.1,633.7h-1.2v-10.4l-4.5,10.4h-1l-4.4-10.4l0,10.4h-1.2v-11.7h1.8l4.2,10.1l4.4-10.1h1.8V633.7z"/>
		<path class="st18" d="M235.2,630.8c-0.3,0.9-0.9,1.7-1.6,2.2c-0.8,0.5-1.6,0.8-2.6,0.8c-1.2,0-2.2-0.4-3.2-1.3
			c-0.9-0.9-1.4-2-1.4-3.2c0-1.3,0.4-2.4,1.4-3.4c1-0.9,2.1-1.4,3.4-1.3c1.2,0.1,2.2,0.5,3,1.4c0.8,0.9,1.2,1.8,1.2,2.9v0.6h-7.8
			c0.1,0.9,0.5,1.6,1.1,2.2c0.7,0.6,1.4,0.9,2.3,0.8c1.4,0,2.3-0.7,2.9-1.9H235.2z M234.3,628.7c-0.2-0.8-0.5-1.5-1.1-2
			c-0.6-0.5-1.3-0.8-2.2-0.8c-0.8,0-1.6,0.2-2.2,0.7c-0.6,0.5-1,1.2-1.2,2H234.3z"/>
		<path class="st18" d="M245.3,631.4c-0.9,1.7-2.3,2.5-4.2,2.5c-1.3,0-2.3-0.5-3.3-1.3s-1.4-1.9-1.4-3.2c0-1.3,0.4-2.3,1.3-3.2
			c0.9-0.9,2-1.4,3.3-1.4c0.9,0,1.8,0.2,2.6,0.7c0.7,0.5,1.3,1.1,1.6,1.8l0.2,0.4h-1.3c-0.7-1.1-1.6-1.7-3-1.7c-0.9,0-1.7,0.3-2.4,1
			c-0.7,0.7-1.1,1.5-1.1,2.5c0,0.9,0.4,1.8,1,2.4c0.7,0.7,1.5,1,2.5,1c1.4,0,2.4-0.6,3-1.6h1.3L245.3,631.4z"/>
		<path class="st18" d="M253.7,633.7h-1.2v-5.1c0-0.7-0.3-1.4-0.8-1.9c-0.5-0.5-1.2-0.8-1.9-0.8c-0.7,0-1.4,0.3-1.9,0.7
			c-0.5,0.5-0.7,1.1-0.7,1.8v5.2h-1.2v-11.8h1.2v4.3c0.7-0.9,1.5-1.3,2.5-1.4c1.1,0,2,0.3,2.8,1.1s1.2,1.7,1.2,2.8V633.7z"/>
		<path class="st18" d="M263.8,633.7h-1.1v-1.4c-0.9,1.1-2.1,1.6-3.5,1.6c-1.2,0-2.2-0.5-3.1-1.4c-0.8-0.9-1.3-1.9-1.3-3.2
			c0-1.3,0.5-2.4,1.4-3.3c0.9-0.9,2-1.3,3.3-1.3c1.2,0,2.3,0.5,3.1,1.4c0.9,0.9,1.3,1.9,1.2,3.1v0.1V633.7z M256,629.2
			c0,0.9,0.3,1.7,0.9,2.4c0.6,0.7,1.4,1,2.3,1.1c1,0,1.8-0.3,2.4-1c0.7-0.7,1-1.6,1-2.5c0-0.9-0.4-1.7-1-2.4s-1.4-1-2.3-1
			c-0.9,0-1.7,0.3-2.4,1S256,628.3,256,629.2z"/>
		<path class="st18" d="M272.7,633.7h-1.2v-5.1c0-0.7-0.3-1.4-0.8-1.9c-0.5-0.5-1.1-0.8-1.9-0.8c-0.7,0-1.4,0.3-1.9,0.8
			c-0.5,0.5-0.8,1.2-0.8,1.9v5.1H265v-5c0-1.1,0.4-2.1,1.1-2.8s1.6-1.1,2.8-1.1c1.1,0,2,0.4,2.7,1.1s1.1,1.7,1.1,2.8V633.7z"/>
		<path class="st18" d="M275,623.9h-1.1v-2h1.1V623.9z M275,633.7h-1.1V625h1.1V633.7z"/>
		<path class="st18" d="M277.5,631.4c0,0.3,0.2,0.6,0.5,0.9s0.7,0.5,1,0.5c0.5,0,0.9-0.2,1.2-0.4c0.3-0.3,0.4-0.6,0.4-1
			c0-0.7-0.4-1.3-1.3-1.5l-1-0.3c-1.1-0.3-1.6-1.1-1.7-2.2c0-0.7,0.2-1.3,0.7-1.7c0.5-0.5,1.1-0.7,1.8-0.8c0.6,0,1.1,0.2,1.6,0.6
			c0.5,0.4,0.8,0.9,0.8,1.5l0,0.3h-1.2v-0.2c0-0.6-0.6-1-1.3-1c-0.7,0-1.2,0.5-1.2,1.2c0,0.6,0.3,1.1,1.1,1.3l1,0.3
			c1.2,0.4,1.8,1.2,1.9,2.3c0.1,0.8-0.2,1.5-0.8,2c-0.6,0.6-1.3,0.8-2.1,0.8c-0.7,0-1.3-0.4-1.8-0.9c-0.5-0.5-0.7-1.2-0.7-1.9h1.2
			V631.4z"/>
		<path class="st18" d="M295.5,633.7h-1.2v-5.3c0-0.7-0.2-1.3-0.6-1.7c-0.4-0.5-0.9-0.7-1.5-0.7c-0.6,0-1.2,0.2-1.7,0.6
			c-0.5,0.4-0.7,0.9-0.7,1.6v5.6h-1.2v-5.6c0-0.6-0.2-1.1-0.7-1.6c-0.5-0.4-1-0.6-1.6-0.6c-0.6,0-1.1,0.2-1.5,0.7
			c-0.4,0.5-0.6,1-0.6,1.7v5.3H283v-5.2c0-1.1,0.3-2,0.9-2.6c0.6-0.6,1.3-1,2.3-1.1c1.3-0.1,2.3,0.4,3,1.6c0.7-1.2,1.8-1.7,3-1.6
			c0.9,0.1,1.7,0.4,2.3,1.1c0.6,0.7,0.9,1.5,0.9,2.6V633.7z"/>
		<path class="st18" d="M305.5,633.7h-1.2v-8.9c0-1.8,1.3-2.9,3.1-2.9h0.3v1l-0.3,0c-0.6,0-1,0.2-1.3,0.4c-0.4,0.4-0.6,0.8-0.6,1.2
			v0.4h2.2v1.1h-2.2V633.7z"/>
		<path class="st18" d="M316.2,632.6c-0.9,0.9-2,1.3-3.2,1.3c-1.2,0-2.2-0.5-3.1-1.4s-1.3-1.9-1.3-3.2c0-1.3,0.5-2.4,1.4-3.3
			c0.9-0.9,2-1.4,3.2-1.3c1.2,0,2.2,0.5,3.1,1.4c0.8,0.9,1.3,1.9,1.3,3.2C317.6,630.6,317.2,631.7,316.2,632.6z M313,632.7
			c1,0,1.8-0.3,2.4-1c0.7-0.7,1-1.5,1-2.5c0-0.9-0.4-1.7-1-2.3s-1.4-1-2.3-1c-0.9,0-1.7,0.3-2.4,1c-0.7,0.7-1,1.4-1,2.4
			c0,0.9,0.3,1.7,0.9,2.4C311.4,632.4,312.1,632.7,313,632.7z"/>
		<path class="st18" d="M319.9,633.7h-1.2V625h1.1v1.2c0.2-0.5,0.6-0.8,1.1-1.1c0.4-0.2,0.9-0.3,1.3-0.3v1.2c-0.5,0-1,0.2-1.3,0.4
			c-0.3,0.3-0.6,0.5-0.7,0.7c-0.2,0.3-0.3,0.8-0.3,1.3V633.7z"/>
		<path class="st18" d="M342.1,630.7c-1.1,2-3,3.2-5.3,3.3c-1.7,0-3.1-0.6-4.3-1.8c-1.2-1.2-1.8-2.7-1.8-4.3c0-1.7,0.6-3.2,1.8-4.3
			c1.2-1.1,2.6-1.7,4.3-1.7c1.2,0,2.2,0.3,3.2,0.9c0.9,0.6,1.6,1.4,2.1,2.3h-1.3c-1-1.4-2.3-2.1-4.1-2.1c-1.3,0-2.4,0.5-3.4,1.4
			c-0.9,0.9-1.4,2.1-1.4,3.4c0,1.4,0.4,2.6,1.4,3.6c1,1,2.2,1.5,3.5,1.5c0.8,0,1.6-0.2,2.3-0.6c0.7-0.4,1.3-0.9,1.7-1.5H342.1z"/>
		<path class="st18" d="M351.1,630.8c-0.3,0.9-0.9,1.7-1.6,2.2c-0.8,0.5-1.6,0.8-2.6,0.8c-1.2,0-2.2-0.4-3.2-1.3
			c-0.9-0.9-1.4-2-1.4-3.2c0-1.3,0.4-2.4,1.4-3.4c1-0.9,2.1-1.4,3.4-1.3c1.2,0.1,2.2,0.5,3,1.4c0.8,0.9,1.2,1.8,1.2,2.9v0.6h-7.8
			c0.1,0.9,0.5,1.6,1.1,2.2s1.4,0.9,2.3,0.8c1.4,0,2.3-0.7,2.9-1.9H351.1z M350.2,628.7c-0.2-0.8-0.5-1.5-1.1-2
			c-0.6-0.5-1.3-0.8-2.2-0.8c-0.8,0-1.6,0.2-2.2,0.7c-0.6,0.5-1,1.2-1.2,2H350.2z"/>
		<path class="st18" d="M353.5,633.7h-1.2V625h1.1v1.2c0.2-0.5,0.6-0.8,1.1-1.1c0.4-0.2,0.9-0.3,1.3-0.3v1.2c-0.5,0-1,0.2-1.3,0.4
			c-0.3,0.3-0.6,0.5-0.7,0.7c-0.2,0.3-0.3,0.8-0.3,1.3V633.7z"/>
		<path class="st18" d="M359.8,633.9c-2.1,0-3.2-0.9-3.2-2.7v-9.2h1.2v3h2v1.1h-2v4.9c0,1.3,0.7,1.9,2,1.9V633.9z"/>
		<path class="st18" d="M362,623.9h-1.1v-2h1.1V623.9z M362,633.7h-1.1V625h1.1V633.7z"/>
		<path class="st18" d="M364.5,633.7h-1.2v-8.9c0-1.8,1.3-2.9,3.1-2.9h0.3v1l-0.3,0c-0.6,0-1,0.2-1.3,0.4c-0.4,0.4-0.6,0.8-0.6,1.2
			v0.4h2.2v1.1h-2.2V633.7z"/>
		<path class="st18" d="M368.7,623.9h-1.1v-2h1.1V623.9z M368.7,633.7h-1.1V625h1.1V633.7z"/>
		<path class="st18" d="M378.8,630.8c-0.3,0.9-0.9,1.7-1.6,2.2c-0.8,0.5-1.6,0.8-2.6,0.8c-1.2,0-2.2-0.4-3.2-1.3
			c-0.9-0.9-1.4-2-1.4-3.2c0-1.3,0.4-2.4,1.4-3.4c1-0.9,2.1-1.4,3.4-1.3c1.2,0.1,2.2,0.5,3,1.4c0.8,0.9,1.2,1.8,1.2,2.9v0.6h-7.8
			c0.1,0.9,0.5,1.6,1.1,2.2s1.4,0.9,2.3,0.8c1.4,0,2.3-0.7,2.9-1.9H378.8z M377.9,628.7c-0.2-0.8-0.5-1.5-1.1-2
			c-0.6-0.5-1.3-0.8-2.2-0.8c-0.8,0-1.6,0.2-2.2,0.7c-0.6,0.5-1,1.2-1.2,2H377.9z"/>
		<path class="st18" d="M389.2,629.4c0,1.3-0.4,2.3-1.3,3.2c-0.9,0.9-2,1.3-3.3,1.3c-1.2,0-2.2-0.5-3.1-1.4
			c-0.8-0.9-1.3-1.9-1.3-3.2c0-1.3,0.5-2.4,1.4-3.3c0.9-0.9,2-1.4,3.2-1.3c1.3,0,2.4,0.6,3.2,1.5V622h1.1V629.4z M384.6,632.8
			c1,0,1.8-0.3,2.4-1c0.7-0.7,1-1.5,1-2.5c0-0.9-0.4-1.7-1-2.3c-0.6-0.7-1.4-1-2.3-1c-0.9,0-1.7,0.3-2.4,1s-1,1.4-1,2.4
			c0,0.9,0.3,1.7,0.9,2.4C382.9,632.4,383.7,632.8,384.6,632.8z"/>
		<path class="st18" d="M399.2,633.7H398v-11.7h1.2V633.7z"/>
		<path class="st18" d="M401.7,631.4c0,0.3,0.2,0.6,0.5,0.9s0.7,0.5,1,0.5c0.5,0,0.9-0.2,1.2-0.4c0.3-0.3,0.4-0.6,0.4-1
			c0-0.7-0.4-1.3-1.3-1.5l-1-0.3c-1.1-0.3-1.6-1.1-1.7-2.2c0-0.7,0.2-1.3,0.7-1.7c0.5-0.5,1.1-0.7,1.8-0.8c0.6,0,1.1,0.2,1.6,0.6
			c0.5,0.4,0.8,0.9,0.8,1.5l0,0.3h-1.2v-0.2c0-0.6-0.6-1-1.3-1c-0.7,0-1.2,0.5-1.2,1.2c0,0.6,0.3,1.1,1.1,1.3l1,0.3
			c1.2,0.4,1.8,1.2,1.9,2.3c0.1,0.8-0.2,1.5-0.8,2c-0.6,0.6-1.3,0.8-2.1,0.8c-0.7,0-1.3-0.4-1.8-0.9c-0.5-0.5-0.7-1.2-0.7-1.9h1.2
			V631.4z"/>
		<path class="st18" d="M408.4,631.4c0,0.3,0.2,0.6,0.5,0.9s0.7,0.5,1,0.5c0.5,0,0.9-0.2,1.2-0.4c0.3-0.3,0.4-0.6,0.4-1
			c0-0.7-0.4-1.3-1.3-1.5l-1-0.3c-1.1-0.3-1.6-1.1-1.7-2.2c0-0.7,0.2-1.3,0.7-1.7c0.5-0.5,1.1-0.7,1.8-0.8c0.6,0,1.1,0.2,1.6,0.6
			c0.5,0.4,0.8,0.9,0.8,1.5l0,0.3h-1.2v-0.2c0-0.6-0.6-1-1.3-1c-0.7,0-1.2,0.5-1.2,1.2c0,0.6,0.3,1.1,1.1,1.3l1,0.3
			c1.2,0.4,1.8,1.2,1.9,2.3c0.1,0.8-0.2,1.5-0.8,2c-0.6,0.6-1.3,0.8-2.1,0.8c-0.7,0-1.3-0.4-1.8-0.9c-0.5-0.5-0.7-1.2-0.7-1.9h1.2
			V631.4z"/>
		<path class="st18" d="M421.5,629.9c0,1.1-0.4,2.1-1.1,2.8c-0.7,0.7-1.6,1.1-2.7,1.1c-1.1,0-2-0.4-2.8-1.1
			c-0.7-0.7-1.1-1.7-1.1-2.8v-5h1.2v5.1c0,0.7,0.3,1.4,0.8,1.9c0.5,0.5,1.2,0.8,1.9,0.8c0.7,0,1.3-0.3,1.9-0.8
			c0.5-0.5,0.8-1.2,0.8-1.9V625h1.2V629.9z"/>
		<path class="st18" d="M431.6,630.8c-0.3,0.9-0.9,1.7-1.6,2.2c-0.8,0.5-1.6,0.8-2.6,0.8c-1.2,0-2.2-0.4-3.2-1.3
			c-0.9-0.9-1.4-2-1.4-3.2c0-1.3,0.4-2.4,1.4-3.4c1-0.9,2.1-1.4,3.4-1.3c1.2,0.1,2.2,0.5,3,1.4c0.8,0.9,1.2,1.8,1.2,2.9v0.6H424
			c0.1,0.9,0.5,1.6,1.1,2.2s1.4,0.9,2.3,0.8c1.4,0,2.3-0.7,2.9-1.9H431.6z M430.7,628.7c-0.2-0.8-0.5-1.5-1.1-2
			c-0.6-0.5-1.3-0.8-2.2-0.8c-0.8,0-1.6,0.2-2.2,0.7c-0.6,0.5-1,1.2-1.2,2H430.7z"/>
		<path class="st18" d="M434,633.7h-1.2V625h1.1v1.2c0.2-0.5,0.6-0.8,1.1-1.1c0.4-0.2,0.9-0.3,1.3-0.3v1.2c-0.5,0-1,0.2-1.3,0.4
			c-0.3,0.3-0.6,0.5-0.7,0.7c-0.2,0.3-0.3,0.8-0.3,1.3V633.7z"/>
	</g>
</g>
</svg>
