<?xml version="1.0" encoding="utf-8"?>
<!-- Generator: Adobe Illustrator 19.0.0, SVG Export Plug-In . SVG Version: 6.00 Build 0)  -->
<svg version="1.1" id="Graphics" xmlns="http://www.w3.org/2000/svg" xmlns:xlink="http://www.w3.org/1999/xlink" x="0px" y="0px"
	 viewBox="-219 95.9 195.7 152.1" style="enable-background:new -219 95.9 195.7 152.1;" xml:space="preserve">
<style type="text/css">
	.st0{opacity:0.49;fill:#E7EAF3;enable-background:new    ;}
	.st1{fill:#FFFFFF;}
	.st2{fill:#377DFF;}
	.st3{opacity:0.2;fill:#1F2B3D;enable-background:new    ;}
	.st4{fill:#E7EAF3;}
	.st5{fill:#19A0FF;}
	.st6{fill:#FDD14E;}
	.st7{fill:#FFC107;}
	.st8{fill:#DFE2EC;}
	.st9{fill:#EFA02E;}
	.st10{opacity:0.5;fill:#FFFFFF;enable-background:new    ;}
	.st11{fill:#00C9A7;}
	.st12{fill:#191C3C;}
	.st13{fill:none;stroke:#191C3C;stroke-miterlimit:10;}
	.st14{fill:#1E2022;}
	.st15{fill-rule:evenodd;clip-rule:evenodd;fill:#1E2022;}
	.st16{fill:#F9C582;}
	.st17{fill:#EAAE6E;}
	.st18{fill:#E6E7E8;}
	.st19{fill:#2067CE;}
	.st20{opacity:0.3;fill:#191C3C;enable-background:new    ;}
	.st21{fill:#EDF1F9;}
	.st22{fill:url(#SVGID_1_);}
	.st23{opacity:0.2;fill:#191C3C;enable-background:new    ;}
	.st24{opacity:0.2;}
	.st25{opacity:0.14;}
	.st26{opacity:0.12;}
	.st27{opacity:0.1;}
	.st28{opacity:0.3;fill:#FFF3DF;enable-background:new    ;}
	.st29{fill:#707176;}
</style>
<ellipse class="st0" cx="-121.2" cy="240.2" rx="95.4" ry="7.8"/>
<g id="Layer_14">
	<g>
		<path id="XMLID_208_" class="st1" d="M-48.4,242.6h-108.8v-79.3c0-2.4,2-4.4,4.4-4.4h100c2.4,0,4.4,2,4.4,4.4L-48.4,242.6
			L-48.4,242.6z"/>
		<path id="XMLID_207_" class="st2" d="M-48.4,169v-8.1c0-1.3-1.1-2.4-2.4-2.4h-104c-1.3,0-2.4,1.1-2.4,2.4v8.1H-48.4z"/>
		<path id="XMLID_206_" class="st1" d="M-149.1,164.1c0,0.8-0.6,1.4-1.4,1.4s-1.4-0.6-1.4-1.4s0.6-1.4,1.4-1.4
			C-149.8,162.7-149.1,163.3-149.1,164.1z"/>
		<path id="XMLID_205_" class="st1" d="M-144.5,164.1c0,0.8-0.6,1.4-1.4,1.4c-0.8,0-1.4-0.6-1.4-1.4s0.6-1.4,1.4-1.4
			C-145.1,162.7-144.5,163.3-144.5,164.1z"/>
		<path id="XMLID_204_" class="st1" d="M-139.9,164.1c0,0.8-0.6,1.4-1.4,1.4s-1.4-0.6-1.4-1.4s0.6-1.4,1.4-1.4
			C-140.5,162.7-139.9,163.3-139.9,164.1z"/>
		<path id="XMLID_203_" class="st3" d="M-50.8,158.9h-3.1c1.3,0,2.4,1.1,2.4,2.4v81.3h3.1v-81.3C-48.4,159.9-49.5,158.9-50.8,158.9z
			"/>
		<path class="st4" d="M-146.4,179.4h-1.7c-1.1,0-1.9-0.9-1.9-1.9l0,0c0-1.1,0.9-1.9,1.9-1.9h1.7c1.1,0,1.9,0.9,1.9,1.9l0,0
			C-144.5,178.6-145.4,179.4-146.4,179.4z"/>
		<path class="st4" d="M-146.4,189.3h-1.7c-1.1,0-1.9-0.9-1.9-1.9l0,0c0-1.1,0.9-1.9,1.9-1.9h1.7c1.1,0,1.9,0.9,1.9,1.9l0,0
			C-144.5,188.4-145.4,189.3-146.4,189.3z"/>
		<path class="st4" d="M-146.4,199.1h-1.7c-1.1,0-1.9-0.9-1.9-1.9l0,0c0-1.1,0.9-1.9,1.9-1.9h1.7c1.1,0,1.9,0.9,1.9,1.9l0,0
			C-144.5,198.2-145.4,199.1-146.4,199.1z"/>
		<path class="st4" d="M-146.4,208.9h-1.7c-1.1,0-1.9-0.9-1.9-1.9l0,0c0-1.1,0.9-1.9,1.9-1.9h1.7c1.1,0,1.9,0.9,1.9,1.9l0,0
			C-144.5,208-145.4,208.9-146.4,208.9z"/>
		<path class="st4" d="M-146.4,218.7h-1.7c-1.1,0-1.9-0.9-1.9-1.9l0,0c0-1.1,0.9-1.9,1.9-1.9h1.7c1.1,0,1.9,0.9,1.9,1.9l0,0
			C-144.5,217.8-145.4,218.7-146.4,218.7z"/>
		<path class="st4" d="M-146.4,228.5h-1.7c-1.1,0-1.9-0.9-1.9-1.9l0,0c0-1.1,0.9-1.9,1.9-1.9h1.7c1.1,0,1.9,0.9,1.9,1.9l0,0
			C-144.5,227.7-145.4,228.5-146.4,228.5z"/>
		<path class="st4" d="M-146.4,238.4h-1.7c-1.1,0-1.9-0.9-1.9-1.9l0,0c0-1.1,0.9-1.9,1.9-1.9h1.7c1.1,0,1.9,0.9,1.9,1.9l0,0
			C-144.5,237.5-145.4,238.4-146.4,238.4z"/>
		<path class="st4" d="M-61.4,179.4h-1.7c-1.1,0-1.9-0.9-1.9-1.9l0,0c0-1.1,0.9-1.9,1.9-1.9h1.7c1.1,0,1.9,0.9,1.9,1.9l0,0
			C-59.5,178.6-60.4,179.4-61.4,179.4z"/>
		<path class="st5" d="M-61.4,189.3h-1.7c-1.1,0-1.9-0.9-1.9-1.9l0,0c0-1.1,0.9-1.9,1.9-1.9h1.7c1.1,0,1.9,0.9,1.9,1.9l0,0
			C-59.5,188.4-60.4,189.3-61.4,189.3z"/>
		<path class="st6" d="M-61.4,199.1h-1.7c-1.1,0-1.9-0.9-1.9-1.9l0,0c0-1.1,0.9-1.9,1.9-1.9h1.7c1.1,0,1.9,0.9,1.9,1.9l0,0
			C-59.5,198.2-60.4,199.1-61.4,199.1z"/>
		<path class="st5" d="M-61.4,208.9h-1.7c-1.1,0-1.9-0.9-1.9-1.9l0,0c0-1.1,0.9-1.9,1.9-1.9h1.7c1.1,0,1.9,0.9,1.9,1.9l0,0
			C-59.5,208-60.4,208.9-61.4,208.9z"/>
		<path class="st6" d="M-61.4,218.7h-1.7c-1.1,0-1.9-0.9-1.9-1.9l0,0c0-1.1,0.9-1.9,1.9-1.9h1.7c1.1,0,1.9,0.9,1.9,1.9l0,0
			C-59.5,217.8-60.4,218.7-61.4,218.7z"/>
		<path class="st5" d="M-61.4,228.5h-1.7c-1.1,0-1.9-0.9-1.9-1.9l0,0c0-1.1,0.9-1.9,1.9-1.9h1.7c1.1,0,1.9,0.9,1.9,1.9l0,0
			C-59.5,227.7-60.4,228.5-61.4,228.5z"/>
		<path class="st4" d="M-61.4,238.4h-1.7c-1.1,0-1.9-0.9-1.9-1.9l0,0c0-1.1,0.9-1.9,1.9-1.9h1.7c1.1,0,1.9,0.9,1.9,1.9l0,0
			C-59.5,237.5-60.4,238.4-61.4,238.4z"/>
		<path class="st4" d="M-114,179.4h-25c-1.1,0-1.9-0.9-1.9-1.9l0,0c0-1.1,0.9-1.9,1.9-1.9h25c1.1,0,1.9,0.9,1.9,1.9l0,0
			C-112.1,178.6-113,179.4-114,179.4z"/>
		<path class="st7" d="M-107.9,179.4h5.1c1.1,0,1.9-0.9,1.9-1.9l0,0c0-1.1-0.9-1.9-1.9-1.9h-5.1c-1.1,0-1.9,0.9-1.9,1.9l0,0
			C-109.8,178.6-109,179.4-107.9,179.4z"/>
		<path class="st7" d="M-127.7,189.3h-11.4c-1.1,0-1.9-0.9-1.9-1.9l0,0c0-1.1,0.9-1.9,1.9-1.9h11.3c1.1,0,1.9,0.9,1.9,1.9l0,0
			C-125.8,188.4-126.7,189.3-127.7,189.3z"/>
		<path class="st2" d="M-117.7,189.3h33.9c1.1,0,1.9-0.9,1.9-1.9l0,0c0-1.1-0.9-1.9-1.9-1.9h-33.9c-1.1,0-1.9,0.9-1.9,1.9l0,0
			C-119.6,188.4-118.8,189.3-117.7,189.3z"/>
		<path class="st4" d="M-91.4,199.1h-47.7c-1.1,0-1.9-0.9-1.9-1.9l0,0c0-1.1,0.9-1.9,1.9-1.9h47.7c1.1,0,1.9,0.9,1.9,1.9l0,0
			C-89.5,198.2-90.3,199.1-91.4,199.1z"/>
		<path class="st4" d="M-80.9,208.9h-58.2c-1.1,0-1.9-0.9-1.9-1.9l0,0c0-1.1,0.9-1.9,1.9-1.9h58.2c1.1,0,1.9,0.9,1.9,1.9l0,0
			C-79,208-79.8,208.9-80.9,208.9z"/>
		<path class="st2" d="M-91.4,218.7H-109c-1.1,0-1.9-0.9-1.9-1.9l0,0c0-1.1,0.9-1.9,1.9-1.9h17.6c1.1,0,1.9,0.9,1.9,1.9l0,0
			C-89.5,217.8-90.3,218.7-91.4,218.7z"/>
		<path class="st4" d="M-116.2,218.7h-22.9c-1.1,0-1.9-0.9-1.9-1.9l0,0c0-1.1,0.9-1.9,1.9-1.9h22.9c1.1,0,1.9,0.9,1.9,1.9l0,0
			C-114.2,217.8-115.1,218.7-116.2,218.7z"/>
		<path class="st4" d="M-102.8,228.5h-36.3c-1.1,0-1.9-0.9-1.9-1.9l0,0c0-1.1,0.9-1.9,1.9-1.9h36.3c1.1,0,1.9,0.9,1.9,1.9l0,0
			C-100.9,227.7-101.7,228.5-102.8,228.5z"/>
		<path class="st7" d="M-96.3,228.5h11.6c1.1,0,1.9-0.9,1.9-1.9l0,0c0-1.1-0.9-1.9-1.9-1.9h-11.6c-1.1,0-1.9,0.9-1.9,1.9l0,0
			C-98.2,227.7-97.4,228.5-96.3,228.5z"/>
		<path class="st8" d="M-91.4,238.4h-47.7c-1.1,0-1.9-0.9-1.9-1.9l0,0c0-1.1,0.9-1.9,1.9-1.9h47.7c1.1,0,1.9,0.9,1.9,1.9l0,0
			C-89.5,237.5-90.3,238.4-91.4,238.4z"/>
	</g>
	<g>
		<g id="XMLID_18_">
			<path id="XMLID_24_" class="st7" d="M-120.6,149.2h-17.2c-0.3,0-0.5-0.2-0.5-0.5V145c0-0.3,0.2-0.5,0.5-0.5h17.2
				c0.3,0,0.5,0.2,0.5,0.5v3.7C-120.1,149-120.3,149.2-120.6,149.2z"/>
			<path class="st9" d="M-120.4,148.5H-138c-0.1,0-0.2,0-0.3-0.1v0.6c0,0.1,0.1,0.2,0.2,0.2h17.9c0.1,0,0.2-0.1,0.2-0.2v-0.6
				C-120.2,148.5-120.3,148.5-120.4,148.5z"/>
			<rect id="XMLID_20_" x="-128.8" y="144.5" class="st10" width="4.3" height="4.7"/>
			<rect id="XMLID_19_" x="-123.6" y="144.5" class="st10" width="1.1" height="4.7"/>
		</g>
		<g id="XMLID_14_">
			<path id="XMLID_17_" class="st7" d="M-120.6,153.9h-17.3c-0.3,0-0.5-0.2-0.5-0.5v-3.7c0-0.3,0.2-0.5,0.5-0.5h17.2
				c0.3,0,0.5,0.2,0.5,0.5v3.7C-120.1,153.7-120.3,153.9-120.6,153.9z"/>
			<path class="st9" d="M-120.4,153.2h-17.7c-0.1,0-0.2,0-0.3-0.1v0.6c0,0.1,0.1,0.2,0.2,0.2h17.9c0.1,0,0.2-0.1,0.2-0.2v-0.6
				C-120.2,153.2-120.3,153.2-120.4,153.2z"/>
			<rect id="XMLID_16_" x="-128.8" y="149.1" class="st10" width="4.3" height="4.7"/>
			<rect id="XMLID_15_" x="-123.7" y="149.2" class="st10" width="1.1" height="4.7"/>
		</g>
		<g id="XMLID_10_">
			<path id="XMLID_13_" class="st7" d="M-121.5,158.5h-17.2c-0.3,0-0.5-0.2-0.5-0.5v-3.7c0-0.3,0.2-0.5,0.5-0.5h17.2
				c0.3,0,0.5,0.2,0.5,0.5v3.7C-121,158.3-121.2,158.5-121.5,158.5z"/>
			<path class="st9" d="M-121.3,157.8h-17.6c-0.1,0-0.2,0-0.3-0.1v0.6c0,0.1,0.1,0.2,0.2,0.2h17.9c0.1,0,0.2-0.1,0.2-0.2v-0.6
				C-121.1,157.8-121.2,157.8-121.3,157.8z"/>
			<rect id="XMLID_12_" x="-129.7" y="153.8" class="st10" width="4.3" height="4.7"/>
			<rect id="XMLID_11_" x="-124.5" y="153.8" class="st10" width="1.1" height="4.7"/>
		</g>
		<g id="XMLID_37_">
			<path id="XMLID_40_" class="st7" d="M-101.9,149.2h-17.2c-0.3,0-0.5-0.2-0.5-0.5V145c0-0.3,0.2-0.5,0.5-0.5h17.2
				c0.3,0,0.5,0.2,0.5,0.5v3.7C-101.4,149-101.6,149.2-101.9,149.2z"/>
			<path class="st9" d="M-101.6,148.5h-17.7c-0.1,0-0.2,0-0.3-0.1v0.6c0,0.1,0.1,0.2,0.2,0.2h17.9c0.1,0,0.2-0.1,0.2-0.2v-0.6
				C-101.4,148.5-101.5,148.5-101.6,148.5z"/>
			<rect id="XMLID_39_" x="-110" y="144.5" class="st10" width="4.3" height="4.7"/>
			<rect id="XMLID_38_" x="-104.9" y="144.4" class="st10" width="1.1" height="4.7"/>
		</g>
		<g id="XMLID_9_">
			<path id="XMLID_36_" class="st7" d="M-101.5,144.8h-17.2c-0.3,0-0.5-0.2-0.5-0.5v-3.7c0-0.3,0.2-0.5,0.5-0.5h17.2
				c0.3,0,0.5,0.2,0.5,0.5v3.7C-101,144.6-101.2,144.8-101.5,144.8z"/>
			<path class="st9" d="M-101.3,144.1H-119c-0.1,0-0.2,0-0.3-0.1v0.6c0,0.1,0.1,0.2,0.2,0.2h17.9c0.1,0,0.2-0.1,0.2-0.2V144
				C-101.1,144.1-101.2,144.1-101.3,144.1z"/>
			<rect id="XMLID_35_" x="-109.7" y="140" class="st10" width="4.3" height="4.7"/>
			<rect id="XMLID_34_" x="-104.5" y="140.1" class="st10" width="1.1" height="4.7"/>
		</g>
		<g id="XMLID_41_">
			<path id="XMLID_44_" class="st7" d="M-101.9,140.2h-17.3c-0.3,0-0.5-0.2-0.5-0.5V136c0-0.3,0.2-0.5,0.5-0.5h17.2
				c0.3,0,0.5,0.2,0.5,0.5v3.7C-101.4,140-101.6,140.2-101.9,140.2z"/>
			<path class="st9" d="M-101.7,139.5h-17.7c-0.1,0-0.2,0-0.3-0.1v0.6c0,0.1,0.1,0.2,0.2,0.2h17.9c0.1,0,0.2-0.1,0.2-0.2v-0.6
				C-101.5,139.5-101.6,139.5-101.7,139.5z"/>
			<rect id="XMLID_43_" x="-110.1" y="135.5" class="st10" width="4.3" height="4.7"/>
			<rect id="XMLID_42_" x="-105" y="135.5" class="st10" width="1.1" height="4.7"/>
		</g>
		<g id="XMLID_7_">
			<path id="XMLID_32_" class="st7" d="M-101.5,153.8h-17.2c-0.3,0-0.5-0.2-0.5-0.5v-3.7c0-0.3,0.2-0.5,0.5-0.5h17.2
				c0.3,0,0.5,0.2,0.5,0.5v3.7C-101,153.6-101.2,153.8-101.5,153.8z"/>
			<path class="st9" d="M-101.3,153.1H-119c-0.1,0-0.2,0-0.3-0.1v0.6c0,0.1,0.1,0.2,0.2,0.2h17.9c0.1,0,0.2-0.1,0.2-0.2V153
				C-101.1,153.1-101.2,153.1-101.3,153.1z"/>
			<rect id="XMLID_31_" x="-109.7" y="149.1" class="st10" width="4.3" height="4.7"/>
			<rect id="XMLID_8_" x="-104.5" y="149.1" class="st10" width="1.1" height="4.7"/>
		</g>
		<g id="XMLID_25_">
			<path id="XMLID_28_" class="st7" d="M-102.4,158.5h-17.2c-0.3,0-0.5-0.2-0.5-0.5v-3.7c0-0.3,0.2-0.5,0.5-0.5h17.2
				c0.3,0,0.5,0.2,0.5,0.5v3.7C-101.9,158.2-102.1,158.5-102.4,158.5z"/>
			<path class="st9" d="M-102.1,157.8h-17.7c-0.1,0-0.2,0-0.3-0.1v0.6c0,0.1,0.1,0.2,0.2,0.2h17.9c0.1,0,0.2-0.1,0.2-0.2v-0.6
				C-101.9,157.8-102,157.8-102.1,157.8z"/>
			<rect id="XMLID_27_" x="-110.5" y="153.7" class="st10" width="4.3" height="4.7"/>
			<rect id="XMLID_26_" x="-105.4" y="153.8" class="st10" width="1.1" height="4.7"/>
		</g>
	</g>
	<g>
		<g>
			<path class="st11" d="M-184.5,207.6c0.2-0.8,0.3-1.6,0.1-2.4c-0.1-0.3-0.2-0.6-0.4-0.9c-0.2-0.1-0.4-0.2-0.6-0.3
				c-2.9-1-6.1,0-8.4,1.9c-2,1.7-3.5,3.9-5,6.1c-0.8,1.2-1.6,2.3-2.3,3.5l-0.1,3.9c2.6-1.5,5.4-2.4,8.1-3.6c3.4-1.5,6.6-3.6,8.3-7.1
				C-184.7,208.3-184.6,208-184.5,207.6z"/>
		</g>
		<g>
			<path class="st12" d="M-200.1,216.5c3.9-2.8,8.5-4.7,11.7-8.3c0.1-0.1-0.1-0.3-0.2-0.2C-191.8,211.6-196.3,213.6-200.1,216.5
				C-200.2,216.5-200.2,216.6-200.1,216.5L-200.1,216.5z"/>
		</g>
		<g>
			<path class="st12" d="M-191.2,207.3c-1.1,1.4-2.2,3.2-2.5,5c0,0.1,0.1,0.2,0.2,0.1c0.8-1.7,1.4-3.4,2.6-4.9
				C-190.8,207.3-191,207.1-191.2,207.3L-191.2,207.3z"/>
		</g>
		<g>
			<path class="st12" d="M-195.4,210.2c-0.4,0.7-0.7,1.3-1,2.1c-0.3,0.7-0.7,1.4-0.7,2.1c0,0.1,0.2,0.2,0.3,0.1
				c0.5-0.5,0.6-1.2,0.9-1.8c0.3-0.8,0.6-1.6,0.8-2.4C-195.1,210.1-195.3,210-195.4,210.2L-195.4,210.2z"/>
		</g>
		<g>
			<path class="st12" d="M-198.1,215.3c0.6,0.2,1.2,0.2,1.8,0.2c0.5,0,1.1,0.1,1.6-0.1c0.1-0.1,0.1-0.3,0-0.3c-0.5-0.2-1,0-1.5,0
				c-0.6,0-1.2-0.1-1.7,0C-198.2,215.1-198.3,215.3-198.1,215.3L-198.1,215.3z"/>
		</g>
		<g>
			<path class="st12" d="M-194.3,213c0.7,0.4,1.8,0.8,2.7,0.5c0.1,0,0.1-0.2,0-0.2c-0.4-0.1-0.7,0-1.1-0.1c-0.5,0-1-0.2-1.5-0.3
				C-194.3,212.9-194.3,213-194.3,213L-194.3,213z"/>
		</g>
		<g>
			<path class="st11" d="M-206.4,202.6c-1-1.8-2.5-3.8-4.5-3.8c-1.7,0-3.2,1.4-3.7,3s-0.2,3.4,0.3,5c1.9,5.8,6.9,10.6,12.8,12.1
				l0.2-0.4C-201.9,213-203.7,207.5-206.4,202.6z"/>
		</g>
		<g>
			<path class="st12" d="M-211.9,202.5c4.5,3.6,6.1,10.2,8.7,15.1c0.1,0.1,0.3,0,0.2-0.1c-1.2-2.9-2.7-5.8-4.1-8.6
				c-1.2-2.5-2.5-4.8-4.8-6.6C-211.8,202.2-212,202.4-211.9,202.5L-211.9,202.5z"/>
		</g>
		<g>
			<path class="st12" d="M-207.9,202.1c0.1,0.8,0.1,1.6-0.1,2.4c-0.1,0.6-0.5,1.2-0.5,1.9c0,0.1,0.1,0.2,0.2,0.1
				c1-1,0.9-3.2,0.6-4.4C-207.7,201.9-207.9,202-207.9,202.1L-207.9,202.1z"/>
		</g>
		<g>
			<path class="st12" d="M-211.6,207.8c1.3,1.1,3,2.3,4.7,2.4c0.1,0,0.2-0.2,0.1-0.3c-0.8-0.4-1.6-0.6-2.4-1s-1.5-0.8-2.3-1.3
				C-211.6,207.5-211.7,207.7-211.6,207.8L-211.6,207.8z"/>
		</g>
		<g>
			<path class="st12" d="M-206.3,206.4c0,0.6,0,1.1,0,1.7c-0.1,0.6-0.2,1.1-0.2,1.7c0,0.1,0.2,0.2,0.3,0.1c0.5-1,0.3-2.5,0.1-3.5
				C-206.1,206.3-206.3,206.3-206.3,206.4L-206.3,206.4z"/>
		</g>
		<line class="st13" x1="-201" y1="165.9" x2="-201" y2="234.3"/>
		<g>
			<g>
				<path class="st14" d="M-201.2,181.6C-201.2,181.6-201.2,181.5-201.2,181.6C-201.3,181.5-201.3,181.6-201.2,181.6L-201.2,181.6z"
					/>
			</g>
		</g>
		<g>
			<g>
				<path class="st14" d="M-198.4,187.6C-198.4,187.6-198.4,187.5-198.4,187.6C-198.5,187.5-198.5,187.6-198.4,187.6L-198.4,187.6z"
					/>
			</g>
		</g>
		<g id="XMLID_45_">
			<path id="XMLID_54_" class="st7" d="M-183,183.2c0,9.9-8.1,18-18,18s-18-8.1-18-18s8.1-18,18-18C-191,165.2-183,173.2-183,183.2z
				"/>
			<path id="XMLID_53_" class="st6" d="M-185,183.2c0,8.9-7.2,16-16,16c-8.9,0-16-7.2-16-16c0-8.9,7.2-16,16-16
				C-192.2,167.1-185,174.3-185,183.2z"/>
			<path id="XMLID_52_" class="st7" d="M-186.9,183.2c0,7.8-6.3,14.2-14.2,14.2c-7.9,0-14.1-6.4-14.1-14.2s6.3-14.2,14.2-14.2
				C-193.1,169-186.9,175.4-186.9,183.2z"/>
			<path id="XMLID_4_" class="st15" d="M-203.2,177.8c-0.4,0-0.8,0.3-0.8,0.8v9.2c0,0.4,0.3,0.8,0.8,0.8h3.4c3.1,0,5.6-2.4,5.6-5.4
				s-2.5-5.4-5.6-5.4H-203.2z M-201,191.2h-1.5v1.3c0,0.2-0.2,0.4-0.4,0.4h-1c-0.2,0-0.4-0.2-0.4-0.4v-1.3h-1.6
				c-0.4,0-0.8-0.3-0.8-0.8v-14.5c0-0.4,0.3-0.8,0.8-0.8h1.6v-1.3c0-0.2,0.2-0.4,0.4-0.4h1c0.2,0,0.4,0.2,0.4,0.4v1.3h1.5v-1.3
				c0-0.2,0.2-0.4,0.4-0.4h1c0.2,0,0.4,0.2,0.4,0.4v1.4c4.4,0.3,7.9,3.8,7.9,8c0,4.2-3.5,7.7-7.9,8v1.4c0,0.2-0.2,0.4-0.4,0.4h-1
				c-0.2,0-0.4-0.2-0.4-0.4V191.2z"/>
		</g>
	</g>
	<g>
		<line class="st13" x1="-175.4" y1="226.1" x2="-175.4" y2="241.3"/>
		<g>
			<g>
				<path class="st14" d="M-175.5,231.1c0.1,0,0.1-0.1,0-0.1C-175.5,231-175.5,231.1-175.5,231.1L-175.5,231.1z"/>
			</g>
		</g>
		<g>
			<g>
				<path class="st14" d="M-174.6,232.9L-174.6,232.9L-174.6,232.9L-174.6,232.9z"/>
			</g>
		</g>
		<g id="XMLID_88_">
			<path id="XMLID_97_" class="st7" d="M-170.1,227.4c0,3.1-2.5,5.6-5.6,5.6s-5.6-2.5-5.6-5.6s2.5-5.6,5.6-5.6
				S-170.1,224.4-170.1,227.4z"/>
			<path id="XMLID_95_" class="st6" d="M-170.7,227.4c0,2.8-2.2,5-5,5s-5-2.2-5-5s2.2-5,5-5S-170.7,224.7-170.7,227.4z"/>
			<path id="XMLID_94_" class="st7" d="M-171.3,227.4c0,2.4-2,4.4-4.4,4.4c-2.4,0-4.4-2-4.4-4.4s2-4.4,4.4-4.4
				C-173.2,223-171.3,225-171.3,227.4z"/>
		</g>
		<path id="XMLID_21_" class="st15" d="M-176.4,225.9c-0.1,0-0.2,0.1-0.2,0.2l0,2.7c0,0.1,0.1,0.2,0.2,0.2h1c0.9,0,1.6-0.7,1.6-1.5
			c0-0.9-0.7-1.5-1.6-1.5H-176.4z M-175.7,229.7h-0.4v0.4c0,0.1,0,0.1-0.1,0.1h-0.3c-0.1,0-0.1,0-0.1-0.1l0-0.4h-0.5
			c-0.1,0-0.2-0.1-0.2-0.2l0-4.2c0-0.1,0.1-0.2,0.2-0.2h0.5v-0.4c0-0.1,0-0.1,0.1-0.1h0.3c0.1,0,0.1,0,0.1,0.1v0.4h0.4v-0.4
			c0-0.1,0-0.1,0.1-0.1h0.3c0.1,0,0.1,0,0.1,0.1v0.4c1.3,0.1,2.3,1.1,2.3,2.3c0,1.2-1,2.2-2.3,2.3v0.4c0,0.1,0,0.1-0.1,0.1h-0.3
			c-0.1,0-0.1,0-0.1-0.1V229.7z"/>
	</g>
	<g>
		<g>
			<path class="st11" d="M-181,227.4c0.1-0.4,0.2-0.9,0.1-1.3c0-0.2-0.1-0.4-0.2-0.5c-0.1-0.1-0.2-0.1-0.3-0.2c-1.6-0.6-3.3,0-4.6,1
				c-1.1,0.9-1.9,2.1-2.7,3.3c-0.4,0.6-0.8,1.3-1.3,1.9l-0.1,2.1c1.4-0.8,2.9-1.3,4.4-2c1.9-0.8,3.6-2,4.5-3.9
				C-181.2,227.8-181.1,227.6-181,227.4z"/>
		</g>
		<g>
			<path class="st12" d="M-189.6,232.3c2.1-1.5,4.6-2.5,6.4-4.5c0.1-0.1,0-0.1-0.1-0.1C-185.1,229.6-187.5,230.7-189.6,232.3
				C-189.6,232.2-189.6,232.3-189.6,232.3L-189.6,232.3z"/>
		</g>
		<g>
			<path class="st12" d="M-184.7,227.2c-0.6,0.8-1.2,1.7-1.4,2.7c0,0.1,0.1,0.1,0.1,0C-185.6,229-185.2,228.1-184.7,227.2
				C-184.5,227.2-184.6,227.1-184.7,227.2L-184.7,227.2z"/>
		</g>
		<g>
			<path class="st12" d="M-187,228.8c-0.2,0.4-0.4,0.7-0.5,1.1c-0.1,0.4-0.4,0.8-0.4,1.2c0,0.1,0.1,0.1,0.1,0.1
				c0.3-0.3,0.3-0.6,0.5-1s0.3-0.9,0.4-1.3C-186.8,228.8-187,228.7-187,228.8L-187,228.8z"/>
		</g>
		<g>
			<path class="st12" d="M-188.5,231.6c0.3,0.1,0.6,0.1,1,0.1c0.3,0,0.6,0,0.9-0.1c0.1,0,0-0.1,0-0.2c-0.3-0.1-0.6,0-0.8,0
				c-0.3,0-0.6,0-1,0C-188.5,231.5-188.6,231.6-188.5,231.6L-188.5,231.6z"/>
		</g>
		<g>
			<path class="st12" d="M-186.4,230.4c0.4,0.2,1,0.4,1.4,0.3c0.1,0,0.1-0.1,0-0.1c-0.2,0-0.4,0-0.6,0
				C-185.8,230.4-186.1,230.4-186.4,230.4C-186.4,230.3-186.4,230.4-186.4,230.4L-186.4,230.4z"/>
		</g>
		<g>
			<path class="st11" d="M-193,224.7c-0.5-1-1.3-2.1-2.5-2.1c-0.9,0-1.7,0.8-2,1.6c-0.3,0.9-0.1,1.9,0.2,2.7c1,3.2,3.8,5.8,7,6.6
				l0.1-0.2C-190.5,230.3-191.5,227.4-193,224.7z"/>
		</g>
		<g>
			<path class="st12" d="M-196,224.6c2.5,2,3.3,5.6,4.8,8.3c0,0.1,0.2,0,0.1-0.1c-0.7-1.6-1.5-3.2-2.2-4.7
				C-194,226.7-194.7,225.5-196,224.6C-196,224.5-196,224.6-196,224.6L-196,224.6z"/>
		</g>
		<g>
			<path class="st12" d="M-193.8,224.4c0.1,0.4,0,0.9,0,1.3c-0.1,0.3-0.3,0.7-0.3,1c0,0.1,0.1,0.1,0.1,0c0.5-0.5,0.5-1.7,0.3-2.4
				C-193.7,224.3-193.8,224.3-193.8,224.4L-193.8,224.4z"/>
		</g>
		<g>
			<path class="st12" d="M-195.8,227.5c0.7,0.6,1.6,1.3,2.6,1.3c0.1,0,0.1-0.1,0-0.1c-0.4-0.2-0.9-0.3-1.3-0.5
				C-195,227.9-195.4,227.7-195.8,227.5C-195.8,227.4-195.9,227.5-195.8,227.5L-195.8,227.5z"/>
		</g>
		<g>
			<path class="st12" d="M-192.9,226.8c0,0.3,0,0.6,0,0.9c0,0.3-0.1,0.6-0.1,0.9c0,0.1,0.1,0.1,0.1,0c0.3-0.5,0.2-1.3,0.1-1.9
				C-192.8,226.7-192.9,226.7-192.9,226.8L-192.9,226.8z"/>
		</g>
		<line class="st13" x1="-190.1" y1="210.2" x2="-190.1" y2="241.3"/>
		<g>
			<g>
				<path class="st14" d="M-190.2,213.2C-190.1,213.2-190.1,213.1-190.2,213.2C-190.2,213.1-190.2,213.2-190.2,213.2L-190.2,213.2z"
					/>
			</g>
		</g>
		<g>
			<g>
				<path class="st14" d="M-188.7,216.5C-188.6,216.5-188.6,216.5-188.7,216.5L-188.7,216.5L-188.7,216.5z"/>
			</g>
		</g>
		<g id="XMLID_55_">
			<path id="XMLID_64_" class="st7" d="M-180.7,212.8c0,5.4-4.4,9.8-9.8,9.8s-9.8-4.4-9.8-9.8c0-5.4,4.4-9.8,9.8-9.8
				S-180.7,207.4-180.7,212.8z"/>
			<path id="XMLID_76_" class="st6" d="M-181.8,212.8c0,4.8-3.9,8.7-8.7,8.7s-8.7-3.9-8.7-8.7c0-4.8,3.9-8.7,8.7-8.7
				C-185.7,204.1-181.8,208-181.8,212.8z"/>
			<path id="XMLID_75_" class="st7" d="M-182.8,212.8c0,4.3-3.5,7.7-7.7,7.7c-4.3,0-7.7-3.5-7.7-7.7c0-4.3,3.5-7.7,7.7-7.7
				C-186.3,205.1-182.8,208.5-182.8,212.8z"/>
			<path id="XMLID_1_" class="st15" d="M-192,209.7c-0.2,0-0.4,0.2-0.4,0.4v5.3c0,0.2,0.2,0.4,0.4,0.4h1.9c1.8,0,3.2-1.4,3.2-3.1
				c0-1.7-1.5-3.1-3.2-3.1H-192z M-190.7,217.4h-0.9v0.8c0,0.1-0.1,0.2-0.2,0.2h-0.6c-0.1,0-0.2-0.1-0.2-0.2v-0.8h-0.9
				c-0.2,0-0.4-0.2-0.4-0.4v-8.4c0-0.2,0.2-0.4,0.4-0.4h0.9v-0.8c0-0.1,0.1-0.2,0.2-0.2h0.6c0.1,0,0.2,0.1,0.2,0.2v0.8h0.9v-0.8
				c0-0.1,0.1-0.2,0.2-0.2h0.6c0.1,0,0.2,0.1,0.2,0.2v0.8c2.5,0.2,4.6,2.2,4.6,4.6s-2,4.4-4.6,4.6v0.8c0,0.1-0.1,0.2-0.2,0.2h-0.6
				c-0.1,0-0.2-0.1-0.2-0.2V217.4z"/>
		</g>
	</g>
	<g>
		<line class="st13" x1="-208.9" y1="224.8" x2="-208.9" y2="241.3"/>
		<g>
			<g>
				<path class="st14" d="M-209,233c0.1,0,0.1-0.1,0-0.1V233L-209,233z"/>
			</g>
		</g>
		<g>
			<g>
				<path class="st14" d="M-207.5,236.1C-207.5,236.1-207.5,236-207.5,236.1C-207.5,236-207.5,236.1-207.5,236.1L-207.5,236.1z"/>
			</g>
		</g>
		<g id="XMLID_264_">
			<path id="XMLID_272_" class="st7" d="M-199.9,227c0,5.2-4.2,9.4-9.4,9.4s-9.4-4.2-9.4-9.4s4.2-9.4,9.4-9.4
				C-204.1,217.6-199.9,221.8-199.9,227z"/>
			<path id="XMLID_271_" class="st6" d="M-201,227c0,4.6-3.7,8.3-8.3,8.3c-4.6,0-8.3-3.7-8.3-8.3s3.7-8.3,8.3-8.3
				C-204.7,218.6-201,222.4-201,227z"/>
			<path id="XMLID_270_" class="st7" d="M-201.9,227c0,4.1-3.3,7.4-7.4,7.4c-4.1,0-7.4-3.3-7.4-7.4s3.3-7.4,7.4-7.4
				C-205.2,219.6-201.9,222.9-201.9,227z"/>
			<path id="XMLID_29_" class="st15" d="M-210.3,224.4c-0.2,0-0.4,0.2-0.4,0.4v4.4c0,0.2,0.2,0.4,0.4,0.4h1.6c1.5,0,2.7-1.2,2.7-2.6
				c0-1.4-1.2-2.6-2.7-2.6H-210.3z M-209.3,230.9h-0.7v0.6c0,0.1-0.1,0.2-0.2,0.2h-0.5c-0.1,0-0.2-0.1-0.2-0.2v-0.6h-0.8
				c-0.2,0-0.4-0.2-0.4-0.4v-7c0-0.2,0.2-0.4,0.4-0.4h0.8v-0.6c0-0.1,0.1-0.2,0.2-0.2h0.5c0.1,0,0.2,0.1,0.2,0.2v0.6h0.7v-0.6
				c0-0.1,0.1-0.2,0.2-0.2h0.5c0.1,0,0.2,0.1,0.2,0.2v0.7c2.1,0.2,3.8,1.8,3.8,3.9c0,2-1.7,3.7-3.8,3.9v0.7c0,0.1-0.1,0.2-0.2,0.2
				h-0.5c-0.1,0-0.2-0.1-0.2-0.2V230.9z"/>
		</g>
	</g>
</g>
<g id="Layer_17">
	<g>
		<rect x="-41.8" y="114.2" class="st16" width="6.8" height="6.4"/>
		<polygon class="st17" points="-37.7,233.5 -39.6,235.8 -45.2,237 -45.7,240.6 -30.1,240.6 -30.8,233.5 		"/>
		<path class="st18" d="M-45.2,237l-4.4,0.6l-0.5,0.6c-0.3,0.3-0.4,0.8-0.2,1.2l0,0c0.3,0.7,1,1.3,1.7,1.6l3.4,1.2h15.3v-5.1h-1
			l-7.6,3.2l-5.1,0.1l-1.9-1.3L-45.2,237z"/>
		<g>
			<polygon class="st12" points="-45.4,238.6 -45.2,237 -45.2,237.1 -45.4,238.5 			"/>
			<path class="st12" d="M-48.6,240.5c-0.8-0.3-1.4-0.8-1.7-1.6l0,0c0-0.1,0-0.1-0.1-0.2c-0.1,0.2,0,0.5,0.1,0.7l0,0
				c0.3,0.7,1,1.3,1.7,1.6l3.4,1.2h15.3v-0.5h-15.3L-48.6,240.5z"/>
		</g>
		<path class="st19" d="M-28.6,172.6l-1.5,4.9l0.4,26.7c0,0,3,7.8,1.1,14.6l-2.3,14.7H-34l-0.6-61.2L-28.6,172.6z"/>
		<polygon class="st16" points="-39.3,233.5 -41.2,235.8 -46.8,237 -47.3,240.6 -31.7,240.6 -32.4,233.5 		"/>
		<path class="st2" d="M-45.1,161v5.1l1.3,28.2c0.1,2.3,0.5,4.6,1.2,6.8l0,0l0,0c0.3,2.3,1.1,4.4,2.4,6.3l0.2,0.3l0.8,25.8h6.8
			l1.7-11.3c0,0,1.6-9-0.8-15v-29.8l1.5-2.1c1.6-2.2,2.5-4.9,2.5-7.6l0,0c0-2-0.4-3.9-1.3-5.7l-0.5-1.1L-45.1,161L-45.1,161z"/>
		<path class="st1" d="M-46.8,237l-4.4,0.6l-0.5,0.6c-0.3,0.3-0.4,0.8-0.2,1.2l0,0c0.3,0.7,1,1.3,1.7,1.6l3.4,1.2h15.3v-5.1h-1
			l-7.6,3.2l-5.1,0.1l-1.9-1.3L-46.8,237z"/>
		<g>
			<polygon class="st12" points="-47,238.6 -46.8,237 -46.8,237.1 -47,238.5 			"/>
			<path class="st12" d="M-50.2,240.5c-0.8-0.3-1.4-0.8-1.7-1.6l0,0c0-0.1,0-0.1-0.1-0.2c-0.1,0.2,0,0.5,0.1,0.7l0,0
				c0.3,0.7,1,1.3,1.7,1.6l3.4,1.2h15.3v-0.5h-15.3L-50.2,240.5z"/>
		</g>
		<path class="st20" d="M-28.9,162l-0.5-1.1h-15.7v2.7c0,0,0,0,0.1,0c1,0.2,2.1,0.2,3.1-0.1c0.7-0.2,1.3-0.5,2-0.6
			c0.5-0.1,0.9,0,1.4,0c3.5,0.3,6.9,0.6,10.4,1C-28.4,163.3-28.6,162.6-28.9,162z"/>
		<path class="st21" d="M-43.7,127.4l-3.4,7.7c-0.4,0.9-0.6,1.8-0.6,2.8v1.1c0,1.2,0.3,2.4,0.9,3.4c0,3.9,0.1,7.8,0.1,11.7
			c0,2,0,4,0.1,6.1c0,0.6-0.1,1.3,0,1.8c0.1,0.6,0.4,0.6,1.1,0.7c1,0.2,2.1,0.2,3.1-0.1c0.7-0.2,1.3-0.5,2-0.6c0.5-0.1,0.9,0,1.4,0
			c3.6,0.3,7.2,0.7,10.8,1c-0.1,0-0.6-1.7-0.6-1.9c-0.1-0.5-0.1-0.9-0.1-1.4c0-1-0.1-2.1-0.2-3.1c-0.1-1.3-0.2-2.6-0.2-4
			c-0.2-2.7,0.1-5.4,0.9-8l2.4-8.3c1-3.5,0.9-7.3-0.4-10.7l-3.2-8.4l-5.4,2.1l-6.6,1.4L-43.7,127.4z"/>
		<polygon class="st20" points="-35,114.2 -41.8,118.2 -41.8,114.2 		"/>
		<path class="st16" d="M-50,104v3.4c0,0.5,0.3,0.9,0.7,1.2l0.6,0.4c0,0-0.3,1.7-0.9,2.7c-0.2,0.3-0.1,0.6,0.1,0.8
			c0.4,0.3,0.9,0.6,1.5,0.5l1,2.9c0.4,1.1,1.5,1.6,2.6,1.3l6.2-2.2l2.1-8.4l-2-5.2l-9.1,0.4C-47.3,101.6-50,102.6-50,104z"/>
		
			<linearGradient id="SVGID_1_" gradientUnits="userSpaceOnUse" x1="-51.3087" y1="306.2764" x2="-23.3006" y2="306.2764" gradientTransform="matrix(1 0 0 1 0 -189.0211)">
			<stop  offset="9.091265e-03" style="stop-color:#54585E"/>
			<stop  offset="1" style="stop-color:#838891"/>
		</linearGradient>
		<path class="st22" d="M-23.4,133.4c-0.1-0.6-0.2-1.1-0.4-1.7c-0.3-1.1-0.6-2.2-0.9-3.2c-0.3-1-0.6-2.1-1-3.1
			c-0.3-0.7-0.7-1.3-0.9-2c-0.4-1.4,0-2.9-0.2-4.3c-0.2-2.3-1.6-4.3-1.9-6.5c-0.1-1,0-2-0.1-2.9c-0.2-1.8-1.4-3.2-2.3-4.8
			c-0.8-1.2-2.1-2.2-2.7-3.6c-0.3-0.7-0.3-1.6-0.6-2.3c-0.6-1.5-2-2.4-3.5-2.8s-2.9,0-4.4-0.2c-1.3-0.1-2.4-0.2-3.7,0.2
			c-2.2,0.7-5.5,2.3-5.3,5c0.1,0.8,0.4,1.6,0.7,2.3c0.1,0.3,0.3,0.7,0.6,0.8c0.5,0.2,1.1-0.1,1.6-0.3l0.2,0.1l1.2,1.1l0.7,0.7
			c0.1,0.1,0.1,0.1,0.2,0.2l0,0l0,0c0.3,0.3,0.6,0.5,1,0.6c0.5,0.2,1.1,0.3,1.5,0.6c0.4,0.3,0.6,0.7,0.9,1.1c0.7,1.4,1,3,2,4.1
			c0.4,0.4,0.9,0.8,1.3,1.2c1.1,1.3,1.1,3.2,1.9,4.6c1.2,2.1,4,3,5.1,5.2c0.8,1.6,0.5,3.4,1.1,5.1c0.4,1,1,1.9,1.3,2.9
			c0.2,1,0.1,2,0.1,2.9c0,1,0.3,2.1,1,2.7c0-0.6,0.6-1.2,1.2-1.3c0.3,0.9,0.4,1.8,0.2,2.8c0.1-0.5,0.7-0.8,1.2-0.9
			c1.4-0.3,2.4-0.3,2.8-1.9C-23.3,135-23.3,134.2-23.4,133.4z"/>
		<path class="st23" d="M-33.7,131.8l-7.9,0.5L-43,149l-3.7,1.4l0.1,5.9l5.2-0.4c2.7-0.2,4.9-2.2,5.3-4.9L-33.7,131.8z"/>
		<path class="st16" d="M-42.1,131.8l-1.4,16.7l-12.6,4.8l-4.9-3.1h-3.8l-1,1.9v2.1h0.9l0.1-1.1l0.4-0.1l5.1,3.7h2.7l14.5-1.1
			c2.7-0.2,4.9-2.2,5.3-4.9l3-18.7h-8.3V131.8z"/>
		<g class="st24">
			<path class="st12" d="M-46.5,147.4c0-0.2-0.1-0.5-0.1-0.7c0-0.8,0.8-1.5,1.4-1.9c-0.4,0-0.9-0.2-1.1-0.6c-0.2-0.4,0.1-1,0.5-1
				c-0.2-0.1-0.4-0.3-0.6-0.4c1.1,0,2.1-0.6,2.7-1.5c-0.8,0.4-1.8,0.8-2.7,0.4c-0.6-0.3-1-0.9-1.3-1.6c0.1,0.7,0.4,1.5,0.8,2.1
				l0.1,6.3C-46.5,148.3-46.4,147.9-46.5,147.4z"/>
		</g>
		<polygon class="st20" points="-42.2,132.8 -33.8,132.8 -33.7,131.8 -42.1,131.8 		"/>
		<path class="st21" d="M-42.7,131.8v-3.2c0-2.5,0.7-4.9,1.9-7l0,0h6.8l0,0c0.7,2.7,1.1,5.4,1.1,8.2v2.1L-42.7,131.8L-42.7,131.8z"
			/>
		<g class="st25">
			<g>
				<path class="st12" d="M-29.3,148c-0.1,0.6-0.1,1.1-0.2,1.7c-0.5-0.8-0.7-1.7-0.8-2.6C-29.9,147.5-29.6,147.8-29.3,148z
					 M-28.2,143.1c-1,1.2-1.4,3-1,4.5c0.2-1,0.3-2,0.6-3L-28.2,143.1C-28.2,143.2-28.2,143.2-28.2,143.1z M-30.4,150.9
					c-0.5,0-0.9,0.1-1.4,0.1c1.1,0.4,1.9,1.6,2,2.8c-0.2-0.1-0.4-0.1-0.6,0c0.5,0.6,0.9,1.2,1.2,2l-0.2-3.1c-0.1-0.9,0-1.8,0-2.8
					c-0.4-0.1-0.9-0.1-1.3-0.2c0,0.5,1.1,0.7,0.8,1.1C-30.1,150.9-30.2,150.9-30.4,150.9z"/>
			</g>
		</g>
		<g class="st26">
			<g>
				<path class="st12" d="M-31.8,229.2l-0.2,1.4c-0.1,0-0.1,0-0.2,0l0.1-0.4C-32,229.9-31.9,229.6-31.8,229.2z M-33,183.3
					c-0.3,1.2-0.6,2.4-0.8,3.7c-0.2,2,0.2,4,0.4,6.1c0.3,3.1,0.2,6.2,0.2,9.3c-0.3-0.3-0.6-0.5-0.9-0.8c0.1,0.1,0.2,1.3,0.2,1.6
					c0.2,0.6,0.4,1.1,0.6,1.6c0.4,1,1.1,1.9,1.6,2.8c0.3-1.1,0.1-2.3,0.1-3.4c0-2.2,0-4.4,0-6.7c0-2.7,0-5.3,0-8c0-2.2,0-4.5,0-6.7
					c0-1.2,0.1-2.4,0-3.5c0-0.5,0-1,0-1.5c0-0.1,0-0.3,0-0.4s-0.1-0.2-0.2-0.3c-0.1-0.1-0.1-0.2-0.2-0.3c-0.2,1-0.2,2.2-0.4,3.3
					C-32.6,181.1-32.8,182.2-33,183.3z M-31.6,227.5l0.8-5.3c0.2-1,0.3-1.9,0.3-2.9c0.2-2.3,0.2-4.6,0-6.9c-0.1-1.3-0.3-2.5-0.7-3.7
					c-0.1-0.5-0.2-1.3-0.7-1.4c-0.7-0.2-1.4-0.1-2-0.5c-0.1,0-0.2-0.1-0.2,0c0,0-0.1,0.1-0.1,0.2c0,0.4,0.4,0.7,0.7,0.9
					c0.1,0.1,0.9,0.6,1,0.6c-0.8,0.2-1.7,0.2-2.5,0c0.9,0.8,1.7,1.8,2.3,2.8c0.3,0.5,0.5,1.1,0.7,1.7c0.2,0.6,0.3,1.1-0.5,0.7
					c-0.2-0.1-0.5-0.3-0.7-0.2c0.4,0.7,0.8,1.3,1,2c0.1,0.4,0.3,0.8,0.4,1.2c0.1,0.3,0.1,0.8,0.2,1.1c-0.5-0.7-1.3-1.3-2.2-1.4
					c0.6,1.6,1.2,3.1,1.8,4.7c-0.4-0.1-0.8-0.1-1.3-0.2C-31.9,222.8-31.4,225.2-31.6,227.5z"/>
			</g>
		</g>
		<g class="st27">
			<path class="st12" d="M-46,102.8L-46,102.8L-46,102.8L-46,102.8z"/>
		</g>
		<path class="st28" d="M-38.6,98.9L-38.6,98.9c1.5,0.4,2.4,1,2.7,2.6c0.1,1-0.7,2-0.9,2.9c-0.9,3.5-0.6,6.4,1.9,9.4
			c1.7,2,4.2,3.3,5.4,5.7c1.3,2.4,1,5.2,0.7,7.9h-0.1c0.3-4.7-0.4-7.8-3.7-11.3c-1.3-1.3-2.7-2.3-3.6-3.9c-0.9-1.5-1.3-3.2-1.2-4.9
			C-37.4,104.7-34.2,100.3-38.6,98.9L-38.6,98.9z M-35.2,118.4c2.6-1.1,2.1,3.8,2.9,4.9c1.2,1.5,2.7,1.6,3.1,4.1
			c0.4,2.5,0.4,5.2,3.4,5.8c0.1,0,0.1-0.1,0-0.1c-4.3-1.2-2.3-4.7-3.5-7.5c-0.9-2-3-1.3-3.5-4.4C-33,119.7-32.7,117.3-35.2,118.4
			L-35.2,118.4L-35.2,118.4z M-34.8,106.5c1.7-0.7,1.8,2.9,1.9,3.7c0.1,0.8,0.3,1.6,0.6,2.4c0.5,1.4,1.4,2.6,2.6,3.3
			c0,0,0.1,0,0.1-0.1c-1.3-1.1-2.2-2.3-2.7-3.9c-0.4-1.4-0.4-2.8-0.7-4.1C-33.2,106.9-33.8,106-34.8,106.5
			C-34.9,106.5-34.8,106.5-34.8,106.5L-34.8,106.5z M-44.8,100.9c1.2-1.9,2.9,1.1,3.1,1.9c0.1,0.3,0.1,0.6,0.1,0.9
			c0.1,0.9,0.4,1.8,0.8,2.6c0.8,1.7,2,3.2,3.5,4.2c0.1,0,0.1-0.1,0.1-0.1c-1.4-1.2-2.6-2.5-3.4-4.2c-0.5-1.1-0.8-2.3-1-3.5
			c-0.1-0.5,0-1-0.2-1.5C-42.4,100.2-44.3,99.7-44.8,100.9L-44.8,100.9L-44.8,100.9z M-49.8,102.6c0.3-0.4,0.7-0.7,1.2-0.8
			c0.6-0.6,1.2-0.5,1.7,0.2c0.9,0.5,0.9,0.7,1.3,1.4c0.4,0.8,0.9,1.7,1.4,2.4c0.9,1.2,1.9,2.3,3.2,3.1c0,0,0.1,0,0-0.1
			c-1.6-1.1-2.8-2.4-3.8-4c-0.5-0.9-0.9-2.2-1.6-2.9C-47.4,100.8-49,101.3-49.8,102.6C-49.9,102.6-49.8,102.6-49.8,102.6
			L-49.8,102.6z M-47.9,99.6c2.4-2,4.6-1.7,6.9,0.4c0.8,0.7,1.4,1.2,2.4,1.2c0.1,0,0.1-0.1,0-0.1c-2.2-0.2-3.1-2.6-5.2-3
			C-45.4,97.8-46.7,98.5-47.9,99.6L-47.9,99.6L-47.9,99.6z M-32.2,106.1c1.4,1.2,1.3,4,1.8,5.7c0.6,1.9,1.3,3.8,1.8,5.7h0.1
			c-0.4-2.5-1.6-4.7-2.1-7.2C-31.1,108.6-30.6,107.3-32.2,106.1C-32.2,106.1-32.3,106.1-32.2,106.1L-32.2,106.1z M-27.3,126.3
			c0.3,1.2,0.1,2.2,1,3.1c0.8,0.8,1.6,1.3,1.8,2.5c0.3,1.8-1,3.2-2.3,4.2v0.1c1.5-0.9,2.8-2.5,2.5-4.3c-0.1-1-0.6-1.5-1.3-2.1
			c-0.7-0.6-0.9-0.5-1.2-1.4C-27.1,127.7-27,127-27.3,126.3C-27.2,126.2-27.3,126.3-27.3,126.3L-27.3,126.3z"/>
	</g>
	<g>
		<path class="st8" d="M-50.9,158.5h-26.2c-0.6,0-1-0.5-1-1v-0.2c0-0.6,0.5-1,1-1h26.2c0.6,0,1,0.5,1,1v0.2
			C-49.8,158-50.3,158.5-50.9,158.5z"/>
		<path class="st29" d="M-51,158h-26.1c-0.5,0-0.9-0.4-1.1-0.9c0,0.1-0.1,0.2-0.1,0.3c0,0.6,0.5,1.1,1.1,1.1h26.1
			c0.6,0,1.1-0.5,1.1-1.1c0-0.1,0-0.2-0.1-0.3C-50,157.7-50.4,158-51,158z"/>
		<path class="st8" d="M-75.8,156.5L-75.8,156.5c-0.2,0.1-0.4,0.1-0.5-0.1l-10.5-18.8c-0.1-0.2,0-0.3,0.1-0.4l0,0
			c0.2-0.1,0.3,0,0.4,0.1l10.5,18.8C-75.6,156.2-75.7,156.4-75.8,156.5z"/>
		<path class="st29" d="M-76.1,156.4l-10.5-18.7c-0.1-0.2,0-0.4,0.1-0.5h0.1c-0.1,0-0.2-0.1-0.3,0c-0.2,0.1-0.2,0.3-0.1,0.5
			l10.5,18.7c0.1,0.1,0.2,0.2,0.4,0.1C-76,156.5-76.1,156.5-76.1,156.4z"/>
		<g>
			<rect x="-59.2" y="156.8" class="st12" width="2.1" height="0.8"/>
		</g>
		<g>
			<rect x="-56.8" y="156.8" class="st12" width="2.1" height="0.8"/>
		</g>
		<g>
			<rect x="-74.1" y="156.9" class="st12" width="2.1" height="0.8"/>
		</g>
	</g>
</g>
</svg>
