<?xml version="1.0" encoding="utf-8"?>
<!-- Generator: Adobe Illustrator 19.0.0, SVG Export Plug-In . SVG Version: 6.00 Build 0)  -->
<svg version="1.1" id="图层_1" xmlns="http://www.w3.org/2000/svg" xmlns:xlink="http://www.w3.org/1999/xlink" x="0px" y="0px"
	 viewBox="0 0 300 180" style="enable-background:new 0 0 300 180;" xml:space="preserve">
<style type="text/css">
	.st0{fill-rule:evenodd;clip-rule:evenodd;fill:#FFFFFF;}
	.st1{fill:#FFFFFF;}
</style>
<g>
	<g id="XMLID_440_">
		<path id="XMLID_650_" class="st0" d="M87.3,115.4c-1.3,0-2.4-1.1-2.4-2.3V80.7c0-1.3,1.1-2.3,2.4-2.3h1.2c1.3,0,2.4,1.1,2.4,2.3
			V113c0,1.3-1.1,2.3-2.4,2.3H87.3z M83,112.9c-2.5,1.6-5.4,2.6-8.5,2.9c-10.8,1-20.5-7-21.5-17.8c-1-10.8,7-20.5,17.8-21.5
			c4.4-0.4,8.7,0.7,12.2,2.9V87c-2.8-3.2-7.1-5-11.6-4.6c-7.6,0.7-13.2,7.4-12.5,15c0.7,7.6,7.4,13.2,15,12.5
			c3.7-0.3,6.8-2.1,9.1-4.6V112.9z"/>
		<path id="XMLID_623_" class="st0" d="M131.8,94.8c-0.7-7.6-7.4-13.2-15-12.5c-7.6,0.7-13.2,7.4-12.5,15c0.7,7.6,7.4,13.2,15,12.5
			C127,109.1,132.5,102.4,131.8,94.8z M137.7,94.3c1,10.8-7,20.5-17.8,21.5c-10.8,1-20.5-7-21.5-17.8c-1-10.8,7-20.5,17.8-21.5
			C127.1,75.4,136.7,83.4,137.7,94.3z"/>
		<path id="XMLID_592_" class="st0" d="M22.4,72H7v38.5h15.4C47.4,110.5,48.5,72,22.4,72z M23.4,116.4H6.1c-2.4,0-5-1.3-5-4.5V70.6
			c0-2.6,2.6-4.5,5-4.5h16.6C56,66.1,55.3,116.4,23.4,116.4z"/>
	</g>
	<g>
		<g>
			<g>
				<path id="XMLID_438_" class="st0" d="M252.8,116.6h-1.2c-1.3,0-2.4-1.1-2.4-2.4V75.3c0-1.3,1.1-2.4,2.4-2.4h1.2
					c1.3,0,2.4,1.1,2.4,2.4v38.9C255.2,115.5,254.1,116.6,252.8,116.6"/>
				<circle id="XMLID_3_" class="st0" cx="252.1" cy="66.3" r="2.9"/>
			</g>
			<path id="XMLID_2_" class="st1" d="M280.8,76.5c-10,0-18.1,8.2-18.1,18.1v7.3v8.7v3.4c0,1.1,0.9,2,2,2h1.4c1.1,0,2-0.9,2-2v-3.4
				h0v-16c0-7,5.7-12.8,12.8-12.8s12.8,5.7,12.8,12.8v16h0v3.4c0,1.1,0.9,2,2,2h1.4c1.1,0,2-0.9,2-2v-3.4v-8.7v-7.3
				C298.9,84.7,290.7,76.5,280.8,76.5z"/>
			<path id="XMLID_364_" class="st0" d="M235.8,94.8c-0.7-7.6-7.4-13.2-15-12.5c-7.6,0.7-13.2,7.4-12.5,15c0.7,7.6,7.4,13.2,15,12.5
				C230.9,109.1,236.5,102.4,235.8,94.8z M241.7,94.3c1,10.8-7,20.5-17.8,21.5c-10.8,1-20.5-7-21.5-17.8c-1-10.8,7-20.5,17.8-21.5
				C231.1,75.4,240.7,83.4,241.7,94.3z"/>
		</g>
		<path id="XMLID_1_" class="st1" d="M195,101.6c0.8-1.4,0.3-3.4-1.1-4.4c-1.5-1-3.3-0.6-4.2,0.8l-2,3.4c-3.7,5.8-9.2,8.8-16.7,8.9
			c-5.2,0.1-9.8-1.8-13.6-5.5c-3.8-3.8-5.7-8.3-5.7-13.5c0-5.2,2-9.8,6.2-13.6c4-3.7,8.3-5.5,13.3-5.4c7.4,0.2,12.9,3.4,16.5,9.5
			c0.4,0.7,0.8,1.2,1.5,1.5c0.8,0.4,1.5,0.3,2.3,0.3c0.7,0,1.7-0.2,2.3-0.6c0.3-0.2,0.6-0.6,0.7-1c0.1-0.4,0-0.8-0.1-1.3
			c-0.3-0.9-0.6-1.7-1.1-2.6c-0.9-1.6-2.1-3.1-3.4-4.4c-0.5-0.5-1-1-1.6-1.4c-0.3-0.3-0.7-0.6-1.1-0.8c-0.7-0.5-1.3-1-2.1-1.5
			c-4.4-2.7-9.1-4-14.1-4c-7.1,0.1-13.1,2.7-18.3,7.7c-5.1,5-7.5,10.9-7.4,17.9c0.1,6.9,2.6,12.8,7.7,17.6c5.1,4.8,11,7.2,18,7.3
			c8.8,0.1,15.7-3.1,20.7-9.6c0.9-1.2,1.8-2.5,2.6-3.9L195,101.6z"/>
	</g>
</g>
</svg>
