<?xml version="1.0" encoding="utf-8"?>
<!-- Generator: Adobe Illustrator 19.0.0, SVG Export Plug-In . SVG Version: 6.00 Build 0)  -->
<svg version="1.1" id="图层_1" xmlns="http://www.w3.org/2000/svg" xmlns:xlink="http://www.w3.org/1999/xlink" x="0px" y="0px"
	 viewBox="0 0 208.4 72.1" style="enable-background:new 0 0 208.4 72.1;" xml:space="preserve">
<style type="text/css">
	.st0{fill-rule:evenodd;clip-rule:evenodd;fill:url(#XMLID_36_);}
	.st1{fill-rule:evenodd;clip-rule:evenodd;fill:url(#XMLID_37_);}
	.st2{fill-rule:evenodd;clip-rule:evenodd;fill:url(#XMLID_38_);}
	.st3{fill-rule:evenodd;clip-rule:evenodd;fill:#384C93;}
	.st4{fill:#384C93;}
</style>
<g id="XMLID_21_">
	<g id="XMLID_2_">
		<g id="XMLID_550_">
			<linearGradient id="XMLID_36_" gradientUnits="userSpaceOnUse" x1="38.5694" y1="35.2163" x2="67.096" y2="43.5636">
				<stop  offset="1.137031e-03" style="stop-color:#3D31E6"/>
				<stop  offset="1" style="stop-color:#3D90FB"/>
			</linearGradient>
			<path id="XMLID_582_" class="st0" d="M60.3,52.7c-0.9,0-1.7-0.7-1.7-1.6V28.5c0-0.9,0.7-1.6,1.7-1.6h0.8c0.9,0,1.7,0.7,1.7,1.6
				v22.6c0,0.9-0.7,1.6-1.7,1.6H60.3z M57.3,51c-1.8,1.1-3.8,1.8-6,2c-7.6,0.7-14.3-4.9-15-12.5c-0.7-7.6,4.9-14.3,12.5-15
				c3.1-0.3,6.1,0.5,8.5,2v5.4c-2-2.2-4.9-3.5-8.1-3.2c-5.3,0.5-9.2,5.2-8.7,10.5c0.5,5.3,5.2,9.2,10.5,8.7c2.6-0.2,4.8-1.4,6.4-3.2
				V51z"/>
			<linearGradient id="XMLID_37_" gradientUnits="userSpaceOnUse" x1="68.5672" y1="35.3185" x2="91.0442" y2="41.8955">
				<stop  offset="1.137031e-03" style="stop-color:#3D31E6"/>
				<stop  offset="1" style="stop-color:#3D90FB"/>
			</linearGradient>
			<path id="XMLID_579_" class="st1" d="M91.5,38.3C91,33,86.3,29.1,81,29.6c-5.3,0.5-9.2,5.2-8.7,10.5c0.5,5.3,5.2,9.2,10.5,8.7
				C88.1,48.3,92,43.6,91.5,38.3z M95.6,37.9c0.7,7.6-4.9,14.3-12.5,15c-7.6,0.7-14.3-4.9-15-12.5c-0.7-7.6,4.9-14.3,12.5-15
				C88.2,24.8,94.9,30.4,95.6,37.9z"/>
			<linearGradient id="XMLID_38_" gradientUnits="userSpaceOnUse" x1="5.4439" y1="34.3313" x2="86.1902" y2="57.9588">
				<stop  offset="1.137031e-03" style="stop-color:#3D31E6"/>
				<stop  offset="1" style="stop-color:#3D90FB"/>
			</linearGradient>
			<path id="XMLID_576_" class="st2" d="M14.9,22.3H4.1v26.9h10.8C32.4,49.3,33.2,22.3,14.9,22.3z M15.6,53.4H3.5
				c-1.7,0-3.5-0.9-3.5-3.2V21.4c0-1.8,1.8-3.2,3.5-3.2h11.6C38.4,18.2,37.9,53.4,15.6,53.4z"/>
		</g>
		<g id="XMLID_3_">
			<g id="XMLID_5_">
				<g id="XMLID_10_">
					<path id="XMLID_549_" class="st3" d="M176.1,53.6h-0.8c-0.9,0-1.7-0.8-1.7-1.7V24.6c0-0.9,0.7-1.7,1.7-1.7h0.8
						c0.9,0,1.7,0.8,1.7,1.7v27.2C177.8,52.8,177.1,53.6,176.1,53.6"/>
					<circle id="XMLID_11_" class="st3" cx="175.7" cy="18.4" r="2"/>
				</g>
				<path id="XMLID_9_" class="st4" d="M195.7,25.5c-7,0-12.7,5.7-12.7,12.7v5.1v6.1v2.3c0,0.8,0.6,1.4,1.4,1.4h1
					c0.8,0,1.4-0.6,1.4-1.4v-2.3h0V38.2c0-4.9,4-8.9,8.9-8.9s8.9,4,8.9,8.9v11.2h0v2.3c0,0.8,0.6,1.4,1.4,1.4h1
					c0.8,0,1.4-0.6,1.4-1.4v-2.3v-6.1v-5.1C208.4,31.2,202.7,25.5,195.7,25.5z"/>
				<path id="XMLID_546_" class="st3" d="M164.2,38.3c-0.5-5.3-5.2-9.2-10.5-8.7c-5.3,0.5-9.2,5.2-8.7,10.5
					c0.5,5.3,5.2,9.2,10.5,8.7C160.8,48.3,164.7,43.6,164.2,38.3z M168.4,37.9c0.7,7.6-4.9,14.3-12.5,15c-7.6,0.7-14.3-4.9-15-12.5
					c-0.7-7.6,4.9-14.3,12.5-15C160.9,24.8,167.7,30.4,168.4,37.9z"/>
			</g>
			<path id="XMLID_4_" class="st4" d="M135.7,43.1c0.6-1,0.2-2.4-0.8-3.1c-1-0.7-2.3-0.5-2.9,0.5l-1.4,2.4
				c-2.6,4.1-6.5,6.2-11.7,6.3c-3.7,0.1-6.8-1.2-9.5-3.8c-2.7-2.7-4-5.8-4-9.4s1.4-6.8,4.3-9.5c2.8-2.6,5.8-3.8,9.3-3.8
				c5.2,0.1,9,2.4,11.6,6.7c0.3,0.5,0.5,0.8,1,1.1c0.5,0.3,1,0.2,1.6,0.2c0.5,0,1.2-0.2,1.6-0.4c0.2-0.2,0.4-0.4,0.5-0.7
				c0.1-0.3,0-0.6-0.1-0.9c-0.2-0.6-0.5-1.2-0.8-1.8c-0.6-1.2-1.5-2.2-2.4-3.1c-0.4-0.3-0.7-0.7-1.1-1c-0.2-0.2-0.5-0.4-0.7-0.6
				c-0.5-0.4-0.9-0.7-1.5-1.1c-3.1-1.9-6.4-2.8-9.9-2.8c-5,0.1-9.2,1.9-12.8,5.4c-3.5,3.5-5.2,7.6-5.2,12.5c0.1,4.8,1.8,9,5.4,12.3
				c3.5,3.4,7.7,5.1,12.6,5.1c6.2,0,11-2.2,14.5-6.7c0.6-0.8,1.2-1.7,1.8-2.7L135.7,43.1z"/>
		</g>
	</g>
</g>
</svg>
