<?xml version="1.0" encoding="utf-8"?>
<!-- Generator: Adobe Illustrator 19.0.0, SVG Export Plug-In . SVG Version: 6.00 Build 0)  -->
<svg version="1.1" id="图层_1" xmlns="http://www.w3.org/2000/svg" xmlns:xlink="http://www.w3.org/1999/xlink" x="0px" y="0px"
	 viewBox="0 0 300 72.1" style="enable-background:new 0 0 300 72.1;" xml:space="preserve">
<style type="text/css">
	.st0{fill:url(#XMLID_24_);}
	.st1{clip-path:url(#XMLID_25_);}
	.st2{clip-path:url(#XMLID_26_);fill:#FFFFFF;}
	.st3{fill-rule:evenodd;clip-rule:evenodd;fill:url(#XMLID_27_);}
	.st4{fill-rule:evenodd;clip-rule:evenodd;fill:url(#XMLID_28_);}
	.st5{fill-rule:evenodd;clip-rule:evenodd;fill:url(#XMLID_29_);}
	.st6{fill-rule:evenodd;clip-rule:evenodd;fill:#384C93;}
	.st7{fill:#384C93;}
</style>
<g id="XMLID_21_">
	<g id="XMLID_23_">
		<linearGradient id="XMLID_24_" gradientUnits="userSpaceOnUse" x1="28.4497" y1="16.2232" x2="47.0305" y2="65.772">
			<stop  offset="1.137031e-03" style="stop-color:#3D31E6"/>
			<stop  offset="1" style="stop-color:#3D90FB"/>
		</linearGradient>
		<circle id="XMLID_424_" class="st0" cx="35.9" cy="36" r="35.8"/>
		<g id="XMLID_417_">
			<defs>
				<path id="XMLID_418_" d="M29.8,26c-0.8,0-1.4,0.6-1.4,1.4v17.2c0,0.8,0.6,1.4,1.4,1.4h6.3c5.8,0,10.6-4.5,10.6-10
					c0-5.5-4.7-10-10.6-10H29.8z M34,51.1h-2.9v2.5c0,0.4-0.3,0.7-0.7,0.7h-1.8c-0.4,0-0.7-0.3-0.7-0.7v-2.5h-3.1
					c-0.8,0-1.4-0.6-1.4-1.4V22.4c0-0.8,0.6-1.4,1.4-1.4h3.1v-2.5c0-0.4,0.3-0.7,0.7-0.7h1.8c0.4,0,0.7,0.3,0.7,0.7V21H34v-2.5
					c0-0.4,0.3-0.7,0.7-0.7h1.8c0.4,0,0.7,0.3,0.7,0.7V21C45.5,21.6,52,28.1,52,36s-6.5,14.4-14.8,15v2.6c0,0.4-0.3,0.7-0.7,0.7
					h-1.8c-0.4,0-0.7-0.3-0.7-0.7V51.1z"/>
			</defs>
			<clipPath id="XMLID_25_">
				<use xlink:href="#XMLID_418_"  style="overflow:visible;"/>
			</clipPath>
			<g id="XMLID_421_" class="st1">
				<defs>
					<rect id="XMLID_422_" x="-179.5" y="-97.6" width="1010.5" height="537.5"/>
				</defs>
				<clipPath id="XMLID_26_">
					<use xlink:href="#XMLID_422_"  style="overflow:visible;"/>
				</clipPath>
				<rect id="XMLID_423_" x="21.5" y="16" class="st2" width="32.3" height="40.1"/>
			</g>
		</g>
	</g>
	<g id="XMLID_2_">
		<g id="XMLID_550_">
			<linearGradient id="XMLID_27_" gradientUnits="userSpaceOnUse" x1="130.1487" y1="35.2163" x2="158.6753" y2="43.5636">
				<stop  offset="1.137031e-03" style="stop-color:#3D31E6"/>
				<stop  offset="1" style="stop-color:#3D90FB"/>
			</linearGradient>
			<path id="XMLID_582_" class="st3" d="M151.9,52.7c-0.9,0-1.7-0.7-1.7-1.6V28.5c0-0.9,0.7-1.6,1.7-1.6h0.8c0.9,0,1.7,0.7,1.7,1.6
				v22.6c0,0.9-0.7,1.6-1.7,1.6H151.9z M148.9,51c-1.8,1.1-3.8,1.8-6,2c-7.6,0.7-14.3-4.9-15-12.5c-0.7-7.6,4.9-14.3,12.5-15
				c3.1-0.3,6.1,0.5,8.5,2v5.4c-2-2.2-4.9-3.5-8.1-3.2c-5.3,0.5-9.2,5.2-8.7,10.5c0.5,5.3,5.2,9.2,10.5,8.7c2.6-0.2,4.8-1.4,6.4-3.2
				V51z"/>
			<linearGradient id="XMLID_28_" gradientUnits="userSpaceOnUse" x1="160.1465" y1="35.3185" x2="182.6235" y2="41.8955">
				<stop  offset="1.137031e-03" style="stop-color:#3D31E6"/>
				<stop  offset="1" style="stop-color:#3D90FB"/>
			</linearGradient>
			<path id="XMLID_579_" class="st4" d="M183.1,38.3c-0.5-5.3-5.2-9.2-10.5-8.7c-5.3,0.5-9.2,5.2-8.7,10.5c0.5,5.3,5.2,9.2,10.5,8.7
				C179.6,48.3,183.5,43.6,183.1,38.3z M187.2,37.9c0.7,7.6-4.9,14.3-12.5,15c-7.6,0.7-14.3-4.9-15-12.5c-0.7-7.6,4.9-14.3,12.5-15
				C179.7,24.8,186.5,30.4,187.2,37.9z"/>
			<linearGradient id="XMLID_29_" gradientUnits="userSpaceOnUse" x1="97.0233" y1="34.3313" x2="177.7695" y2="57.9588">
				<stop  offset="1.137031e-03" style="stop-color:#3D31E6"/>
				<stop  offset="1" style="stop-color:#3D90FB"/>
			</linearGradient>
			<path id="XMLID_576_" class="st5" d="M106.5,22.3H95.7v26.9h10.8C124,49.3,124.7,22.3,106.5,22.3z M107.2,53.4H95.1
				c-1.7,0-3.5-0.9-3.5-3.2V21.4c0-1.8,1.8-3.2,3.5-3.2h11.6C130,18.2,129.5,53.4,107.2,53.4z"/>
		</g>
		<g id="XMLID_3_">
			<g id="XMLID_5_">
				<g id="XMLID_10_">
					<path id="XMLID_549_" class="st6" d="M267.7,53.6h-0.8c-0.9,0-1.7-0.8-1.7-1.7V24.6c0-0.9,0.7-1.7,1.7-1.7h0.8
						c0.9,0,1.7,0.8,1.7,1.7v27.2C269.4,52.8,268.6,53.6,267.7,53.6"/>
					<circle id="XMLID_11_" class="st6" cx="267.3" cy="18.4" r="2"/>
				</g>
				<path id="XMLID_9_" class="st7" d="M287.3,25.5c-7,0-12.7,5.7-12.7,12.7v5.1v6.1v2.3c0,0.8,0.6,1.4,1.4,1.4h1
					c0.8,0,1.4-0.6,1.4-1.4v-2.3h0V38.2c0-4.9,4-8.9,8.9-8.9s8.9,4,8.9,8.9v11.2h0v2.3c0,0.8,0.6,1.4,1.4,1.4h1
					c0.8,0,1.4-0.6,1.4-1.4v-2.3v-6.1v-5.1C300,31.2,294.3,25.5,287.3,25.5z"/>
				<path id="XMLID_546_" class="st6" d="M255.8,38.3c-0.5-5.3-5.2-9.2-10.5-8.7c-5.3,0.5-9.2,5.2-8.7,10.5
					c0.5,5.3,5.2,9.2,10.5,8.7C252.4,48.3,256.3,43.6,255.8,38.3z M259.9,37.9c0.7,7.6-4.9,14.3-12.5,15c-7.6,0.7-14.3-4.9-15-12.5
					c-0.7-7.6,4.9-14.3,12.5-15C252.5,24.8,259.2,30.4,259.9,37.9z"/>
			</g>
			<path id="XMLID_4_" class="st7" d="M227.3,43.1c0.6-1,0.2-2.4-0.8-3.1c-1-0.7-2.3-0.5-2.9,0.5l-1.4,2.4
				c-2.6,4.1-6.5,6.2-11.7,6.3c-3.7,0.1-6.8-1.2-9.5-3.8c-2.7-2.7-4-5.8-4-9.4s1.4-6.8,4.3-9.5c2.8-2.6,5.8-3.8,9.3-3.8
				c5.2,0.1,9,2.4,11.6,6.7c0.3,0.5,0.5,0.8,1,1.1c0.5,0.3,1,0.2,1.6,0.2c0.5,0,1.2-0.2,1.6-0.4c0.2-0.2,0.4-0.4,0.5-0.7
				c0.1-0.3,0-0.6-0.1-0.9c-0.2-0.6-0.5-1.2-0.8-1.8c-0.6-1.2-1.5-2.2-2.4-3.1c-0.4-0.3-0.7-0.7-1.1-1c-0.2-0.2-0.5-0.4-0.7-0.6
				c-0.5-0.4-0.9-0.7-1.5-1.1c-3.1-1.9-6.4-2.8-9.9-2.8c-5,0.1-9.2,1.9-12.8,5.4c-3.5,3.5-5.2,7.6-5.2,12.5c0.1,4.8,1.8,9,5.4,12.3
				c3.5,3.4,7.7,5.1,12.6,5.1c6.2,0,11-2.2,14.5-6.7c0.6-0.8,1.2-1.7,1.8-2.7L227.3,43.1z"/>
		</g>
	</g>
</g>
</svg>
