<?xml version="1.0" encoding="utf-8"?>
<!-- Generator: Adobe Illustrator 19.0.0, SVG Export Plug-In . SVG Version: 6.00 Build 0)  -->
<svg version="1.1" id="图层_1" xmlns="http://www.w3.org/2000/svg" xmlns:xlink="http://www.w3.org/1999/xlink" x="0px" y="0px"
	 viewBox="0 0 300 180" style="enable-background:new 0 0 300 180;" xml:space="preserve">
<style type="text/css">
	.st0{fill:#FFFFFF;}
	.st1{fill-rule:evenodd;clip-rule:evenodd;fill:#FFFFFF;}
</style>
<g id="XMLID_1_">
	<g id="XMLID_23_">
		<path id="XMLID_27_" class="st0" d="M37.3,80.1H31c-0.8,0-1.4,0.6-1.4,1.4v17c0,0.8,0.6,1.4,1.4,1.4h6.2c5.8,0,10.4-4.4,10.4-9.9
			C47.7,84.5,43,80.1,37.3,80.1z"/>
		<path id="XMLID_24_" class="st0" d="M37.1,54.5C17.5,54.5,1.6,70.4,1.6,90c0,19.6,15.9,35.5,35.5,35.5S72.5,109.6,72.5,90
			C72.5,70.4,56.6,54.5,37.1,54.5z M38.3,104.9v2.5c0,0.4-0.3,0.7-0.7,0.7h-1.8c-0.4,0-0.7-0.3-0.7-0.7v-2.5h-2.8v2.5
			c0,0.4-0.3,0.7-0.7,0.7h-1.8c-0.4,0-0.7-0.3-0.7-0.7v-2.5h-3.1c-0.8,0-1.4-0.6-1.4-1.4v-27c0-0.8,0.6-1.4,1.4-1.4h3.1v-2.5
			c0-0.4,0.3-0.7,0.7-0.7h1.8c0.4,0,0.7,0.3,0.7,0.7v2.5h2.8v-2.5c0-0.4,0.3-0.7,0.7-0.7h1.8c0.4,0,0.7,0.3,0.7,0.7v2.5
			C46.6,75.7,53,82.2,53,90S46.6,104.3,38.3,104.9z"/>
	</g>
	<g id="XMLID_2_">
		<g id="XMLID_440_">
			<path id="XMLID_650_" class="st1" d="M151.9,106.5c-0.9,0-1.6-0.7-1.6-1.6V82.5c0-0.9,0.7-1.6,1.6-1.6h0.8c0.9,0,1.6,0.7,1.6,1.6
				v22.4c0,0.9-0.7,1.6-1.6,1.6H151.9z M148.9,104.8c-1.7,1.1-3.7,1.8-5.9,2c-7.5,0.7-14.2-4.8-14.9-12.4
				c-0.7-7.5,4.8-14.2,12.4-14.9c3.1-0.3,6,0.5,8.4,2v5.3c-2-2.2-4.9-3.5-8.1-3.2c-5.3,0.5-9.1,5.1-8.6,10.4
				c0.5,5.3,5.1,9.1,10.4,8.6c2.5-0.2,4.7-1.4,6.3-3.2V104.8z"/>
			<path id="XMLID_623_" class="st1" d="M182.7,92.3c-0.5-5.3-5.1-9.1-10.4-8.6c-5.3,0.5-9.1,5.1-8.6,10.4c0.5,5.3,5.1,9.1,10.4,8.6
				C179.3,102.2,183.2,97.5,182.7,92.3z M186.8,91.9c0.7,7.5-4.8,14.2-12.4,14.9c-7.5,0.7-14.2-4.8-14.9-12.4
				c-0.7-7.5,4.8-14.2,12.4-14.9C179.4,78.8,186.1,84.4,186.8,91.9z"/>
			<path id="XMLID_592_" class="st1" d="M106.9,76.5H96.3v26.6h10.6C124.2,103.1,125,76.5,106.9,76.5z M107.6,107.2h-12
				c-1.7,0-3.5-0.9-3.5-3.1V75.5c0-1.8,1.8-3.1,3.5-3.1h11.5C130.2,72.4,129.7,107.2,107.6,107.2z"/>
		</g>
		<g id="XMLID_3_">
			<g id="XMLID_5_">
				<g id="XMLID_10_">
					<path id="XMLID_438_" class="st1" d="M266.5,107.4h-0.8c-0.9,0-1.6-0.8-1.6-1.7V78.7c0-0.9,0.7-1.7,1.6-1.7h0.8
						c0.9,0,1.6,0.8,1.6,1.7v26.9C268.1,106.6,267.4,107.4,266.5,107.4"/>
					<circle id="XMLID_11_" class="st1" cx="266" cy="72.5" r="2"/>
				</g>
				<path id="XMLID_9_" class="st0" d="M285.9,79.6c-6.9,0-12.5,5.6-12.5,12.5v5v6.1v2.3c0,0.8,0.6,1.4,1.4,1.4h0.9
					c0.8,0,1.4-0.6,1.4-1.4v-2.3h0V92.1c0-4.9,4-8.8,8.8-8.8s8.8,4,8.8,8.8v11.1h0v2.3c0,0.8,0.6,1.4,1.4,1.4h0.9
					c0.8,0,1.4-0.6,1.4-1.4v-2.3v-6.1v-5C298.4,85.2,292.8,79.6,285.9,79.6z"/>
				<path id="XMLID_364_" class="st1" d="M254.7,92.3c-0.5-5.3-5.1-9.1-10.4-8.6c-5.3,0.5-9.1,5.1-8.6,10.4
					c0.5,5.3,5.1,9.1,10.4,8.6C251.3,102.2,255.2,97.5,254.7,92.3z M258.8,91.9c0.7,7.5-4.8,14.2-12.4,14.9
					c-7.5,0.7-14.2-4.8-14.9-12.4c-0.7-7.5,4.8-14.2,12.4-14.9C251.4,78.8,258.1,84.4,258.8,91.9z"/>
			</g>
			<path id="XMLID_4_" class="st0" d="M226.5,97c0.6-1,0.2-2.4-0.8-3.1s-2.3-0.4-2.9,0.5l-1.4,2.4c-2.6,4-6.4,6.1-11.6,6.2
				c-3.6,0.1-6.8-1.2-9.4-3.8c-2.6-2.6-4-5.7-4-9.3s1.4-6.8,4.3-9.4c2.7-2.6,5.8-3.8,9.2-3.7c5.1,0.1,8.9,2.3,11.4,6.6
				c0.3,0.5,0.5,0.8,1,1.1c0.5,0.2,1,0.2,1.6,0.2c0.5,0,1.2-0.2,1.6-0.4c0.2-0.2,0.4-0.4,0.5-0.7c0.1-0.3,0-0.6-0.1-0.9
				c-0.2-0.6-0.4-1.2-0.8-1.8c-0.6-1.1-1.5-2.2-2.4-3.1c-0.4-0.3-0.7-0.7-1.1-1c-0.2-0.2-0.5-0.4-0.7-0.6c-0.5-0.4-0.9-0.7-1.5-1
				c-3-1.9-6.3-2.8-9.8-2.7c-4.9,0.1-9.1,1.9-12.7,5.3c-3.5,3.4-5.2,7.5-5.1,12.4c0.1,4.8,1.8,8.9,5.3,12.2c3.5,3.3,7.6,5,12.5,5.1
				c6.1,0,10.9-2.2,14.3-6.7c0.6-0.8,1.2-1.7,1.8-2.7L226.5,97z"/>
		</g>
	</g>
</g>
</svg>
