<?xml version="1.0" encoding="utf-8"?>
<!-- Generator: Adobe Illustrator 19.0.0, SVG Export Plug-In . SVG Version: 6.00 Build 0)  -->
<svg version="1.1" id="图层_1" xmlns="http://www.w3.org/2000/svg" xmlns:xlink="http://www.w3.org/1999/xlink" x="0px" y="0px"
	 viewBox="64 4.9 208.4 72.1" style="enable-background:new 64 4.9 208.4 72.1;" xml:space="preserve">
<style type="text/css">
	.st0{fill-rule:evenodd;clip-rule:evenodd;fill:url(#XMLID_2_);}
	.st1{fill-rule:evenodd;clip-rule:evenodd;fill:url(#XMLID_3_);}
	.st2{fill-rule:evenodd;clip-rule:evenodd;fill:url(#XMLID_4_);}
	.st3{fill-rule:evenodd;clip-rule:evenodd;fill:#384C93;}
</style>
<g>
	<g id="XMLID_721_">
		<linearGradient id="XMLID_2_" gradientUnits="userSpaceOnUse" x1="103.6688" y1="40.3456" x2="132.9893" y2="48.9252">
			<stop  offset="1.137031e-03" style="stop-color:#3D31E6"/>
			<stop  offset="1" style="stop-color:#3D90FB"/>
		</linearGradient>
		<path id="XMLID_729_" class="st0" d="M126,58.3c-0.9,0-1.7-0.8-1.7-1.7l0-23.2c0-0.9,0.8-1.7,1.7-1.7h0.9c0.9,0,1.7,0.8,1.7,1.7
			v23.2c0,0.9-0.8,1.7-1.7,1.7H126z M122.9,56.6c-1.8,1.1-3.9,1.8-6.1,2.1c-7.8,0.7-14.7-5-15.4-12.8c-0.7-7.8,5-14.7,12.8-15.4
			c3.2-0.3,6.2,0.5,8.8,2.1l0,5.5c-2-2.3-5.1-3.6-8.4-3.3c-5.5,0.5-9.5,5.3-9,10.8c0.5,5.5,5.3,9.5,10.8,9c2.6-0.2,4.9-1.5,6.5-3.3
			V56.6z"/>
		<linearGradient id="XMLID_3_" gradientUnits="userSpaceOnUse" x1="134.5015" y1="40.4506" x2="157.6041" y2="47.2108">
			<stop  offset="1.137031e-03" style="stop-color:#3D31E6"/>
			<stop  offset="1" style="stop-color:#3D90FB"/>
		</linearGradient>
		<path id="XMLID_725_" class="st1" d="M158.1,43.5c-0.5-5.5-5.3-9.5-10.8-9c-5.5,0.5-9.5,5.3-9,10.8c0.5,5.5,5.3,9.5,10.8,9
			C154.5,53.8,158.6,49,158.1,43.5z M162.3,43.1c0.7,7.8-5,14.7-12.8,15.4c-7.8,0.7-14.7-5-15.4-12.8c-0.7-7.8,5-14.7,12.8-15.4
			C154.6,29.6,161.6,35.4,162.3,43.1z"/>
		<linearGradient id="XMLID_4_" gradientUnits="userSpaceOnUse" x1="69.6214" y1="39.436" x2="152.615" y2="63.7211">
			<stop  offset="1.137031e-03" style="stop-color:#3D31E6"/>
			<stop  offset="1" style="stop-color:#3D90FB"/>
		</linearGradient>
		<path id="XMLID_722_" class="st2" d="M79.3,27.1l-11.1,0v27.7l11.1,0C97.3,54.8,98.1,27.1,79.3,27.1z M80.1,59l-12.4,0
			c-1.7,0-3.6-0.9-3.6-3.2l0-29.7c0-1.9,1.9-3.2,3.6-3.2l12,0C103.5,22.9,103,59,80.1,59z"/>
	</g>
	<g>
		<g id="XMLID_733_">
			<path id="XMLID_734_" class="st3" d="M241.5,59.2h-0.7c-0.8,0-1.4-0.7-1.4-1.5V24c0-0.8,0.6-1.5,1.4-1.5h0.7
				c0.8,0,1.4,0.7,1.4,1.5v33.8C242.9,58.6,242.3,59.2,241.5,59.2"/>
		</g>
		<path class="st3" d="M207.7,42.3l-4.9,0l-18.8,0c-0.7,0-1.3,0.6-1.3,1.3v0.6c0,0.7,0.6,1.3,1.3,1.3l15.7,0l3.5,0
			c0.2,0,0.3,0.2,0.3,0.4c-1.1,2.8-3,5.2-5.8,7.2c-2.9,2.1-5.8,3-8.8,2.8c-4.4-0.3-8.1-1.8-11-4.7c-3-2.9-4.5-6.4-4.4-10.5
			c0.1-4.1,1.7-7.6,4.7-10.5c2.9-2.8,6.4-4.2,10.4-4.3c5.5,0,9.8,2.1,12.9,6.6c0,0,0,0,0,0c0.3,0.3,1,0.6,1.8,0.6
			c0.9,0,1.7-0.2,1.9-0.6c0,0,0.1-0.1,0.1-0.1c0,0,0,0,0-0.1c0,0,0,0,0-0.1c0,0,0-0.1,0-0.1c-1.9-3.4-4.2-5.8-6.9-7.4
			c-2.6-1.5-5.9-2.2-9.7-2.2c-5.3,0-9.7,1.8-13.3,5.3c-3.6,3.5-5.4,7.8-5.4,13c0,5,1.8,9.4,5.6,12.9c3.8,3.6,8.2,5.4,13.4,5.4
			c4.2,0,8-1.3,11.6-3.9c4.2-3.1,6.5-7.3,7.2-12.7C208.1,42.5,207.9,42.3,207.7,42.3z"/>
		<path class="st3" d="M223.8,31.7c-3.8-0.1-7,1.2-9.8,4c-3,3-4.4,6.7-4.1,11c0.2,2.8,1.2,5.5,3,7.6c2.7,3.2,6,4.9,10,5
			c3.8,0.1,7-1.2,9.8-3.9c2.8-2.8,4.1-6,4.1-9.8c0-3.7-1.3-6.9-3.8-9.5C230.6,33.2,227.5,31.8,223.8,31.7z M230.5,52.8
			c-2,2.2-4.5,3.1-7.4,3c-2.7-0.1-5-1.2-6.9-3.2c-2.3-2.5-3.1-5.6-2.6-9.1c0.2-1.5,0.9-3,1.8-4.2c2.2-2.7,4.8-4.1,8.1-4.1
			c2.7,0,4.9,1,6.8,2.9c1.9,2,2.9,4.3,3,7.1C233.5,48.1,232.6,50.6,230.5,52.8z"/>
		<path class="st3" d="M272.3,23.8c-0.1-0.7-0.7-1.2-1.4-1.2h-0.7c-0.8,0-1.4,0.6-1.4,1.4v12.4c-2.6-2.9-5.8-4.4-9.6-4.6
			c-3.8-0.1-7,1.2-9.8,4c-3,3-4.4,6.7-4.1,11.1c0.2,2.7,1.2,5.4,3,7.5c2.7,3.2,6.1,4.9,10.1,5c3.8,0.1,7-1.2,9.9-3.9
			c2.8-2.8,4.1-6,4.1-9.8L272.3,23.8z M265.9,52.9c-2,2.2-4.5,3.1-7.4,3c-2.7-0.1-5-1.2-6.9-3.2c-2-2.2-2.9-4.7-2.8-7.7
			c0.1-2.5,1.2-4.9,2.9-6.7c2-2,4.4-3,7.2-3c2.7,0,5,1,6.9,2.9c1.9,2,2.9,4.3,2.9,7.1C268.9,48.2,267.9,50.7,265.9,52.9z"/>
	</g>
</g>
</svg>
