<?xml version="1.0" encoding="utf-8"?>
<!-- Generator: Adobe Illustrator 19.0.0, SVG Export Plug-In . SVG Version: 6.00 Build 0)  -->
<svg version="1.1" id="图层_1" xmlns="http://www.w3.org/2000/svg" xmlns:xlink="http://www.w3.org/1999/xlink" x="0px" y="0px"
	 viewBox="110 4.9 300 72.1" style="enable-background:new 110 4.9 300 72.1;" xml:space="preserve">
<style type="text/css">
	.st0{fill-rule:evenodd;clip-rule:evenodd;fill:url(#XMLID_2_);}
	.st1{fill-rule:evenodd;clip-rule:evenodd;fill:url(#XMLID_3_);}
	.st2{fill-rule:evenodd;clip-rule:evenodd;fill:url(#XMLID_4_);}
	.st3{fill:url(#XMLID_5_);}
	.st4{clip-path:url(#XMLID_6_);}
	.st5{clip-path:url(#XMLID_7_);fill:#FFFFFF;}
	.st6{fill-rule:evenodd;clip-rule:evenodd;fill:#384C93;}
</style>
<g>
	<g id="XMLID_721_">
		<linearGradient id="XMLID_2_" gradientUnits="userSpaceOnUse" x1="243.09" y1="40.3595" x2="271.663" y2="48.7203">
			<stop  offset="1.137031e-03" style="stop-color:#3D31E6"/>
			<stop  offset="1" style="stop-color:#3D90FB"/>
		</linearGradient>
		<path id="XMLID_729_" class="st0" d="M264.9,57.9c-0.9,0-1.7-0.7-1.7-1.6V33.6c0-0.9,0.7-1.6,1.7-1.6h0.8c0.9,0,1.7,0.7,1.7,1.6
			v22.6c0,0.9-0.7,1.6-1.7,1.6H264.9z M261.9,56.2c-1.8,1.1-3.8,1.8-6,2c-7.6,0.7-14.3-4.9-15-12.5c-0.7-7.6,4.9-14.3,12.5-15
			c3.1-0.3,6.1,0.5,8.5,2V38c-2-2.2-5-3.5-8.2-3.2c-5.3,0.5-9.2,5.2-8.7,10.5c0.5,5.3,5.2,9.2,10.5,8.7c2.6-0.2,4.8-1.4,6.4-3.2
			V56.2z"/>
		<linearGradient id="XMLID_3_" gradientUnits="userSpaceOnUse" x1="273.1367" y1="40.4618" x2="295.6503" y2="47.0496">
			<stop  offset="1.137031e-03" style="stop-color:#3D31E6"/>
			<stop  offset="1" style="stop-color:#3D90FB"/>
		</linearGradient>
		<path id="XMLID_725_" class="st1" d="M296.1,43.5c-0.5-5.3-5.2-9.2-10.5-8.7c-5.3,0.5-9.2,5.2-8.7,10.5c0.5,5.3,5.2,9.2,10.5,8.7
			C292.7,53.5,296.6,48.8,296.1,43.5z M300.2,43.1c0.7,7.6-4.9,14.3-12.5,15c-7.6,0.7-14.3-4.9-15-12.5c-0.7-7.6,4.9-14.3,12.5-15
			C292.8,29.9,299.5,35.5,300.2,43.1z"/>
		<linearGradient id="XMLID_4_" gradientUnits="userSpaceOnUse" x1="209.9105" y1="39.473" x2="290.7884" y2="63.139">
			<stop  offset="1.137031e-03" style="stop-color:#3D31E6"/>
			<stop  offset="1" style="stop-color:#3D90FB"/>
		</linearGradient>
		<path id="XMLID_722_" class="st2" d="M219.4,27.5h-10.8v27h10.8C236.9,54.4,237.7,27.5,219.4,27.5z M220.1,58.6H208
			c-1.7,0-3.5-0.9-3.5-3.2V26.5c0-1.8,1.8-3.2,3.5-3.2h11.7C242.9,23.3,242.4,58.6,220.1,58.6z"/>
	</g>
	<linearGradient id="XMLID_5_" gradientUnits="userSpaceOnUse" x1="140.96" y1="21.1141" x2="159.5711" y2="70.7437">
		<stop  offset="1.137031e-03" style="stop-color:#3D31E6"/>
		<stop  offset="1" style="stop-color:#3D90FB"/>
	</linearGradient>
	<circle id="XMLID_720_" class="st3" cx="148.4" cy="41" r="35.9"/>
	<g id="XMLID_366_">
		<defs>
			<path id="XMLID_710_" d="M142.3,30.9c-0.8,0-1.4,0.6-1.4,1.4v17.2c0,0.8,0.6,1.4,1.4,1.4h6.3c5.8,0,10.6-4.5,10.6-10.1
				c0-5.6-4.7-10.1-10.6-10.1H142.3z M146.5,56h-2.9v2.5c0,0.4-0.3,0.7-0.7,0.7h-1.8c-0.4,0-0.7-0.3-0.7-0.7V56h-3.1
				c-0.8,0-1.4-0.6-1.4-1.4V27.3c0-0.8,0.6-1.4,1.4-1.4h3.1v-2.5c0-0.4,0.3-0.7,0.7-0.7h1.8c0.4,0,0.7,0.3,0.7,0.7v2.5h2.9v-2.5
				c0-0.4,0.3-0.7,0.7-0.7h1.8c0.4,0,0.7,0.3,0.7,0.7v2.6c8.3,0.6,14.8,7.1,14.8,15s-6.5,14.4-14.8,15v2.6c0,0.4-0.3,0.7-0.7,0.7
				h-1.8c-0.4,0-0.7-0.3-0.7-0.7V56z"/>
		</defs>
		<clipPath id="XMLID_6_">
			<use xlink:href="#XMLID_710_"  style="overflow:visible;"/>
		</clipPath>
		<g id="XMLID_714_" class="st4">
			<defs>
				<rect id="XMLID_715_" x="-67.3" y="-92.9" width="1012.2" height="538.4"/>
			</defs>
			<clipPath id="XMLID_7_">
				<use xlink:href="#XMLID_715_"  style="overflow:visible;"/>
			</clipPath>
			<rect id="XMLID_718_" x="134" y="20.8" class="st5" width="32.3" height="40.2"/>
		</g>
	</g>
	<g>
		<g id="XMLID_733_">
			<path id="XMLID_734_" class="st6" d="M377.4,58.8h-0.7c-0.8,0-1.4-0.6-1.4-1.4V24.4c0-0.8,0.6-1.4,1.4-1.4h0.7
				c0.8,0,1.4,0.6,1.4,1.4v32.9C378.8,58.1,378.2,58.8,377.4,58.8"/>
		</g>
		<path class="st6" d="M344.5,42.3l-4.8,0l-18.3,0c-0.7,0-1.2,0.6-1.2,1.2v0.6c0,0.7,0.6,1.2,1.3,1.2h15.3l3.4,0
			c0.2,0,0.3,0.2,0.3,0.4c-1,2.8-2.9,5.1-5.6,7c-2.8,2-5.7,2.9-8.6,2.7c-4.3-0.3-7.9-1.8-10.7-4.5c-2.9-2.8-4.4-6.2-4.3-10.2
			c0.1-4,1.7-7.4,4.6-10.2c2.9-2.7,6.2-4.1,10.1-4.2c5.3,0,9.5,2.1,12.6,6.4c0,0,0,0,0,0c0.3,0.3,0.9,0.5,1.8,0.6
			c0.9,0,1.6-0.2,1.8-0.6c0,0,0.1-0.1,0.1-0.1c0,0,0,0,0-0.1c0,0,0,0,0-0.1c0,0,0-0.1,0-0.1c-1.8-3.3-4.1-5.7-6.7-7.2
			c-2.6-1.4-5.7-2.2-9.4-2.2c-5.1,0-9.4,1.7-13,5.1c-3.5,3.4-5.3,7.6-5.3,12.7c0,4.9,1.8,9.1,5.5,12.6c3.7,3.5,8,5.3,13,5.3
			c4.1,0,7.8-1.3,11.3-3.8c4-3,6.4-7.2,7-12.4C344.8,42.4,344.7,42.3,344.5,42.3z"/>
		<path class="st6" d="M360.2,31.9c-3.7-0.1-6.9,1.2-9.5,3.9c-2.9,2.9-4.2,6.5-4,10.7c0.2,2.7,1.2,5.3,2.9,7.4
			c2.6,3.1,5.9,4.7,9.8,4.8c3.7,0.1,6.9-1.2,9.5-3.8c2.7-2.7,4-5.9,4-9.6c0-3.6-1.3-6.7-3.7-9.3C366.8,33.4,363.8,32.1,360.2,31.9z
			 M366.7,52.5c-2,2.1-4.4,3.1-7.2,2.9c-2.6-0.1-4.8-1.1-6.7-3.1c-2.2-2.5-3-5.4-2.5-8.9c0.2-1.5,0.8-2.9,1.8-4.1
			c2.1-2.7,4.7-4,7.9-4c2.6,0,4.8,0.9,6.6,2.9c1.8,1.9,2.8,4.2,2.9,6.9C369.6,47.9,368.7,50.3,366.7,52.5z"/>
		<path class="st6" d="M407.4,24.2c-0.1-0.7-0.6-1.2-1.3-1.2h-0.7c-0.8,0-1.4,0.6-1.4,1.4v12.1c-2.5-2.8-5.6-4.3-9.3-4.4
			c-3.7-0.1-6.9,1.2-9.5,3.9c-2.9,2.9-4.3,6.5-4,10.8c0.2,2.7,1.2,5.2,2.9,7.3c2.6,3.2,5.9,4.8,9.8,4.9c3.7,0.1,6.9-1.2,9.6-3.8
			c2.7-2.7,4-5.9,4-9.6L407.4,24.2z M401.2,52.6c-2,2.1-4.4,3.1-7.2,2.9c-2.6-0.1-4.9-1.1-6.7-3.1c-1.9-2.1-2.8-4.6-2.7-7.5
			c0.1-2.4,1.1-4.8,2.9-6.5c1.9-2,4.3-3,7-2.9c2.6,0,4.9,0.9,6.7,2.9c1.8,1.9,2.8,4.2,2.9,6.9C404.1,48.1,403.2,50.5,401.2,52.6z"/>
	</g>
</g>
</svg>
