<?xml version="1.0" encoding="utf-8"?>
<!-- Generator: Adobe Illustrator 19.0.0, SVG Export Plug-In . SVG Version: 6.00 Build 0)  -->
<svg version="1.1" id="图层_1" xmlns="http://www.w3.org/2000/svg" xmlns:xlink="http://www.w3.org/1999/xlink" x="0px" y="0px"
	 viewBox="0 0 232.7 42.7" style="enable-background:new 0 0 232.7 42.7;" xml:space="preserve">
<style type="text/css">
	.st0{fill:url(#XMLID_83_);}
	.st1{clip-path:url(#XMLID_84_);}
	.st2{clip-path:url(#XMLID_85_);fill:#FFFFFF;}
	.st3{fill-rule:evenodd;clip-rule:evenodd;fill:url(#XMLID_86_);}
	.st4{fill-rule:evenodd;clip-rule:evenodd;fill:url(#XMLID_87_);}
	.st5{fill-rule:evenodd;clip-rule:evenodd;fill:url(#XMLID_88_);}
	.st6{fill-rule:evenodd;clip-rule:evenodd;fill:#384C93;}
	.st7{fill:#384C93;}
	.st8{fill:none;stroke:#3D90FB;stroke-linecap:round;stroke-linejoin:round;stroke-miterlimit:10;}
</style>
<g id="XMLID_68_">
	<g id="XMLID_34_">
		<linearGradient id="XMLID_83_" gradientUnits="userSpaceOnUse" x1="16.6897" y1="10.3964" x2="26.9513" y2="37.7607">
			<stop  offset="1.137031e-03" style="stop-color:#3D31E6"/>
			<stop  offset="1" style="stop-color:#3D90FB"/>
		</linearGradient>
		<circle id="XMLID_756_" class="st0" cx="20.8" cy="21.3" r="19.8"/>
		<g id="XMLID_749_">
			<defs>
				<path id="XMLID_750_" d="M17.4,15.8c-0.4,0-0.8,0.4-0.8,0.8v9.5c0,0.4,0.4,0.8,0.8,0.8h3.5c3.2,0,5.8-2.5,5.8-5.5
					c0-3.1-2.6-5.5-5.8-5.5H17.4z M19.7,29.6h-1.6V31c0,0.2-0.2,0.4-0.4,0.4h-1c-0.2,0-0.4-0.2-0.4-0.4v-1.4h-1.7
					c-0.4,0-0.8-0.4-0.8-0.8v-15c0-0.4,0.4-0.8,0.8-0.8h1.7v-1.4c0-0.2,0.2-0.4,0.4-0.4h1c0.2,0,0.4,0.2,0.4,0.4V13h1.6v-1.4
					c0-0.2,0.2-0.4,0.4-0.4h1c0.2,0,0.4,0.2,0.4,0.4V13c4.6,0.3,8.2,3.9,8.2,8.3s-3.6,8-8.2,8.3V31c0,0.2-0.2,0.4-0.4,0.4h-1
					c-0.2,0-0.4-0.2-0.4-0.4V29.6z"/>
			</defs>
			<clipPath id="XMLID_84_">
				<use xlink:href="#XMLID_750_"  style="overflow:visible;"/>
			</clipPath>
			<g id="XMLID_753_" class="st1">
				<defs>
					<rect id="XMLID_754_" x="-98.1" y="-52.5" width="558.1" height="296.9"/>
				</defs>
				<clipPath id="XMLID_85_">
					<use xlink:href="#XMLID_754_"  style="overflow:visible;"/>
				</clipPath>
				<rect id="XMLID_755_" x="12.9" y="10.3" class="st2" width="17.8" height="22.2"/>
			</g>
		</g>
	</g>
	<g id="XMLID_13_">
		<g id="XMLID_686_">
			<linearGradient id="XMLID_86_" gradientUnits="userSpaceOnUse" x1="72.855" y1="20.8857" x2="88.6094" y2="25.4956">
				<stop  offset="1.137031e-03" style="stop-color:#3D31E6"/>
				<stop  offset="1" style="stop-color:#3D90FB"/>
			</linearGradient>
			<path id="XMLID_746_" class="st3" d="M84.9,30.6c-0.5,0-0.9-0.4-0.9-0.9V17.2c0-0.5,0.4-0.9,0.9-0.9h0.5c0.5,0,0.9,0.4,0.9,0.9
				v12.5c0,0.5-0.4,0.9-0.9,0.9H84.9z M83.2,29.6c-1,0.6-2.1,1-3.3,1.1c-4.2,0.4-7.9-2.7-8.3-6.9c-0.4-4.2,2.7-7.9,6.9-8.3
				c1.7-0.2,3.3,0.3,4.7,1.1v3c-1.1-1.2-2.7-1.9-4.5-1.8c-2.9,0.3-5.1,2.9-4.8,5.8c0.3,2.9,2.9,5.1,5.8,4.8c1.4-0.1,2.6-0.8,3.5-1.8
				V29.6z"/>
			<linearGradient id="XMLID_87_" gradientUnits="userSpaceOnUse" x1="89.4219" y1="20.9421" x2="101.8352" y2="24.5744">
				<stop  offset="1.137031e-03" style="stop-color:#3D31E6"/>
				<stop  offset="1" style="stop-color:#3D90FB"/>
			</linearGradient>
			<path id="XMLID_738_" class="st4" d="M102.1,22.6c-0.3-2.9-2.9-5.1-5.8-4.8c-2.9,0.3-5.1,2.9-4.8,5.8c0.3,2.9,2.9,5.1,5.8,4.8
				C100.2,28.1,102.3,25.5,102.1,22.6z M104.4,22.4c0.4,4.2-2.7,7.9-6.9,8.3c-4.2,0.4-7.9-2.7-8.3-6.9c-0.4-4.2,2.7-7.9,6.9-8.3
				C100.2,15.1,104,18.2,104.4,22.4z"/>
			<linearGradient id="XMLID_88_" gradientUnits="userSpaceOnUse" x1="54.5608" y1="20.3969" x2="99.1545" y2="33.4457">
				<stop  offset="1.137031e-03" style="stop-color:#3D31E6"/>
				<stop  offset="1" style="stop-color:#3D90FB"/>
			</linearGradient>
			<path id="XMLID_687_" class="st5" d="M59.8,13.8h-5.9v14.9h5.9C69.4,28.6,69.9,13.8,59.8,13.8z M60.2,30.9h-6.7
				c-0.9,0-1.9-0.5-1.9-1.7v-16c0-1,1-1.7,1.9-1.7h6.4C72.8,11.5,72.5,30.9,60.2,30.9z"/>
		</g>
		<g id="XMLID_14_">
			<g id="XMLID_16_">
				<g id="XMLID_21_">
					<path id="XMLID_684_" class="st6" d="M148.8,31h-0.5c-0.5,0-0.9-0.4-0.9-0.9V15c0-0.5,0.4-0.9,0.9-0.9h0.5
						c0.5,0,0.9,0.4,0.9,0.9v15C149.7,30.6,149.3,31,148.8,31"/>
					<circle id="XMLID_22_" class="st6" cx="148.6" cy="11.6" r="1.1"/>
				</g>
				<path id="XMLID_20_" class="st7" d="M159.6,15.5c-3.9,0-7,3.2-7,7v2.8v3.4V30c0,0.4,0.3,0.8,0.8,0.8h0.5c0.4,0,0.8-0.3,0.8-0.8
					v-1.3h0v-6.2c0-2.7,2.2-4.9,4.9-4.9s4.9,2.2,4.9,4.9v6.2h0V30c0,0.4,0.3,0.8,0.8,0.8h0.5c0.4,0,0.8-0.3,0.8-0.8v-1.3v-3.4v-2.8
					C166.6,18.7,163.5,15.5,159.6,15.5z"/>
				<path id="XMLID_425_" class="st6" d="M142.3,22.6c-0.3-2.9-2.9-5.1-5.8-4.8c-2.9,0.3-5.1,2.9-4.8,5.8c0.3,2.9,2.9,5.1,5.8,4.8
					C140.4,28.1,142.5,25.5,142.3,22.6z M144.5,22.4c0.4,4.2-2.7,7.9-6.9,8.3c-4.2,0.4-7.9-2.7-8.3-6.9c-0.4-4.2,2.7-7.9,6.9-8.3
					C140.4,15.1,144.2,18.2,144.5,22.4z"/>
			</g>
			<path id="XMLID_15_" class="st7" d="M126.5,25.2c0.3-0.6,0.1-1.3-0.4-1.7c-0.6-0.4-1.3-0.3-1.6,0.3l-0.8,1.3
				c-1.4,2.3-3.6,3.4-6.5,3.5c-2,0-3.8-0.7-5.2-2.1c-1.5-1.5-2.2-3.2-2.2-5.2s0.8-3.8,2.4-5.2c1.5-1.4,3.2-2.1,5.1-2.1
				c2.9,0.1,5,1.3,6.4,3.7c0.1,0.3,0.3,0.5,0.6,0.6c0.3,0.1,0.6,0.1,0.9,0.1c0.3,0,0.7-0.1,0.9-0.2c0.1-0.1,0.2-0.2,0.3-0.4
				c0.1-0.2,0-0.3,0-0.5c-0.1-0.3-0.3-0.7-0.4-1c-0.4-0.6-0.8-1.2-1.3-1.7c-0.2-0.2-0.4-0.4-0.6-0.6c-0.1-0.1-0.3-0.2-0.4-0.3
				c-0.3-0.2-0.5-0.4-0.8-0.6c-1.7-1-3.5-1.6-5.5-1.5c-2.7,0-5.1,1-7.1,3c-2,1.9-2.9,4.2-2.9,6.9c0,2.7,1,4.9,3,6.8
				c2,1.9,4.3,2.8,7,2.8c3.4,0,6.1-1.2,8-3.7c0.4-0.5,0.7-1,1-1.5L126.5,25.2z"/>
		</g>
	</g>
	<line id="XMLID_12_" class="st8" x1="176.5" y1="10.5" x2="176.5" y2="30.6"/>
	<g id="XMLID_5_">
		<g id="XMLID_8_">
			<path id="XMLID_10_" class="st7" d="M206.7,31h-0.2c-0.5,0-0.9-0.4-0.9-0.9v-5.4c0-0.1,0-0.3-0.1-0.4l-5.8-11.3
				c-0.3-0.6,0.1-1.3,0.8-1.3l0,0c0.3,0,0.6,0.2,0.8,0.5l4.4,8.8c0.3,0.7,1.3,0.7,1.6,0l4.4-8.8c0.2-0.3,0.5-0.5,0.8-0.5h0.1
				c0.7,0,1.1,0.7,0.8,1.3l-5.8,11.3c-0.1,0.1-0.1,0.3-0.1,0.4v5.4C207.6,30.6,207.2,31,206.7,31z"/>
			<path id="XMLID_2_" class="st7" d="M230.8,25.9h-0.1c-0.3,0-0.5,0.1-0.7,0.4c-1.6,2.1-3.7,3.1-6.5,3.1c-2.1,0-4-0.8-5.5-2.3
				c-1.5-1.5-2.3-3.4-2.4-5.6c0,0,0-0.1,0-0.1h0c0,0,0,0,0,0c0,0,0,0,0,0h0c0,0,0-0.1,0-0.1c0.1-2.2,0.9-4,2.4-5.6
				c1.6-1.6,3.4-2.3,5.5-2.3c2.7,0,4.9,1,6.5,3.1c0.2,0.2,0.4,0.4,0.7,0.4h0.1c0.7,0,1.2-0.8,0.7-1.4c-0.7-1-1.6-1.8-2.6-2.4
				c-1.6-1-3.3-1.5-5.2-1.5c-2.8,0-5.1,0.9-7,2.8c-2,1.9-2.9,4.3-2.9,7.1c0,0,0,0,0,0.1c0,0,0,0,0,0.1c0,2.8,1,5.2,2.9,7.1
				c1.9,1.9,4.2,2.8,7,2.8c1.9,0,3.7-0.5,5.2-1.5c1-0.7,1.9-1.5,2.6-2.4C231.9,26.8,231.5,25.9,230.8,25.9z"/>
		</g>
		<path id="XMLID_757_" class="st6" d="M187.7,30.9h-0.3c-0.3,0-0.6-0.5-0.6-1.1V12.7c0-0.6,0.3-1.1,0.6-1.1h0.3
			c0.3,0,0.6,0.5,0.6,1.1v17.2C188.3,30.5,188.1,30.9,187.7,30.9"/>
		<path id="XMLID_1_" class="st6" d="M198.2,12.9c-0.5-0.4-1-0.3-1.4,0.1l-7.3,7.9c0,0,0,0.1-0.1,0.1c0,0.1-0.1,0.1-0.1,0.2
			c0,0,0,0.1,0,0.1c-0.1,0.3-0.1,0.7,0.2,0.9l7,8.2c0.4,0.5,1,0.6,1.5,0.3l0,0c0.5-0.3,0.5-0.9,0.1-1.4l-6.5-7.8l6.8-7.5
			C198.8,13.7,198.7,13.3,198.2,12.9z"/>
	</g>
</g>
</svg>
