<?xml version="1.0" encoding="utf-8"?>
<!-- Generator: Adobe Illustrator 19.0.0, SVG Export Plug-In . SVG Version: 6.00 Build 0)  -->
<svg version="1.1" id="图层_1" xmlns="http://www.w3.org/2000/svg" xmlns:xlink="http://www.w3.org/1999/xlink" x="0px" y="0px"
	 viewBox="0 0 300 180" style="enable-background:new 0 0 300 180;" xml:space="preserve">
<style type="text/css">
	.st0{fill:#FFFFFF;}
	.st1{fill-rule:evenodd;clip-rule:evenodd;fill:#FFFFFF;}
</style>
<g id="XMLID_4_">
	<g>
		<path id="XMLID_3_" class="st0" d="M43,78.2h-7.4c-0.9,0-1.7,0.8-1.7,1.7v20.3c0,0.9,0.8,1.7,1.7,1.7H43c6.9,0,12.5-5.3,12.5-11.8
			C55.4,83.5,49.9,78.2,43,78.2z"/>
		<path class="st0" d="M42.8,47.7C19.4,47.7,0.4,66.6,0.4,90c0,23.4,18.9,42.3,42.3,42.3S85.1,113.4,85.1,90
			C85.1,66.6,66.1,47.7,42.8,47.7z M44.3,107.7v3c0,0.5-0.4,0.8-0.8,0.8h-2.1c-0.5,0-0.8-0.4-0.8-0.8v-3h-3.4v3
			c0,0.5-0.4,0.8-0.8,0.8h-2.1c-0.5,0-0.8-0.4-0.8-0.8v-3h-3.6c-0.9,0-1.7-0.8-1.7-1.7V73.9c0-0.9,0.8-1.7,1.7-1.7h3.6v-3
			c0-0.5,0.4-0.8,0.8-0.8h2.1c0.5,0,0.8,0.4,0.8,0.8v3h3.4v-3c0-0.5,0.4-0.8,0.8-0.8h2.1c0.5,0,0.8,0.4,0.8,0.8v3
			C54.1,73,61.8,80.6,61.8,90S54.1,107,44.3,107.7z"/>
	</g>
	<g>
		<g id="XMLID_689_">
			<path id="XMLID_696_" class="st1" d="M283.3,93.8v14.4c0,1.1,0.9,2,2,2h1c1.1,0,2-0.9,2-2V93.8c0-5.7,4.2-10.4,9.6-11.3
				c1-0.2,1.7-1,1.7-2v-1c0-1.2-1-2.1-2.2-2C289.4,78.7,283.3,85.5,283.3,93.8"/>
			<path id="XMLID_695_" class="st1" d="M239.8,110.5h-1c-1.1,0-2-0.9-2-2V71c0-1.1,0.9-2,2-2h1c1.1,0,2,0.9,2,2v37.6
				C241.7,109.6,240.9,110.5,239.8,110.5"/>
			<path id="XMLID_694_" class="st1" d="M229.6,110.5h-1c-1.1,0-2-0.9-2-2V71c0-1.1,0.9-2,2-2h1c1.1,0,2,0.9,2,2v37.6
				C231.5,109.6,230.7,110.5,229.6,110.5"/>
			<path id="XMLID_691_" class="st1" d="M274.7,109.7c-1.1,0-2-0.9-2-1.9V81.1c0-1.1,0.9-1.9,2-1.9h1c1.1,0,2,0.9,2,1.9v26.7
				c0,1.1-0.9,1.9-2,1.9H274.7z M271.1,107.7c-2.1,1.3-4.5,2.1-7.1,2.4c-9,0.8-16.9-5.8-17.7-14.7c-0.8-9,5.8-16.9,14.7-17.7
				c3.7-0.3,7.2,0.6,10.1,2.4v6.3c-2.3-2.6-5.8-4.2-9.6-3.8c-6.3,0.6-10.9,6.1-10.3,12.4c0.6,6.3,6.1,10.9,12.4,10.3
				c3-0.3,5.7-1.7,7.5-3.8V107.7z"/>
		</g>
		<g id="XMLID_679_">
			<path id="XMLID_686_" class="st1" d="M180.1,109.7c-1.1,0-2-0.9-2-1.9V81.1c0-1.1,0.9-1.9,2-1.9h1c1.1,0,2,0.9,2,1.9v26.7
				c0,1.1-0.9,1.9-2,1.9H180.1z M176.5,107.7c-2.1,1.3-4.5,2.1-7.1,2.4c-9,0.8-16.9-5.8-17.7-14.7c-0.8-9,5.8-16.9,14.7-17.7
				c3.7-0.3,7.2,0.6,10.1,2.4v6.3c-2.3-2.6-5.8-4.2-9.6-3.8c-6.3,0.6-10.9,6.1-10.3,12.4c0.6,6.3,6.1,10.9,12.4,10.3
				c3-0.3,5.7-1.7,7.5-3.8V107.7z"/>
			<path id="XMLID_683_" class="st1" d="M216.9,92.7c-0.6-6.3-6.1-10.9-12.4-10.3c-6.3,0.6-10.9,6.1-10.3,12.4
				c0.6,6.3,6.1,10.9,12.4,10.3C212.8,104.5,217.5,99,216.9,92.7z M221.8,92.3c0.8,9-5.8,16.9-14.7,17.7c-9,0.8-16.9-5.8-17.7-14.7
				c-0.8-9,5.8-16.9,14.7-17.7C213,76.7,220.9,83.3,221.8,92.3z"/>
			<path id="XMLID_680_" class="st1" d="M126.4,73.8h-12.7v31.8h12.7C147.1,105.6,148,73.8,126.4,73.8z M127.3,110.5H113
				c-2,0-4.1-1.1-4.1-3.7V72.7c0-2.2,2.2-3.7,4.1-3.7h13.8C154.2,68.9,153.6,110.5,127.3,110.5z"/>
		</g>
	</g>
</g>
</svg>
