<?xml version="1.0" encoding="utf-8"?>
<!-- Generator: Adobe Illustrator 19.0.0, SVG Export Plug-In . SVG Version: 6.00 Build 0)  -->
<svg version="1.1" id="图层_1" xmlns="http://www.w3.org/2000/svg" xmlns:xlink="http://www.w3.org/1999/xlink" x="0px" y="0px"
	 viewBox="0 0 215.4 61" style="enable-background:new 0 0 215.4 61;" xml:space="preserve">
<style type="text/css">
	.st0{fill-rule:evenodd;clip-rule:evenodd;fill:#384C93;}
	.st1{fill-rule:evenodd;clip-rule:evenodd;fill:url(#XMLID_132_);}
	.st2{fill-rule:evenodd;clip-rule:evenodd;fill:url(#XMLID_133_);}
	.st3{fill-rule:evenodd;clip-rule:evenodd;fill:url(#XMLID_134_);}
	.st4{fill:url(#XMLID_135_);}
	.st5{clip-path:url(#XMLID_136_);}
	.st6{clip-path:url(#XMLID_137_);fill:#FFFFFF;}
</style>
<g id="XMLID_3_">
	<g id="XMLID_22_">
		<path id="XMLID_28_" class="st0" d="M203.7,33.4v10.4c0,0.8,0.6,1.4,1.4,1.4h0.7c0.8,0,1.4-0.6,1.4-1.4V33.4c0-4.1,3-7.5,6.9-8.1
			c0.7-0.1,1.2-0.7,1.2-1.4v-0.7c0-0.9-0.7-1.5-1.6-1.4C208.1,22.5,203.7,27.5,203.7,33.4"/>
		<path id="XMLID_27_" class="st0" d="M172.4,45.5h-0.7c-0.8,0-1.4-0.6-1.4-1.4V16.9c0-0.8,0.6-1.4,1.4-1.4h0.7
			c0.8,0,1.4,0.6,1.4,1.4V44C173.8,44.8,173.2,45.5,172.4,45.5"/>
		<path id="XMLID_26_" class="st0" d="M165,45.5h-0.7c-0.8,0-1.4-0.6-1.4-1.4V16.9c0-0.8,0.6-1.4,1.4-1.4h0.7c0.8,0,1.4,0.6,1.4,1.4
			V44C166.5,44.8,165.8,45.5,165,45.5"/>
		<path id="XMLID_23_" class="st0" d="M197.5,44.9c-0.8,0-1.4-0.6-1.4-1.4V24.2c0-0.8,0.6-1.4,1.4-1.4h0.7c0.8,0,1.4,0.6,1.4,1.4
			v19.2c0,0.8-0.6,1.4-1.4,1.4H197.5z M194.9,43.4c-1.5,0.9-3.2,1.5-5.1,1.7c-6.4,0.6-12.2-4.2-12.8-10.6
			c-0.6-6.4,4.2-12.2,10.6-12.8c2.6-0.2,5.2,0.4,7.2,1.7V28c-1.7-1.9-4.2-3-6.9-2.7c-4.5,0.4-7.8,4.4-7.4,8.9
			c0.4,4.5,4.4,7.8,8.9,7.4c2.2-0.2,4.1-1.2,5.4-2.7V43.4z"/>
	</g>
	<g id="XMLID_12_">
		<linearGradient id="XMLID_132_" gradientUnits="userSpaceOnUse" x1="110.8913" y1="29.9785" x2="135.1553" y2="37.0785">
			<stop  offset="1.137031e-03" style="stop-color:#3D31E6"/>
			<stop  offset="1" style="stop-color:#3D90FB"/>
		</linearGradient>
		<path id="XMLID_19_" class="st1" d="M129.4,44.9c-0.8,0-1.4-0.6-1.4-1.4V24.2c0-0.8,0.6-1.4,1.4-1.4h0.7c0.8,0,1.4,0.6,1.4,1.4
			v19.2c0,0.8-0.6,1.4-1.4,1.4H129.4z M126.8,43.4c-1.5,0.9-3.2,1.5-5.1,1.7c-6.4,0.6-12.2-4.2-12.8-10.6
			c-0.6-6.4,4.2-12.2,10.6-12.8c2.6-0.2,5.2,0.4,7.2,1.7V28c-1.7-1.9-4.2-3-6.9-2.7c-4.5,0.4-7.8,4.4-7.4,8.9
			c0.4,4.5,4.4,7.8,8.9,7.4c2.2-0.2,4.1-1.2,5.4-2.7V43.4z"/>
		<linearGradient id="XMLID_133_" gradientUnits="userSpaceOnUse" x1="136.4067" y1="30.0654" x2="155.5251" y2="35.6597">
			<stop  offset="1.137031e-03" style="stop-color:#3D31E6"/>
			<stop  offset="1" style="stop-color:#3D90FB"/>
		</linearGradient>
		<path id="XMLID_16_" class="st2" d="M155.9,32.6c-0.4-4.5-4.4-7.8-8.9-7.4c-4.5,0.4-7.8,4.4-7.4,8.9c0.4,4.5,4.4,7.8,8.9,7.4
			C153,41.1,156.3,37.1,155.9,32.6z M159.4,32.3c0.6,6.4-4.2,12.2-10.6,12.8c-6.4,0.6-12.2-4.2-12.8-10.6
			c-0.6-6.4,4.2-12.2,10.6-12.8C153.1,21.1,158.8,25.8,159.4,32.3z"/>
		<linearGradient id="XMLID_134_" gradientUnits="userSpaceOnUse" x1="82.7155" y1="29.2258" x2="151.3964" y2="49.3227">
			<stop  offset="1.137031e-03" style="stop-color:#3D31E6"/>
			<stop  offset="1" style="stop-color:#3D90FB"/>
		</linearGradient>
		<path id="XMLID_13_" class="st3" d="M90.8,19h-9.1v22.9h9.1C105.6,41.9,106.3,19,90.8,19z M91.4,45.5H81.1c-1.4,0-3-0.8-3-2.7
			V18.2c0-1.6,1.6-2.7,3-2.7H91C110.7,15.5,110.3,45.5,91.4,45.5z"/>
	</g>
	<linearGradient id="XMLID_135_" gradientUnits="userSpaceOnUse" x1="24.1633" y1="13.6355" x2="39.9677" y2="55.7806">
		<stop  offset="1.137031e-03" style="stop-color:#3D31E6"/>
		<stop  offset="1" style="stop-color:#3D90FB"/>
	</linearGradient>
	<circle id="XMLID_11_" class="st4" cx="30.5" cy="30.5" r="30.5"/>
	<g id="XMLID_1_">
		<defs>
			<path id="XMLID_4_" d="M25.3,21.9c-0.7,0-1.2,0.5-1.2,1.2v14.6c0,0.7,0.5,1.2,1.2,1.2h5.3c5,0,9-3.8,9-8.5c0-4.7-4-8.5-9-8.5
				H25.3z M28.8,43.3h-2.4v2.1c0,0.3-0.3,0.6-0.6,0.6h-1.5c-0.3,0-0.6-0.3-0.6-0.6v-2.1H21c-0.7,0-1.2-0.5-1.2-1.2V18.9
				c0-0.7,0.5-1.2,1.2-1.2h2.6v-2.1c0-0.3,0.3-0.6,0.6-0.6h1.5c0.3,0,0.6,0.3,0.6,0.6v2.1h2.4v-2.1c0-0.3,0.3-0.6,0.6-0.6H31
				c0.3,0,0.6,0.3,0.6,0.6v2.2c7.1,0.5,12.6,6,12.6,12.8s-5.6,12.3-12.6,12.8v2.2c0,0.3-0.3,0.6-0.6,0.6h-1.5
				c-0.3,0-0.6-0.3-0.6-0.6V43.3z"/>
		</defs>
		<clipPath id="XMLID_136_">
			<use xlink:href="#XMLID_4_"  style="overflow:visible;"/>
		</clipPath>
		<g id="XMLID_7_" class="st5">
			<defs>
				<rect id="XMLID_9_" x="-152.7" y="-83.2" width="859.5" height="457.2"/>
			</defs>
			<clipPath id="XMLID_137_">
				<use xlink:href="#XMLID_9_"  style="overflow:visible;"/>
			</clipPath>
			<rect id="XMLID_10_" x="18.3" y="13.4" class="st6" width="27.4" height="34.1"/>
		</g>
	</g>
</g>
</svg>
